<?xml version="1.0" encoding="utf-8" standalone="no"?>
<!DOCTYPE svg PUBLIC "-//W3C//DTD SVG 1.1//EN"
  "http://www.w3.org/Graphics/SVG/1.1/DTD/svg11.dtd">
<svg xmlns:xlink="http://www.w3.org/1999/xlink" width="1080pt" height="288pt" viewBox="0 0 1080 288" xmlns="http://www.w3.org/2000/svg" version="1.1">
 <metadata>
  <rdf:RDF xmlns:dc="http://purl.org/dc/elements/1.1/" xmlns:cc="http://creativecommons.org/ns#" xmlns:rdf="http://www.w3.org/1999/02/22-rdf-syntax-ns#">
   <cc:Work>
    <dc:type rdf:resource="http://purl.org/dc/dcmitype/StillImage"/>
    <dc:date>2026-05-01T13:06:29.058690</dc:date>
    <dc:format>image/svg+xml</dc:format>
    <dc:creator>
     <cc:Agent>
      <dc:title>Matplotlib v3.7.3, https://matplotlib.org/</dc:title>
     </cc:Agent>
    </dc:creator>
   </cc:Work>
  </rdf:RDF>
 </metadata>
 <defs>
  <style type="text/css">*{stroke-linejoin: round; stroke-linecap: butt}</style>
 </defs>
 <g id="figure_1">
  <g id="patch_1">
   <path d="M 0 288 
L 1080 288 
L 1080 0 
L 0 0 
z
" style="fill: #ffffff"/>
  </g>
  <g id="axes_1">
   <g id="patch_2">
    <path d="M 135 256.32 
L 972 256.32 
L 972 34.56 
L 135 34.56 
z
" style="fill: #ffffff"/>
   </g>
   <g id="matplotlib.axis_1">
    <g id="xtick_1">
     <g id="line2d_1">
      <defs>
       <path id="m018324af2f" d="M 0 0 
L 0 3.5 
" style="stroke: #000000; stroke-width: 0.8"/>
      </defs>
      <g>
       <use xlink:href="#m018324af2f" x="135" y="256.32" style="stroke: #000000; stroke-width: 0.8"/>
      </g>
     </g>
     <g id="text_1">
      <!-- 9.5 -->
      <g transform="translate(127.048438 270.918437) scale(0.1 -0.1)">
       <defs>
        <path id="DejaVuSans-39" d="M 703 97 
L 703 672 
Q 941 559 1184 500 
Q 1428 441 1663 441 
Q 2288 441 2617 861 
Q 2947 1281 2994 2138 
Q 2813 1869 2534 1725 
Q 2256 1581 1919 1581 
Q 1219 1581 811 2004 
Q 403 2428 403 3163 
Q 403 3881 828 4315 
Q 1253 4750 1959 4750 
Q 2769 4750 3195 4129 
Q 3622 3509 3622 2328 
Q 3622 1225 3098 567 
Q 2575 -91 1691 -91 
Q 1453 -91 1209 -44 
Q 966 3 703 97 
z
M 1959 2075 
Q 2384 2075 2632 2365 
Q 2881 2656 2881 3163 
Q 2881 3666 2632 3958 
Q 2384 4250 1959 4250 
Q 1534 4250 1286 3958 
Q 1038 3666 1038 3163 
Q 1038 2656 1286 2365 
Q 1534 2075 1959 2075 
z
" transform="scale(0.015625)"/>
        <path id="DejaVuSans-2e" d="M 684 794 
L 1344 794 
L 1344 0 
L 684 0 
L 684 794 
z
" transform="scale(0.015625)"/>
        <path id="DejaVuSans-35" d="M 691 4666 
L 3169 4666 
L 3169 4134 
L 1269 4134 
L 1269 2991 
Q 1406 3038 1543 3061 
Q 1681 3084 1819 3084 
Q 2600 3084 3056 2656 
Q 3513 2228 3513 1497 
Q 3513 744 3044 326 
Q 2575 -91 1722 -91 
Q 1428 -91 1123 -41 
Q 819 9 494 109 
L 494 744 
Q 775 591 1075 516 
Q 1375 441 1709 441 
Q 2250 441 2565 725 
Q 2881 1009 2881 1497 
Q 2881 1984 2565 2268 
Q 2250 2553 1709 2553 
Q 1456 2553 1204 2497 
Q 953 2441 691 2322 
L 691 4666 
z
" transform="scale(0.015625)"/>
       </defs>
       <use xlink:href="#DejaVuSans-39"/>
       <use xlink:href="#DejaVuSans-2e" x="63.623047"/>
       <use xlink:href="#DejaVuSans-35" x="95.410156"/>
      </g>
     </g>
    </g>
    <g id="xtick_2">
     <g id="line2d_2">
      <g>
       <use xlink:href="#m018324af2f" x="254.571429" y="256.32" style="stroke: #000000; stroke-width: 0.8"/>
      </g>
     </g>
     <g id="text_2">
      <!-- 10.0 -->
      <g transform="translate(243.438616 270.918437) scale(0.1 -0.1)">
       <defs>
        <path id="DejaVuSans-31" d="M 794 531 
L 1825 531 
L 1825 4091 
L 703 3866 
L 703 4441 
L 1819 4666 
L 2450 4666 
L 2450 531 
L 3481 531 
L 3481 0 
L 794 0 
L 794 531 
z
" transform="scale(0.015625)"/>
        <path id="DejaVuSans-30" d="M 2034 4250 
Q 1547 4250 1301 3770 
Q 1056 3291 1056 2328 
Q 1056 1369 1301 889 
Q 1547 409 2034 409 
Q 2525 409 2770 889 
Q 3016 1369 3016 2328 
Q 3016 3291 2770 3770 
Q 2525 4250 2034 4250 
z
M 2034 4750 
Q 2819 4750 3233 4129 
Q 3647 3509 3647 2328 
Q 3647 1150 3233 529 
Q 2819 -91 2034 -91 
Q 1250 -91 836 529 
Q 422 1150 422 2328 
Q 422 3509 836 4129 
Q 1250 4750 2034 4750 
z
" transform="scale(0.015625)"/>
       </defs>
       <use xlink:href="#DejaVuSans-31"/>
       <use xlink:href="#DejaVuSans-30" x="63.623047"/>
       <use xlink:href="#DejaVuSans-2e" x="127.246094"/>
       <use xlink:href="#DejaVuSans-30" x="159.033203"/>
      </g>
     </g>
    </g>
    <g id="xtick_3">
     <g id="line2d_3">
      <g>
       <use xlink:href="#m018324af2f" x="374.142857" y="256.32" style="stroke: #000000; stroke-width: 0.8"/>
      </g>
     </g>
     <g id="text_3">
      <!-- 10.5 -->
      <g transform="translate(363.010045 270.918437) scale(0.1 -0.1)">
       <use xlink:href="#DejaVuSans-31"/>
       <use xlink:href="#DejaVuSans-30" x="63.623047"/>
       <use xlink:href="#DejaVuSans-2e" x="127.246094"/>
       <use xlink:href="#DejaVuSans-35" x="159.033203"/>
      </g>
     </g>
    </g>
    <g id="xtick_4">
     <g id="line2d_4">
      <g>
       <use xlink:href="#m018324af2f" x="493.714286" y="256.32" style="stroke: #000000; stroke-width: 0.8"/>
      </g>
     </g>
     <g id="text_4">
      <!-- 11.0 -->
      <g transform="translate(482.581473 270.918437) scale(0.1 -0.1)">
       <use xlink:href="#DejaVuSans-31"/>
       <use xlink:href="#DejaVuSans-31" x="63.623047"/>
       <use xlink:href="#DejaVuSans-2e" x="127.246094"/>
       <use xlink:href="#DejaVuSans-30" x="159.033203"/>
      </g>
     </g>
    </g>
    <g id="xtick_5">
     <g id="line2d_5">
      <g>
       <use xlink:href="#m018324af2f" x="613.285714" y="256.32" style="stroke: #000000; stroke-width: 0.8"/>
      </g>
     </g>
     <g id="text_5">
      <!-- 11.5 -->
      <g transform="translate(602.152902 270.918437) scale(0.1 -0.1)">
       <use xlink:href="#DejaVuSans-31"/>
       <use xlink:href="#DejaVuSans-31" x="63.623047"/>
       <use xlink:href="#DejaVuSans-2e" x="127.246094"/>
       <use xlink:href="#DejaVuSans-35" x="159.033203"/>
      </g>
     </g>
    </g>
    <g id="xtick_6">
     <g id="line2d_6">
      <g>
       <use xlink:href="#m018324af2f" x="732.857143" y="256.32" style="stroke: #000000; stroke-width: 0.8"/>
      </g>
     </g>
     <g id="text_6">
      <!-- 12.0 -->
      <g transform="translate(721.72433 270.918437) scale(0.1 -0.1)">
       <defs>
        <path id="DejaVuSans-32" d="M 1228 531 
L 3431 531 
L 3431 0 
L 469 0 
L 469 531 
Q 828 903 1448 1529 
Q 2069 2156 2228 2338 
Q 2531 2678 2651 2914 
Q 2772 3150 2772 3378 
Q 2772 3750 2511 3984 
Q 2250 4219 1831 4219 
Q 1534 4219 1204 4116 
Q 875 4013 500 3803 
L 500 4441 
Q 881 4594 1212 4672 
Q 1544 4750 1819 4750 
Q 2544 4750 2975 4387 
Q 3406 4025 3406 3419 
Q 3406 3131 3298 2873 
Q 3191 2616 2906 2266 
Q 2828 2175 2409 1742 
Q 1991 1309 1228 531 
z
" transform="scale(0.015625)"/>
       </defs>
       <use xlink:href="#DejaVuSans-31"/>
       <use xlink:href="#DejaVuSans-32" x="63.623047"/>
       <use xlink:href="#DejaVuSans-2e" x="127.246094"/>
       <use xlink:href="#DejaVuSans-30" x="159.033203"/>
      </g>
     </g>
    </g>
    <g id="xtick_7">
     <g id="line2d_7">
      <g>
       <use xlink:href="#m018324af2f" x="852.428571" y="256.32" style="stroke: #000000; stroke-width: 0.8"/>
      </g>
     </g>
     <g id="text_7">
      <!-- 12.5 -->
      <g transform="translate(841.295759 270.918437) scale(0.1 -0.1)">
       <use xlink:href="#DejaVuSans-31"/>
       <use xlink:href="#DejaVuSans-32" x="63.623047"/>
       <use xlink:href="#DejaVuSans-2e" x="127.246094"/>
       <use xlink:href="#DejaVuSans-35" x="159.033203"/>
      </g>
     </g>
    </g>
    <g id="xtick_8">
     <g id="line2d_8">
      <g>
       <use xlink:href="#m018324af2f" x="972" y="256.32" style="stroke: #000000; stroke-width: 0.8"/>
      </g>
     </g>
     <g id="text_8">
      <!-- 13.0 -->
      <g transform="translate(960.867188 270.918437) scale(0.1 -0.1)">
       <defs>
        <path id="DejaVuSans-33" d="M 2597 2516 
Q 3050 2419 3304 2112 
Q 3559 1806 3559 1356 
Q 3559 666 3084 287 
Q 2609 -91 1734 -91 
Q 1441 -91 1130 -33 
Q 819 25 488 141 
L 488 750 
Q 750 597 1062 519 
Q 1375 441 1716 441 
Q 2309 441 2620 675 
Q 2931 909 2931 1356 
Q 2931 1769 2642 2001 
Q 2353 2234 1838 2234 
L 1294 2234 
L 1294 2753 
L 1863 2753 
Q 2328 2753 2575 2939 
Q 2822 3125 2822 3475 
Q 2822 3834 2567 4026 
Q 2313 4219 1838 4219 
Q 1578 4219 1281 4162 
Q 984 4106 628 3988 
L 628 4550 
Q 988 4650 1302 4700 
Q 1616 4750 1894 4750 
Q 2613 4750 3031 4423 
Q 3450 4097 3450 3541 
Q 3450 3153 3228 2886 
Q 3006 2619 2597 2516 
z
" transform="scale(0.015625)"/>
       </defs>
       <use xlink:href="#DejaVuSans-31"/>
       <use xlink:href="#DejaVuSans-33" x="63.623047"/>
       <use xlink:href="#DejaVuSans-2e" x="127.246094"/>
       <use xlink:href="#DejaVuSans-30" x="159.033203"/>
      </g>
     </g>
    </g>
    <g id="text_9">
     <!-- Time (s) -->
     <g transform="translate(533.171094 284.596563) scale(0.1 -0.1)">
      <defs>
       <path id="DejaVuSans-54" d="M -19 4666 
L 3928 4666 
L 3928 4134 
L 2272 4134 
L 2272 0 
L 1638 0 
L 1638 4134 
L -19 4134 
L -19 4666 
z
" transform="scale(0.015625)"/>
       <path id="DejaVuSans-69" d="M 603 3500 
L 1178 3500 
L 1178 0 
L 603 0 
L 603 3500 
z
M 603 4863 
L 1178 4863 
L 1178 4134 
L 603 4134 
L 603 4863 
z
" transform="scale(0.015625)"/>
       <path id="DejaVuSans-6d" d="M 3328 2828 
Q 3544 3216 3844 3400 
Q 4144 3584 4550 3584 
Q 5097 3584 5394 3201 
Q 5691 2819 5691 2113 
L 5691 0 
L 5113 0 
L 5113 2094 
Q 5113 2597 4934 2840 
Q 4756 3084 4391 3084 
Q 3944 3084 3684 2787 
Q 3425 2491 3425 1978 
L 3425 0 
L 2847 0 
L 2847 2094 
Q 2847 2600 2669 2842 
Q 2491 3084 2119 3084 
Q 1678 3084 1418 2786 
Q 1159 2488 1159 1978 
L 1159 0 
L 581 0 
L 581 3500 
L 1159 3500 
L 1159 2956 
Q 1356 3278 1631 3431 
Q 1906 3584 2284 3584 
Q 2666 3584 2933 3390 
Q 3200 3197 3328 2828 
z
" transform="scale(0.015625)"/>
       <path id="DejaVuSans-65" d="M 3597 1894 
L 3597 1613 
L 953 1613 
Q 991 1019 1311 708 
Q 1631 397 2203 397 
Q 2534 397 2845 478 
Q 3156 559 3463 722 
L 3463 178 
Q 3153 47 2828 -22 
Q 2503 -91 2169 -91 
Q 1331 -91 842 396 
Q 353 884 353 1716 
Q 353 2575 817 3079 
Q 1281 3584 2069 3584 
Q 2775 3584 3186 3129 
Q 3597 2675 3597 1894 
z
M 3022 2063 
Q 3016 2534 2758 2815 
Q 2500 3097 2075 3097 
Q 1594 3097 1305 2825 
Q 1016 2553 972 2059 
L 3022 2063 
z
" transform="scale(0.015625)"/>
       <path id="DejaVuSans-20" transform="scale(0.015625)"/>
       <path id="DejaVuSans-28" d="M 1984 4856 
Q 1566 4138 1362 3434 
Q 1159 2731 1159 2009 
Q 1159 1288 1364 580 
Q 1569 -128 1984 -844 
L 1484 -844 
Q 1016 -109 783 600 
Q 550 1309 550 2009 
Q 550 2706 781 3412 
Q 1013 4119 1484 4856 
L 1984 4856 
z
" transform="scale(0.015625)"/>
       <path id="DejaVuSans-73" d="M 2834 3397 
L 2834 2853 
Q 2591 2978 2328 3040 
Q 2066 3103 1784 3103 
Q 1356 3103 1142 2972 
Q 928 2841 928 2578 
Q 928 2378 1081 2264 
Q 1234 2150 1697 2047 
L 1894 2003 
Q 2506 1872 2764 1633 
Q 3022 1394 3022 966 
Q 3022 478 2636 193 
Q 2250 -91 1575 -91 
Q 1294 -91 989 -36 
Q 684 19 347 128 
L 347 722 
Q 666 556 975 473 
Q 1284 391 1588 391 
Q 1994 391 2212 530 
Q 2431 669 2431 922 
Q 2431 1156 2273 1281 
Q 2116 1406 1581 1522 
L 1381 1569 
Q 847 1681 609 1914 
Q 372 2147 372 2553 
Q 372 3047 722 3315 
Q 1072 3584 1716 3584 
Q 2034 3584 2315 3537 
Q 2597 3491 2834 3397 
z
" transform="scale(0.015625)"/>
       <path id="DejaVuSans-29" d="M 513 4856 
L 1013 4856 
Q 1481 4119 1714 3412 
Q 1947 2706 1947 2009 
Q 1947 1309 1714 600 
Q 1481 -109 1013 -844 
L 513 -844 
Q 928 -128 1133 580 
Q 1338 1288 1338 2009 
Q 1338 2731 1133 3434 
Q 928 4138 513 4856 
z
" transform="scale(0.015625)"/>
      </defs>
      <use xlink:href="#DejaVuSans-54"/>
      <use xlink:href="#DejaVuSans-69" x="57.958984"/>
      <use xlink:href="#DejaVuSans-6d" x="85.742188"/>
      <use xlink:href="#DejaVuSans-65" x="183.154297"/>
      <use xlink:href="#DejaVuSans-20" x="244.677734"/>
      <use xlink:href="#DejaVuSans-28" x="276.464844"/>
      <use xlink:href="#DejaVuSans-73" x="315.478516"/>
      <use xlink:href="#DejaVuSans-29" x="367.578125"/>
     </g>
    </g>
   </g>
   <g id="matplotlib.axis_2">
    <g id="ytick_1">
     <g id="line2d_9">
      <defs>
       <path id="m6e55024b97" d="M 0 0 
L -3.5 0 
" style="stroke: #000000; stroke-width: 0.8"/>
      </defs>
      <g>
       <use xlink:href="#m6e55024b97" x="135" y="242.668085" style="stroke: #000000; stroke-width: 0.8"/>
      </g>
     </g>
     <g id="text_10">
      <!-- −0.6 -->
      <g transform="translate(103.717187 246.467304) scale(0.1 -0.1)">
       <defs>
        <path id="DejaVuSans-2212" d="M 678 2272 
L 4684 2272 
L 4684 1741 
L 678 1741 
L 678 2272 
z
" transform="scale(0.015625)"/>
        <path id="DejaVuSans-36" d="M 2113 2584 
Q 1688 2584 1439 2293 
Q 1191 2003 1191 1497 
Q 1191 994 1439 701 
Q 1688 409 2113 409 
Q 2538 409 2786 701 
Q 3034 994 3034 1497 
Q 3034 2003 2786 2293 
Q 2538 2584 2113 2584 
z
M 3366 4563 
L 3366 3988 
Q 3128 4100 2886 4159 
Q 2644 4219 2406 4219 
Q 1781 4219 1451 3797 
Q 1122 3375 1075 2522 
Q 1259 2794 1537 2939 
Q 1816 3084 2150 3084 
Q 2853 3084 3261 2657 
Q 3669 2231 3669 1497 
Q 3669 778 3244 343 
Q 2819 -91 2113 -91 
Q 1303 -91 875 529 
Q 447 1150 447 2328 
Q 447 3434 972 4092 
Q 1497 4750 2381 4750 
Q 2619 4750 2861 4703 
Q 3103 4656 3366 4563 
z
" transform="scale(0.015625)"/>
       </defs>
       <use xlink:href="#DejaVuSans-2212"/>
       <use xlink:href="#DejaVuSans-30" x="83.789062"/>
       <use xlink:href="#DejaVuSans-2e" x="147.412109"/>
       <use xlink:href="#DejaVuSans-36" x="179.199219"/>
      </g>
     </g>
    </g>
    <g id="ytick_2">
     <g id="line2d_10">
      <g>
       <use xlink:href="#m6e55024b97" x="135" y="215.375937" style="stroke: #000000; stroke-width: 0.8"/>
      </g>
     </g>
     <g id="text_11">
      <!-- −0.4 -->
      <g transform="translate(103.717187 219.175155) scale(0.1 -0.1)">
       <defs>
        <path id="DejaVuSans-34" d="M 2419 4116 
L 825 1625 
L 2419 1625 
L 2419 4116 
z
M 2253 4666 
L 3047 4666 
L 3047 1625 
L 3713 1625 
L 3713 1100 
L 3047 1100 
L 3047 0 
L 2419 0 
L 2419 1100 
L 313 1100 
L 313 1709 
L 2253 4666 
z
" transform="scale(0.015625)"/>
       </defs>
       <use xlink:href="#DejaVuSans-2212"/>
       <use xlink:href="#DejaVuSans-30" x="83.789062"/>
       <use xlink:href="#DejaVuSans-2e" x="147.412109"/>
       <use xlink:href="#DejaVuSans-34" x="179.199219"/>
      </g>
     </g>
    </g>
    <g id="ytick_3">
     <g id="line2d_11">
      <g>
       <use xlink:href="#m6e55024b97" x="135" y="188.083788" style="stroke: #000000; stroke-width: 0.8"/>
      </g>
     </g>
     <g id="text_12">
      <!-- −0.2 -->
      <g transform="translate(103.717187 191.883007) scale(0.1 -0.1)">
       <use xlink:href="#DejaVuSans-2212"/>
       <use xlink:href="#DejaVuSans-30" x="83.789062"/>
       <use xlink:href="#DejaVuSans-2e" x="147.412109"/>
       <use xlink:href="#DejaVuSans-32" x="179.199219"/>
      </g>
     </g>
    </g>
    <g id="ytick_4">
     <g id="line2d_12">
      <g>
       <use xlink:href="#m6e55024b97" x="135" y="160.79164" style="stroke: #000000; stroke-width: 0.8"/>
      </g>
     </g>
     <g id="text_13">
      <!-- 0.0 -->
      <g transform="translate(112.096875 164.590859) scale(0.1 -0.1)">
       <use xlink:href="#DejaVuSans-30"/>
       <use xlink:href="#DejaVuSans-2e" x="63.623047"/>
       <use xlink:href="#DejaVuSans-30" x="95.410156"/>
      </g>
     </g>
    </g>
    <g id="ytick_5">
     <g id="line2d_13">
      <g>
       <use xlink:href="#m6e55024b97" x="135" y="133.499492" style="stroke: #000000; stroke-width: 0.8"/>
      </g>
     </g>
     <g id="text_14">
      <!-- 0.2 -->
      <g transform="translate(112.096875 137.29871) scale(0.1 -0.1)">
       <use xlink:href="#DejaVuSans-30"/>
       <use xlink:href="#DejaVuSans-2e" x="63.623047"/>
       <use xlink:href="#DejaVuSans-32" x="95.410156"/>
      </g>
     </g>
    </g>
    <g id="ytick_6">
     <g id="line2d_14">
      <g>
       <use xlink:href="#m6e55024b97" x="135" y="106.207343" style="stroke: #000000; stroke-width: 0.8"/>
      </g>
     </g>
     <g id="text_15">
      <!-- 0.4 -->
      <g transform="translate(112.096875 110.006562) scale(0.1 -0.1)">
       <use xlink:href="#DejaVuSans-30"/>
       <use xlink:href="#DejaVuSans-2e" x="63.623047"/>
       <use xlink:href="#DejaVuSans-34" x="95.410156"/>
      </g>
     </g>
    </g>
    <g id="ytick_7">
     <g id="line2d_15">
      <g>
       <use xlink:href="#m6e55024b97" x="135" y="78.915195" style="stroke: #000000; stroke-width: 0.8"/>
      </g>
     </g>
     <g id="text_16">
      <!-- 0.6 -->
      <g transform="translate(112.096875 82.714414) scale(0.1 -0.1)">
       <use xlink:href="#DejaVuSans-30"/>
       <use xlink:href="#DejaVuSans-2e" x="63.623047"/>
       <use xlink:href="#DejaVuSans-36" x="95.410156"/>
      </g>
     </g>
    </g>
    <g id="ytick_8">
     <g id="line2d_16">
      <g>
       <use xlink:href="#m6e55024b97" x="135" y="51.623047" style="stroke: #000000; stroke-width: 0.8"/>
      </g>
     </g>
     <g id="text_17">
      <!-- 0.8 -->
      <g transform="translate(112.096875 55.422265) scale(0.1 -0.1)">
       <defs>
        <path id="DejaVuSans-38" d="M 2034 2216 
Q 1584 2216 1326 1975 
Q 1069 1734 1069 1313 
Q 1069 891 1326 650 
Q 1584 409 2034 409 
Q 2484 409 2743 651 
Q 3003 894 3003 1313 
Q 3003 1734 2745 1975 
Q 2488 2216 2034 2216 
z
M 1403 2484 
Q 997 2584 770 2862 
Q 544 3141 544 3541 
Q 544 4100 942 4425 
Q 1341 4750 2034 4750 
Q 2731 4750 3128 4425 
Q 3525 4100 3525 3541 
Q 3525 3141 3298 2862 
Q 3072 2584 2669 2484 
Q 3125 2378 3379 2068 
Q 3634 1759 3634 1313 
Q 3634 634 3220 271 
Q 2806 -91 2034 -91 
Q 1263 -91 848 271 
Q 434 634 434 1313 
Q 434 1759 690 2068 
Q 947 2378 1403 2484 
z
M 1172 3481 
Q 1172 3119 1398 2916 
Q 1625 2713 2034 2713 
Q 2441 2713 2670 2916 
Q 2900 3119 2900 3481 
Q 2900 3844 2670 4047 
Q 2441 4250 2034 4250 
Q 1625 4250 1398 4047 
Q 1172 3844 1172 3481 
z
" transform="scale(0.015625)"/>
       </defs>
       <use xlink:href="#DejaVuSans-30"/>
       <use xlink:href="#DejaVuSans-2e" x="63.623047"/>
       <use xlink:href="#DejaVuSans-38" x="95.410156"/>
      </g>
     </g>
    </g>
    <g id="text_18">
     <!-- Hip Moment (N-m/kg) -->
     <g transform="translate(97.6375 199.461094) rotate(-90) scale(0.1 -0.1)">
      <defs>
       <path id="DejaVuSans-48" d="M 628 4666 
L 1259 4666 
L 1259 2753 
L 3553 2753 
L 3553 4666 
L 4184 4666 
L 4184 0 
L 3553 0 
L 3553 2222 
L 1259 2222 
L 1259 0 
L 628 0 
L 628 4666 
z
" transform="scale(0.015625)"/>
       <path id="DejaVuSans-70" d="M 1159 525 
L 1159 -1331 
L 581 -1331 
L 581 3500 
L 1159 3500 
L 1159 2969 
Q 1341 3281 1617 3432 
Q 1894 3584 2278 3584 
Q 2916 3584 3314 3078 
Q 3713 2572 3713 1747 
Q 3713 922 3314 415 
Q 2916 -91 2278 -91 
Q 1894 -91 1617 61 
Q 1341 213 1159 525 
z
M 3116 1747 
Q 3116 2381 2855 2742 
Q 2594 3103 2138 3103 
Q 1681 3103 1420 2742 
Q 1159 2381 1159 1747 
Q 1159 1113 1420 752 
Q 1681 391 2138 391 
Q 2594 391 2855 752 
Q 3116 1113 3116 1747 
z
" transform="scale(0.015625)"/>
       <path id="DejaVuSans-4d" d="M 628 4666 
L 1569 4666 
L 2759 1491 
L 3956 4666 
L 4897 4666 
L 4897 0 
L 4281 0 
L 4281 4097 
L 3078 897 
L 2444 897 
L 1241 4097 
L 1241 0 
L 628 0 
L 628 4666 
z
" transform="scale(0.015625)"/>
       <path id="DejaVuSans-6f" d="M 1959 3097 
Q 1497 3097 1228 2736 
Q 959 2375 959 1747 
Q 959 1119 1226 758 
Q 1494 397 1959 397 
Q 2419 397 2687 759 
Q 2956 1122 2956 1747 
Q 2956 2369 2687 2733 
Q 2419 3097 1959 3097 
z
M 1959 3584 
Q 2709 3584 3137 3096 
Q 3566 2609 3566 1747 
Q 3566 888 3137 398 
Q 2709 -91 1959 -91 
Q 1206 -91 779 398 
Q 353 888 353 1747 
Q 353 2609 779 3096 
Q 1206 3584 1959 3584 
z
" transform="scale(0.015625)"/>
       <path id="DejaVuSans-6e" d="M 3513 2113 
L 3513 0 
L 2938 0 
L 2938 2094 
Q 2938 2591 2744 2837 
Q 2550 3084 2163 3084 
Q 1697 3084 1428 2787 
Q 1159 2491 1159 1978 
L 1159 0 
L 581 0 
L 581 3500 
L 1159 3500 
L 1159 2956 
Q 1366 3272 1645 3428 
Q 1925 3584 2291 3584 
Q 2894 3584 3203 3211 
Q 3513 2838 3513 2113 
z
" transform="scale(0.015625)"/>
       <path id="DejaVuSans-74" d="M 1172 4494 
L 1172 3500 
L 2356 3500 
L 2356 3053 
L 1172 3053 
L 1172 1153 
Q 1172 725 1289 603 
Q 1406 481 1766 481 
L 2356 481 
L 2356 0 
L 1766 0 
Q 1100 0 847 248 
Q 594 497 594 1153 
L 594 3053 
L 172 3053 
L 172 3500 
L 594 3500 
L 594 4494 
L 1172 4494 
z
" transform="scale(0.015625)"/>
       <path id="DejaVuSans-4e" d="M 628 4666 
L 1478 4666 
L 3547 763 
L 3547 4666 
L 4159 4666 
L 4159 0 
L 3309 0 
L 1241 3903 
L 1241 0 
L 628 0 
L 628 4666 
z
" transform="scale(0.015625)"/>
       <path id="DejaVuSans-2d" d="M 313 2009 
L 1997 2009 
L 1997 1497 
L 313 1497 
L 313 2009 
z
" transform="scale(0.015625)"/>
       <path id="DejaVuSans-2f" d="M 1625 4666 
L 2156 4666 
L 531 -594 
L 0 -594 
L 1625 4666 
z
" transform="scale(0.015625)"/>
       <path id="DejaVuSans-6b" d="M 581 4863 
L 1159 4863 
L 1159 1991 
L 2875 3500 
L 3609 3500 
L 1753 1863 
L 3688 0 
L 2938 0 
L 1159 1709 
L 1159 0 
L 581 0 
L 581 4863 
z
" transform="scale(0.015625)"/>
       <path id="DejaVuSans-67" d="M 2906 1791 
Q 2906 2416 2648 2759 
Q 2391 3103 1925 3103 
Q 1463 3103 1205 2759 
Q 947 2416 947 1791 
Q 947 1169 1205 825 
Q 1463 481 1925 481 
Q 2391 481 2648 825 
Q 2906 1169 2906 1791 
z
M 3481 434 
Q 3481 -459 3084 -895 
Q 2688 -1331 1869 -1331 
Q 1566 -1331 1297 -1286 
Q 1028 -1241 775 -1147 
L 775 -588 
Q 1028 -725 1275 -790 
Q 1522 -856 1778 -856 
Q 2344 -856 2625 -561 
Q 2906 -266 2906 331 
L 2906 616 
Q 2728 306 2450 153 
Q 2172 0 1784 0 
Q 1141 0 747 490 
Q 353 981 353 1791 
Q 353 2603 747 3093 
Q 1141 3584 1784 3584 
Q 2172 3584 2450 3431 
Q 2728 3278 2906 2969 
L 2906 3500 
L 3481 3500 
L 3481 434 
z
" transform="scale(0.015625)"/>
      </defs>
      <use xlink:href="#DejaVuSans-48"/>
      <use xlink:href="#DejaVuSans-69" x="75.195312"/>
      <use xlink:href="#DejaVuSans-70" x="102.978516"/>
      <use xlink:href="#DejaVuSans-20" x="166.455078"/>
      <use xlink:href="#DejaVuSans-4d" x="198.242188"/>
      <use xlink:href="#DejaVuSans-6f" x="284.521484"/>
      <use xlink:href="#DejaVuSans-6d" x="345.703125"/>
      <use xlink:href="#DejaVuSans-65" x="443.115234"/>
      <use xlink:href="#DejaVuSans-6e" x="504.638672"/>
      <use xlink:href="#DejaVuSans-74" x="568.017578"/>
      <use xlink:href="#DejaVuSans-20" x="607.226562"/>
      <use xlink:href="#DejaVuSans-28" x="639.013672"/>
      <use xlink:href="#DejaVuSans-4e" x="678.027344"/>
      <use xlink:href="#DejaVuSans-2d" x="752.832031"/>
      <use xlink:href="#DejaVuSans-6d" x="788.916016"/>
      <use xlink:href="#DejaVuSans-2f" x="886.328125"/>
      <use xlink:href="#DejaVuSans-6b" x="920.019531"/>
      <use xlink:href="#DejaVuSans-67" x="977.929688"/>
      <use xlink:href="#DejaVuSans-29" x="1041.40625"/>
     </g>
    </g>
   </g>
   <g id="line2d_17">
    <path d="M 130.217143 162.231239 
L 135 165.249889 
L 139.782857 169.087636 
L 144.565714 173.636365 
L 149.348571 178.669178 
L 158.914286 189.342517 
L 163.697143 194.86346 
L 168.48 200.636013 
L 182.828571 218.779204 
L 187.611429 223.442533 
L 192.394286 226.097292 
L 197.177143 226.078555 
L 201.96 223.068109 
L 206.742857 217.150224 
L 211.525714 208.761666 
L 216.308571 198.599109 
L 225.874286 176.452301 
L 230.657143 166.225334 
L 235.44 157.493469 
L 240.222857 150.641665 
L 245.005714 145.768878 
L 249.788571 142.711087 
L 254.571429 141.091802 
L 259.354286 140.386818 
L 264.137143 139.977658 
L 268.92 139.17574 
L 273.702857 137.250285 
L 278.485714 133.509737 
L 283.268571 127.432697 
L 288.051429 118.811611 
L 292.834286 107.878554 
L 297.617143 95.37051 
L 302.4 82.49536 
L 307.182857 70.793855 
L 311.965714 61.905843 
L 316.748571 57.258478 
L 321.531429 57.738079 
L 326.314286 63.450303 
L 331.097143 73.661139 
L 335.88 86.949955 
L 340.662857 101.532158 
L 345.445714 115.645691 
L 350.228571 127.880244 
L 355.011429 137.377458 
L 359.794286 143.889669 
L 364.577143 147.711502 
L 369.36 149.520888 
L 374.142857 150.18264 
L 378.925714 150.545707 
L 383.708571 151.248923 
L 388.491429 152.582505 
L 393.274286 154.473244 
L 402.84 158.718095 
L 412.405714 162.629737 
L 417.188571 165.002552 
L 421.971429 168.244377 
L 426.754286 172.726786 
L 431.537143 178.638373 
L 436.32 185.964706 
L 441.102857 194.487771 
L 450.668571 213.165015 
L 455.451429 221.788222 
L 460.234286 228.654942 
L 465.017143 232.833674 
L 469.8 233.655669 
L 474.582857 230.874673 
L 479.365714 224.72915 
L 484.148571 215.891596 
L 488.931429 205.340167 
L 493.714286 194.196374 
L 498.497143 183.54554 
L 503.28 174.247474 
L 508.062857 166.779667 
L 512.845714 161.180764 
L 517.628571 157.129678 
L 522.411429 154.122281 
L 527.194286 151.654409 
L 536.76 146.992158 
L 546.325714 141.969041 
L 551.108571 139.206749 
L 555.891429 135.97826 
L 560.674286 131.823973 
L 565.457143 126.199237 
L 570.24 118.669046 
L 575.022857 109.138336 
L 579.805714 98.027408 
L 584.588571 86.306669 
L 589.371429 75.366523 
L 594.154286 66.761634 
L 598.937143 61.893445 
L 603.72 61.694247 
L 608.502857 66.382757 
L 613.285714 75.374383 
L 618.068571 87.406581 
L 627.634286 114.121473 
L 632.417143 125.934601 
L 637.2 135.496973 
L 641.982857 142.498181 
L 646.765714 147.06099 
L 651.548571 149.64739 
L 656.331429 150.932035 
L 665.897143 152.333271 
L 670.68 153.316055 
L 675.462857 154.587042 
L 685.028571 157.428609 
L 689.811429 158.986408 
L 694.594286 160.96225 
L 699.377143 163.715063 
L 704.16 167.498776 
L 708.942857 172.364603 
L 713.725714 178.171456 
L 718.508571 184.664883 
L 732.857143 205.324148 
L 737.64 211.438725 
L 742.422857 216.315331 
L 747.205714 219.287505 
L 751.988571 219.754001 
L 756.771429 217.353958 
L 761.554286 212.093237 
L 766.337143 204.371547 
L 771.12 194.909663 
L 780.685714 174.471379 
L 785.468571 165.33802 
L 790.251429 157.854587 
L 795.034286 152.310142 
L 799.817143 148.643442 
L 804.6 146.524692 
L 809.382857 145.483026 
L 814.165714 145.03729 
L 823.731429 144.498314 
L 828.514286 143.987027 
L 833.297143 143.109044 
L 838.08 141.610619 
L 842.862857 139.091241 
L 847.645714 135.055477 
L 852.428571 129.041717 
L 857.211429 120.792747 
L 861.994286 110.430996 
L 866.777143 98.58036 
L 871.56 86.374499 
L 876.342857 75.318892 
L 881.125714 67.020516 
L 885.908571 62.845953 
L 890.691429 63.595088 
L 895.474286 69.283451 
L 900.257143 79.110616 
L 905.04 91.646651 
L 909.822857 105.189318 
L 914.605714 118.158299 
L 919.388571 129.379571 
L 924.171429 138.201846 
L 928.954286 144.480596 
L 933.737143 148.484235 
L 938.52 150.758008 
L 943.302857 151.968021 
L 957.651429 154.356022 
L 967.217143 156.230498 
L 976.782857 157.786909 
L 976.782857 157.786909 
" clip-path="url(#p7a0e20e52d)" style="fill: none; stroke-dasharray: 5.55,2.4; stroke-dashoffset: 0; stroke: #000000; stroke-width: 1.5"/>
   </g>
   <g id="line2d_18">
    <path d="M 130.217143 158.361788 
L 135 160.76059 
L 139.782857 161.094423 
L 144.565714 166.76208 
L 149.348571 174.148407 
L 154.131429 181.873821 
L 158.914286 183.668919 
L 163.697143 183.240943 
L 168.48 185.523639 
L 173.262857 191.908679 
L 178.045714 197.363734 
L 182.828571 209.540736 
L 187.611429 220.793555 
L 192.394286 222.339632 
L 197.177143 224.525221 
L 206.742857 211.774651 
L 211.525714 201.444855 
L 216.308571 192.292744 
L 221.091429 186.066393 
L 225.874286 177.331014 
L 230.657143 170.762726 
L 235.44 163.269484 
L 240.222857 158.882092 
L 245.005714 152.88159 
L 249.788571 149.595956 
L 254.571429 145.812739 
L 259.354286 142.323827 
L 268.92 146.013136 
L 273.702857 145.921242 
L 278.485714 142.689319 
L 283.268571 139.842695 
L 288.051429 131.323246 
L 292.834286 122.033132 
L 297.617143 113.262793 
L 302.4 103.088852 
L 307.182857 89.85889 
L 311.965714 84.847103 
L 316.748571 78.680616 
L 321.531429 82.742607 
L 326.314286 89.252295 
L 335.88 118.703039 
L 340.662857 131.290482 
L 345.445714 144.901707 
L 350.228571 153.29228 
L 355.011429 155.229597 
L 359.794286 153.111215 
L 364.577143 149.393574 
L 369.36 146.765715 
L 374.142857 148.055962 
L 378.925714 148.063568 
L 383.708571 149.835672 
L 388.491429 152.50967 
L 393.274286 152.47984 
L 398.057143 152.227413 
L 402.84 153.586281 
L 407.622857 155.126019 
L 412.405714 157.023195 
L 417.188571 159.846068 
L 421.971429 161.573913 
L 426.754286 165.079289 
L 431.537143 175.734917 
L 436.32 184.419519 
L 441.102857 180.579429 
L 445.885714 179.365941 
L 450.668571 183.643678 
L 455.451429 191.368677 
L 460.234286 207.934327 
L 465.017143 223.193064 
L 469.8 235.754774 
L 474.582857 233.820313 
L 479.365714 226.694066 
L 484.148571 215.842726 
L 488.931429 204.291526 
L 493.714286 191.525279 
L 498.497143 183.610574 
L 503.28 178.882381 
L 508.062857 169.77139 
L 512.845714 166.105373 
L 517.628571 158.423923 
L 522.411429 153.893928 
L 527.194286 151.244123 
L 531.977143 146.652901 
L 536.76 144.530442 
L 541.542857 145.060884 
L 546.325714 147.622346 
L 551.108571 148.465515 
L 555.891429 146.549257 
L 560.674286 139.860931 
L 565.457143 135.993581 
L 570.24 128.387499 
L 575.022857 123.030473 
L 579.805714 115.07444 
L 584.588571 107.40267 
L 589.371429 97.353406 
L 594.154286 90.873951 
L 598.937143 85.906118 
L 603.72 86.011287 
L 608.502857 91.180428 
L 613.285714 99.953935 
L 618.068571 115.740674 
L 622.851429 124.396491 
L 627.634286 137.312884 
L 632.417143 148.901485 
L 637.2 153.713829 
L 646.765714 150.159331 
L 651.548571 148.655892 
L 656.331429 148.770323 
L 661.114286 147.588616 
L 665.897143 149.846751 
L 670.68 151.326016 
L 675.462857 152.429796 
L 680.245714 154.56972 
L 685.028571 156.887133 
L 689.811429 158.037356 
L 694.594286 160.801323 
L 699.377143 163.42986 
L 704.16 165.599534 
L 708.942857 170.56482 
L 713.725714 180.169149 
L 718.508571 188.899741 
L 723.291429 191.191214 
L 728.074286 190.971761 
L 732.857143 192.914072 
L 737.64 198.593772 
L 742.422857 207.211628 
L 747.205714 221.330668 
L 751.988571 228.464902 
L 756.771429 227.437136 
L 761.554286 218.832103 
L 766.337143 210.82555 
L 771.12 199.895346 
L 775.902857 189.939668 
L 780.685714 181.384541 
L 785.468571 179.144538 
L 790.251429 172.293192 
L 795.034286 166.407452 
L 799.817143 161.5351 
L 804.6 154.63811 
L 809.382857 149.838611 
L 814.165714 147.949876 
L 818.948571 144.954438 
L 823.731429 143.083356 
L 828.514286 148.780049 
L 833.297143 148.116381 
L 838.08 148.089331 
L 847.645714 140.546444 
L 852.428571 135.407345 
L 857.211429 129.78682 
L 866.777143 112.03125 
L 871.56 99.006054 
L 876.342857 93.073151 
L 881.125714 87.55873 
L 885.908571 87.002198 
L 890.691429 88.484369 
L 895.474286 97.305832 
L 900.257143 108.123925 
L 905.04 122.429507 
L 909.822857 134.403311 
L 914.605714 143.708461 
L 919.388571 152.538959 
L 924.171429 152.87718 
L 928.954286 151.268478 
L 933.737143 150.422401 
L 938.52 148.651465 
L 943.302857 148.286659 
L 948.085714 149.042638 
L 952.868571 151.071984 
L 957.651429 151.476541 
L 962.434286 151.437602 
L 967.217143 152.022449 
L 972 153.261342 
L 976.782857 154.013951 
L 976.782857 154.013951 
" clip-path="url(#p7a0e20e52d)" style="fill: none; stroke: #1f77b4; stroke-width: 1.5; stroke-linecap: square"/>
   </g>
   <g id="line2d_19">
    <path d="M -1 134.781774 
L 5.862857 127.186529 
L 15.428571 108.431286 
L 24.994286 97.847678 
L 34.56 90.568563 
L 44.125714 95.42522 
L 53.691429 115.760484 
L 63.257143 141.893803 
L 72.822857 154.233456 
L 82.388571 153.655417 
L 91.954286 150.968854 
L 101.52 151.14237 
L 111.085714 153.297959 
L 120.651429 152.481437 
L 130.217143 155.741251 
L 139.782857 164.335458 
L 149.348571 177.436358 
L 158.914286 185.0652 
L 168.48 187.904951 
L 178.045714 201.167297 
L 187.611429 222.259694 
L 197.177143 229.720386 
L 206.742857 208.358813 
L 216.308571 187.305152 
L 225.874286 171.245753 
L 235.44 165.64615 
L 245.005714 156.181351 
L 254.571429 148.220155 
L 264.137143 145.92747 
L 273.702857 146.760199 
L 283.268571 140.357507 
L 292.834286 122.96435 
L 302.4 101.626714 
L 311.965714 92.084919 
L 321.531429 89.125678 
L 331.097143 106.286296 
L 340.662857 133.154165 
L 350.228571 147.606662 
L 359.794286 151.246569 
L 369.36 147.885521 
L 378.925714 147.692335 
L 388.491429 148.771001 
L 398.057143 152.021893 
L 407.622857 149.798684 
L 417.188571 156.753423 
L 426.754286 165.599204 
L 436.32 181.442007 
L 445.885714 184.865615 
L 455.451429 190.54562 
L 465.017143 217.275899 
L 474.582857 230.088241 
L 484.148571 212.305761 
L 493.714286 191.456649 
L 503.28 180.352487 
L 512.845714 166.037685 
L 522.411429 162.095998 
L 531.977143 152.718659 
L 541.542857 149.865516 
L 551.108571 146.49819 
L 560.674286 142.218681 
L 570.24 124.771604 
L 579.805714 109.846251 
L 589.371429 100.427694 
L 598.937143 91.647945 
L 608.502857 98.394433 
L 618.068571 117.104427 
L 627.634286 141.666843 
L 637.2 153.6725 
L 646.765714 154.926638 
L 656.331429 150.439562 
L 665.897143 152.099096 
L 675.462857 152.628968 
L 685.028571 156.98946 
L 694.594286 158.190161 
L 704.16 165.99107 
L 713.725714 177.014801 
L 723.291429 191.656386 
L 732.857143 193.941689 
L 742.422857 203.984475 
L 751.988571 223.231203 
L 761.554286 223.891309 
L 771.12 204.961177 
L 780.685714 184.689795 
L 790.251429 174.005996 
L 799.817143 161.706143 
L 809.382857 153.276902 
L 818.948571 144.301555 
L 828.514286 141.618681 
L 838.08 140.869429 
L 847.645714 133.723111 
L 857.211429 119.868349 
L 866.777143 102.406597 
L 876.342857 96.104847 
L 885.908571 91.247434 
L 895.474286 99.001744 
L 905.04 119.048697 
L 914.605714 141.422622 
L 924.171429 149.641614 
L 933.737143 152.728001 
L 943.302857 148.52664 
L 952.868571 151.37217 
L 962.434286 152.950613 
L 972 152.437017 
L 981.565714 154.761026 
L 991.131429 161.595214 
L 1000.697143 173.151496 
L 1010.262857 188.058786 
L 1019.828571 191.525431 
L 1029.394286 199.559006 
L 1038.96 225.696798 
L 1048.525714 234.260582 
L 1058.091429 216.756136 
L 1067.657143 193.142216 
L 1077.222857 179.789015 
L 1081 175.829773 
L 1081 175.829773 
" clip-path="url(#p7a0e20e52d)" style="fill: none; stroke: #ff7f0e; stroke-width: 1.5; stroke-linecap: square"/>
   </g>
   <g id="line2d_20">
    <path d="M 111.085714 152.789686 
L 135 166.643039 
L 158.914286 167.084739 
L 182.828571 192.1318 
L 206.742857 201.772875 
L 230.657143 164.817956 
L 254.571429 144.01955 
L 278.485714 132.190782 
L 302.4 101.206646 
L 326.314286 90.092872 
L 350.228571 142.01371 
L 374.142857 150.593427 
L 398.057143 156.305669 
L 421.971429 167.912314 
L 445.885714 169.073843 
L 469.8 200.401148 
L 493.714286 186.667495 
L 517.628571 153.938017 
L 541.542857 141.618608 
L 565.457143 124.289606 
L 589.371429 96.962265 
L 613.285714 101.672027 
L 637.2 150.786596 
L 661.114286 151.839049 
L 685.028571 160.398111 
L 708.942857 172.362806 
L 732.857143 178.523016 
L 756.771429 206.045948 
L 780.685714 181.649349 
L 804.6 148.864558 
L 828.514286 138.13676 
L 852.428571 119.445999 
L 876.342857 93.589287 
L 900.257143 102.343655 
L 924.171429 151.373943 
L 948.085714 151.400635 
L 972 158.807534 
L 995.914286 166.699558 
L 1019.828571 173.122314 
L 1043.742857 205.806313 
L 1067.657143 193.456738 
L 1081 172.333277 
L 1081 172.333277 
" clip-path="url(#p7a0e20e52d)" style="fill: none; stroke: #2ca02c; stroke-width: 1.5; stroke-linecap: square"/>
   </g>
   <g id="patch_3">
    <path d="M 135 256.32 
L 135 34.56 
" style="fill: none; stroke: #000000; stroke-width: 0.8; stroke-linejoin: miter; stroke-linecap: square"/>
   </g>
   <g id="patch_4">
    <path d="M 972 256.32 
L 972 34.56 
" style="fill: none; stroke: #000000; stroke-width: 0.8; stroke-linejoin: miter; stroke-linecap: square"/>
   </g>
   <g id="patch_5">
    <path d="M 135 256.32 
L 972 256.32 
" style="fill: none; stroke: #000000; stroke-width: 0.8; stroke-linejoin: miter; stroke-linecap: square"/>
   </g>
   <g id="patch_6">
    <path d="M 135 34.56 
L 972 34.56 
" style="fill: none; stroke: #000000; stroke-width: 0.8; stroke-linejoin: miter; stroke-linecap: square"/>
   </g>
   <g id="text_19">
    <!-- AB07_Leo 1p2mps trial_3 R - Frequency Model Comparison -->
    <g transform="translate(376.555313 28.56) scale(0.12 -0.12)">
     <defs>
      <path id="DejaVuSans-41" d="M 2188 4044 
L 1331 1722 
L 3047 1722 
L 2188 4044 
z
M 1831 4666 
L 2547 4666 
L 4325 0 
L 3669 0 
L 3244 1197 
L 1141 1197 
L 716 0 
L 50 0 
L 1831 4666 
z
" transform="scale(0.015625)"/>
      <path id="DejaVuSans-42" d="M 1259 2228 
L 1259 519 
L 2272 519 
Q 2781 519 3026 730 
Q 3272 941 3272 1375 
Q 3272 1813 3026 2020 
Q 2781 2228 2272 2228 
L 1259 2228 
z
M 1259 4147 
L 1259 2741 
L 2194 2741 
Q 2656 2741 2882 2914 
Q 3109 3088 3109 3444 
Q 3109 3797 2882 3972 
Q 2656 4147 2194 4147 
L 1259 4147 
z
M 628 4666 
L 2241 4666 
Q 2963 4666 3353 4366 
Q 3744 4066 3744 3513 
Q 3744 3084 3544 2831 
Q 3344 2578 2956 2516 
Q 3422 2416 3680 2098 
Q 3938 1781 3938 1306 
Q 3938 681 3513 340 
Q 3088 0 2303 0 
L 628 0 
L 628 4666 
z
" transform="scale(0.015625)"/>
      <path id="DejaVuSans-37" d="M 525 4666 
L 3525 4666 
L 3525 4397 
L 1831 0 
L 1172 0 
L 2766 4134 
L 525 4134 
L 525 4666 
z
" transform="scale(0.015625)"/>
      <path id="DejaVuSans-5f" d="M 3263 -1063 
L 3263 -1509 
L -63 -1509 
L -63 -1063 
L 3263 -1063 
z
" transform="scale(0.015625)"/>
      <path id="DejaVuSans-4c" d="M 628 4666 
L 1259 4666 
L 1259 531 
L 3531 531 
L 3531 0 
L 628 0 
L 628 4666 
z
" transform="scale(0.015625)"/>
      <path id="DejaVuSans-72" d="M 2631 2963 
Q 2534 3019 2420 3045 
Q 2306 3072 2169 3072 
Q 1681 3072 1420 2755 
Q 1159 2438 1159 1844 
L 1159 0 
L 581 0 
L 581 3500 
L 1159 3500 
L 1159 2956 
Q 1341 3275 1631 3429 
Q 1922 3584 2338 3584 
Q 2397 3584 2469 3576 
Q 2541 3569 2628 3553 
L 2631 2963 
z
" transform="scale(0.015625)"/>
      <path id="DejaVuSans-61" d="M 2194 1759 
Q 1497 1759 1228 1600 
Q 959 1441 959 1056 
Q 959 750 1161 570 
Q 1363 391 1709 391 
Q 2188 391 2477 730 
Q 2766 1069 2766 1631 
L 2766 1759 
L 2194 1759 
z
M 3341 1997 
L 3341 0 
L 2766 0 
L 2766 531 
Q 2569 213 2275 61 
Q 1981 -91 1556 -91 
Q 1019 -91 701 211 
Q 384 513 384 1019 
Q 384 1609 779 1909 
Q 1175 2209 1959 2209 
L 2766 2209 
L 2766 2266 
Q 2766 2663 2505 2880 
Q 2244 3097 1772 3097 
Q 1472 3097 1187 3025 
Q 903 2953 641 2809 
L 641 3341 
Q 956 3463 1253 3523 
Q 1550 3584 1831 3584 
Q 2591 3584 2966 3190 
Q 3341 2797 3341 1997 
z
" transform="scale(0.015625)"/>
      <path id="DejaVuSans-6c" d="M 603 4863 
L 1178 4863 
L 1178 0 
L 603 0 
L 603 4863 
z
" transform="scale(0.015625)"/>
      <path id="DejaVuSans-52" d="M 2841 2188 
Q 3044 2119 3236 1894 
Q 3428 1669 3622 1275 
L 4263 0 
L 3584 0 
L 2988 1197 
Q 2756 1666 2539 1819 
Q 2322 1972 1947 1972 
L 1259 1972 
L 1259 0 
L 628 0 
L 628 4666 
L 2053 4666 
Q 2853 4666 3247 4331 
Q 3641 3997 3641 3322 
Q 3641 2881 3436 2590 
Q 3231 2300 2841 2188 
z
M 1259 4147 
L 1259 2491 
L 2053 2491 
Q 2509 2491 2742 2702 
Q 2975 2913 2975 3322 
Q 2975 3731 2742 3939 
Q 2509 4147 2053 4147 
L 1259 4147 
z
" transform="scale(0.015625)"/>
      <path id="DejaVuSans-46" d="M 628 4666 
L 3309 4666 
L 3309 4134 
L 1259 4134 
L 1259 2759 
L 3109 2759 
L 3109 2228 
L 1259 2228 
L 1259 0 
L 628 0 
L 628 4666 
z
" transform="scale(0.015625)"/>
      <path id="DejaVuSans-71" d="M 947 1747 
Q 947 1113 1208 752 
Q 1469 391 1925 391 
Q 2381 391 2643 752 
Q 2906 1113 2906 1747 
Q 2906 2381 2643 2742 
Q 2381 3103 1925 3103 
Q 1469 3103 1208 2742 
Q 947 2381 947 1747 
z
M 2906 525 
Q 2725 213 2448 61 
Q 2172 -91 1784 -91 
Q 1150 -91 751 415 
Q 353 922 353 1747 
Q 353 2572 751 3078 
Q 1150 3584 1784 3584 
Q 2172 3584 2448 3432 
Q 2725 3281 2906 2969 
L 2906 3500 
L 3481 3500 
L 3481 -1331 
L 2906 -1331 
L 2906 525 
z
" transform="scale(0.015625)"/>
      <path id="DejaVuSans-75" d="M 544 1381 
L 544 3500 
L 1119 3500 
L 1119 1403 
Q 1119 906 1312 657 
Q 1506 409 1894 409 
Q 2359 409 2629 706 
Q 2900 1003 2900 1516 
L 2900 3500 
L 3475 3500 
L 3475 0 
L 2900 0 
L 2900 538 
Q 2691 219 2414 64 
Q 2138 -91 1772 -91 
Q 1169 -91 856 284 
Q 544 659 544 1381 
z
M 1991 3584 
L 1991 3584 
z
" transform="scale(0.015625)"/>
      <path id="DejaVuSans-63" d="M 3122 3366 
L 3122 2828 
Q 2878 2963 2633 3030 
Q 2388 3097 2138 3097 
Q 1578 3097 1268 2742 
Q 959 2388 959 1747 
Q 959 1106 1268 751 
Q 1578 397 2138 397 
Q 2388 397 2633 464 
Q 2878 531 3122 666 
L 3122 134 
Q 2881 22 2623 -34 
Q 2366 -91 2075 -91 
Q 1284 -91 818 406 
Q 353 903 353 1747 
Q 353 2603 823 3093 
Q 1294 3584 2113 3584 
Q 2378 3584 2631 3529 
Q 2884 3475 3122 3366 
z
" transform="scale(0.015625)"/>
      <path id="DejaVuSans-79" d="M 2059 -325 
Q 1816 -950 1584 -1140 
Q 1353 -1331 966 -1331 
L 506 -1331 
L 506 -850 
L 844 -850 
Q 1081 -850 1212 -737 
Q 1344 -625 1503 -206 
L 1606 56 
L 191 3500 
L 800 3500 
L 1894 763 
L 2988 3500 
L 3597 3500 
L 2059 -325 
z
" transform="scale(0.015625)"/>
      <path id="DejaVuSans-64" d="M 2906 2969 
L 2906 4863 
L 3481 4863 
L 3481 0 
L 2906 0 
L 2906 525 
Q 2725 213 2448 61 
Q 2172 -91 1784 -91 
Q 1150 -91 751 415 
Q 353 922 353 1747 
Q 353 2572 751 3078 
Q 1150 3584 1784 3584 
Q 2172 3584 2448 3432 
Q 2725 3281 2906 2969 
z
M 947 1747 
Q 947 1113 1208 752 
Q 1469 391 1925 391 
Q 2381 391 2643 752 
Q 2906 1113 2906 1747 
Q 2906 2381 2643 2742 
Q 2381 3103 1925 3103 
Q 1469 3103 1208 2742 
Q 947 2381 947 1747 
z
" transform="scale(0.015625)"/>
      <path id="DejaVuSans-43" d="M 4122 4306 
L 4122 3641 
Q 3803 3938 3442 4084 
Q 3081 4231 2675 4231 
Q 1875 4231 1450 3742 
Q 1025 3253 1025 2328 
Q 1025 1406 1450 917 
Q 1875 428 2675 428 
Q 3081 428 3442 575 
Q 3803 722 4122 1019 
L 4122 359 
Q 3791 134 3420 21 
Q 3050 -91 2638 -91 
Q 1578 -91 968 557 
Q 359 1206 359 2328 
Q 359 3453 968 4101 
Q 1578 4750 2638 4750 
Q 3056 4750 3426 4639 
Q 3797 4528 4122 4306 
z
" transform="scale(0.015625)"/>
     </defs>
     <use xlink:href="#DejaVuSans-41"/>
     <use xlink:href="#DejaVuSans-42" x="68.408203"/>
     <use xlink:href="#DejaVuSans-30" x="137.011719"/>
     <use xlink:href="#DejaVuSans-37" x="200.634766"/>
     <use xlink:href="#DejaVuSans-5f" x="264.257812"/>
     <use xlink:href="#DejaVuSans-4c" x="314.257812"/>
     <use xlink:href="#DejaVuSans-65" x="368.220703"/>
     <use xlink:href="#DejaVuSans-6f" x="429.744141"/>
     <use xlink:href="#DejaVuSans-20" x="490.925781"/>
     <use xlink:href="#DejaVuSans-31" x="522.712891"/>
     <use xlink:href="#DejaVuSans-70" x="586.335938"/>
     <use xlink:href="#DejaVuSans-32" x="649.8125"/>
     <use xlink:href="#DejaVuSans-6d" x="713.435547"/>
     <use xlink:href="#DejaVuSans-70" x="810.847656"/>
     <use xlink:href="#DejaVuSans-73" x="874.324219"/>
     <use xlink:href="#DejaVuSans-20" x="926.423828"/>
     <use xlink:href="#DejaVuSans-74" x="958.210938"/>
     <use xlink:href="#DejaVuSans-72" x="997.419922"/>
     <use xlink:href="#DejaVuSans-69" x="1038.533203"/>
     <use xlink:href="#DejaVuSans-61" x="1066.316406"/>
     <use xlink:href="#DejaVuSans-6c" x="1127.595703"/>
     <use xlink:href="#DejaVuSans-5f" x="1155.378906"/>
     <use xlink:href="#DejaVuSans-33" x="1205.378906"/>
     <use xlink:href="#DejaVuSans-20" x="1269.001953"/>
     <use xlink:href="#DejaVuSans-52" x="1300.789062"/>
     <use xlink:href="#DejaVuSans-20" x="1370.271484"/>
     <use xlink:href="#DejaVuSans-2d" x="1402.058594"/>
     <use xlink:href="#DejaVuSans-20" x="1438.142578"/>
     <use xlink:href="#DejaVuSans-46" x="1469.929688"/>
     <use xlink:href="#DejaVuSans-72" x="1520.199219"/>
     <use xlink:href="#DejaVuSans-65" x="1559.0625"/>
     <use xlink:href="#DejaVuSans-71" x="1620.585938"/>
     <use xlink:href="#DejaVuSans-75" x="1684.0625"/>
     <use xlink:href="#DejaVuSans-65" x="1747.441406"/>
     <use xlink:href="#DejaVuSans-6e" x="1808.964844"/>
     <use xlink:href="#DejaVuSans-63" x="1872.34375"/>
     <use xlink:href="#DejaVuSans-79" x="1927.324219"/>
     <use xlink:href="#DejaVuSans-20" x="1986.503906"/>
     <use xlink:href="#DejaVuSans-4d" x="2018.291016"/>
     <use xlink:href="#DejaVuSans-6f" x="2104.570312"/>
     <use xlink:href="#DejaVuSans-64" x="2165.751953"/>
     <use xlink:href="#DejaVuSans-65" x="2229.228516"/>
     <use xlink:href="#DejaVuSans-6c" x="2290.751953"/>
     <use xlink:href="#DejaVuSans-20" x="2318.535156"/>
     <use xlink:href="#DejaVuSans-43" x="2350.322266"/>
     <use xlink:href="#DejaVuSans-6f" x="2420.146484"/>
     <use xlink:href="#DejaVuSans-6d" x="2481.328125"/>
     <use xlink:href="#DejaVuSans-70" x="2578.740234"/>
     <use xlink:href="#DejaVuSans-61" x="2642.216797"/>
     <use xlink:href="#DejaVuSans-72" x="2703.496094"/>
     <use xlink:href="#DejaVuSans-69" x="2744.609375"/>
     <use xlink:href="#DejaVuSans-73" x="2772.392578"/>
     <use xlink:href="#DejaVuSans-6f" x="2824.492188"/>
     <use xlink:href="#DejaVuSans-6e" x="2885.673828"/>
    </g>
   </g>
   <g id="legend_1">
    <g id="patch_7">
     <path d="M 748.684375 251.32 
L 965 251.32 
Q 967 251.32 967 249.32 
L 967 191.6075 
Q 967 189.6075 965 189.6075 
L 748.684375 189.6075 
Q 746.684375 189.6075 746.684375 191.6075 
L 746.684375 249.32 
Q 746.684375 251.32 748.684375 251.32 
z
" style="fill: #ffffff; opacity: 0.8; stroke: #cccccc; stroke-linejoin: miter"/>
    </g>
    <g id="line2d_21">
     <path d="M 750.684375 197.705938 
L 760.684375 197.705938 
L 770.684375 197.705938 
" style="fill: none; stroke-dasharray: 5.55,2.4; stroke-dashoffset: 0; stroke: #000000; stroke-width: 1.5"/>
    </g>
    <g id="text_20">
     <!-- GT (50Hz downsampled) -->
     <g transform="translate(778.684375 201.205938) scale(0.1 -0.1)">
      <defs>
       <path id="DejaVuSans-47" d="M 3809 666 
L 3809 1919 
L 2778 1919 
L 2778 2438 
L 4434 2438 
L 4434 434 
Q 4069 175 3628 42 
Q 3188 -91 2688 -91 
Q 1594 -91 976 548 
Q 359 1188 359 2328 
Q 359 3472 976 4111 
Q 1594 4750 2688 4750 
Q 3144 4750 3555 4637 
Q 3966 4525 4313 4306 
L 4313 3634 
Q 3963 3931 3569 4081 
Q 3175 4231 2741 4231 
Q 1884 4231 1454 3753 
Q 1025 3275 1025 2328 
Q 1025 1384 1454 906 
Q 1884 428 2741 428 
Q 3075 428 3337 486 
Q 3600 544 3809 666 
z
" transform="scale(0.015625)"/>
       <path id="DejaVuSans-7a" d="M 353 3500 
L 3084 3500 
L 3084 2975 
L 922 459 
L 3084 459 
L 3084 0 
L 275 0 
L 275 525 
L 2438 3041 
L 353 3041 
L 353 3500 
z
" transform="scale(0.015625)"/>
       <path id="DejaVuSans-77" d="M 269 3500 
L 844 3500 
L 1563 769 
L 2278 3500 
L 2956 3500 
L 3675 769 
L 4391 3500 
L 4966 3500 
L 4050 0 
L 3372 0 
L 2619 2869 
L 1863 0 
L 1184 0 
L 269 3500 
z
" transform="scale(0.015625)"/>
      </defs>
      <use xlink:href="#DejaVuSans-47"/>
      <use xlink:href="#DejaVuSans-54" x="73.865234"/>
      <use xlink:href="#DejaVuSans-20" x="134.949219"/>
      <use xlink:href="#DejaVuSans-28" x="166.736328"/>
      <use xlink:href="#DejaVuSans-35" x="205.75"/>
      <use xlink:href="#DejaVuSans-30" x="269.373047"/>
      <use xlink:href="#DejaVuSans-48" x="332.996094"/>
      <use xlink:href="#DejaVuSans-7a" x="408.191406"/>
      <use xlink:href="#DejaVuSans-20" x="460.681641"/>
      <use xlink:href="#DejaVuSans-64" x="492.46875"/>
      <use xlink:href="#DejaVuSans-6f" x="555.945312"/>
      <use xlink:href="#DejaVuSans-77" x="617.126953"/>
      <use xlink:href="#DejaVuSans-6e" x="698.914062"/>
      <use xlink:href="#DejaVuSans-73" x="762.292969"/>
      <use xlink:href="#DejaVuSans-61" x="814.392578"/>
      <use xlink:href="#DejaVuSans-6d" x="875.671875"/>
      <use xlink:href="#DejaVuSans-70" x="973.083984"/>
      <use xlink:href="#DejaVuSans-6c" x="1036.560547"/>
      <use xlink:href="#DejaVuSans-65" x="1064.34375"/>
      <use xlink:href="#DejaVuSans-64" x="1125.867188"/>
      <use xlink:href="#DejaVuSans-29" x="1189.34375"/>
     </g>
    </g>
    <g id="line2d_22">
     <path d="M 750.684375 212.384062 
L 760.684375 212.384062 
L 770.684375 212.384062 
" style="fill: none; stroke: #1f77b4; stroke-width: 1.5; stroke-linecap: square"/>
    </g>
    <g id="text_21">
     <!-- 50Hz pred (RMSE=0.098, R2=0.909) -->
     <g transform="translate(778.684375 215.884062) scale(0.1 -0.1)">
      <defs>
       <path id="DejaVuSans-53" d="M 3425 4513 
L 3425 3897 
Q 3066 4069 2747 4153 
Q 2428 4238 2131 4238 
Q 1616 4238 1336 4038 
Q 1056 3838 1056 3469 
Q 1056 3159 1242 3001 
Q 1428 2844 1947 2747 
L 2328 2669 
Q 3034 2534 3370 2195 
Q 3706 1856 3706 1288 
Q 3706 609 3251 259 
Q 2797 -91 1919 -91 
Q 1588 -91 1214 -16 
Q 841 59 441 206 
L 441 856 
Q 825 641 1194 531 
Q 1563 422 1919 422 
Q 2459 422 2753 634 
Q 3047 847 3047 1241 
Q 3047 1584 2836 1778 
Q 2625 1972 2144 2069 
L 1759 2144 
Q 1053 2284 737 2584 
Q 422 2884 422 3419 
Q 422 4038 858 4394 
Q 1294 4750 2059 4750 
Q 2388 4750 2728 4690 
Q 3069 4631 3425 4513 
z
" transform="scale(0.015625)"/>
       <path id="DejaVuSans-45" d="M 628 4666 
L 3578 4666 
L 3578 4134 
L 1259 4134 
L 1259 2753 
L 3481 2753 
L 3481 2222 
L 1259 2222 
L 1259 531 
L 3634 531 
L 3634 0 
L 628 0 
L 628 4666 
z
" transform="scale(0.015625)"/>
       <path id="DejaVuSans-3d" d="M 678 2906 
L 4684 2906 
L 4684 2381 
L 678 2381 
L 678 2906 
z
M 678 1631 
L 4684 1631 
L 4684 1100 
L 678 1100 
L 678 1631 
z
" transform="scale(0.015625)"/>
       <path id="DejaVuSans-2c" d="M 750 794 
L 1409 794 
L 1409 256 
L 897 -744 
L 494 -744 
L 750 256 
L 750 794 
z
" transform="scale(0.015625)"/>
      </defs>
      <use xlink:href="#DejaVuSans-35"/>
      <use xlink:href="#DejaVuSans-30" x="63.623047"/>
      <use xlink:href="#DejaVuSans-48" x="127.246094"/>
      <use xlink:href="#DejaVuSans-7a" x="202.441406"/>
      <use xlink:href="#DejaVuSans-20" x="254.931641"/>
      <use xlink:href="#DejaVuSans-70" x="286.71875"/>
      <use xlink:href="#DejaVuSans-72" x="350.195312"/>
      <use xlink:href="#DejaVuSans-65" x="389.058594"/>
      <use xlink:href="#DejaVuSans-64" x="450.582031"/>
      <use xlink:href="#DejaVuSans-20" x="514.058594"/>
      <use xlink:href="#DejaVuSans-28" x="545.845703"/>
      <use xlink:href="#DejaVuSans-52" x="584.859375"/>
      <use xlink:href="#DejaVuSans-4d" x="654.341797"/>
      <use xlink:href="#DejaVuSans-53" x="740.621094"/>
      <use xlink:href="#DejaVuSans-45" x="804.097656"/>
      <use xlink:href="#DejaVuSans-3d" x="867.28125"/>
      <use xlink:href="#DejaVuSans-30" x="951.070312"/>
      <use xlink:href="#DejaVuSans-2e" x="1014.693359"/>
      <use xlink:href="#DejaVuSans-30" x="1046.480469"/>
      <use xlink:href="#DejaVuSans-39" x="1110.103516"/>
      <use xlink:href="#DejaVuSans-38" x="1173.726562"/>
      <use xlink:href="#DejaVuSans-2c" x="1237.349609"/>
      <use xlink:href="#DejaVuSans-20" x="1269.136719"/>
      <use xlink:href="#DejaVuSans-52" x="1300.923828"/>
      <use xlink:href="#DejaVuSans-32" x="1370.40625"/>
      <use xlink:href="#DejaVuSans-3d" x="1434.029297"/>
      <use xlink:href="#DejaVuSans-30" x="1517.818359"/>
      <use xlink:href="#DejaVuSans-2e" x="1581.441406"/>
      <use xlink:href="#DejaVuSans-39" x="1613.228516"/>
      <use xlink:href="#DejaVuSans-30" x="1676.851562"/>
      <use xlink:href="#DejaVuSans-39" x="1740.474609"/>
      <use xlink:href="#DejaVuSans-29" x="1804.097656"/>
     </g>
    </g>
    <g id="line2d_23">
     <path d="M 750.684375 227.062187 
L 760.684375 227.062187 
L 770.684375 227.062187 
" style="fill: none; stroke: #ff7f0e; stroke-width: 1.5; stroke-linecap: square"/>
    </g>
    <g id="text_22">
     <!-- 25Hz pred (RMSE=0.103, R2=0.899) -->
     <g transform="translate(778.684375 230.562187) scale(0.1 -0.1)">
      <use xlink:href="#DejaVuSans-32"/>
      <use xlink:href="#DejaVuSans-35" x="63.623047"/>
      <use xlink:href="#DejaVuSans-48" x="127.246094"/>
      <use xlink:href="#DejaVuSans-7a" x="202.441406"/>
      <use xlink:href="#DejaVuSans-20" x="254.931641"/>
      <use xlink:href="#DejaVuSans-70" x="286.71875"/>
      <use xlink:href="#DejaVuSans-72" x="350.195312"/>
      <use xlink:href="#DejaVuSans-65" x="389.058594"/>
      <use xlink:href="#DejaVuSans-64" x="450.582031"/>
      <use xlink:href="#DejaVuSans-20" x="514.058594"/>
      <use xlink:href="#DejaVuSans-28" x="545.845703"/>
      <use xlink:href="#DejaVuSans-52" x="584.859375"/>
      <use xlink:href="#DejaVuSans-4d" x="654.341797"/>
      <use xlink:href="#DejaVuSans-53" x="740.621094"/>
      <use xlink:href="#DejaVuSans-45" x="804.097656"/>
      <use xlink:href="#DejaVuSans-3d" x="867.28125"/>
      <use xlink:href="#DejaVuSans-30" x="951.070312"/>
      <use xlink:href="#DejaVuSans-2e" x="1014.693359"/>
      <use xlink:href="#DejaVuSans-31" x="1046.480469"/>
      <use xlink:href="#DejaVuSans-30" x="1110.103516"/>
      <use xlink:href="#DejaVuSans-33" x="1173.726562"/>
      <use xlink:href="#DejaVuSans-2c" x="1237.349609"/>
      <use xlink:href="#DejaVuSans-20" x="1269.136719"/>
      <use xlink:href="#DejaVuSans-52" x="1300.923828"/>
      <use xlink:href="#DejaVuSans-32" x="1370.40625"/>
      <use xlink:href="#DejaVuSans-3d" x="1434.029297"/>
      <use xlink:href="#DejaVuSans-30" x="1517.818359"/>
      <use xlink:href="#DejaVuSans-2e" x="1581.441406"/>
      <use xlink:href="#DejaVuSans-38" x="1613.228516"/>
      <use xlink:href="#DejaVuSans-39" x="1676.851562"/>
      <use xlink:href="#DejaVuSans-39" x="1740.474609"/>
      <use xlink:href="#DejaVuSans-29" x="1804.097656"/>
     </g>
    </g>
    <g id="line2d_24">
     <path d="M 750.684375 241.740313 
L 760.684375 241.740313 
L 770.684375 241.740313 
" style="fill: none; stroke: #2ca02c; stroke-width: 1.5; stroke-linecap: square"/>
    </g>
    <g id="text_23">
     <!-- 10Hz pred (RMSE=0.107, R2=0.888) -->
     <g transform="translate(778.684375 245.240313) scale(0.1 -0.1)">
      <use xlink:href="#DejaVuSans-31"/>
      <use xlink:href="#DejaVuSans-30" x="63.623047"/>
      <use xlink:href="#DejaVuSans-48" x="127.246094"/>
      <use xlink:href="#DejaVuSans-7a" x="202.441406"/>
      <use xlink:href="#DejaVuSans-20" x="254.931641"/>
      <use xlink:href="#DejaVuSans-70" x="286.71875"/>
      <use xlink:href="#DejaVuSans-72" x="350.195312"/>
      <use xlink:href="#DejaVuSans-65" x="389.058594"/>
      <use xlink:href="#DejaVuSans-64" x="450.582031"/>
      <use xlink:href="#DejaVuSans-20" x="514.058594"/>
      <use xlink:href="#DejaVuSans-28" x="545.845703"/>
      <use xlink:href="#DejaVuSans-52" x="584.859375"/>
      <use xlink:href="#DejaVuSans-4d" x="654.341797"/>
      <use xlink:href="#DejaVuSans-53" x="740.621094"/>
      <use xlink:href="#DejaVuSans-45" x="804.097656"/>
      <use xlink:href="#DejaVuSans-3d" x="867.28125"/>
      <use xlink:href="#DejaVuSans-30" x="951.070312"/>
      <use xlink:href="#DejaVuSans-2e" x="1014.693359"/>
      <use xlink:href="#DejaVuSans-31" x="1046.480469"/>
      <use xlink:href="#DejaVuSans-30" x="1110.103516"/>
      <use xlink:href="#DejaVuSans-37" x="1173.726562"/>
      <use xlink:href="#DejaVuSans-2c" x="1237.349609"/>
      <use xlink:href="#DejaVuSans-20" x="1269.136719"/>
      <use xlink:href="#DejaVuSans-52" x="1300.923828"/>
      <use xlink:href="#DejaVuSans-32" x="1370.40625"/>
      <use xlink:href="#DejaVuSans-3d" x="1434.029297"/>
      <use xlink:href="#DejaVuSans-30" x="1517.818359"/>
      <use xlink:href="#DejaVuSans-2e" x="1581.441406"/>
      <use xlink:href="#DejaVuSans-38" x="1613.228516"/>
      <use xlink:href="#DejaVuSans-38" x="1676.851562"/>
      <use xlink:href="#DejaVuSans-38" x="1740.474609"/>
      <use xlink:href="#DejaVuSans-29" x="1804.097656"/>
     </g>
    </g>
   </g>
  </g>
 </g>
 <defs>
  <clipPath id="p7a0e20e52d">
   <rect x="135" y="34.56" width="837" height="221.76"/>
  </clipPath>
 </defs>
</svg>
