<?xml version="1.0" encoding="utf-8" standalone="no"?>
<!DOCTYPE svg PUBLIC "-//W3C//DTD SVG 1.1//EN"
  "http://www.w3.org/Graphics/SVG/1.1/DTD/svg11.dtd">
<svg xmlns:xlink="http://www.w3.org/1999/xlink" width="1080pt" height="288pt" viewBox="0 0 1080 288" xmlns="http://www.w3.org/2000/svg" version="1.1">
 <metadata>
  <rdf:RDF xmlns:dc="http://purl.org/dc/elements/1.1/" xmlns:cc="http://creativecommons.org/ns#" xmlns:rdf="http://www.w3.org/1999/02/22-rdf-syntax-ns#">
   <cc:Work>
    <dc:type rdf:resource="http://purl.org/dc/dcmitype/StillImage"/>
    <dc:date>2026-05-01T13:06:29.185512</dc:date>
    <dc:format>image/svg+xml</dc:format>
    <dc:creator>
     <cc:Agent>
      <dc:title>Matplotlib v3.7.3, https://matplotlib.org/</dc:title>
     </cc:Agent>
    </dc:creator>
   </cc:Work>
  </rdf:RDF>
 </metadata>
 <defs>
  <style type="text/css">*{stroke-linejoin: round; stroke-linecap: butt}</style>
 </defs>
 <g id="figure_1">
  <g id="patch_1">
   <path d="M 0 288 
L 1080 288 
L 1080 0 
L 0 0 
z
" style="fill: #ffffff"/>
  </g>
  <g id="axes_1">
   <g id="patch_2">
    <path d="M 135 256.32 
L 972 256.32 
L 972 34.56 
L 135 34.56 
z
" style="fill: #ffffff"/>
   </g>
   <g id="matplotlib.axis_1">
    <g id="xtick_1">
     <g id="line2d_1">
      <defs>
       <path id="m96e8c5d044" d="M 0 0 
L 0 3.5 
" style="stroke: #000000; stroke-width: 0.8"/>
      </defs>
      <g>
       <use xlink:href="#m96e8c5d044" x="135" y="256.32" style="stroke: #000000; stroke-width: 0.8"/>
      </g>
     </g>
     <g id="text_1">
      <!-- 9.5 -->
      <g transform="translate(127.048438 270.918437) scale(0.1 -0.1)">
       <defs>
        <path id="DejaVuSans-39" d="M 703 97 
L 703 672 
Q 941 559 1184 500 
Q 1428 441 1663 441 
Q 2288 441 2617 861 
Q 2947 1281 2994 2138 
Q 2813 1869 2534 1725 
Q 2256 1581 1919 1581 
Q 1219 1581 811 2004 
Q 403 2428 403 3163 
Q 403 3881 828 4315 
Q 1253 4750 1959 4750 
Q 2769 4750 3195 4129 
Q 3622 3509 3622 2328 
Q 3622 1225 3098 567 
Q 2575 -91 1691 -91 
Q 1453 -91 1209 -44 
Q 966 3 703 97 
z
M 1959 2075 
Q 2384 2075 2632 2365 
Q 2881 2656 2881 3163 
Q 2881 3666 2632 3958 
Q 2384 4250 1959 4250 
Q 1534 4250 1286 3958 
Q 1038 3666 1038 3163 
Q 1038 2656 1286 2365 
Q 1534 2075 1959 2075 
z
" transform="scale(0.015625)"/>
        <path id="DejaVuSans-2e" d="M 684 794 
L 1344 794 
L 1344 0 
L 684 0 
L 684 794 
z
" transform="scale(0.015625)"/>
        <path id="DejaVuSans-35" d="M 691 4666 
L 3169 4666 
L 3169 4134 
L 1269 4134 
L 1269 2991 
Q 1406 3038 1543 3061 
Q 1681 3084 1819 3084 
Q 2600 3084 3056 2656 
Q 3513 2228 3513 1497 
Q 3513 744 3044 326 
Q 2575 -91 1722 -91 
Q 1428 -91 1123 -41 
Q 819 9 494 109 
L 494 744 
Q 775 591 1075 516 
Q 1375 441 1709 441 
Q 2250 441 2565 725 
Q 2881 1009 2881 1497 
Q 2881 1984 2565 2268 
Q 2250 2553 1709 2553 
Q 1456 2553 1204 2497 
Q 953 2441 691 2322 
L 691 4666 
z
" transform="scale(0.015625)"/>
       </defs>
       <use xlink:href="#DejaVuSans-39"/>
       <use xlink:href="#DejaVuSans-2e" x="63.623047"/>
       <use xlink:href="#DejaVuSans-35" x="95.410156"/>
      </g>
     </g>
    </g>
    <g id="xtick_2">
     <g id="line2d_2">
      <g>
       <use xlink:href="#m96e8c5d044" x="254.571429" y="256.32" style="stroke: #000000; stroke-width: 0.8"/>
      </g>
     </g>
     <g id="text_2">
      <!-- 10.0 -->
      <g transform="translate(243.438616 270.918437) scale(0.1 -0.1)">
       <defs>
        <path id="DejaVuSans-31" d="M 794 531 
L 1825 531 
L 1825 4091 
L 703 3866 
L 703 4441 
L 1819 4666 
L 2450 4666 
L 2450 531 
L 3481 531 
L 3481 0 
L 794 0 
L 794 531 
z
" transform="scale(0.015625)"/>
        <path id="DejaVuSans-30" d="M 2034 4250 
Q 1547 4250 1301 3770 
Q 1056 3291 1056 2328 
Q 1056 1369 1301 889 
Q 1547 409 2034 409 
Q 2525 409 2770 889 
Q 3016 1369 3016 2328 
Q 3016 3291 2770 3770 
Q 2525 4250 2034 4250 
z
M 2034 4750 
Q 2819 4750 3233 4129 
Q 3647 3509 3647 2328 
Q 3647 1150 3233 529 
Q 2819 -91 2034 -91 
Q 1250 -91 836 529 
Q 422 1150 422 2328 
Q 422 3509 836 4129 
Q 1250 4750 2034 4750 
z
" transform="scale(0.015625)"/>
       </defs>
       <use xlink:href="#DejaVuSans-31"/>
       <use xlink:href="#DejaVuSans-30" x="63.623047"/>
       <use xlink:href="#DejaVuSans-2e" x="127.246094"/>
       <use xlink:href="#DejaVuSans-30" x="159.033203"/>
      </g>
     </g>
    </g>
    <g id="xtick_3">
     <g id="line2d_3">
      <g>
       <use xlink:href="#m96e8c5d044" x="374.142857" y="256.32" style="stroke: #000000; stroke-width: 0.8"/>
      </g>
     </g>
     <g id="text_3">
      <!-- 10.5 -->
      <g transform="translate(363.010045 270.918437) scale(0.1 -0.1)">
       <use xlink:href="#DejaVuSans-31"/>
       <use xlink:href="#DejaVuSans-30" x="63.623047"/>
       <use xlink:href="#DejaVuSans-2e" x="127.246094"/>
       <use xlink:href="#DejaVuSans-35" x="159.033203"/>
      </g>
     </g>
    </g>
    <g id="xtick_4">
     <g id="line2d_4">
      <g>
       <use xlink:href="#m96e8c5d044" x="493.714286" y="256.32" style="stroke: #000000; stroke-width: 0.8"/>
      </g>
     </g>
     <g id="text_4">
      <!-- 11.0 -->
      <g transform="translate(482.581473 270.918437) scale(0.1 -0.1)">
       <use xlink:href="#DejaVuSans-31"/>
       <use xlink:href="#DejaVuSans-31" x="63.623047"/>
       <use xlink:href="#DejaVuSans-2e" x="127.246094"/>
       <use xlink:href="#DejaVuSans-30" x="159.033203"/>
      </g>
     </g>
    </g>
    <g id="xtick_5">
     <g id="line2d_5">
      <g>
       <use xlink:href="#m96e8c5d044" x="613.285714" y="256.32" style="stroke: #000000; stroke-width: 0.8"/>
      </g>
     </g>
     <g id="text_5">
      <!-- 11.5 -->
      <g transform="translate(602.152902 270.918437) scale(0.1 -0.1)">
       <use xlink:href="#DejaVuSans-31"/>
       <use xlink:href="#DejaVuSans-31" x="63.623047"/>
       <use xlink:href="#DejaVuSans-2e" x="127.246094"/>
       <use xlink:href="#DejaVuSans-35" x="159.033203"/>
      </g>
     </g>
    </g>
    <g id="xtick_6">
     <g id="line2d_6">
      <g>
       <use xlink:href="#m96e8c5d044" x="732.857143" y="256.32" style="stroke: #000000; stroke-width: 0.8"/>
      </g>
     </g>
     <g id="text_6">
      <!-- 12.0 -->
      <g transform="translate(721.72433 270.918437) scale(0.1 -0.1)">
       <defs>
        <path id="DejaVuSans-32" d="M 1228 531 
L 3431 531 
L 3431 0 
L 469 0 
L 469 531 
Q 828 903 1448 1529 
Q 2069 2156 2228 2338 
Q 2531 2678 2651 2914 
Q 2772 3150 2772 3378 
Q 2772 3750 2511 3984 
Q 2250 4219 1831 4219 
Q 1534 4219 1204 4116 
Q 875 4013 500 3803 
L 500 4441 
Q 881 4594 1212 4672 
Q 1544 4750 1819 4750 
Q 2544 4750 2975 4387 
Q 3406 4025 3406 3419 
Q 3406 3131 3298 2873 
Q 3191 2616 2906 2266 
Q 2828 2175 2409 1742 
Q 1991 1309 1228 531 
z
" transform="scale(0.015625)"/>
       </defs>
       <use xlink:href="#DejaVuSans-31"/>
       <use xlink:href="#DejaVuSans-32" x="63.623047"/>
       <use xlink:href="#DejaVuSans-2e" x="127.246094"/>
       <use xlink:href="#DejaVuSans-30" x="159.033203"/>
      </g>
     </g>
    </g>
    <g id="xtick_7">
     <g id="line2d_7">
      <g>
       <use xlink:href="#m96e8c5d044" x="852.428571" y="256.32" style="stroke: #000000; stroke-width: 0.8"/>
      </g>
     </g>
     <g id="text_7">
      <!-- 12.5 -->
      <g transform="translate(841.295759 270.918437) scale(0.1 -0.1)">
       <use xlink:href="#DejaVuSans-31"/>
       <use xlink:href="#DejaVuSans-32" x="63.623047"/>
       <use xlink:href="#DejaVuSans-2e" x="127.246094"/>
       <use xlink:href="#DejaVuSans-35" x="159.033203"/>
      </g>
     </g>
    </g>
    <g id="xtick_8">
     <g id="line2d_8">
      <g>
       <use xlink:href="#m96e8c5d044" x="972" y="256.32" style="stroke: #000000; stroke-width: 0.8"/>
      </g>
     </g>
     <g id="text_8">
      <!-- 13.0 -->
      <g transform="translate(960.867188 270.918437) scale(0.1 -0.1)">
       <defs>
        <path id="DejaVuSans-33" d="M 2597 2516 
Q 3050 2419 3304 2112 
Q 3559 1806 3559 1356 
Q 3559 666 3084 287 
Q 2609 -91 1734 -91 
Q 1441 -91 1130 -33 
Q 819 25 488 141 
L 488 750 
Q 750 597 1062 519 
Q 1375 441 1716 441 
Q 2309 441 2620 675 
Q 2931 909 2931 1356 
Q 2931 1769 2642 2001 
Q 2353 2234 1838 2234 
L 1294 2234 
L 1294 2753 
L 1863 2753 
Q 2328 2753 2575 2939 
Q 2822 3125 2822 3475 
Q 2822 3834 2567 4026 
Q 2313 4219 1838 4219 
Q 1578 4219 1281 4162 
Q 984 4106 628 3988 
L 628 4550 
Q 988 4650 1302 4700 
Q 1616 4750 1894 4750 
Q 2613 4750 3031 4423 
Q 3450 4097 3450 3541 
Q 3450 3153 3228 2886 
Q 3006 2619 2597 2516 
z
" transform="scale(0.015625)"/>
       </defs>
       <use xlink:href="#DejaVuSans-31"/>
       <use xlink:href="#DejaVuSans-33" x="63.623047"/>
       <use xlink:href="#DejaVuSans-2e" x="127.246094"/>
       <use xlink:href="#DejaVuSans-30" x="159.033203"/>
      </g>
     </g>
    </g>
    <g id="text_9">
     <!-- Time (s) -->
     <g transform="translate(533.171094 284.596563) scale(0.1 -0.1)">
      <defs>
       <path id="DejaVuSans-54" d="M -19 4666 
L 3928 4666 
L 3928 4134 
L 2272 4134 
L 2272 0 
L 1638 0 
L 1638 4134 
L -19 4134 
L -19 4666 
z
" transform="scale(0.015625)"/>
       <path id="DejaVuSans-69" d="M 603 3500 
L 1178 3500 
L 1178 0 
L 603 0 
L 603 3500 
z
M 603 4863 
L 1178 4863 
L 1178 4134 
L 603 4134 
L 603 4863 
z
" transform="scale(0.015625)"/>
       <path id="DejaVuSans-6d" d="M 3328 2828 
Q 3544 3216 3844 3400 
Q 4144 3584 4550 3584 
Q 5097 3584 5394 3201 
Q 5691 2819 5691 2113 
L 5691 0 
L 5113 0 
L 5113 2094 
Q 5113 2597 4934 2840 
Q 4756 3084 4391 3084 
Q 3944 3084 3684 2787 
Q 3425 2491 3425 1978 
L 3425 0 
L 2847 0 
L 2847 2094 
Q 2847 2600 2669 2842 
Q 2491 3084 2119 3084 
Q 1678 3084 1418 2786 
Q 1159 2488 1159 1978 
L 1159 0 
L 581 0 
L 581 3500 
L 1159 3500 
L 1159 2956 
Q 1356 3278 1631 3431 
Q 1906 3584 2284 3584 
Q 2666 3584 2933 3390 
Q 3200 3197 3328 2828 
z
" transform="scale(0.015625)"/>
       <path id="DejaVuSans-65" d="M 3597 1894 
L 3597 1613 
L 953 1613 
Q 991 1019 1311 708 
Q 1631 397 2203 397 
Q 2534 397 2845 478 
Q 3156 559 3463 722 
L 3463 178 
Q 3153 47 2828 -22 
Q 2503 -91 2169 -91 
Q 1331 -91 842 396 
Q 353 884 353 1716 
Q 353 2575 817 3079 
Q 1281 3584 2069 3584 
Q 2775 3584 3186 3129 
Q 3597 2675 3597 1894 
z
M 3022 2063 
Q 3016 2534 2758 2815 
Q 2500 3097 2075 3097 
Q 1594 3097 1305 2825 
Q 1016 2553 972 2059 
L 3022 2063 
z
" transform="scale(0.015625)"/>
       <path id="DejaVuSans-20" transform="scale(0.015625)"/>
       <path id="DejaVuSans-28" d="M 1984 4856 
Q 1566 4138 1362 3434 
Q 1159 2731 1159 2009 
Q 1159 1288 1364 580 
Q 1569 -128 1984 -844 
L 1484 -844 
Q 1016 -109 783 600 
Q 550 1309 550 2009 
Q 550 2706 781 3412 
Q 1013 4119 1484 4856 
L 1984 4856 
z
" transform="scale(0.015625)"/>
       <path id="DejaVuSans-73" d="M 2834 3397 
L 2834 2853 
Q 2591 2978 2328 3040 
Q 2066 3103 1784 3103 
Q 1356 3103 1142 2972 
Q 928 2841 928 2578 
Q 928 2378 1081 2264 
Q 1234 2150 1697 2047 
L 1894 2003 
Q 2506 1872 2764 1633 
Q 3022 1394 3022 966 
Q 3022 478 2636 193 
Q 2250 -91 1575 -91 
Q 1294 -91 989 -36 
Q 684 19 347 128 
L 347 722 
Q 666 556 975 473 
Q 1284 391 1588 391 
Q 1994 391 2212 530 
Q 2431 669 2431 922 
Q 2431 1156 2273 1281 
Q 2116 1406 1581 1522 
L 1381 1569 
Q 847 1681 609 1914 
Q 372 2147 372 2553 
Q 372 3047 722 3315 
Q 1072 3584 1716 3584 
Q 2034 3584 2315 3537 
Q 2597 3491 2834 3397 
z
" transform="scale(0.015625)"/>
       <path id="DejaVuSans-29" d="M 513 4856 
L 1013 4856 
Q 1481 4119 1714 3412 
Q 1947 2706 1947 2009 
Q 1947 1309 1714 600 
Q 1481 -109 1013 -844 
L 513 -844 
Q 928 -128 1133 580 
Q 1338 1288 1338 2009 
Q 1338 2731 1133 3434 
Q 928 4138 513 4856 
z
" transform="scale(0.015625)"/>
      </defs>
      <use xlink:href="#DejaVuSans-54"/>
      <use xlink:href="#DejaVuSans-69" x="57.958984"/>
      <use xlink:href="#DejaVuSans-6d" x="85.742188"/>
      <use xlink:href="#DejaVuSans-65" x="183.154297"/>
      <use xlink:href="#DejaVuSans-20" x="244.677734"/>
      <use xlink:href="#DejaVuSans-28" x="276.464844"/>
      <use xlink:href="#DejaVuSans-73" x="315.478516"/>
      <use xlink:href="#DejaVuSans-29" x="367.578125"/>
     </g>
    </g>
   </g>
   <g id="matplotlib.axis_2">
    <g id="ytick_1">
     <g id="line2d_9">
      <defs>
       <path id="m8329528fb5" d="M 0 0 
L -3.5 0 
" style="stroke: #000000; stroke-width: 0.8"/>
      </defs>
      <g>
       <use xlink:href="#m8329528fb5" x="135" y="237.126129" style="stroke: #000000; stroke-width: 0.8"/>
      </g>
     </g>
     <g id="text_10">
      <!-- −0.6 -->
      <g transform="translate(103.717187 240.925347) scale(0.1 -0.1)">
       <defs>
        <path id="DejaVuSans-2212" d="M 678 2272 
L 4684 2272 
L 4684 1741 
L 678 1741 
L 678 2272 
z
" transform="scale(0.015625)"/>
        <path id="DejaVuSans-36" d="M 2113 2584 
Q 1688 2584 1439 2293 
Q 1191 2003 1191 1497 
Q 1191 994 1439 701 
Q 1688 409 2113 409 
Q 2538 409 2786 701 
Q 3034 994 3034 1497 
Q 3034 2003 2786 2293 
Q 2538 2584 2113 2584 
z
M 3366 4563 
L 3366 3988 
Q 3128 4100 2886 4159 
Q 2644 4219 2406 4219 
Q 1781 4219 1451 3797 
Q 1122 3375 1075 2522 
Q 1259 2794 1537 2939 
Q 1816 3084 2150 3084 
Q 2853 3084 3261 2657 
Q 3669 2231 3669 1497 
Q 3669 778 3244 343 
Q 2819 -91 2113 -91 
Q 1303 -91 875 529 
Q 447 1150 447 2328 
Q 447 3434 972 4092 
Q 1497 4750 2381 4750 
Q 2619 4750 2861 4703 
Q 3103 4656 3366 4563 
z
" transform="scale(0.015625)"/>
       </defs>
       <use xlink:href="#DejaVuSans-2212"/>
       <use xlink:href="#DejaVuSans-30" x="83.789062"/>
       <use xlink:href="#DejaVuSans-2e" x="147.412109"/>
       <use xlink:href="#DejaVuSans-36" x="179.199219"/>
      </g>
     </g>
    </g>
    <g id="ytick_2">
     <g id="line2d_10">
      <g>
       <use xlink:href="#m8329528fb5" x="135" y="206.937095" style="stroke: #000000; stroke-width: 0.8"/>
      </g>
     </g>
     <g id="text_11">
      <!-- −0.4 -->
      <g transform="translate(103.717187 210.736314) scale(0.1 -0.1)">
       <defs>
        <path id="DejaVuSans-34" d="M 2419 4116 
L 825 1625 
L 2419 1625 
L 2419 4116 
z
M 2253 4666 
L 3047 4666 
L 3047 1625 
L 3713 1625 
L 3713 1100 
L 3047 1100 
L 3047 0 
L 2419 0 
L 2419 1100 
L 313 1100 
L 313 1709 
L 2253 4666 
z
" transform="scale(0.015625)"/>
       </defs>
       <use xlink:href="#DejaVuSans-2212"/>
       <use xlink:href="#DejaVuSans-30" x="83.789062"/>
       <use xlink:href="#DejaVuSans-2e" x="147.412109"/>
       <use xlink:href="#DejaVuSans-34" x="179.199219"/>
      </g>
     </g>
    </g>
    <g id="ytick_3">
     <g id="line2d_11">
      <g>
       <use xlink:href="#m8329528fb5" x="135" y="176.748062" style="stroke: #000000; stroke-width: 0.8"/>
      </g>
     </g>
     <g id="text_12">
      <!-- −0.2 -->
      <g transform="translate(103.717187 180.547281) scale(0.1 -0.1)">
       <use xlink:href="#DejaVuSans-2212"/>
       <use xlink:href="#DejaVuSans-30" x="83.789062"/>
       <use xlink:href="#DejaVuSans-2e" x="147.412109"/>
       <use xlink:href="#DejaVuSans-32" x="179.199219"/>
      </g>
     </g>
    </g>
    <g id="ytick_4">
     <g id="line2d_12">
      <g>
       <use xlink:href="#m8329528fb5" x="135" y="146.559029" style="stroke: #000000; stroke-width: 0.8"/>
      </g>
     </g>
     <g id="text_13">
      <!-- 0.0 -->
      <g transform="translate(112.096875 150.358248) scale(0.1 -0.1)">
       <use xlink:href="#DejaVuSans-30"/>
       <use xlink:href="#DejaVuSans-2e" x="63.623047"/>
       <use xlink:href="#DejaVuSans-30" x="95.410156"/>
      </g>
     </g>
    </g>
    <g id="ytick_5">
     <g id="line2d_13">
      <g>
       <use xlink:href="#m8329528fb5" x="135" y="116.369996" style="stroke: #000000; stroke-width: 0.8"/>
      </g>
     </g>
     <g id="text_14">
      <!-- 0.2 -->
      <g transform="translate(112.096875 120.169214) scale(0.1 -0.1)">
       <use xlink:href="#DejaVuSans-30"/>
       <use xlink:href="#DejaVuSans-2e" x="63.623047"/>
       <use xlink:href="#DejaVuSans-32" x="95.410156"/>
      </g>
     </g>
    </g>
    <g id="ytick_6">
     <g id="line2d_14">
      <g>
       <use xlink:href="#m8329528fb5" x="135" y="86.180962" style="stroke: #000000; stroke-width: 0.8"/>
      </g>
     </g>
     <g id="text_15">
      <!-- 0.4 -->
      <g transform="translate(112.096875 89.980181) scale(0.1 -0.1)">
       <use xlink:href="#DejaVuSans-30"/>
       <use xlink:href="#DejaVuSans-2e" x="63.623047"/>
       <use xlink:href="#DejaVuSans-34" x="95.410156"/>
      </g>
     </g>
    </g>
    <g id="ytick_7">
     <g id="line2d_15">
      <g>
       <use xlink:href="#m8329528fb5" x="135" y="55.991929" style="stroke: #000000; stroke-width: 0.8"/>
      </g>
     </g>
     <g id="text_16">
      <!-- 0.6 -->
      <g transform="translate(112.096875 59.791148) scale(0.1 -0.1)">
       <use xlink:href="#DejaVuSans-30"/>
       <use xlink:href="#DejaVuSans-2e" x="63.623047"/>
       <use xlink:href="#DejaVuSans-36" x="95.410156"/>
      </g>
     </g>
    </g>
    <g id="text_17">
     <!-- Hip Moment (N-m/kg) -->
     <g transform="translate(97.6375 199.461094) rotate(-90) scale(0.1 -0.1)">
      <defs>
       <path id="DejaVuSans-48" d="M 628 4666 
L 1259 4666 
L 1259 2753 
L 3553 2753 
L 3553 4666 
L 4184 4666 
L 4184 0 
L 3553 0 
L 3553 2222 
L 1259 2222 
L 1259 0 
L 628 0 
L 628 4666 
z
" transform="scale(0.015625)"/>
       <path id="DejaVuSans-70" d="M 1159 525 
L 1159 -1331 
L 581 -1331 
L 581 3500 
L 1159 3500 
L 1159 2969 
Q 1341 3281 1617 3432 
Q 1894 3584 2278 3584 
Q 2916 3584 3314 3078 
Q 3713 2572 3713 1747 
Q 3713 922 3314 415 
Q 2916 -91 2278 -91 
Q 1894 -91 1617 61 
Q 1341 213 1159 525 
z
M 3116 1747 
Q 3116 2381 2855 2742 
Q 2594 3103 2138 3103 
Q 1681 3103 1420 2742 
Q 1159 2381 1159 1747 
Q 1159 1113 1420 752 
Q 1681 391 2138 391 
Q 2594 391 2855 752 
Q 3116 1113 3116 1747 
z
" transform="scale(0.015625)"/>
       <path id="DejaVuSans-4d" d="M 628 4666 
L 1569 4666 
L 2759 1491 
L 3956 4666 
L 4897 4666 
L 4897 0 
L 4281 0 
L 4281 4097 
L 3078 897 
L 2444 897 
L 1241 4097 
L 1241 0 
L 628 0 
L 628 4666 
z
" transform="scale(0.015625)"/>
       <path id="DejaVuSans-6f" d="M 1959 3097 
Q 1497 3097 1228 2736 
Q 959 2375 959 1747 
Q 959 1119 1226 758 
Q 1494 397 1959 397 
Q 2419 397 2687 759 
Q 2956 1122 2956 1747 
Q 2956 2369 2687 2733 
Q 2419 3097 1959 3097 
z
M 1959 3584 
Q 2709 3584 3137 3096 
Q 3566 2609 3566 1747 
Q 3566 888 3137 398 
Q 2709 -91 1959 -91 
Q 1206 -91 779 398 
Q 353 888 353 1747 
Q 353 2609 779 3096 
Q 1206 3584 1959 3584 
z
" transform="scale(0.015625)"/>
       <path id="DejaVuSans-6e" d="M 3513 2113 
L 3513 0 
L 2938 0 
L 2938 2094 
Q 2938 2591 2744 2837 
Q 2550 3084 2163 3084 
Q 1697 3084 1428 2787 
Q 1159 2491 1159 1978 
L 1159 0 
L 581 0 
L 581 3500 
L 1159 3500 
L 1159 2956 
Q 1366 3272 1645 3428 
Q 1925 3584 2291 3584 
Q 2894 3584 3203 3211 
Q 3513 2838 3513 2113 
z
" transform="scale(0.015625)"/>
       <path id="DejaVuSans-74" d="M 1172 4494 
L 1172 3500 
L 2356 3500 
L 2356 3053 
L 1172 3053 
L 1172 1153 
Q 1172 725 1289 603 
Q 1406 481 1766 481 
L 2356 481 
L 2356 0 
L 1766 0 
Q 1100 0 847 248 
Q 594 497 594 1153 
L 594 3053 
L 172 3053 
L 172 3500 
L 594 3500 
L 594 4494 
L 1172 4494 
z
" transform="scale(0.015625)"/>
       <path id="DejaVuSans-4e" d="M 628 4666 
L 1478 4666 
L 3547 763 
L 3547 4666 
L 4159 4666 
L 4159 0 
L 3309 0 
L 1241 3903 
L 1241 0 
L 628 0 
L 628 4666 
z
" transform="scale(0.015625)"/>
       <path id="DejaVuSans-2d" d="M 313 2009 
L 1997 2009 
L 1997 1497 
L 313 1497 
L 313 2009 
z
" transform="scale(0.015625)"/>
       <path id="DejaVuSans-2f" d="M 1625 4666 
L 2156 4666 
L 531 -594 
L 0 -594 
L 1625 4666 
z
" transform="scale(0.015625)"/>
       <path id="DejaVuSans-6b" d="M 581 4863 
L 1159 4863 
L 1159 1991 
L 2875 3500 
L 3609 3500 
L 1753 1863 
L 3688 0 
L 2938 0 
L 1159 1709 
L 1159 0 
L 581 0 
L 581 4863 
z
" transform="scale(0.015625)"/>
       <path id="DejaVuSans-67" d="M 2906 1791 
Q 2906 2416 2648 2759 
Q 2391 3103 1925 3103 
Q 1463 3103 1205 2759 
Q 947 2416 947 1791 
Q 947 1169 1205 825 
Q 1463 481 1925 481 
Q 2391 481 2648 825 
Q 2906 1169 2906 1791 
z
M 3481 434 
Q 3481 -459 3084 -895 
Q 2688 -1331 1869 -1331 
Q 1566 -1331 1297 -1286 
Q 1028 -1241 775 -1147 
L 775 -588 
Q 1028 -725 1275 -790 
Q 1522 -856 1778 -856 
Q 2344 -856 2625 -561 
Q 2906 -266 2906 331 
L 2906 616 
Q 2728 306 2450 153 
Q 2172 0 1784 0 
Q 1141 0 747 490 
Q 353 981 353 1791 
Q 353 2603 747 3093 
Q 1141 3584 1784 3584 
Q 2172 3584 2450 3431 
Q 2728 3278 2906 2969 
L 2906 3500 
L 3481 3500 
L 3481 434 
z
" transform="scale(0.015625)"/>
      </defs>
      <use xlink:href="#DejaVuSans-48"/>
      <use xlink:href="#DejaVuSans-69" x="75.195312"/>
      <use xlink:href="#DejaVuSans-70" x="102.978516"/>
      <use xlink:href="#DejaVuSans-20" x="166.455078"/>
      <use xlink:href="#DejaVuSans-4d" x="198.242188"/>
      <use xlink:href="#DejaVuSans-6f" x="284.521484"/>
      <use xlink:href="#DejaVuSans-6d" x="345.703125"/>
      <use xlink:href="#DejaVuSans-65" x="443.115234"/>
      <use xlink:href="#DejaVuSans-6e" x="504.638672"/>
      <use xlink:href="#DejaVuSans-74" x="568.017578"/>
      <use xlink:href="#DejaVuSans-20" x="607.226562"/>
      <use xlink:href="#DejaVuSans-28" x="639.013672"/>
      <use xlink:href="#DejaVuSans-4e" x="678.027344"/>
      <use xlink:href="#DejaVuSans-2d" x="752.832031"/>
      <use xlink:href="#DejaVuSans-6d" x="788.916016"/>
      <use xlink:href="#DejaVuSans-2f" x="886.328125"/>
      <use xlink:href="#DejaVuSans-6b" x="920.019531"/>
      <use xlink:href="#DejaVuSans-67" x="977.929688"/>
      <use xlink:href="#DejaVuSans-29" x="1041.40625"/>
     </g>
    </g>
   </g>
   <g id="line2d_16">
    <path d="M 130.217143 139.799072 
L 135 137.289673 
L 139.782857 132.789469 
L 144.565714 126.011066 
L 149.348571 117.039356 
L 154.131429 106.364986 
L 158.914286 94.865743 
L 163.697143 83.718356 
L 168.48 74.238909 
L 173.262857 67.671516 
L 178.045714 64.958427 
L 182.828571 66.539143 
L 187.611429 72.22665 
L 192.394286 81.208515 
L 197.177143 92.212927 
L 201.96 103.811397 
L 206.742857 114.738161 
L 211.525714 124.102118 
L 216.308571 131.456804 
L 221.091429 136.762519 
L 225.874286 140.270919 
L 230.657143 142.364607 
L 235.44 143.419799 
L 240.222857 143.740077 
L 245.005714 143.55252 
L 249.788571 143.045464 
L 254.571429 142.424375 
L 259.354286 141.959582 
L 264.137143 142.002721 
L 268.92 142.935253 
L 273.702857 145.035317 
L 278.485714 148.328011 
L 283.268571 152.530304 
L 292.834286 161.696922 
L 302.4 170.106946 
L 307.182857 174.801041 
L 311.965714 180.86698 
L 316.748571 188.944094 
L 321.531429 199.052149 
L 331.097143 221.496234 
L 335.88 230.665506 
L 340.662857 236.418603 
L 345.445714 237.818507 
L 350.228571 234.580772 
L 355.011429 227.025478 
L 359.794286 215.968348 
L 364.577143 202.6024 
L 369.36 188.344488 
L 374.142857 174.628468 
L 378.925714 162.686245 
L 383.708571 153.372602 
L 388.491429 147.063923 
L 393.274286 143.636023 
L 398.057143 142.514833 
L 402.84 142.786655 
L 407.622857 143.347679 
L 412.405714 143.070801 
L 417.188571 140.980828 
L 421.971429 136.427895 
L 426.754286 129.220826 
L 431.537143 119.688374 
L 441.102857 97.361472 
L 445.885714 87.213595 
L 450.668571 79.586305 
L 455.451429 75.527865 
L 460.234286 75.543092 
L 465.017143 79.485031 
L 469.8 86.609013 
L 474.582857 95.785955 
L 484.148571 115.611231 
L 488.931429 124.46345 
L 493.714286 131.892337 
L 498.497143 137.671654 
L 503.28 141.760705 
L 508.062857 144.246052 
L 512.845714 145.297003 
L 517.628571 145.151159 
L 522.411429 144.102548 
L 527.194286 142.47535 
L 531.977143 140.611842 
L 536.76 138.883719 
L 541.542857 137.696997 
L 546.325714 137.465609 
L 551.108571 138.54574 
L 555.891429 141.133095 
L 560.674286 145.158325 
L 565.457143 150.260157 
L 575.022857 161.543621 
L 579.805714 166.918806 
L 584.588571 172.104379 
L 589.371429 177.564618 
L 594.154286 183.972823 
L 598.937143 191.880688 
L 603.72 201.372788 
L 613.285714 222.338936 
L 618.068571 231.325077 
L 622.851429 237.558212 
L 627.634286 240.112373 
L 632.417143 238.565214 
L 637.2 233.010171 
L 641.982857 224.01193 
L 646.765714 212.530505 
L 656.331429 187.13105 
L 661.114286 175.724087 
L 665.897143 166.433661 
L 670.68 159.650387 
L 675.462857 155.270922 
L 680.245714 152.770551 
L 685.028571 151.342679 
L 689.811429 150.069178 
L 694.594286 148.077929 
L 699.377143 144.659984 
L 704.16 139.357505 
L 708.942857 132.038211 
L 713.725714 122.9401 
L 718.508571 112.660856 
L 723.291429 102.092291 
L 728.074286 92.314698 
L 732.857143 84.454761 
L 737.64 79.505318 
L 742.422857 78.125708 
L 747.205714 80.473722 
L 751.988571 86.135061 
L 756.771429 94.200128 
L 766.337143 112.817178 
L 771.12 121.273002 
L 775.902857 128.275719 
L 780.685714 133.586272 
L 785.468571 137.245413 
L 790.251429 139.492439 
L 795.034286 140.670195 
L 799.817143 141.142256 
L 804.6 141.231304 
L 828.514286 140.931294 
L 833.297143 141.225568 
L 838.08 142.120974 
L 842.862857 143.940098 
L 847.645714 146.873142 
L 852.428571 150.897429 
L 857.211429 155.825557 
L 861.994286 161.450317 
L 866.777143 167.689049 
L 871.56 174.650068 
L 876.342857 182.578475 
L 881.125714 191.669113 
L 885.908571 201.805741 
L 890.691429 212.384856 
L 895.474286 222.368758 
L 900.257143 230.536805 
L 905.04 235.783686 
L 909.822857 237.349066 
L 914.605714 234.933498 
L 919.388571 228.713277 
L 924.171429 219.290173 
L 928.954286 207.595951 
L 938.52 181.952301 
L 943.302857 170.222259 
L 948.085714 160.343959 
L 952.868571 152.710784 
L 957.651429 147.313578 
L 962.434286 143.799867 
L 967.217143 141.588398 
L 976.782857 138.425612 
L 976.782857 138.425612 
" clip-path="url(#p3a042a9385)" style="fill: none; stroke-dasharray: 5.55,2.4; stroke-dashoffset: 0; stroke: #000000; stroke-width: 1.5"/>
   </g>
   <g id="line2d_17">
    <path d="M 130.217143 123.629766 
L 135 124.888339 
L 139.782857 119.927289 
L 144.565714 116.653645 
L 149.348571 110.89593 
L 154.131429 104.445969 
L 158.914286 94.204713 
L 163.697143 86.012618 
L 168.48 77.416866 
L 173.262857 70.3851 
L 178.045714 60.566485 
L 182.828571 59.440605 
L 187.611429 62.939425 
L 192.394286 71.274335 
L 197.177143 93.042891 
L 201.96 107.375101 
L 206.742857 119.407445 
L 211.525714 130.669371 
L 216.308571 135.766639 
L 221.091429 137.833217 
L 225.874286 136.834658 
L 230.657143 135.266546 
L 235.44 136.624099 
L 240.222857 136.047308 
L 245.005714 136.852852 
L 249.788571 140.422247 
L 254.571429 141.635464 
L 259.354286 141.785096 
L 264.137143 141.083854 
L 268.92 138.997565 
L 273.702857 140.5161 
L 278.485714 143.611654 
L 283.268571 149.316832 
L 288.051429 154.586607 
L 292.834286 167.187831 
L 297.617143 180.703068 
L 302.4 186.954569 
L 307.182857 188.345677 
L 311.965714 190.361408 
L 316.748571 192.703462 
L 321.531429 208.728707 
L 326.314286 212.961172 
L 331.097143 221.107635 
L 335.88 217.930859 
L 340.662857 208.150445 
L 345.445714 203.274584 
L 350.228571 191.658632 
L 355.011429 181.039782 
L 359.794286 176.362101 
L 364.577143 170.01693 
L 369.36 164.98624 
L 374.142857 158.584398 
L 378.925714 155.967001 
L 383.708571 147.059534 
L 388.491429 141.545406 
L 393.274286 139.623135 
L 398.057143 131.010575 
L 402.84 128.325232 
L 407.622857 128.620599 
L 417.188571 126.445064 
L 421.971429 123.063839 
L 426.754286 116.771724 
L 431.537143 112.358018 
L 436.32 106.134689 
L 441.102857 93.03944 
L 445.885714 83.68626 
L 450.668571 75.408256 
L 455.451429 63.60624 
L 460.234286 61.423614 
L 465.017143 63.157819 
L 469.8 70.484652 
L 474.582857 89.656691 
L 479.365714 101.345429 
L 484.148571 110.491775 
L 488.931429 123.593774 
L 493.714286 128.189897 
L 498.497143 132.969737 
L 503.28 134.094086 
L 508.062857 132.916854 
L 512.845714 134.070582 
L 517.628571 133.800448 
L 522.411429 133.210489 
L 527.194286 134.401584 
L 531.977143 138.383846 
L 536.76 141.012517 
L 541.542857 139.613611 
L 546.325714 138.962153 
L 551.108571 139.011701 
L 555.891429 142.868093 
L 560.674286 145.535096 
L 565.457143 150.50301 
L 570.24 156.142612 
L 575.022857 163.954791 
L 579.805714 172.743398 
L 584.588571 178.338039 
L 589.371429 182.006909 
L 594.154286 183.572011 
L 598.937143 187.17451 
L 603.72 196.978879 
L 608.502857 211.825166 
L 613.285714 222.085216 
L 618.068571 225.585593 
L 622.851429 217.962911 
L 627.634286 208.348537 
L 632.417143 194.883861 
L 637.2 179.227881 
L 641.982857 171.935646 
L 646.765714 164.851249 
L 651.548571 158.515913 
L 656.331429 155.619413 
L 661.114286 151.695894 
L 665.897143 143.347314 
L 670.68 138.743671 
L 675.462857 138.700954 
L 680.245714 131.739831 
L 685.028571 129.816443 
L 689.811429 131.858316 
L 694.594286 133.715987 
L 699.377143 134.564444 
L 704.16 128.137013 
L 708.942857 124.38219 
L 713.725714 118.89353 
L 718.508571 112.196949 
L 723.291429 99.62821 
L 728.074286 91.389326 
L 732.857143 84.368167 
L 737.64 72.248615 
L 742.422857 70.813827 
L 747.205714 72.234526 
L 751.988571 72.32621 
L 756.771429 82.901435 
L 761.554286 97.811673 
L 766.337143 108.078804 
L 771.12 116.543703 
L 775.902857 123.528601 
L 780.685714 127.449353 
L 785.468571 133.543224 
L 790.251429 132.720191 
L 795.034286 135.59016 
L 799.817143 139.313729 
L 804.6 138.875938 
L 809.382857 139.724129 
L 814.165714 142.37749 
L 818.948571 141.183056 
L 823.731429 141.030232 
L 828.514286 142.29119 
L 833.297143 139.460371 
L 838.08 140.690577 
L 842.862857 144.653359 
L 847.645714 147.824068 
L 852.428571 152.138416 
L 857.211429 160.327325 
L 861.994286 171.353469 
L 866.777143 181.350796 
L 871.56 186.84055 
L 876.342857 187.708723 
L 881.125714 189.787024 
L 885.908571 200.754349 
L 890.691429 215.482208 
L 895.474286 228.769022 
L 900.257143 227.908879 
L 905.04 228.346962 
L 909.822857 217.909199 
L 914.605714 204.825803 
L 919.388571 191.139822 
L 924.171429 178.296335 
L 928.954286 172.322339 
L 933.737143 164.132345 
L 938.52 158.01174 
L 943.302857 154.021935 
L 948.085714 148.35187 
L 952.868571 140.306176 
L 957.651429 138.457143 
L 962.434286 132.323148 
L 967.217143 126.994367 
L 972 124.660941 
L 976.782857 125.637879 
L 976.782857 125.637879 
" clip-path="url(#p3a042a9385)" style="fill: none; stroke: #1f77b4; stroke-width: 1.5; stroke-linecap: square"/>
   </g>
   <g id="line2d_18">
    <path d="M -1 155.978405 
L 5.862857 164.144753 
L 15.428571 177.933419 
L 24.994286 179.087588 
L 34.56 185.652743 
L 44.125714 208.940385 
L 53.691429 224.982333 
L 63.257143 206.817494 
L 72.822857 184.834742 
L 82.388571 170.974379 
L 91.954286 161.646747 
L 101.52 151.208562 
L 111.085714 141.379074 
L 120.651429 127.733571 
L 130.217143 125.106013 
L 139.782857 121.10779 
L 149.348571 107.915944 
L 158.914286 91.57874 
L 168.48 81.513319 
L 178.045714 69.225814 
L 187.611429 61.680947 
L 197.177143 90.693306 
L 206.742857 117.465411 
L 216.308571 133.412443 
L 225.874286 137.036612 
L 235.44 135.855929 
L 245.005714 138.530853 
L 254.571429 141.934795 
L 264.137143 140.981682 
L 273.702857 142.064189 
L 283.268571 152.406953 
L 292.834286 167.491872 
L 302.4 177.064547 
L 311.965714 183.102836 
L 321.531429 199.635374 
L 331.097143 219.511026 
L 340.662857 212.008679 
L 350.228571 191.153088 
L 359.794286 174.616836 
L 369.36 167.280613 
L 378.925714 158.716279 
L 388.491429 150.42899 
L 398.057143 136.506121 
L 407.622857 129.211316 
L 417.188571 127.022559 
L 426.754286 117.216011 
L 436.32 105.862965 
L 445.885714 84.804105 
L 455.451429 69.785358 
L 465.017143 62.788374 
L 474.582857 84.963676 
L 484.148571 114.323314 
L 493.714286 129.518014 
L 503.28 132.613872 
L 512.845714 134.400306 
L 522.411429 136.047761 
L 531.977143 136.249608 
L 541.542857 139.588574 
L 551.108571 144.265596 
L 560.674286 151.126069 
L 570.24 160.337121 
L 579.805714 172.629848 
L 589.371429 179.037322 
L 598.937143 184.806995 
L 608.502857 209.325948 
L 618.068571 227.044759 
L 627.634286 207.321836 
L 637.2 184.026485 
L 646.765714 170.036793 
L 656.331429 157.089351 
L 665.897143 150.57168 
L 675.462857 142.986421 
L 685.028571 130.803413 
L 694.594286 129.522121 
L 704.16 127.031828 
L 713.725714 113.41386 
L 723.291429 100.02973 
L 742.422857 78.415168 
L 751.988571 76.758913 
L 771.12 120.477062 
L 780.685714 132.929356 
L 799.817143 137.897521 
L 809.382857 140.734804 
L 818.948571 139.256034 
L 828.514286 141.032936 
L 838.08 143.263385 
L 847.645714 153.306588 
L 857.211429 163.588359 
L 866.777143 176.150786 
L 876.342857 179.144292 
L 885.908571 193.460719 
L 895.474286 215.713131 
L 905.04 225.377501 
L 914.605714 204.23908 
L 924.171429 184.158984 
L 933.737143 166.599513 
L 943.302857 157.449171 
L 952.868571 149.066526 
L 962.434286 139.378894 
L 972 127.621197 
L 981.565714 123.947773 
L 991.131429 119.914318 
L 1000.697143 108.329102 
L 1010.262857 91.955995 
L 1019.828571 84.45816 
L 1029.394286 73.11969 
L 1038.96 68.927356 
L 1048.525714 94.659037 
L 1058.091429 121.656913 
L 1067.657143 138.69441 
L 1077.222857 139.630516 
L 1081 138.536648 
L 1081 138.536648 
" clip-path="url(#p3a042a9385)" style="fill: none; stroke: #ff7f0e; stroke-width: 1.5; stroke-linecap: square"/>
   </g>
   <g id="line2d_19">
    <path d="M 111.085714 135.334059 
L 135 111.780678 
L 158.914286 91.174468 
L 182.828571 44.64 
L 206.742857 98.108805 
L 230.657143 139.549354 
L 254.571429 134.695582 
L 278.485714 150.258351 
L 302.4 161.605885 
L 326.314286 201.472181 
L 350.228571 196.435651 
L 374.142857 154.469146 
L 398.057143 125.016052 
L 421.971429 113.308298 
L 445.885714 71.591881 
L 469.8 49.428059 
L 493.714286 120.459529 
L 517.628571 134.011159 
L 541.542857 143.446963 
L 565.457143 156.578536 
L 589.371429 173.243349 
L 613.285714 202.872318 
L 637.2 192.318794 
L 661.114286 147.444464 
L 685.028571 122.442043 
L 708.942857 107.129937 
L 732.857143 76.890117 
L 756.771429 68.608159 
L 780.685714 131.763806 
L 804.6 138.272442 
L 828.514286 141.172311 
L 852.428571 151.074039 
L 876.342857 172.018761 
L 900.257143 198.487452 
L 924.171429 189.822882 
L 948.085714 151.175967 
L 972 120.764967 
L 995.914286 103.437811 
L 1019.828571 69.822453 
L 1043.742857 51.455864 
L 1067.657143 126.382242 
L 1081 131.338267 
L 1081 131.338267 
" clip-path="url(#p3a042a9385)" style="fill: none; stroke: #2ca02c; stroke-width: 1.5; stroke-linecap: square"/>
   </g>
   <g id="patch_3">
    <path d="M 135 256.32 
L 135 34.56 
" style="fill: none; stroke: #000000; stroke-width: 0.8; stroke-linejoin: miter; stroke-linecap: square"/>
   </g>
   <g id="patch_4">
    <path d="M 972 256.32 
L 972 34.56 
" style="fill: none; stroke: #000000; stroke-width: 0.8; stroke-linejoin: miter; stroke-linecap: square"/>
   </g>
   <g id="patch_5">
    <path d="M 135 256.32 
L 972 256.32 
" style="fill: none; stroke: #000000; stroke-width: 0.8; stroke-linejoin: miter; stroke-linecap: square"/>
   </g>
   <g id="patch_6">
    <path d="M 135 34.56 
L 972 34.56 
" style="fill: none; stroke: #000000; stroke-width: 0.8; stroke-linejoin: miter; stroke-linecap: square"/>
   </g>
   <g id="text_18">
    <!-- AB07_Leo 1p2mps trial_3 L - Frequency Model Comparison -->
    <g transform="translate(377.38125 28.56) scale(0.12 -0.12)">
     <defs>
      <path id="DejaVuSans-41" d="M 2188 4044 
L 1331 1722 
L 3047 1722 
L 2188 4044 
z
M 1831 4666 
L 2547 4666 
L 4325 0 
L 3669 0 
L 3244 1197 
L 1141 1197 
L 716 0 
L 50 0 
L 1831 4666 
z
" transform="scale(0.015625)"/>
      <path id="DejaVuSans-42" d="M 1259 2228 
L 1259 519 
L 2272 519 
Q 2781 519 3026 730 
Q 3272 941 3272 1375 
Q 3272 1813 3026 2020 
Q 2781 2228 2272 2228 
L 1259 2228 
z
M 1259 4147 
L 1259 2741 
L 2194 2741 
Q 2656 2741 2882 2914 
Q 3109 3088 3109 3444 
Q 3109 3797 2882 3972 
Q 2656 4147 2194 4147 
L 1259 4147 
z
M 628 4666 
L 2241 4666 
Q 2963 4666 3353 4366 
Q 3744 4066 3744 3513 
Q 3744 3084 3544 2831 
Q 3344 2578 2956 2516 
Q 3422 2416 3680 2098 
Q 3938 1781 3938 1306 
Q 3938 681 3513 340 
Q 3088 0 2303 0 
L 628 0 
L 628 4666 
z
" transform="scale(0.015625)"/>
      <path id="DejaVuSans-37" d="M 525 4666 
L 3525 4666 
L 3525 4397 
L 1831 0 
L 1172 0 
L 2766 4134 
L 525 4134 
L 525 4666 
z
" transform="scale(0.015625)"/>
      <path id="DejaVuSans-5f" d="M 3263 -1063 
L 3263 -1509 
L -63 -1509 
L -63 -1063 
L 3263 -1063 
z
" transform="scale(0.015625)"/>
      <path id="DejaVuSans-4c" d="M 628 4666 
L 1259 4666 
L 1259 531 
L 3531 531 
L 3531 0 
L 628 0 
L 628 4666 
z
" transform="scale(0.015625)"/>
      <path id="DejaVuSans-72" d="M 2631 2963 
Q 2534 3019 2420 3045 
Q 2306 3072 2169 3072 
Q 1681 3072 1420 2755 
Q 1159 2438 1159 1844 
L 1159 0 
L 581 0 
L 581 3500 
L 1159 3500 
L 1159 2956 
Q 1341 3275 1631 3429 
Q 1922 3584 2338 3584 
Q 2397 3584 2469 3576 
Q 2541 3569 2628 3553 
L 2631 2963 
z
" transform="scale(0.015625)"/>
      <path id="DejaVuSans-61" d="M 2194 1759 
Q 1497 1759 1228 1600 
Q 959 1441 959 1056 
Q 959 750 1161 570 
Q 1363 391 1709 391 
Q 2188 391 2477 730 
Q 2766 1069 2766 1631 
L 2766 1759 
L 2194 1759 
z
M 3341 1997 
L 3341 0 
L 2766 0 
L 2766 531 
Q 2569 213 2275 61 
Q 1981 -91 1556 -91 
Q 1019 -91 701 211 
Q 384 513 384 1019 
Q 384 1609 779 1909 
Q 1175 2209 1959 2209 
L 2766 2209 
L 2766 2266 
Q 2766 2663 2505 2880 
Q 2244 3097 1772 3097 
Q 1472 3097 1187 3025 
Q 903 2953 641 2809 
L 641 3341 
Q 956 3463 1253 3523 
Q 1550 3584 1831 3584 
Q 2591 3584 2966 3190 
Q 3341 2797 3341 1997 
z
" transform="scale(0.015625)"/>
      <path id="DejaVuSans-6c" d="M 603 4863 
L 1178 4863 
L 1178 0 
L 603 0 
L 603 4863 
z
" transform="scale(0.015625)"/>
      <path id="DejaVuSans-46" d="M 628 4666 
L 3309 4666 
L 3309 4134 
L 1259 4134 
L 1259 2759 
L 3109 2759 
L 3109 2228 
L 1259 2228 
L 1259 0 
L 628 0 
L 628 4666 
z
" transform="scale(0.015625)"/>
      <path id="DejaVuSans-71" d="M 947 1747 
Q 947 1113 1208 752 
Q 1469 391 1925 391 
Q 2381 391 2643 752 
Q 2906 1113 2906 1747 
Q 2906 2381 2643 2742 
Q 2381 3103 1925 3103 
Q 1469 3103 1208 2742 
Q 947 2381 947 1747 
z
M 2906 525 
Q 2725 213 2448 61 
Q 2172 -91 1784 -91 
Q 1150 -91 751 415 
Q 353 922 353 1747 
Q 353 2572 751 3078 
Q 1150 3584 1784 3584 
Q 2172 3584 2448 3432 
Q 2725 3281 2906 2969 
L 2906 3500 
L 3481 3500 
L 3481 -1331 
L 2906 -1331 
L 2906 525 
z
" transform="scale(0.015625)"/>
      <path id="DejaVuSans-75" d="M 544 1381 
L 544 3500 
L 1119 3500 
L 1119 1403 
Q 1119 906 1312 657 
Q 1506 409 1894 409 
Q 2359 409 2629 706 
Q 2900 1003 2900 1516 
L 2900 3500 
L 3475 3500 
L 3475 0 
L 2900 0 
L 2900 538 
Q 2691 219 2414 64 
Q 2138 -91 1772 -91 
Q 1169 -91 856 284 
Q 544 659 544 1381 
z
M 1991 3584 
L 1991 3584 
z
" transform="scale(0.015625)"/>
      <path id="DejaVuSans-63" d="M 3122 3366 
L 3122 2828 
Q 2878 2963 2633 3030 
Q 2388 3097 2138 3097 
Q 1578 3097 1268 2742 
Q 959 2388 959 1747 
Q 959 1106 1268 751 
Q 1578 397 2138 397 
Q 2388 397 2633 464 
Q 2878 531 3122 666 
L 3122 134 
Q 2881 22 2623 -34 
Q 2366 -91 2075 -91 
Q 1284 -91 818 406 
Q 353 903 353 1747 
Q 353 2603 823 3093 
Q 1294 3584 2113 3584 
Q 2378 3584 2631 3529 
Q 2884 3475 3122 3366 
z
" transform="scale(0.015625)"/>
      <path id="DejaVuSans-79" d="M 2059 -325 
Q 1816 -950 1584 -1140 
Q 1353 -1331 966 -1331 
L 506 -1331 
L 506 -850 
L 844 -850 
Q 1081 -850 1212 -737 
Q 1344 -625 1503 -206 
L 1606 56 
L 191 3500 
L 800 3500 
L 1894 763 
L 2988 3500 
L 3597 3500 
L 2059 -325 
z
" transform="scale(0.015625)"/>
      <path id="DejaVuSans-64" d="M 2906 2969 
L 2906 4863 
L 3481 4863 
L 3481 0 
L 2906 0 
L 2906 525 
Q 2725 213 2448 61 
Q 2172 -91 1784 -91 
Q 1150 -91 751 415 
Q 353 922 353 1747 
Q 353 2572 751 3078 
Q 1150 3584 1784 3584 
Q 2172 3584 2448 3432 
Q 2725 3281 2906 2969 
z
M 947 1747 
Q 947 1113 1208 752 
Q 1469 391 1925 391 
Q 2381 391 2643 752 
Q 2906 1113 2906 1747 
Q 2906 2381 2643 2742 
Q 2381 3103 1925 3103 
Q 1469 3103 1208 2742 
Q 947 2381 947 1747 
z
" transform="scale(0.015625)"/>
      <path id="DejaVuSans-43" d="M 4122 4306 
L 4122 3641 
Q 3803 3938 3442 4084 
Q 3081 4231 2675 4231 
Q 1875 4231 1450 3742 
Q 1025 3253 1025 2328 
Q 1025 1406 1450 917 
Q 1875 428 2675 428 
Q 3081 428 3442 575 
Q 3803 722 4122 1019 
L 4122 359 
Q 3791 134 3420 21 
Q 3050 -91 2638 -91 
Q 1578 -91 968 557 
Q 359 1206 359 2328 
Q 359 3453 968 4101 
Q 1578 4750 2638 4750 
Q 3056 4750 3426 4639 
Q 3797 4528 4122 4306 
z
" transform="scale(0.015625)"/>
     </defs>
     <use xlink:href="#DejaVuSans-41"/>
     <use xlink:href="#DejaVuSans-42" x="68.408203"/>
     <use xlink:href="#DejaVuSans-30" x="137.011719"/>
     <use xlink:href="#DejaVuSans-37" x="200.634766"/>
     <use xlink:href="#DejaVuSans-5f" x="264.257812"/>
     <use xlink:href="#DejaVuSans-4c" x="314.257812"/>
     <use xlink:href="#DejaVuSans-65" x="368.220703"/>
     <use xlink:href="#DejaVuSans-6f" x="429.744141"/>
     <use xlink:href="#DejaVuSans-20" x="490.925781"/>
     <use xlink:href="#DejaVuSans-31" x="522.712891"/>
     <use xlink:href="#DejaVuSans-70" x="586.335938"/>
     <use xlink:href="#DejaVuSans-32" x="649.8125"/>
     <use xlink:href="#DejaVuSans-6d" x="713.435547"/>
     <use xlink:href="#DejaVuSans-70" x="810.847656"/>
     <use xlink:href="#DejaVuSans-73" x="874.324219"/>
     <use xlink:href="#DejaVuSans-20" x="926.423828"/>
     <use xlink:href="#DejaVuSans-74" x="958.210938"/>
     <use xlink:href="#DejaVuSans-72" x="997.419922"/>
     <use xlink:href="#DejaVuSans-69" x="1038.533203"/>
     <use xlink:href="#DejaVuSans-61" x="1066.316406"/>
     <use xlink:href="#DejaVuSans-6c" x="1127.595703"/>
     <use xlink:href="#DejaVuSans-5f" x="1155.378906"/>
     <use xlink:href="#DejaVuSans-33" x="1205.378906"/>
     <use xlink:href="#DejaVuSans-20" x="1269.001953"/>
     <use xlink:href="#DejaVuSans-4c" x="1300.789062"/>
     <use xlink:href="#DejaVuSans-20" x="1356.501953"/>
     <use xlink:href="#DejaVuSans-2d" x="1388.289062"/>
     <use xlink:href="#DejaVuSans-20" x="1424.373047"/>
     <use xlink:href="#DejaVuSans-46" x="1456.160156"/>
     <use xlink:href="#DejaVuSans-72" x="1506.429688"/>
     <use xlink:href="#DejaVuSans-65" x="1545.292969"/>
     <use xlink:href="#DejaVuSans-71" x="1606.816406"/>
     <use xlink:href="#DejaVuSans-75" x="1670.292969"/>
     <use xlink:href="#DejaVuSans-65" x="1733.671875"/>
     <use xlink:href="#DejaVuSans-6e" x="1795.195312"/>
     <use xlink:href="#DejaVuSans-63" x="1858.574219"/>
     <use xlink:href="#DejaVuSans-79" x="1913.554688"/>
     <use xlink:href="#DejaVuSans-20" x="1972.734375"/>
     <use xlink:href="#DejaVuSans-4d" x="2004.521484"/>
     <use xlink:href="#DejaVuSans-6f" x="2090.800781"/>
     <use xlink:href="#DejaVuSans-64" x="2151.982422"/>
     <use xlink:href="#DejaVuSans-65" x="2215.458984"/>
     <use xlink:href="#DejaVuSans-6c" x="2276.982422"/>
     <use xlink:href="#DejaVuSans-20" x="2304.765625"/>
     <use xlink:href="#DejaVuSans-43" x="2336.552734"/>
     <use xlink:href="#DejaVuSans-6f" x="2406.376953"/>
     <use xlink:href="#DejaVuSans-6d" x="2467.558594"/>
     <use xlink:href="#DejaVuSans-70" x="2564.970703"/>
     <use xlink:href="#DejaVuSans-61" x="2628.447266"/>
     <use xlink:href="#DejaVuSans-72" x="2689.726562"/>
     <use xlink:href="#DejaVuSans-69" x="2730.839844"/>
     <use xlink:href="#DejaVuSans-73" x="2758.623047"/>
     <use xlink:href="#DejaVuSans-6f" x="2810.722656"/>
     <use xlink:href="#DejaVuSans-6e" x="2871.904297"/>
    </g>
   </g>
   <g id="legend_1">
    <g id="patch_7">
     <path d="M 748.684375 101.2725 
L 965 101.2725 
Q 967 101.2725 967 99.2725 
L 967 41.56 
Q 967 39.56 965 39.56 
L 748.684375 39.56 
Q 746.684375 39.56 746.684375 41.56 
L 746.684375 99.2725 
Q 746.684375 101.2725 748.684375 101.2725 
z
" style="fill: #ffffff; opacity: 0.8; stroke: #cccccc; stroke-linejoin: miter"/>
    </g>
    <g id="line2d_20">
     <path d="M 750.684375 47.658438 
L 760.684375 47.658438 
L 770.684375 47.658438 
" style="fill: none; stroke-dasharray: 5.55,2.4; stroke-dashoffset: 0; stroke: #000000; stroke-width: 1.5"/>
    </g>
    <g id="text_19">
     <!-- GT (50Hz downsampled) -->
     <g transform="translate(778.684375 51.158438) scale(0.1 -0.1)">
      <defs>
       <path id="DejaVuSans-47" d="M 3809 666 
L 3809 1919 
L 2778 1919 
L 2778 2438 
L 4434 2438 
L 4434 434 
Q 4069 175 3628 42 
Q 3188 -91 2688 -91 
Q 1594 -91 976 548 
Q 359 1188 359 2328 
Q 359 3472 976 4111 
Q 1594 4750 2688 4750 
Q 3144 4750 3555 4637 
Q 3966 4525 4313 4306 
L 4313 3634 
Q 3963 3931 3569 4081 
Q 3175 4231 2741 4231 
Q 1884 4231 1454 3753 
Q 1025 3275 1025 2328 
Q 1025 1384 1454 906 
Q 1884 428 2741 428 
Q 3075 428 3337 486 
Q 3600 544 3809 666 
z
" transform="scale(0.015625)"/>
       <path id="DejaVuSans-7a" d="M 353 3500 
L 3084 3500 
L 3084 2975 
L 922 459 
L 3084 459 
L 3084 0 
L 275 0 
L 275 525 
L 2438 3041 
L 353 3041 
L 353 3500 
z
" transform="scale(0.015625)"/>
       <path id="DejaVuSans-77" d="M 269 3500 
L 844 3500 
L 1563 769 
L 2278 3500 
L 2956 3500 
L 3675 769 
L 4391 3500 
L 4966 3500 
L 4050 0 
L 3372 0 
L 2619 2869 
L 1863 0 
L 1184 0 
L 269 3500 
z
" transform="scale(0.015625)"/>
      </defs>
      <use xlink:href="#DejaVuSans-47"/>
      <use xlink:href="#DejaVuSans-54" x="73.865234"/>
      <use xlink:href="#DejaVuSans-20" x="134.949219"/>
      <use xlink:href="#DejaVuSans-28" x="166.736328"/>
      <use xlink:href="#DejaVuSans-35" x="205.75"/>
      <use xlink:href="#DejaVuSans-30" x="269.373047"/>
      <use xlink:href="#DejaVuSans-48" x="332.996094"/>
      <use xlink:href="#DejaVuSans-7a" x="408.191406"/>
      <use xlink:href="#DejaVuSans-20" x="460.681641"/>
      <use xlink:href="#DejaVuSans-64" x="492.46875"/>
      <use xlink:href="#DejaVuSans-6f" x="555.945312"/>
      <use xlink:href="#DejaVuSans-77" x="617.126953"/>
      <use xlink:href="#DejaVuSans-6e" x="698.914062"/>
      <use xlink:href="#DejaVuSans-73" x="762.292969"/>
      <use xlink:href="#DejaVuSans-61" x="814.392578"/>
      <use xlink:href="#DejaVuSans-6d" x="875.671875"/>
      <use xlink:href="#DejaVuSans-70" x="973.083984"/>
      <use xlink:href="#DejaVuSans-6c" x="1036.560547"/>
      <use xlink:href="#DejaVuSans-65" x="1064.34375"/>
      <use xlink:href="#DejaVuSans-64" x="1125.867188"/>
      <use xlink:href="#DejaVuSans-29" x="1189.34375"/>
     </g>
    </g>
    <g id="line2d_21">
     <path d="M 750.684375 62.336563 
L 760.684375 62.336563 
L 770.684375 62.336563 
" style="fill: none; stroke: #1f77b4; stroke-width: 1.5; stroke-linecap: square"/>
    </g>
    <g id="text_20">
     <!-- 50Hz pred (RMSE=0.101, R2=0.880) -->
     <g transform="translate(778.684375 65.836563) scale(0.1 -0.1)">
      <defs>
       <path id="DejaVuSans-52" d="M 2841 2188 
Q 3044 2119 3236 1894 
Q 3428 1669 3622 1275 
L 4263 0 
L 3584 0 
L 2988 1197 
Q 2756 1666 2539 1819 
Q 2322 1972 1947 1972 
L 1259 1972 
L 1259 0 
L 628 0 
L 628 4666 
L 2053 4666 
Q 2853 4666 3247 4331 
Q 3641 3997 3641 3322 
Q 3641 2881 3436 2590 
Q 3231 2300 2841 2188 
z
M 1259 4147 
L 1259 2491 
L 2053 2491 
Q 2509 2491 2742 2702 
Q 2975 2913 2975 3322 
Q 2975 3731 2742 3939 
Q 2509 4147 2053 4147 
L 1259 4147 
z
" transform="scale(0.015625)"/>
       <path id="DejaVuSans-53" d="M 3425 4513 
L 3425 3897 
Q 3066 4069 2747 4153 
Q 2428 4238 2131 4238 
Q 1616 4238 1336 4038 
Q 1056 3838 1056 3469 
Q 1056 3159 1242 3001 
Q 1428 2844 1947 2747 
L 2328 2669 
Q 3034 2534 3370 2195 
Q 3706 1856 3706 1288 
Q 3706 609 3251 259 
Q 2797 -91 1919 -91 
Q 1588 -91 1214 -16 
Q 841 59 441 206 
L 441 856 
Q 825 641 1194 531 
Q 1563 422 1919 422 
Q 2459 422 2753 634 
Q 3047 847 3047 1241 
Q 3047 1584 2836 1778 
Q 2625 1972 2144 2069 
L 1759 2144 
Q 1053 2284 737 2584 
Q 422 2884 422 3419 
Q 422 4038 858 4394 
Q 1294 4750 2059 4750 
Q 2388 4750 2728 4690 
Q 3069 4631 3425 4513 
z
" transform="scale(0.015625)"/>
       <path id="DejaVuSans-45" d="M 628 4666 
L 3578 4666 
L 3578 4134 
L 1259 4134 
L 1259 2753 
L 3481 2753 
L 3481 2222 
L 1259 2222 
L 1259 531 
L 3634 531 
L 3634 0 
L 628 0 
L 628 4666 
z
" transform="scale(0.015625)"/>
       <path id="DejaVuSans-3d" d="M 678 2906 
L 4684 2906 
L 4684 2381 
L 678 2381 
L 678 2906 
z
M 678 1631 
L 4684 1631 
L 4684 1100 
L 678 1100 
L 678 1631 
z
" transform="scale(0.015625)"/>
       <path id="DejaVuSans-2c" d="M 750 794 
L 1409 794 
L 1409 256 
L 897 -744 
L 494 -744 
L 750 256 
L 750 794 
z
" transform="scale(0.015625)"/>
       <path id="DejaVuSans-38" d="M 2034 2216 
Q 1584 2216 1326 1975 
Q 1069 1734 1069 1313 
Q 1069 891 1326 650 
Q 1584 409 2034 409 
Q 2484 409 2743 651 
Q 3003 894 3003 1313 
Q 3003 1734 2745 1975 
Q 2488 2216 2034 2216 
z
M 1403 2484 
Q 997 2584 770 2862 
Q 544 3141 544 3541 
Q 544 4100 942 4425 
Q 1341 4750 2034 4750 
Q 2731 4750 3128 4425 
Q 3525 4100 3525 3541 
Q 3525 3141 3298 2862 
Q 3072 2584 2669 2484 
Q 3125 2378 3379 2068 
Q 3634 1759 3634 1313 
Q 3634 634 3220 271 
Q 2806 -91 2034 -91 
Q 1263 -91 848 271 
Q 434 634 434 1313 
Q 434 1759 690 2068 
Q 947 2378 1403 2484 
z
M 1172 3481 
Q 1172 3119 1398 2916 
Q 1625 2713 2034 2713 
Q 2441 2713 2670 2916 
Q 2900 3119 2900 3481 
Q 2900 3844 2670 4047 
Q 2441 4250 2034 4250 
Q 1625 4250 1398 4047 
Q 1172 3844 1172 3481 
z
" transform="scale(0.015625)"/>
      </defs>
      <use xlink:href="#DejaVuSans-35"/>
      <use xlink:href="#DejaVuSans-30" x="63.623047"/>
      <use xlink:href="#DejaVuSans-48" x="127.246094"/>
      <use xlink:href="#DejaVuSans-7a" x="202.441406"/>
      <use xlink:href="#DejaVuSans-20" x="254.931641"/>
      <use xlink:href="#DejaVuSans-70" x="286.71875"/>
      <use xlink:href="#DejaVuSans-72" x="350.195312"/>
      <use xlink:href="#DejaVuSans-65" x="389.058594"/>
      <use xlink:href="#DejaVuSans-64" x="450.582031"/>
      <use xlink:href="#DejaVuSans-20" x="514.058594"/>
      <use xlink:href="#DejaVuSans-28" x="545.845703"/>
      <use xlink:href="#DejaVuSans-52" x="584.859375"/>
      <use xlink:href="#DejaVuSans-4d" x="654.341797"/>
      <use xlink:href="#DejaVuSans-53" x="740.621094"/>
      <use xlink:href="#DejaVuSans-45" x="804.097656"/>
      <use xlink:href="#DejaVuSans-3d" x="867.28125"/>
      <use xlink:href="#DejaVuSans-30" x="951.070312"/>
      <use xlink:href="#DejaVuSans-2e" x="1014.693359"/>
      <use xlink:href="#DejaVuSans-31" x="1046.480469"/>
      <use xlink:href="#DejaVuSans-30" x="1110.103516"/>
      <use xlink:href="#DejaVuSans-31" x="1173.726562"/>
      <use xlink:href="#DejaVuSans-2c" x="1237.349609"/>
      <use xlink:href="#DejaVuSans-20" x="1269.136719"/>
      <use xlink:href="#DejaVuSans-52" x="1300.923828"/>
      <use xlink:href="#DejaVuSans-32" x="1370.40625"/>
      <use xlink:href="#DejaVuSans-3d" x="1434.029297"/>
      <use xlink:href="#DejaVuSans-30" x="1517.818359"/>
      <use xlink:href="#DejaVuSans-2e" x="1581.441406"/>
      <use xlink:href="#DejaVuSans-38" x="1613.228516"/>
      <use xlink:href="#DejaVuSans-38" x="1676.851562"/>
      <use xlink:href="#DejaVuSans-30" x="1740.474609"/>
      <use xlink:href="#DejaVuSans-29" x="1804.097656"/>
     </g>
    </g>
    <g id="line2d_22">
     <path d="M 750.684375 77.014688 
L 760.684375 77.014688 
L 770.684375 77.014688 
" style="fill: none; stroke: #ff7f0e; stroke-width: 1.5; stroke-linecap: square"/>
    </g>
    <g id="text_21">
     <!-- 25Hz pred (RMSE=0.097, R2=0.889) -->
     <g transform="translate(778.684375 80.514688) scale(0.1 -0.1)">
      <use xlink:href="#DejaVuSans-32"/>
      <use xlink:href="#DejaVuSans-35" x="63.623047"/>
      <use xlink:href="#DejaVuSans-48" x="127.246094"/>
      <use xlink:href="#DejaVuSans-7a" x="202.441406"/>
      <use xlink:href="#DejaVuSans-20" x="254.931641"/>
      <use xlink:href="#DejaVuSans-70" x="286.71875"/>
      <use xlink:href="#DejaVuSans-72" x="350.195312"/>
      <use xlink:href="#DejaVuSans-65" x="389.058594"/>
      <use xlink:href="#DejaVuSans-64" x="450.582031"/>
      <use xlink:href="#DejaVuSans-20" x="514.058594"/>
      <use xlink:href="#DejaVuSans-28" x="545.845703"/>
      <use xlink:href="#DejaVuSans-52" x="584.859375"/>
      <use xlink:href="#DejaVuSans-4d" x="654.341797"/>
      <use xlink:href="#DejaVuSans-53" x="740.621094"/>
      <use xlink:href="#DejaVuSans-45" x="804.097656"/>
      <use xlink:href="#DejaVuSans-3d" x="867.28125"/>
      <use xlink:href="#DejaVuSans-30" x="951.070312"/>
      <use xlink:href="#DejaVuSans-2e" x="1014.693359"/>
      <use xlink:href="#DejaVuSans-30" x="1046.480469"/>
      <use xlink:href="#DejaVuSans-39" x="1110.103516"/>
      <use xlink:href="#DejaVuSans-37" x="1173.726562"/>
      <use xlink:href="#DejaVuSans-2c" x="1237.349609"/>
      <use xlink:href="#DejaVuSans-20" x="1269.136719"/>
      <use xlink:href="#DejaVuSans-52" x="1300.923828"/>
      <use xlink:href="#DejaVuSans-32" x="1370.40625"/>
      <use xlink:href="#DejaVuSans-3d" x="1434.029297"/>
      <use xlink:href="#DejaVuSans-30" x="1517.818359"/>
      <use xlink:href="#DejaVuSans-2e" x="1581.441406"/>
      <use xlink:href="#DejaVuSans-38" x="1613.228516"/>
      <use xlink:href="#DejaVuSans-38" x="1676.851562"/>
      <use xlink:href="#DejaVuSans-39" x="1740.474609"/>
      <use xlink:href="#DejaVuSans-29" x="1804.097656"/>
     </g>
    </g>
    <g id="line2d_23">
     <path d="M 750.684375 91.692813 
L 760.684375 91.692813 
L 770.684375 91.692813 
" style="fill: none; stroke: #2ca02c; stroke-width: 1.5; stroke-linecap: square"/>
    </g>
    <g id="text_22">
     <!-- 10Hz pred (RMSE=0.127, R2=0.804) -->
     <g transform="translate(778.684375 95.192813) scale(0.1 -0.1)">
      <use xlink:href="#DejaVuSans-31"/>
      <use xlink:href="#DejaVuSans-30" x="63.623047"/>
      <use xlink:href="#DejaVuSans-48" x="127.246094"/>
      <use xlink:href="#DejaVuSans-7a" x="202.441406"/>
      <use xlink:href="#DejaVuSans-20" x="254.931641"/>
      <use xlink:href="#DejaVuSans-70" x="286.71875"/>
      <use xlink:href="#DejaVuSans-72" x="350.195312"/>
      <use xlink:href="#DejaVuSans-65" x="389.058594"/>
      <use xlink:href="#DejaVuSans-64" x="450.582031"/>
      <use xlink:href="#DejaVuSans-20" x="514.058594"/>
      <use xlink:href="#DejaVuSans-28" x="545.845703"/>
      <use xlink:href="#DejaVuSans-52" x="584.859375"/>
      <use xlink:href="#DejaVuSans-4d" x="654.341797"/>
      <use xlink:href="#DejaVuSans-53" x="740.621094"/>
      <use xlink:href="#DejaVuSans-45" x="804.097656"/>
      <use xlink:href="#DejaVuSans-3d" x="867.28125"/>
      <use xlink:href="#DejaVuSans-30" x="951.070312"/>
      <use xlink:href="#DejaVuSans-2e" x="1014.693359"/>
      <use xlink:href="#DejaVuSans-31" x="1046.480469"/>
      <use xlink:href="#DejaVuSans-32" x="1110.103516"/>
      <use xlink:href="#DejaVuSans-37" x="1173.726562"/>
      <use xlink:href="#DejaVuSans-2c" x="1237.349609"/>
      <use xlink:href="#DejaVuSans-20" x="1269.136719"/>
      <use xlink:href="#DejaVuSans-52" x="1300.923828"/>
      <use xlink:href="#DejaVuSans-32" x="1370.40625"/>
      <use xlink:href="#DejaVuSans-3d" x="1434.029297"/>
      <use xlink:href="#DejaVuSans-30" x="1517.818359"/>
      <use xlink:href="#DejaVuSans-2e" x="1581.441406"/>
      <use xlink:href="#DejaVuSans-38" x="1613.228516"/>
      <use xlink:href="#DejaVuSans-30" x="1676.851562"/>
      <use xlink:href="#DejaVuSans-34" x="1740.474609"/>
      <use xlink:href="#DejaVuSans-29" x="1804.097656"/>
     </g>
    </g>
   </g>
  </g>
 </g>
 <defs>
  <clipPath id="p3a042a9385">
   <rect x="135" y="34.56" width="837" height="221.76"/>
  </clipPath>
 </defs>
</svg>
