<?xml version="1.0" encoding="utf-8" standalone="no"?>
<!DOCTYPE svg PUBLIC "-//W3C//DTD SVG 1.1//EN"
  "http://www.w3.org/Graphics/SVG/1.1/DTD/svg11.dtd">
<svg xmlns:xlink="http://www.w3.org/1999/xlink" width="896.360937pt" height="226.194375pt" viewBox="0 0 896.360937 226.194375" xmlns="http://www.w3.org/2000/svg" version="1.1">
 <metadata>
  <rdf:RDF xmlns:dc="http://purl.org/dc/elements/1.1/" xmlns:cc="http://creativecommons.org/ns#" xmlns:rdf="http://www.w3.org/1999/02/22-rdf-syntax-ns#">
   <cc:Work>
    <dc:type rdf:resource="http://purl.org/dc/dcmitype/StillImage"/>
    <dc:date>2026-05-01T12:59:47.407795</dc:date>
    <dc:format>image/svg+xml</dc:format>
    <dc:creator>
     <cc:Agent>
      <dc:title>Matplotlib v3.7.3, https://matplotlib.org/</dc:title>
     </cc:Agent>
    </dc:creator>
   </cc:Work>
  </rdf:RDF>
 </metadata>
 <defs>
  <style type="text/css">*{stroke-linejoin: round; stroke-linecap: butt}</style>
 </defs>
 <g id="figure_1">
  <g id="patch_1">
   <path d="M 0 226.194375 
L 896.360937 226.194375 
L 896.360937 0 
L 0 0 
z
" style="fill: #ffffff"/>
  </g>
  <g id="axes_1">
   <g id="patch_2">
    <path d="M 52.160938 188.638125 
L 889.160938 188.638125 
L 889.160938 22.318125 
L 52.160938 22.318125 
z
" style="fill: #ffffff"/>
   </g>
   <g id="matplotlib.axis_1">
    <g id="xtick_1">
     <g id="line2d_1">
      <defs>
       <path id="mfa23c2e4cc" d="M 0 0 
L 0 3.5 
" style="stroke: #000000; stroke-width: 0.8"/>
      </defs>
      <g>
       <use xlink:href="#mfa23c2e4cc" x="64.11808" y="188.638125" style="stroke: #000000; stroke-width: 0.8"/>
      </g>
     </g>
     <g id="text_1">
      <!-- 1.0 -->
      <g transform="translate(56.166518 203.236563) scale(0.1 -0.1)">
       <defs>
        <path id="DejaVuSans-31" d="M 794 531 
L 1825 531 
L 1825 4091 
L 703 3866 
L 703 4441 
L 1819 4666 
L 2450 4666 
L 2450 531 
L 3481 531 
L 3481 0 
L 794 0 
L 794 531 
z
" transform="scale(0.015625)"/>
        <path id="DejaVuSans-2e" d="M 684 794 
L 1344 794 
L 1344 0 
L 684 0 
L 684 794 
z
" transform="scale(0.015625)"/>
        <path id="DejaVuSans-30" d="M 2034 4250 
Q 1547 4250 1301 3770 
Q 1056 3291 1056 2328 
Q 1056 1369 1301 889 
Q 1547 409 2034 409 
Q 2525 409 2770 889 
Q 3016 1369 3016 2328 
Q 3016 3291 2770 3770 
Q 2525 4250 2034 4250 
z
M 2034 4750 
Q 2819 4750 3233 4129 
Q 3647 3509 3647 2328 
Q 3647 1150 3233 529 
Q 2819 -91 2034 -91 
Q 1250 -91 836 529 
Q 422 1150 422 2328 
Q 422 3509 836 4129 
Q 1250 4750 2034 4750 
z
" transform="scale(0.015625)"/>
       </defs>
       <use xlink:href="#DejaVuSans-31"/>
       <use xlink:href="#DejaVuSans-2e" x="63.623047"/>
       <use xlink:href="#DejaVuSans-30" x="95.410156"/>
      </g>
     </g>
    </g>
    <g id="xtick_2">
     <g id="line2d_2">
      <g>
       <use xlink:href="#mfa23c2e4cc" x="183.689509" y="188.638125" style="stroke: #000000; stroke-width: 0.8"/>
      </g>
     </g>
     <g id="text_2">
      <!-- 1.5 -->
      <g transform="translate(175.737946 203.236563) scale(0.1 -0.1)">
       <defs>
        <path id="DejaVuSans-35" d="M 691 4666 
L 3169 4666 
L 3169 4134 
L 1269 4134 
L 1269 2991 
Q 1406 3038 1543 3061 
Q 1681 3084 1819 3084 
Q 2600 3084 3056 2656 
Q 3513 2228 3513 1497 
Q 3513 744 3044 326 
Q 2575 -91 1722 -91 
Q 1428 -91 1123 -41 
Q 819 9 494 109 
L 494 744 
Q 775 591 1075 516 
Q 1375 441 1709 441 
Q 2250 441 2565 725 
Q 2881 1009 2881 1497 
Q 2881 1984 2565 2268 
Q 2250 2553 1709 2553 
Q 1456 2553 1204 2497 
Q 953 2441 691 2322 
L 691 4666 
z
" transform="scale(0.015625)"/>
       </defs>
       <use xlink:href="#DejaVuSans-31"/>
       <use xlink:href="#DejaVuSans-2e" x="63.623047"/>
       <use xlink:href="#DejaVuSans-35" x="95.410156"/>
      </g>
     </g>
    </g>
    <g id="xtick_3">
     <g id="line2d_3">
      <g>
       <use xlink:href="#mfa23c2e4cc" x="303.260938" y="188.638125" style="stroke: #000000; stroke-width: 0.8"/>
      </g>
     </g>
     <g id="text_3">
      <!-- 2.0 -->
      <g transform="translate(295.309375 203.236563) scale(0.1 -0.1)">
       <defs>
        <path id="DejaVuSans-32" d="M 1228 531 
L 3431 531 
L 3431 0 
L 469 0 
L 469 531 
Q 828 903 1448 1529 
Q 2069 2156 2228 2338 
Q 2531 2678 2651 2914 
Q 2772 3150 2772 3378 
Q 2772 3750 2511 3984 
Q 2250 4219 1831 4219 
Q 1534 4219 1204 4116 
Q 875 4013 500 3803 
L 500 4441 
Q 881 4594 1212 4672 
Q 1544 4750 1819 4750 
Q 2544 4750 2975 4387 
Q 3406 4025 3406 3419 
Q 3406 3131 3298 2873 
Q 3191 2616 2906 2266 
Q 2828 2175 2409 1742 
Q 1991 1309 1228 531 
z
" transform="scale(0.015625)"/>
       </defs>
       <use xlink:href="#DejaVuSans-32"/>
       <use xlink:href="#DejaVuSans-2e" x="63.623047"/>
       <use xlink:href="#DejaVuSans-30" x="95.410156"/>
      </g>
     </g>
    </g>
    <g id="xtick_4">
     <g id="line2d_4">
      <g>
       <use xlink:href="#mfa23c2e4cc" x="422.832366" y="188.638125" style="stroke: #000000; stroke-width: 0.8"/>
      </g>
     </g>
     <g id="text_4">
      <!-- 2.5 -->
      <g transform="translate(414.880804 203.236563) scale(0.1 -0.1)">
       <use xlink:href="#DejaVuSans-32"/>
       <use xlink:href="#DejaVuSans-2e" x="63.623047"/>
       <use xlink:href="#DejaVuSans-35" x="95.410156"/>
      </g>
     </g>
    </g>
    <g id="xtick_5">
     <g id="line2d_5">
      <g>
       <use xlink:href="#mfa23c2e4cc" x="542.403795" y="188.638125" style="stroke: #000000; stroke-width: 0.8"/>
      </g>
     </g>
     <g id="text_5">
      <!-- 3.0 -->
      <g transform="translate(534.452232 203.236563) scale(0.1 -0.1)">
       <defs>
        <path id="DejaVuSans-33" d="M 2597 2516 
Q 3050 2419 3304 2112 
Q 3559 1806 3559 1356 
Q 3559 666 3084 287 
Q 2609 -91 1734 -91 
Q 1441 -91 1130 -33 
Q 819 25 488 141 
L 488 750 
Q 750 597 1062 519 
Q 1375 441 1716 441 
Q 2309 441 2620 675 
Q 2931 909 2931 1356 
Q 2931 1769 2642 2001 
Q 2353 2234 1838 2234 
L 1294 2234 
L 1294 2753 
L 1863 2753 
Q 2328 2753 2575 2939 
Q 2822 3125 2822 3475 
Q 2822 3834 2567 4026 
Q 2313 4219 1838 4219 
Q 1578 4219 1281 4162 
Q 984 4106 628 3988 
L 628 4550 
Q 988 4650 1302 4700 
Q 1616 4750 1894 4750 
Q 2613 4750 3031 4423 
Q 3450 4097 3450 3541 
Q 3450 3153 3228 2886 
Q 3006 2619 2597 2516 
z
" transform="scale(0.015625)"/>
       </defs>
       <use xlink:href="#DejaVuSans-33"/>
       <use xlink:href="#DejaVuSans-2e" x="63.623047"/>
       <use xlink:href="#DejaVuSans-30" x="95.410156"/>
      </g>
     </g>
    </g>
    <g id="xtick_6">
     <g id="line2d_6">
      <g>
       <use xlink:href="#mfa23c2e4cc" x="661.975223" y="188.638125" style="stroke: #000000; stroke-width: 0.8"/>
      </g>
     </g>
     <g id="text_6">
      <!-- 3.5 -->
      <g transform="translate(654.023661 203.236563) scale(0.1 -0.1)">
       <use xlink:href="#DejaVuSans-33"/>
       <use xlink:href="#DejaVuSans-2e" x="63.623047"/>
       <use xlink:href="#DejaVuSans-35" x="95.410156"/>
      </g>
     </g>
    </g>
    <g id="xtick_7">
     <g id="line2d_7">
      <g>
       <use xlink:href="#mfa23c2e4cc" x="781.546652" y="188.638125" style="stroke: #000000; stroke-width: 0.8"/>
      </g>
     </g>
     <g id="text_7">
      <!-- 4.0 -->
      <g transform="translate(773.595089 203.236563) scale(0.1 -0.1)">
       <defs>
        <path id="DejaVuSans-34" d="M 2419 4116 
L 825 1625 
L 2419 1625 
L 2419 4116 
z
M 2253 4666 
L 3047 4666 
L 3047 1625 
L 3713 1625 
L 3713 1100 
L 3047 1100 
L 3047 0 
L 2419 0 
L 2419 1100 
L 313 1100 
L 313 1709 
L 2253 4666 
z
" transform="scale(0.015625)"/>
       </defs>
       <use xlink:href="#DejaVuSans-34"/>
       <use xlink:href="#DejaVuSans-2e" x="63.623047"/>
       <use xlink:href="#DejaVuSans-30" x="95.410156"/>
      </g>
     </g>
    </g>
    <g id="text_8">
     <!-- Time (s) -->
     <g transform="translate(450.332031 216.914688) scale(0.1 -0.1)">
      <defs>
       <path id="DejaVuSans-54" d="M -19 4666 
L 3928 4666 
L 3928 4134 
L 2272 4134 
L 2272 0 
L 1638 0 
L 1638 4134 
L -19 4134 
L -19 4666 
z
" transform="scale(0.015625)"/>
       <path id="DejaVuSans-69" d="M 603 3500 
L 1178 3500 
L 1178 0 
L 603 0 
L 603 3500 
z
M 603 4863 
L 1178 4863 
L 1178 4134 
L 603 4134 
L 603 4863 
z
" transform="scale(0.015625)"/>
       <path id="DejaVuSans-6d" d="M 3328 2828 
Q 3544 3216 3844 3400 
Q 4144 3584 4550 3584 
Q 5097 3584 5394 3201 
Q 5691 2819 5691 2113 
L 5691 0 
L 5113 0 
L 5113 2094 
Q 5113 2597 4934 2840 
Q 4756 3084 4391 3084 
Q 3944 3084 3684 2787 
Q 3425 2491 3425 1978 
L 3425 0 
L 2847 0 
L 2847 2094 
Q 2847 2600 2669 2842 
Q 2491 3084 2119 3084 
Q 1678 3084 1418 2786 
Q 1159 2488 1159 1978 
L 1159 0 
L 581 0 
L 581 3500 
L 1159 3500 
L 1159 2956 
Q 1356 3278 1631 3431 
Q 1906 3584 2284 3584 
Q 2666 3584 2933 3390 
Q 3200 3197 3328 2828 
z
" transform="scale(0.015625)"/>
       <path id="DejaVuSans-65" d="M 3597 1894 
L 3597 1613 
L 953 1613 
Q 991 1019 1311 708 
Q 1631 397 2203 397 
Q 2534 397 2845 478 
Q 3156 559 3463 722 
L 3463 178 
Q 3153 47 2828 -22 
Q 2503 -91 2169 -91 
Q 1331 -91 842 396 
Q 353 884 353 1716 
Q 353 2575 817 3079 
Q 1281 3584 2069 3584 
Q 2775 3584 3186 3129 
Q 3597 2675 3597 1894 
z
M 3022 2063 
Q 3016 2534 2758 2815 
Q 2500 3097 2075 3097 
Q 1594 3097 1305 2825 
Q 1016 2553 972 2059 
L 3022 2063 
z
" transform="scale(0.015625)"/>
       <path id="DejaVuSans-20" transform="scale(0.015625)"/>
       <path id="DejaVuSans-28" d="M 1984 4856 
Q 1566 4138 1362 3434 
Q 1159 2731 1159 2009 
Q 1159 1288 1364 580 
Q 1569 -128 1984 -844 
L 1484 -844 
Q 1016 -109 783 600 
Q 550 1309 550 2009 
Q 550 2706 781 3412 
Q 1013 4119 1484 4856 
L 1984 4856 
z
" transform="scale(0.015625)"/>
       <path id="DejaVuSans-73" d="M 2834 3397 
L 2834 2853 
Q 2591 2978 2328 3040 
Q 2066 3103 1784 3103 
Q 1356 3103 1142 2972 
Q 928 2841 928 2578 
Q 928 2378 1081 2264 
Q 1234 2150 1697 2047 
L 1894 2003 
Q 2506 1872 2764 1633 
Q 3022 1394 3022 966 
Q 3022 478 2636 193 
Q 2250 -91 1575 -91 
Q 1294 -91 989 -36 
Q 684 19 347 128 
L 347 722 
Q 666 556 975 473 
Q 1284 391 1588 391 
Q 1994 391 2212 530 
Q 2431 669 2431 922 
Q 2431 1156 2273 1281 
Q 2116 1406 1581 1522 
L 1381 1569 
Q 847 1681 609 1914 
Q 372 2147 372 2553 
Q 372 3047 722 3315 
Q 1072 3584 1716 3584 
Q 2034 3584 2315 3537 
Q 2597 3491 2834 3397 
z
" transform="scale(0.015625)"/>
       <path id="DejaVuSans-29" d="M 513 4856 
L 1013 4856 
Q 1481 4119 1714 3412 
Q 1947 2706 1947 2009 
Q 1947 1309 1714 600 
Q 1481 -109 1013 -844 
L 513 -844 
Q 928 -128 1133 580 
Q 1338 1288 1338 2009 
Q 1338 2731 1133 3434 
Q 928 4138 513 4856 
z
" transform="scale(0.015625)"/>
      </defs>
      <use xlink:href="#DejaVuSans-54"/>
      <use xlink:href="#DejaVuSans-69" x="57.958984"/>
      <use xlink:href="#DejaVuSans-6d" x="85.742188"/>
      <use xlink:href="#DejaVuSans-65" x="183.154297"/>
      <use xlink:href="#DejaVuSans-20" x="244.677734"/>
      <use xlink:href="#DejaVuSans-28" x="276.464844"/>
      <use xlink:href="#DejaVuSans-73" x="315.478516"/>
      <use xlink:href="#DejaVuSans-29" x="367.578125"/>
     </g>
    </g>
   </g>
   <g id="matplotlib.axis_2">
    <g id="ytick_1">
     <g id="line2d_8">
      <defs>
       <path id="mc937d71813" d="M 0 0 
L -3.5 0 
" style="stroke: #000000; stroke-width: 0.8"/>
      </defs>
      <g>
       <use xlink:href="#mc937d71813" x="52.160938" y="180.715698" style="stroke: #000000; stroke-width: 0.8"/>
      </g>
     </g>
     <g id="text_9">
      <!-- −0.6 -->
      <g transform="translate(20.878125 184.514917) scale(0.1 -0.1)">
       <defs>
        <path id="DejaVuSans-2212" d="M 678 2272 
L 4684 2272 
L 4684 1741 
L 678 1741 
L 678 2272 
z
" transform="scale(0.015625)"/>
        <path id="DejaVuSans-36" d="M 2113 2584 
Q 1688 2584 1439 2293 
Q 1191 2003 1191 1497 
Q 1191 994 1439 701 
Q 1688 409 2113 409 
Q 2538 409 2786 701 
Q 3034 994 3034 1497 
Q 3034 2003 2786 2293 
Q 2538 2584 2113 2584 
z
M 3366 4563 
L 3366 3988 
Q 3128 4100 2886 4159 
Q 2644 4219 2406 4219 
Q 1781 4219 1451 3797 
Q 1122 3375 1075 2522 
Q 1259 2794 1537 2939 
Q 1816 3084 2150 3084 
Q 2853 3084 3261 2657 
Q 3669 2231 3669 1497 
Q 3669 778 3244 343 
Q 2819 -91 2113 -91 
Q 1303 -91 875 529 
Q 447 1150 447 2328 
Q 447 3434 972 4092 
Q 1497 4750 2381 4750 
Q 2619 4750 2861 4703 
Q 3103 4656 3366 4563 
z
" transform="scale(0.015625)"/>
       </defs>
       <use xlink:href="#DejaVuSans-2212"/>
       <use xlink:href="#DejaVuSans-30" x="83.789062"/>
       <use xlink:href="#DejaVuSans-2e" x="147.412109"/>
       <use xlink:href="#DejaVuSans-36" x="179.199219"/>
      </g>
     </g>
    </g>
    <g id="ytick_2">
     <g id="line2d_9">
      <g>
       <use xlink:href="#mc937d71813" x="52.160938" y="159.92213" style="stroke: #000000; stroke-width: 0.8"/>
      </g>
     </g>
     <g id="text_10">
      <!-- −0.4 -->
      <g transform="translate(20.878125 163.721349) scale(0.1 -0.1)">
       <use xlink:href="#DejaVuSans-2212"/>
       <use xlink:href="#DejaVuSans-30" x="83.789062"/>
       <use xlink:href="#DejaVuSans-2e" x="147.412109"/>
       <use xlink:href="#DejaVuSans-34" x="179.199219"/>
      </g>
     </g>
    </g>
    <g id="ytick_3">
     <g id="line2d_10">
      <g>
       <use xlink:href="#mc937d71813" x="52.160938" y="139.128561" style="stroke: #000000; stroke-width: 0.8"/>
      </g>
     </g>
     <g id="text_11">
      <!-- −0.2 -->
      <g transform="translate(20.878125 142.92778) scale(0.1 -0.1)">
       <use xlink:href="#DejaVuSans-2212"/>
       <use xlink:href="#DejaVuSans-30" x="83.789062"/>
       <use xlink:href="#DejaVuSans-2e" x="147.412109"/>
       <use xlink:href="#DejaVuSans-32" x="179.199219"/>
      </g>
     </g>
    </g>
    <g id="ytick_4">
     <g id="line2d_11">
      <g>
       <use xlink:href="#mc937d71813" x="52.160938" y="118.334993" style="stroke: #000000; stroke-width: 0.8"/>
      </g>
     </g>
     <g id="text_12">
      <!-- 0.0 -->
      <g transform="translate(29.257813 122.134211) scale(0.1 -0.1)">
       <use xlink:href="#DejaVuSans-30"/>
       <use xlink:href="#DejaVuSans-2e" x="63.623047"/>
       <use xlink:href="#DejaVuSans-30" x="95.410156"/>
      </g>
     </g>
    </g>
    <g id="ytick_5">
     <g id="line2d_12">
      <g>
       <use xlink:href="#mc937d71813" x="52.160938" y="97.541424" style="stroke: #000000; stroke-width: 0.8"/>
      </g>
     </g>
     <g id="text_13">
      <!-- 0.2 -->
      <g transform="translate(29.257813 101.340643) scale(0.1 -0.1)">
       <use xlink:href="#DejaVuSans-30"/>
       <use xlink:href="#DejaVuSans-2e" x="63.623047"/>
       <use xlink:href="#DejaVuSans-32" x="95.410156"/>
      </g>
     </g>
    </g>
    <g id="ytick_6">
     <g id="line2d_13">
      <g>
       <use xlink:href="#mc937d71813" x="52.160938" y="76.747856" style="stroke: #000000; stroke-width: 0.8"/>
      </g>
     </g>
     <g id="text_14">
      <!-- 0.4 -->
      <g transform="translate(29.257813 80.547074) scale(0.1 -0.1)">
       <use xlink:href="#DejaVuSans-30"/>
       <use xlink:href="#DejaVuSans-2e" x="63.623047"/>
       <use xlink:href="#DejaVuSans-34" x="95.410156"/>
      </g>
     </g>
    </g>
    <g id="ytick_7">
     <g id="line2d_14">
      <g>
       <use xlink:href="#mc937d71813" x="52.160938" y="55.954287" style="stroke: #000000; stroke-width: 0.8"/>
      </g>
     </g>
     <g id="text_15">
      <!-- 0.6 -->
      <g transform="translate(29.257813 59.753506) scale(0.1 -0.1)">
       <use xlink:href="#DejaVuSans-30"/>
       <use xlink:href="#DejaVuSans-2e" x="63.623047"/>
       <use xlink:href="#DejaVuSans-36" x="95.410156"/>
      </g>
     </g>
    </g>
    <g id="ytick_8">
     <g id="line2d_15">
      <g>
       <use xlink:href="#mc937d71813" x="52.160938" y="35.160718" style="stroke: #000000; stroke-width: 0.8"/>
      </g>
     </g>
     <g id="text_16">
      <!-- 0.8 -->
      <g transform="translate(29.257813 38.959937) scale(0.1 -0.1)">
       <defs>
        <path id="DejaVuSans-38" d="M 2034 2216 
Q 1584 2216 1326 1975 
Q 1069 1734 1069 1313 
Q 1069 891 1326 650 
Q 1584 409 2034 409 
Q 2484 409 2743 651 
Q 3003 894 3003 1313 
Q 3003 1734 2745 1975 
Q 2488 2216 2034 2216 
z
M 1403 2484 
Q 997 2584 770 2862 
Q 544 3141 544 3541 
Q 544 4100 942 4425 
Q 1341 4750 2034 4750 
Q 2731 4750 3128 4425 
Q 3525 4100 3525 3541 
Q 3525 3141 3298 2862 
Q 3072 2584 2669 2484 
Q 3125 2378 3379 2068 
Q 3634 1759 3634 1313 
Q 3634 634 3220 271 
Q 2806 -91 2034 -91 
Q 1263 -91 848 271 
Q 434 634 434 1313 
Q 434 1759 690 2068 
Q 947 2378 1403 2484 
z
M 1172 3481 
Q 1172 3119 1398 2916 
Q 1625 2713 2034 2713 
Q 2441 2713 2670 2916 
Q 2900 3119 2900 3481 
Q 2900 3844 2670 4047 
Q 2441 4250 2034 4250 
Q 1625 4250 1398 4047 
Q 1172 3844 1172 3481 
z
" transform="scale(0.015625)"/>
       </defs>
       <use xlink:href="#DejaVuSans-30"/>
       <use xlink:href="#DejaVuSans-2e" x="63.623047"/>
       <use xlink:href="#DejaVuSans-38" x="95.410156"/>
      </g>
     </g>
    </g>
    <g id="text_17">
     <!-- Hip Moment (N-m/kg) -->
     <g transform="translate(14.798438 159.499219) rotate(-90) scale(0.1 -0.1)">
      <defs>
       <path id="DejaVuSans-48" d="M 628 4666 
L 1259 4666 
L 1259 2753 
L 3553 2753 
L 3553 4666 
L 4184 4666 
L 4184 0 
L 3553 0 
L 3553 2222 
L 1259 2222 
L 1259 0 
L 628 0 
L 628 4666 
z
" transform="scale(0.015625)"/>
       <path id="DejaVuSans-70" d="M 1159 525 
L 1159 -1331 
L 581 -1331 
L 581 3500 
L 1159 3500 
L 1159 2969 
Q 1341 3281 1617 3432 
Q 1894 3584 2278 3584 
Q 2916 3584 3314 3078 
Q 3713 2572 3713 1747 
Q 3713 922 3314 415 
Q 2916 -91 2278 -91 
Q 1894 -91 1617 61 
Q 1341 213 1159 525 
z
M 3116 1747 
Q 3116 2381 2855 2742 
Q 2594 3103 2138 3103 
Q 1681 3103 1420 2742 
Q 1159 2381 1159 1747 
Q 1159 1113 1420 752 
Q 1681 391 2138 391 
Q 2594 391 2855 752 
Q 3116 1113 3116 1747 
z
" transform="scale(0.015625)"/>
       <path id="DejaVuSans-4d" d="M 628 4666 
L 1569 4666 
L 2759 1491 
L 3956 4666 
L 4897 4666 
L 4897 0 
L 4281 0 
L 4281 4097 
L 3078 897 
L 2444 897 
L 1241 4097 
L 1241 0 
L 628 0 
L 628 4666 
z
" transform="scale(0.015625)"/>
       <path id="DejaVuSans-6f" d="M 1959 3097 
Q 1497 3097 1228 2736 
Q 959 2375 959 1747 
Q 959 1119 1226 758 
Q 1494 397 1959 397 
Q 2419 397 2687 759 
Q 2956 1122 2956 1747 
Q 2956 2369 2687 2733 
Q 2419 3097 1959 3097 
z
M 1959 3584 
Q 2709 3584 3137 3096 
Q 3566 2609 3566 1747 
Q 3566 888 3137 398 
Q 2709 -91 1959 -91 
Q 1206 -91 779 398 
Q 353 888 353 1747 
Q 353 2609 779 3096 
Q 1206 3584 1959 3584 
z
" transform="scale(0.015625)"/>
       <path id="DejaVuSans-6e" d="M 3513 2113 
L 3513 0 
L 2938 0 
L 2938 2094 
Q 2938 2591 2744 2837 
Q 2550 3084 2163 3084 
Q 1697 3084 1428 2787 
Q 1159 2491 1159 1978 
L 1159 0 
L 581 0 
L 581 3500 
L 1159 3500 
L 1159 2956 
Q 1366 3272 1645 3428 
Q 1925 3584 2291 3584 
Q 2894 3584 3203 3211 
Q 3513 2838 3513 2113 
z
" transform="scale(0.015625)"/>
       <path id="DejaVuSans-74" d="M 1172 4494 
L 1172 3500 
L 2356 3500 
L 2356 3053 
L 1172 3053 
L 1172 1153 
Q 1172 725 1289 603 
Q 1406 481 1766 481 
L 2356 481 
L 2356 0 
L 1766 0 
Q 1100 0 847 248 
Q 594 497 594 1153 
L 594 3053 
L 172 3053 
L 172 3500 
L 594 3500 
L 594 4494 
L 1172 4494 
z
" transform="scale(0.015625)"/>
       <path id="DejaVuSans-4e" d="M 628 4666 
L 1478 4666 
L 3547 763 
L 3547 4666 
L 4159 4666 
L 4159 0 
L 3309 0 
L 1241 3903 
L 1241 0 
L 628 0 
L 628 4666 
z
" transform="scale(0.015625)"/>
       <path id="DejaVuSans-2d" d="M 313 2009 
L 1997 2009 
L 1997 1497 
L 313 1497 
L 313 2009 
z
" transform="scale(0.015625)"/>
       <path id="DejaVuSans-2f" d="M 1625 4666 
L 2156 4666 
L 531 -594 
L 0 -594 
L 1625 4666 
z
" transform="scale(0.015625)"/>
       <path id="DejaVuSans-6b" d="M 581 4863 
L 1159 4863 
L 1159 1991 
L 2875 3500 
L 3609 3500 
L 1753 1863 
L 3688 0 
L 2938 0 
L 1159 1709 
L 1159 0 
L 581 0 
L 581 4863 
z
" transform="scale(0.015625)"/>
       <path id="DejaVuSans-67" d="M 2906 1791 
Q 2906 2416 2648 2759 
Q 2391 3103 1925 3103 
Q 1463 3103 1205 2759 
Q 947 2416 947 1791 
Q 947 1169 1205 825 
Q 1463 481 1925 481 
Q 2391 481 2648 825 
Q 2906 1169 2906 1791 
z
M 3481 434 
Q 3481 -459 3084 -895 
Q 2688 -1331 1869 -1331 
Q 1566 -1331 1297 -1286 
Q 1028 -1241 775 -1147 
L 775 -588 
Q 1028 -725 1275 -790 
Q 1522 -856 1778 -856 
Q 2344 -856 2625 -561 
Q 2906 -266 2906 331 
L 2906 616 
Q 2728 306 2450 153 
Q 2172 0 1784 0 
Q 1141 0 747 490 
Q 353 981 353 1791 
Q 353 2603 747 3093 
Q 1141 3584 1784 3584 
Q 2172 3584 2450 3431 
Q 2728 3278 2906 2969 
L 2906 3500 
L 3481 3500 
L 3481 434 
z
" transform="scale(0.015625)"/>
      </defs>
      <use xlink:href="#DejaVuSans-48"/>
      <use xlink:href="#DejaVuSans-69" x="75.195312"/>
      <use xlink:href="#DejaVuSans-70" x="102.978516"/>
      <use xlink:href="#DejaVuSans-20" x="166.455078"/>
      <use xlink:href="#DejaVuSans-4d" x="198.242188"/>
      <use xlink:href="#DejaVuSans-6f" x="284.521484"/>
      <use xlink:href="#DejaVuSans-6d" x="345.703125"/>
      <use xlink:href="#DejaVuSans-65" x="443.115234"/>
      <use xlink:href="#DejaVuSans-6e" x="504.638672"/>
      <use xlink:href="#DejaVuSans-74" x="568.017578"/>
      <use xlink:href="#DejaVuSans-20" x="607.226562"/>
      <use xlink:href="#DejaVuSans-28" x="639.013672"/>
      <use xlink:href="#DejaVuSans-4e" x="678.027344"/>
      <use xlink:href="#DejaVuSans-2d" x="752.832031"/>
      <use xlink:href="#DejaVuSans-6d" x="788.916016"/>
      <use xlink:href="#DejaVuSans-2f" x="886.328125"/>
      <use xlink:href="#DejaVuSans-6b" x="920.019531"/>
      <use xlink:href="#DejaVuSans-67" x="977.929688"/>
      <use xlink:href="#DejaVuSans-29" x="1041.40625"/>
     </g>
    </g>
   </g>
   <g id="line2d_16">
    <path d="M 49.769509 110.529072 
L 52.160938 111.534384 
L 54.552366 112.244671 
L 56.943795 112.710956 
L 59.335223 112.985441 
L 64.11808 113.164408 
L 73.683795 113.270918 
L 78.466652 113.672823 
L 83.249509 114.446195 
L 88.032366 115.620859 
L 92.815223 117.225719 
L 95.206652 118.201959 
L 97.59808 119.301195 
L 99.989509 120.527917 
L 102.380938 121.885043 
L 107.163795 124.990467 
L 111.946652 128.590491 
L 116.729509 132.622464 
L 121.512366 137.011014 
L 126.295223 141.692502 
L 133.469509 149.156858 
L 143.035223 159.29608 
L 145.426652 161.614046 
L 147.81808 163.721142 
L 150.209509 165.543264 
L 152.600938 167.006242 
L 154.992366 168.040744 
L 157.383795 168.587106 
L 159.775223 168.599737 
L 162.166652 168.050598 
L 164.55808 166.931237 
L 166.949509 165.253113 
L 169.340938 163.046348 
L 171.732366 160.357355 
L 174.123795 157.24588 
L 176.515223 153.781898 
L 181.29808 146.108618 
L 190.863795 130.006652 
L 195.646652 122.665146 
L 198.03808 119.335974 
L 200.429509 116.266927 
L 202.820938 113.468492 
L 205.212366 110.941441 
L 207.603795 108.67866 
L 209.995223 106.667491 
L 212.386652 104.89224 
L 214.77808 103.33635 
L 217.169509 101.983713 
L 219.560938 100.818787 
L 221.952366 99.825443 
L 224.343795 98.984742 
L 229.126652 97.654563 
L 236.300938 95.888435 
L 238.692366 95.119995 
L 241.083795 94.142161 
L 243.475223 92.881311 
L 245.866652 91.268181 
L 248.25808 89.24249 
L 250.649509 86.758208 
L 253.040938 83.789298 
L 255.432366 80.335382 
L 257.823795 76.426426 
L 260.215223 72.125564 
L 264.99808 62.765466 
L 269.780938 53.365697 
L 272.172366 49.081519 
L 274.563795 45.313065 
L 276.955223 42.226401 
L 279.346652 39.96495 
L 281.73808 38.640571 
L 284.129509 38.326519 
L 286.520938 39.052728 
L 288.912366 40.803762 
L 291.303795 43.519731 
L 293.695223 47.100257 
L 296.086652 51.411317 
L 298.47808 56.294305 
L 303.260938 67.080761 
L 308.043795 78.086823 
L 310.435223 83.294306 
L 312.826652 88.146357 
L 315.21808 92.557194 
L 317.609509 96.468952 
L 320.000938 99.851325 
L 322.392366 102.700045 
L 324.783795 105.034339 
L 327.175223 106.893459 
L 329.566652 108.332391 
L 331.95808 109.416922 
L 334.349509 110.21835 
L 336.740938 110.80817 
L 341.523795 111.611084 
L 358.263795 113.937183 
L 365.43808 114.846517 
L 372.612366 115.748331 
L 375.003795 116.17586 
L 377.395223 116.732609 
L 379.786652 117.45625 
L 382.17808 118.377021 
L 384.569509 119.514516 
L 386.960938 120.876203 
L 389.352366 122.457664 
L 391.743795 124.244152 
L 394.135223 126.212901 
L 398.91808 130.581706 
L 403.700938 135.321363 
L 420.440938 152.271025 
L 422.832366 154.472836 
L 425.223795 156.508572 
L 427.615223 158.31436 
L 430.006652 159.819565 
L 432.39808 160.952214 
L 434.789509 161.645069 
L 437.180938 161.841517 
L 439.572366 161.500545 
L 441.963795 160.600237 
L 444.355223 159.139453 
L 446.746652 157.137754 
L 449.13808 154.633843 
L 451.529509 151.683004 
L 453.920938 148.354086 
L 456.312366 144.726533 
L 461.095223 136.930039 
L 465.87808 129.036099 
L 468.269509 125.280674 
L 470.660938 121.759641 
L 473.052366 118.536485 
L 475.443795 115.657637 
L 477.835223 113.150622 
L 480.226652 111.0235 
L 482.61808 109.265591 
L 485.009509 107.849367 
L 487.400938 106.7333 
L 489.792366 105.86549 
L 492.183795 105.187825 
L 496.966652 104.166039 
L 504.140938 102.719986 
L 508.923795 101.445384 
L 513.706652 99.787335 
L 516.09808 98.788071 
L 518.489509 97.654406 
L 520.880938 96.36367 
L 523.272366 94.887611 
L 525.663795 93.193777 
L 528.055223 91.247935 
L 530.446652 89.017331 
L 532.83808 86.474616 
L 535.229509 83.602151 
L 537.620938 80.396307 
L 540.012366 76.871221 
L 542.403795 73.061471 
L 547.186652 64.833698 
L 551.969509 56.400363 
L 554.360938 52.389797 
L 556.752366 48.68415 
L 559.143795 45.409171 
L 561.535223 42.683138 
L 563.926652 40.610681 
L 566.31808 39.277173 
L 568.709509 38.743993 
L 571.100938 39.044908 
L 573.492366 40.183788 
L 575.883795 42.133835 
L 578.275223 44.838497 
L 580.666652 48.214116 
L 583.05808 52.15426 
L 585.449509 56.535486 
L 590.232366 66.083682 
L 595.015223 75.795858 
L 597.406652 80.419271 
L 599.79808 84.763312 
L 602.189509 88.75997 
L 604.580938 92.362714 
L 606.972366 95.546408 
L 609.363795 98.306295 
L 611.755223 100.656087 
L 614.146652 102.625241 
L 616.53808 104.255537 
L 618.929509 105.597233 
L 621.320938 106.705085 
L 623.712366 107.634523 
L 628.495223 109.162801 
L 650.01808 115.240291 
L 664.366652 118.847127 
L 669.149509 120.51969 
L 671.540938 121.534794 
L 673.932366 122.676971 
L 678.715223 125.324613 
L 683.49808 128.388726 
L 688.280937 131.793192 
L 693.063795 135.530547 
L 697.846652 139.686916 
L 702.629509 144.392974 
L 707.412366 149.696584 
L 716.97808 161.02878 
L 719.369509 163.575729 
L 721.760937 165.809123 
L 724.152366 167.626473 
L 726.543795 168.934474 
L 728.935223 169.655202 
L 731.326652 169.731012 
L 733.71808 169.127709 
L 736.109509 167.835866 
L 738.500937 165.870537 
L 740.892366 163.26981 
L 743.283795 160.092633 
L 745.675223 156.416157 
L 748.066652 152.332597 
L 752.849509 143.365224 
L 760.023795 129.565171 
L 762.415223 125.275953 
L 764.806652 121.275276 
L 767.19808 117.617986 
L 769.589509 114.34022 
L 771.980937 111.459128 
L 774.372366 108.973502 
L 776.763795 106.865449 
L 779.155223 105.103183 
L 781.546652 103.64477 
L 783.93808 102.442356 
L 786.329509 101.446226 
L 791.112366 99.882088 
L 800.67808 97.265053 
L 803.069509 96.466834 
L 805.460938 95.515875 
L 807.852366 94.361345 
L 810.243795 92.953717 
L 812.635223 91.247699 
L 815.026652 89.20549 
L 817.41808 86.800206 
L 819.809509 84.019283 
L 822.200938 80.86755 
L 824.592366 77.369719 
L 826.983795 73.57204 
L 831.766652 65.372126 
L 836.549509 57.058483 
L 838.940938 53.176539 
L 841.332366 49.66359 
L 843.723795 46.657471 
L 846.115223 44.285729 
L 848.506652 42.658057 
L 850.89808 41.859515 
L 853.289509 41.945118 
L 855.680937 42.936182 
L 858.072366 44.818632 
L 860.463795 47.543343 
L 862.855223 51.028541 
L 865.246652 55.164233 
L 867.63808 59.818461 
L 872.420938 70.091313 
L 877.203795 80.652171 
L 879.595223 85.69986 
L 881.986652 90.443902 
L 884.37808 94.799886 
L 886.769509 98.707036 
L 889.160938 102.128491 
L 891.552366 105.050293 
L 891.552366 105.050293 
" clip-path="url(#paba89104af)" style="fill: none; stroke-dasharray: 5.55,2.4; stroke-dashoffset: 0; stroke: #000000; stroke-width: 1.5"/>
   </g>
   <g id="line2d_17">
    <path d="M 49.769509 110.875528 
L 52.160938 110.63416 
L 54.552366 110.696519 
L 59.335223 111.36459 
L 61.726652 112.171002 
L 64.11808 112.158761 
L 66.509509 112.976456 
L 68.900938 114.609313 
L 71.292366 116.068912 
L 73.683795 117.13464 
L 78.466652 118.77767 
L 80.85808 118.526187 
L 83.249509 118.467511 
L 85.640938 118.197016 
L 90.423795 117.998693 
L 92.815223 118.403625 
L 95.206652 119.384679 
L 97.59808 119.737692 
L 99.989509 121.384854 
L 102.380938 124.382376 
L 104.772366 128.161886 
L 107.163795 131.624485 
L 109.555223 134.765378 
L 111.946652 136.544372 
L 114.33808 137.279706 
L 116.729509 139.377235 
L 119.120938 140.677614 
L 121.512366 141.820981 
L 126.295223 144.529597 
L 128.686652 144.712476 
L 131.07808 144.383448 
L 133.469509 142.889648 
L 135.860938 142.185889 
L 138.252366 144.551274 
L 140.643795 148.811853 
L 143.035223 150.415823 
L 145.426652 150.560928 
L 147.81808 149.034677 
L 150.209509 148.579501 
L 152.600938 149.031346 
L 154.992366 149.274364 
L 157.383795 150.610324 
L 159.775223 153.026806 
L 162.166652 155.206608 
L 164.55808 156.80352 
L 169.340938 158.825754 
L 174.123795 157.055302 
L 176.515223 154.765024 
L 181.29808 146.691174 
L 183.689509 142.789718 
L 188.472366 134.219683 
L 190.863795 130.460051 
L 193.255223 127.35783 
L 195.646652 123.978899 
L 198.03808 120.815942 
L 202.820938 115.418397 
L 205.212366 113.197588 
L 207.603795 110.69531 
L 209.995223 107.930182 
L 212.386652 105.706617 
L 214.77808 104.874887 
L 217.169509 103.549397 
L 221.952366 102.371976 
L 224.343795 102.396811 
L 226.735223 102.821529 
L 229.126652 102.635158 
L 231.51808 102.641876 
L 233.909509 103.158757 
L 236.300938 103.386912 
L 238.692366 104.805629 
L 245.866652 106.137945 
L 248.25808 105.29582 
L 250.649509 103.270085 
L 253.040938 100.330293 
L 255.432366 95.169124 
L 257.823795 89.621365 
L 260.215223 82.539211 
L 264.99808 73.836229 
L 267.389509 69.951056 
L 269.780938 67.647294 
L 272.172366 65.941334 
L 274.563795 65.953976 
L 276.955223 69.650841 
L 279.346652 72.417619 
L 281.73808 73.210596 
L 284.129509 73.467159 
L 288.912366 75.174083 
L 291.303795 78.190853 
L 293.695223 80.642506 
L 296.086652 83.779212 
L 300.869509 89.391426 
L 308.043795 98.420284 
L 310.435223 101.55107 
L 312.826652 103.732824 
L 315.21808 105.00778 
L 317.609509 106.654509 
L 322.392366 108.441059 
L 324.783795 108.991192 
L 329.566652 109.861874 
L 331.95808 110.279302 
L 334.349509 110.489959 
L 336.740938 110.908434 
L 339.132366 111.746292 
L 341.523795 112.819741 
L 343.915223 113.302799 
L 346.306652 113.553257 
L 348.69808 114.173944 
L 355.872366 116.933797 
L 358.263795 116.95841 
L 360.655223 117.343136 
L 365.43808 117.320821 
L 367.829509 117.565542 
L 370.220938 117.606454 
L 372.612366 118.180281 
L 375.003795 119.276766 
L 377.395223 120.999534 
L 379.786652 122.420782 
L 382.17808 124.354538 
L 384.569509 127.558131 
L 386.960938 130.464257 
L 389.352366 133.58934 
L 391.743795 136.120337 
L 394.135223 138.191898 
L 396.526652 138.846116 
L 401.309509 140.941947 
L 403.700938 142.918817 
L 406.092366 145.337911 
L 408.483795 146.200045 
L 410.875223 146.348562 
L 413.266652 144.469307 
L 415.65808 142.801459 
L 418.049509 142.088104 
L 420.440938 143.380633 
L 422.832366 147.09045 
L 425.223795 150.341264 
L 427.615223 151.87911 
L 430.006652 152.156721 
L 432.39808 153.753825 
L 434.789509 155.516788 
L 437.180938 156.974376 
L 439.572366 158.567161 
L 441.963795 157.896627 
L 444.355223 157.395665 
L 446.746652 157.409115 
L 449.13808 156.881815 
L 451.529509 155.013665 
L 453.920938 153.8064 
L 456.312366 151.220722 
L 458.703795 146.991311 
L 461.095223 141.983896 
L 465.87808 134.713988 
L 468.269509 130.70392 
L 470.660938 126.987003 
L 475.443795 121.344895 
L 477.835223 118.724329 
L 480.226652 116.492736 
L 482.61808 114.458058 
L 489.792366 106.92789 
L 492.183795 104.945417 
L 494.575223 104.217755 
L 496.966652 104.095884 
L 499.35808 103.595005 
L 501.749509 102.871339 
L 506.532366 103.029199 
L 508.923795 103.644258 
L 513.706652 103.557333 
L 516.09808 103.663483 
L 518.489509 104.303233 
L 520.880938 105.253896 
L 523.272366 105.437205 
L 528.055223 106.655523 
L 530.446652 106.879344 
L 532.83808 105.792879 
L 535.229509 103.589254 
L 537.620938 99.275422 
L 540.012366 93.918699 
L 542.403795 88.023458 
L 544.795223 80.901871 
L 547.186652 74.905559 
L 549.57808 69.820936 
L 554.360938 63.579528 
L 556.752366 61.949106 
L 559.143795 62.864144 
L 563.926652 68.725997 
L 566.31808 71.900315 
L 568.709509 73.284296 
L 571.100938 73.262774 
L 573.492366 74.381525 
L 575.883795 74.807033 
L 578.275223 75.965067 
L 580.666652 78.190245 
L 583.05808 80.15834 
L 585.449509 82.274638 
L 587.840938 85.318656 
L 595.015223 97.020147 
L 597.406652 99.662721 
L 599.79808 103.272166 
L 602.189509 105.25843 
L 609.363795 109.055568 
L 611.755223 110.887496 
L 614.146652 111.877736 
L 618.929509 112.588994 
L 621.320938 112.328646 
L 626.103795 111.551543 
L 630.886652 112.255309 
L 633.27808 112.311587 
L 635.669509 113.184673 
L 638.060938 113.795275 
L 640.452366 114.790863 
L 642.843795 115.293057 
L 647.626652 117.330215 
L 650.01808 117.452477 
L 654.800938 117.250944 
L 657.192366 117.838576 
L 659.583795 118.111006 
L 661.975223 118.499647 
L 664.366652 119.165362 
L 666.75808 119.615063 
L 669.149509 120.809897 
L 671.540938 123.028071 
L 673.932366 125.857764 
L 676.323795 129.070671 
L 678.715223 131.601255 
L 681.106652 133.288815 
L 683.49808 134.282879 
L 685.889509 136.120443 
L 688.280937 138.189438 
L 690.672366 141.03759 
L 693.063795 144.420946 
L 695.455223 145.561959 
L 697.846652 145.579187 
L 700.23808 145.169803 
L 702.629509 143.585291 
L 705.020938 143.726985 
L 707.412366 145.492271 
L 709.803795 149.270915 
L 712.195223 152.123372 
L 714.586652 155.173011 
L 716.97808 156.346444 
L 719.369509 157.905145 
L 721.760937 160.064091 
L 724.152366 160.587009 
L 728.935223 160.611119 
L 731.326652 161.14398 
L 733.71808 162.07091 
L 738.500937 160.000181 
L 740.892366 158.338418 
L 743.283795 155.485518 
L 745.675223 151.574495 
L 748.066652 146.848006 
L 750.45808 142.794444 
L 755.240938 135.909831 
L 757.632366 132.095109 
L 760.023795 128.721411 
L 762.415223 125.68124 
L 764.806652 121.99315 
L 769.589509 115.591033 
L 771.980937 113.305842 
L 774.372366 110.67215 
L 776.763795 107.132567 
L 779.155223 105.019167 
L 781.546652 103.412901 
L 788.720938 99.813182 
L 791.112366 98.963237 
L 793.503795 98.834571 
L 795.895223 99.234 
L 798.286652 99.508476 
L 800.67808 99.494409 
L 803.069509 99.638542 
L 805.460938 100.49964 
L 807.852366 101.51202 
L 812.635223 102.364544 
L 815.026652 102.07226 
L 817.41808 101.292644 
L 819.809509 99.602949 
L 822.200938 96.074862 
L 824.592366 91.090294 
L 826.983795 85.011203 
L 829.375223 78.031296 
L 834.15808 67.217776 
L 836.549509 63.148163 
L 838.940938 59.986229 
L 841.332366 58.902169 
L 843.723795 60.033239 
L 846.115223 63.384292 
L 848.506652 65.697762 
L 850.89808 69.310739 
L 853.289509 71.402934 
L 855.680937 72.936442 
L 858.072366 74.753179 
L 862.855223 80.428029 
L 865.246652 83.927425 
L 872.420938 91.985975 
L 877.203795 99.564145 
L 879.595223 102.164937 
L 881.986652 104.460828 
L 886.769509 107.988776 
L 889.160938 108.698515 
L 891.552366 108.922082 
L 891.552366 108.922082 
" clip-path="url(#paba89104af)" style="fill: none; stroke: #1f77b4; stroke-width: 1.5; stroke-linecap: square"/>
   </g>
   <g id="patch_3">
    <path d="M 52.160938 188.638125 
L 52.160938 22.318125 
" style="fill: none; stroke: #000000; stroke-width: 0.8; stroke-linejoin: miter; stroke-linecap: square"/>
   </g>
   <g id="patch_4">
    <path d="M 889.160938 188.638125 
L 889.160938 22.318125 
" style="fill: none; stroke: #000000; stroke-width: 0.8; stroke-linejoin: miter; stroke-linecap: square"/>
   </g>
   <g id="patch_5">
    <path d="M 52.160938 188.638125 
L 889.160938 188.638125 
" style="fill: none; stroke: #000000; stroke-width: 0.8; stroke-linejoin: miter; stroke-linecap: square"/>
   </g>
   <g id="patch_6">
    <path d="M 52.160938 22.318125 
L 889.160938 22.318125 
" style="fill: none; stroke: #000000; stroke-width: 0.8; stroke-linejoin: miter; stroke-linecap: square"/>
   </g>
   <g id="text_18">
    <!-- TCN GyroOnly (R) RMSE = 0.10 Nm/kg, R2 = 0.91 -->
    <g transform="translate(321.45875 16.318125) scale(0.12 -0.12)">
     <defs>
      <path id="DejaVuSans-43" d="M 4122 4306 
L 4122 3641 
Q 3803 3938 3442 4084 
Q 3081 4231 2675 4231 
Q 1875 4231 1450 3742 
Q 1025 3253 1025 2328 
Q 1025 1406 1450 917 
Q 1875 428 2675 428 
Q 3081 428 3442 575 
Q 3803 722 4122 1019 
L 4122 359 
Q 3791 134 3420 21 
Q 3050 -91 2638 -91 
Q 1578 -91 968 557 
Q 359 1206 359 2328 
Q 359 3453 968 4101 
Q 1578 4750 2638 4750 
Q 3056 4750 3426 4639 
Q 3797 4528 4122 4306 
z
" transform="scale(0.015625)"/>
      <path id="DejaVuSans-47" d="M 3809 666 
L 3809 1919 
L 2778 1919 
L 2778 2438 
L 4434 2438 
L 4434 434 
Q 4069 175 3628 42 
Q 3188 -91 2688 -91 
Q 1594 -91 976 548 
Q 359 1188 359 2328 
Q 359 3472 976 4111 
Q 1594 4750 2688 4750 
Q 3144 4750 3555 4637 
Q 3966 4525 4313 4306 
L 4313 3634 
Q 3963 3931 3569 4081 
Q 3175 4231 2741 4231 
Q 1884 4231 1454 3753 
Q 1025 3275 1025 2328 
Q 1025 1384 1454 906 
Q 1884 428 2741 428 
Q 3075 428 3337 486 
Q 3600 544 3809 666 
z
" transform="scale(0.015625)"/>
      <path id="DejaVuSans-79" d="M 2059 -325 
Q 1816 -950 1584 -1140 
Q 1353 -1331 966 -1331 
L 506 -1331 
L 506 -850 
L 844 -850 
Q 1081 -850 1212 -737 
Q 1344 -625 1503 -206 
L 1606 56 
L 191 3500 
L 800 3500 
L 1894 763 
L 2988 3500 
L 3597 3500 
L 2059 -325 
z
" transform="scale(0.015625)"/>
      <path id="DejaVuSans-72" d="M 2631 2963 
Q 2534 3019 2420 3045 
Q 2306 3072 2169 3072 
Q 1681 3072 1420 2755 
Q 1159 2438 1159 1844 
L 1159 0 
L 581 0 
L 581 3500 
L 1159 3500 
L 1159 2956 
Q 1341 3275 1631 3429 
Q 1922 3584 2338 3584 
Q 2397 3584 2469 3576 
Q 2541 3569 2628 3553 
L 2631 2963 
z
" transform="scale(0.015625)"/>
      <path id="DejaVuSans-4f" d="M 2522 4238 
Q 1834 4238 1429 3725 
Q 1025 3213 1025 2328 
Q 1025 1447 1429 934 
Q 1834 422 2522 422 
Q 3209 422 3611 934 
Q 4013 1447 4013 2328 
Q 4013 3213 3611 3725 
Q 3209 4238 2522 4238 
z
M 2522 4750 
Q 3503 4750 4090 4092 
Q 4678 3434 4678 2328 
Q 4678 1225 4090 567 
Q 3503 -91 2522 -91 
Q 1538 -91 948 565 
Q 359 1222 359 2328 
Q 359 3434 948 4092 
Q 1538 4750 2522 4750 
z
" transform="scale(0.015625)"/>
      <path id="DejaVuSans-6c" d="M 603 4863 
L 1178 4863 
L 1178 0 
L 603 0 
L 603 4863 
z
" transform="scale(0.015625)"/>
      <path id="DejaVuSans-52" d="M 2841 2188 
Q 3044 2119 3236 1894 
Q 3428 1669 3622 1275 
L 4263 0 
L 3584 0 
L 2988 1197 
Q 2756 1666 2539 1819 
Q 2322 1972 1947 1972 
L 1259 1972 
L 1259 0 
L 628 0 
L 628 4666 
L 2053 4666 
Q 2853 4666 3247 4331 
Q 3641 3997 3641 3322 
Q 3641 2881 3436 2590 
Q 3231 2300 2841 2188 
z
M 1259 4147 
L 1259 2491 
L 2053 2491 
Q 2509 2491 2742 2702 
Q 2975 2913 2975 3322 
Q 2975 3731 2742 3939 
Q 2509 4147 2053 4147 
L 1259 4147 
z
" transform="scale(0.015625)"/>
      <path id="DejaVuSans-53" d="M 3425 4513 
L 3425 3897 
Q 3066 4069 2747 4153 
Q 2428 4238 2131 4238 
Q 1616 4238 1336 4038 
Q 1056 3838 1056 3469 
Q 1056 3159 1242 3001 
Q 1428 2844 1947 2747 
L 2328 2669 
Q 3034 2534 3370 2195 
Q 3706 1856 3706 1288 
Q 3706 609 3251 259 
Q 2797 -91 1919 -91 
Q 1588 -91 1214 -16 
Q 841 59 441 206 
L 441 856 
Q 825 641 1194 531 
Q 1563 422 1919 422 
Q 2459 422 2753 634 
Q 3047 847 3047 1241 
Q 3047 1584 2836 1778 
Q 2625 1972 2144 2069 
L 1759 2144 
Q 1053 2284 737 2584 
Q 422 2884 422 3419 
Q 422 4038 858 4394 
Q 1294 4750 2059 4750 
Q 2388 4750 2728 4690 
Q 3069 4631 3425 4513 
z
" transform="scale(0.015625)"/>
      <path id="DejaVuSans-45" d="M 628 4666 
L 3578 4666 
L 3578 4134 
L 1259 4134 
L 1259 2753 
L 3481 2753 
L 3481 2222 
L 1259 2222 
L 1259 531 
L 3634 531 
L 3634 0 
L 628 0 
L 628 4666 
z
" transform="scale(0.015625)"/>
      <path id="DejaVuSans-3d" d="M 678 2906 
L 4684 2906 
L 4684 2381 
L 678 2381 
L 678 2906 
z
M 678 1631 
L 4684 1631 
L 4684 1100 
L 678 1100 
L 678 1631 
z
" transform="scale(0.015625)"/>
      <path id="DejaVuSans-2c" d="M 750 794 
L 1409 794 
L 1409 256 
L 897 -744 
L 494 -744 
L 750 256 
L 750 794 
z
" transform="scale(0.015625)"/>
      <path id="DejaVuSans-39" d="M 703 97 
L 703 672 
Q 941 559 1184 500 
Q 1428 441 1663 441 
Q 2288 441 2617 861 
Q 2947 1281 2994 2138 
Q 2813 1869 2534 1725 
Q 2256 1581 1919 1581 
Q 1219 1581 811 2004 
Q 403 2428 403 3163 
Q 403 3881 828 4315 
Q 1253 4750 1959 4750 
Q 2769 4750 3195 4129 
Q 3622 3509 3622 2328 
Q 3622 1225 3098 567 
Q 2575 -91 1691 -91 
Q 1453 -91 1209 -44 
Q 966 3 703 97 
z
M 1959 2075 
Q 2384 2075 2632 2365 
Q 2881 2656 2881 3163 
Q 2881 3666 2632 3958 
Q 2384 4250 1959 4250 
Q 1534 4250 1286 3958 
Q 1038 3666 1038 3163 
Q 1038 2656 1286 2365 
Q 1534 2075 1959 2075 
z
" transform="scale(0.015625)"/>
     </defs>
     <use xlink:href="#DejaVuSans-54"/>
     <use xlink:href="#DejaVuSans-43" x="55.208984"/>
     <use xlink:href="#DejaVuSans-4e" x="125.033203"/>
     <use xlink:href="#DejaVuSans-20" x="199.837891"/>
     <use xlink:href="#DejaVuSans-47" x="231.625"/>
     <use xlink:href="#DejaVuSans-79" x="309.115234"/>
     <use xlink:href="#DejaVuSans-72" x="368.294922"/>
     <use xlink:href="#DejaVuSans-6f" x="407.158203"/>
     <use xlink:href="#DejaVuSans-4f" x="468.339844"/>
     <use xlink:href="#DejaVuSans-6e" x="547.050781"/>
     <use xlink:href="#DejaVuSans-6c" x="610.429688"/>
     <use xlink:href="#DejaVuSans-79" x="638.212891"/>
     <use xlink:href="#DejaVuSans-20" x="697.392578"/>
     <use xlink:href="#DejaVuSans-28" x="729.179688"/>
     <use xlink:href="#DejaVuSans-52" x="768.193359"/>
     <use xlink:href="#DejaVuSans-29" x="837.675781"/>
     <use xlink:href="#DejaVuSans-20" x="876.689453"/>
     <use xlink:href="#DejaVuSans-52" x="908.476562"/>
     <use xlink:href="#DejaVuSans-4d" x="977.958984"/>
     <use xlink:href="#DejaVuSans-53" x="1064.238281"/>
     <use xlink:href="#DejaVuSans-45" x="1127.714844"/>
     <use xlink:href="#DejaVuSans-20" x="1190.898438"/>
     <use xlink:href="#DejaVuSans-3d" x="1222.685547"/>
     <use xlink:href="#DejaVuSans-20" x="1306.474609"/>
     <use xlink:href="#DejaVuSans-30" x="1338.261719"/>
     <use xlink:href="#DejaVuSans-2e" x="1401.884766"/>
     <use xlink:href="#DejaVuSans-31" x="1433.671875"/>
     <use xlink:href="#DejaVuSans-30" x="1497.294922"/>
     <use xlink:href="#DejaVuSans-20" x="1560.917969"/>
     <use xlink:href="#DejaVuSans-4e" x="1592.705078"/>
     <use xlink:href="#DejaVuSans-6d" x="1667.509766"/>
     <use xlink:href="#DejaVuSans-2f" x="1764.921875"/>
     <use xlink:href="#DejaVuSans-6b" x="1798.613281"/>
     <use xlink:href="#DejaVuSans-67" x="1856.523438"/>
     <use xlink:href="#DejaVuSans-2c" x="1920"/>
     <use xlink:href="#DejaVuSans-20" x="1951.787109"/>
     <use xlink:href="#DejaVuSans-52" x="1983.574219"/>
     <use xlink:href="#DejaVuSans-32" x="2053.056641"/>
     <use xlink:href="#DejaVuSans-20" x="2116.679688"/>
     <use xlink:href="#DejaVuSans-3d" x="2148.466797"/>
     <use xlink:href="#DejaVuSans-20" x="2232.255859"/>
     <use xlink:href="#DejaVuSans-30" x="2264.042969"/>
     <use xlink:href="#DejaVuSans-2e" x="2327.666016"/>
     <use xlink:href="#DejaVuSans-39" x="2359.453125"/>
     <use xlink:href="#DejaVuSans-31" x="2423.076172"/>
    </g>
   </g>
   <g id="legend_1">
    <g id="patch_7">
     <path d="M 59.160938 59.674375 
L 156.03125 59.674375 
Q 158.03125 59.674375 158.03125 57.674375 
L 158.03125 29.318125 
Q 158.03125 27.318125 156.03125 27.318125 
L 59.160938 27.318125 
Q 57.160938 27.318125 57.160938 29.318125 
L 57.160938 57.674375 
Q 57.160938 59.674375 59.160938 59.674375 
z
" style="fill: #ffffff; opacity: 0.8; stroke: #cccccc; stroke-linejoin: miter"/>
    </g>
    <g id="line2d_18">
     <path d="M 61.160938 35.416562 
L 71.160938 35.416562 
L 81.160938 35.416562 
" style="fill: none; stroke-dasharray: 5.55,2.4; stroke-dashoffset: 0; stroke: #000000; stroke-width: 1.5"/>
    </g>
    <g id="text_19">
     <!-- GT (R) -->
     <g transform="translate(89.160938 38.916562) scale(0.1 -0.1)">
      <use xlink:href="#DejaVuSans-47"/>
      <use xlink:href="#DejaVuSans-54" x="73.865234"/>
      <use xlink:href="#DejaVuSans-20" x="134.949219"/>
      <use xlink:href="#DejaVuSans-28" x="166.736328"/>
      <use xlink:href="#DejaVuSans-52" x="205.75"/>
      <use xlink:href="#DejaVuSans-29" x="275.232422"/>
     </g>
    </g>
    <g id="line2d_19">
     <path d="M 61.160938 50.094687 
L 71.160938 50.094687 
L 81.160938 50.094687 
" style="fill: none; stroke: #1f77b4; stroke-width: 1.5; stroke-linecap: square"/>
    </g>
    <g id="text_20">
     <!-- Predicted (R) -->
     <g transform="translate(89.160938 53.594687) scale(0.1 -0.1)">
      <defs>
       <path id="DejaVuSans-50" d="M 1259 4147 
L 1259 2394 
L 2053 2394 
Q 2494 2394 2734 2622 
Q 2975 2850 2975 3272 
Q 2975 3691 2734 3919 
Q 2494 4147 2053 4147 
L 1259 4147 
z
M 628 4666 
L 2053 4666 
Q 2838 4666 3239 4311 
Q 3641 3956 3641 3272 
Q 3641 2581 3239 2228 
Q 2838 1875 2053 1875 
L 1259 1875 
L 1259 0 
L 628 0 
L 628 4666 
z
" transform="scale(0.015625)"/>
       <path id="DejaVuSans-64" d="M 2906 2969 
L 2906 4863 
L 3481 4863 
L 3481 0 
L 2906 0 
L 2906 525 
Q 2725 213 2448 61 
Q 2172 -91 1784 -91 
Q 1150 -91 751 415 
Q 353 922 353 1747 
Q 353 2572 751 3078 
Q 1150 3584 1784 3584 
Q 2172 3584 2448 3432 
Q 2725 3281 2906 2969 
z
M 947 1747 
Q 947 1113 1208 752 
Q 1469 391 1925 391 
Q 2381 391 2643 752 
Q 2906 1113 2906 1747 
Q 2906 2381 2643 2742 
Q 2381 3103 1925 3103 
Q 1469 3103 1208 2742 
Q 947 2381 947 1747 
z
" transform="scale(0.015625)"/>
       <path id="DejaVuSans-63" d="M 3122 3366 
L 3122 2828 
Q 2878 2963 2633 3030 
Q 2388 3097 2138 3097 
Q 1578 3097 1268 2742 
Q 959 2388 959 1747 
Q 959 1106 1268 751 
Q 1578 397 2138 397 
Q 2388 397 2633 464 
Q 2878 531 3122 666 
L 3122 134 
Q 2881 22 2623 -34 
Q 2366 -91 2075 -91 
Q 1284 -91 818 406 
Q 353 903 353 1747 
Q 353 2603 823 3093 
Q 1294 3584 2113 3584 
Q 2378 3584 2631 3529 
Q 2884 3475 3122 3366 
z
" transform="scale(0.015625)"/>
      </defs>
      <use xlink:href="#DejaVuSans-50"/>
      <use xlink:href="#DejaVuSans-72" x="58.552734"/>
      <use xlink:href="#DejaVuSans-65" x="97.416016"/>
      <use xlink:href="#DejaVuSans-64" x="158.939453"/>
      <use xlink:href="#DejaVuSans-69" x="222.416016"/>
      <use xlink:href="#DejaVuSans-63" x="250.199219"/>
      <use xlink:href="#DejaVuSans-74" x="305.179688"/>
      <use xlink:href="#DejaVuSans-65" x="344.388672"/>
      <use xlink:href="#DejaVuSans-64" x="405.912109"/>
      <use xlink:href="#DejaVuSans-20" x="469.388672"/>
      <use xlink:href="#DejaVuSans-28" x="501.175781"/>
      <use xlink:href="#DejaVuSans-52" x="540.189453"/>
      <use xlink:href="#DejaVuSans-29" x="609.671875"/>
     </g>
    </g>
   </g>
  </g>
 </g>
 <defs>
  <clipPath id="paba89104af">
   <rect x="52.160938" y="22.318125" width="837" height="166.32"/>
  </clipPath>
 </defs>
</svg>
