<?xml version="1.0" encoding="utf-8" standalone="no"?>
<!DOCTYPE svg PUBLIC "-//W3C//DTD SVG 1.1//EN"
  "http://www.w3.org/Graphics/SVG/1.1/DTD/svg11.dtd">
<svg xmlns:xlink="http://www.w3.org/1999/xlink" width="896.360937pt" height="226.194375pt" viewBox="0 0 896.360937 226.194375" xmlns="http://www.w3.org/2000/svg" version="1.1">
 <metadata>
  <rdf:RDF xmlns:dc="http://purl.org/dc/elements/1.1/" xmlns:cc="http://creativecommons.org/ns#" xmlns:rdf="http://www.w3.org/1999/02/22-rdf-syntax-ns#">
   <cc:Work>
    <dc:type rdf:resource="http://purl.org/dc/dcmitype/StillImage"/>
    <dc:date>2026-05-01T12:59:00.556334</dc:date>
    <dc:format>image/svg+xml</dc:format>
    <dc:creator>
     <cc:Agent>
      <dc:title>Matplotlib v3.7.3, https://matplotlib.org/</dc:title>
     </cc:Agent>
    </dc:creator>
   </cc:Work>
  </rdf:RDF>
 </metadata>
 <defs>
  <style type="text/css">*{stroke-linejoin: round; stroke-linecap: butt}</style>
 </defs>
 <g id="figure_1">
  <g id="patch_1">
   <path d="M 0 226.194375 
L 896.360937 226.194375 
L 896.360937 0 
L 0 0 
z
" style="fill: #ffffff"/>
  </g>
  <g id="axes_1">
   <g id="patch_2">
    <path d="M 52.160938 188.638125 
L 889.160938 188.638125 
L 889.160938 22.318125 
L 52.160938 22.318125 
z
" style="fill: #ffffff"/>
   </g>
   <g id="matplotlib.axis_1">
    <g id="xtick_1">
     <g id="line2d_1">
      <defs>
       <path id="m7789dae257" d="M 0 0 
L 0 3.5 
" style="stroke: #000000; stroke-width: 0.8"/>
      </defs>
      <g>
       <use xlink:href="#m7789dae257" x="64.11808" y="188.638125" style="stroke: #000000; stroke-width: 0.8"/>
      </g>
     </g>
     <g id="text_1">
      <!-- 1.0 -->
      <g transform="translate(56.166518 203.236563) scale(0.1 -0.1)">
       <defs>
        <path id="DejaVuSans-31" d="M 794 531 
L 1825 531 
L 1825 4091 
L 703 3866 
L 703 4441 
L 1819 4666 
L 2450 4666 
L 2450 531 
L 3481 531 
L 3481 0 
L 794 0 
L 794 531 
z
" transform="scale(0.015625)"/>
        <path id="DejaVuSans-2e" d="M 684 794 
L 1344 794 
L 1344 0 
L 684 0 
L 684 794 
z
" transform="scale(0.015625)"/>
        <path id="DejaVuSans-30" d="M 2034 4250 
Q 1547 4250 1301 3770 
Q 1056 3291 1056 2328 
Q 1056 1369 1301 889 
Q 1547 409 2034 409 
Q 2525 409 2770 889 
Q 3016 1369 3016 2328 
Q 3016 3291 2770 3770 
Q 2525 4250 2034 4250 
z
M 2034 4750 
Q 2819 4750 3233 4129 
Q 3647 3509 3647 2328 
Q 3647 1150 3233 529 
Q 2819 -91 2034 -91 
Q 1250 -91 836 529 
Q 422 1150 422 2328 
Q 422 3509 836 4129 
Q 1250 4750 2034 4750 
z
" transform="scale(0.015625)"/>
       </defs>
       <use xlink:href="#DejaVuSans-31"/>
       <use xlink:href="#DejaVuSans-2e" x="63.623047"/>
       <use xlink:href="#DejaVuSans-30" x="95.410156"/>
      </g>
     </g>
    </g>
    <g id="xtick_2">
     <g id="line2d_2">
      <g>
       <use xlink:href="#m7789dae257" x="183.689509" y="188.638125" style="stroke: #000000; stroke-width: 0.8"/>
      </g>
     </g>
     <g id="text_2">
      <!-- 1.5 -->
      <g transform="translate(175.737946 203.236563) scale(0.1 -0.1)">
       <defs>
        <path id="DejaVuSans-35" d="M 691 4666 
L 3169 4666 
L 3169 4134 
L 1269 4134 
L 1269 2991 
Q 1406 3038 1543 3061 
Q 1681 3084 1819 3084 
Q 2600 3084 3056 2656 
Q 3513 2228 3513 1497 
Q 3513 744 3044 326 
Q 2575 -91 1722 -91 
Q 1428 -91 1123 -41 
Q 819 9 494 109 
L 494 744 
Q 775 591 1075 516 
Q 1375 441 1709 441 
Q 2250 441 2565 725 
Q 2881 1009 2881 1497 
Q 2881 1984 2565 2268 
Q 2250 2553 1709 2553 
Q 1456 2553 1204 2497 
Q 953 2441 691 2322 
L 691 4666 
z
" transform="scale(0.015625)"/>
       </defs>
       <use xlink:href="#DejaVuSans-31"/>
       <use xlink:href="#DejaVuSans-2e" x="63.623047"/>
       <use xlink:href="#DejaVuSans-35" x="95.410156"/>
      </g>
     </g>
    </g>
    <g id="xtick_3">
     <g id="line2d_3">
      <g>
       <use xlink:href="#m7789dae257" x="303.260938" y="188.638125" style="stroke: #000000; stroke-width: 0.8"/>
      </g>
     </g>
     <g id="text_3">
      <!-- 2.0 -->
      <g transform="translate(295.309375 203.236563) scale(0.1 -0.1)">
       <defs>
        <path id="DejaVuSans-32" d="M 1228 531 
L 3431 531 
L 3431 0 
L 469 0 
L 469 531 
Q 828 903 1448 1529 
Q 2069 2156 2228 2338 
Q 2531 2678 2651 2914 
Q 2772 3150 2772 3378 
Q 2772 3750 2511 3984 
Q 2250 4219 1831 4219 
Q 1534 4219 1204 4116 
Q 875 4013 500 3803 
L 500 4441 
Q 881 4594 1212 4672 
Q 1544 4750 1819 4750 
Q 2544 4750 2975 4387 
Q 3406 4025 3406 3419 
Q 3406 3131 3298 2873 
Q 3191 2616 2906 2266 
Q 2828 2175 2409 1742 
Q 1991 1309 1228 531 
z
" transform="scale(0.015625)"/>
       </defs>
       <use xlink:href="#DejaVuSans-32"/>
       <use xlink:href="#DejaVuSans-2e" x="63.623047"/>
       <use xlink:href="#DejaVuSans-30" x="95.410156"/>
      </g>
     </g>
    </g>
    <g id="xtick_4">
     <g id="line2d_4">
      <g>
       <use xlink:href="#m7789dae257" x="422.832366" y="188.638125" style="stroke: #000000; stroke-width: 0.8"/>
      </g>
     </g>
     <g id="text_4">
      <!-- 2.5 -->
      <g transform="translate(414.880804 203.236563) scale(0.1 -0.1)">
       <use xlink:href="#DejaVuSans-32"/>
       <use xlink:href="#DejaVuSans-2e" x="63.623047"/>
       <use xlink:href="#DejaVuSans-35" x="95.410156"/>
      </g>
     </g>
    </g>
    <g id="xtick_5">
     <g id="line2d_5">
      <g>
       <use xlink:href="#m7789dae257" x="542.403795" y="188.638125" style="stroke: #000000; stroke-width: 0.8"/>
      </g>
     </g>
     <g id="text_5">
      <!-- 3.0 -->
      <g transform="translate(534.452232 203.236563) scale(0.1 -0.1)">
       <defs>
        <path id="DejaVuSans-33" d="M 2597 2516 
Q 3050 2419 3304 2112 
Q 3559 1806 3559 1356 
Q 3559 666 3084 287 
Q 2609 -91 1734 -91 
Q 1441 -91 1130 -33 
Q 819 25 488 141 
L 488 750 
Q 750 597 1062 519 
Q 1375 441 1716 441 
Q 2309 441 2620 675 
Q 2931 909 2931 1356 
Q 2931 1769 2642 2001 
Q 2353 2234 1838 2234 
L 1294 2234 
L 1294 2753 
L 1863 2753 
Q 2328 2753 2575 2939 
Q 2822 3125 2822 3475 
Q 2822 3834 2567 4026 
Q 2313 4219 1838 4219 
Q 1578 4219 1281 4162 
Q 984 4106 628 3988 
L 628 4550 
Q 988 4650 1302 4700 
Q 1616 4750 1894 4750 
Q 2613 4750 3031 4423 
Q 3450 4097 3450 3541 
Q 3450 3153 3228 2886 
Q 3006 2619 2597 2516 
z
" transform="scale(0.015625)"/>
       </defs>
       <use xlink:href="#DejaVuSans-33"/>
       <use xlink:href="#DejaVuSans-2e" x="63.623047"/>
       <use xlink:href="#DejaVuSans-30" x="95.410156"/>
      </g>
     </g>
    </g>
    <g id="xtick_6">
     <g id="line2d_6">
      <g>
       <use xlink:href="#m7789dae257" x="661.975223" y="188.638125" style="stroke: #000000; stroke-width: 0.8"/>
      </g>
     </g>
     <g id="text_6">
      <!-- 3.5 -->
      <g transform="translate(654.023661 203.236563) scale(0.1 -0.1)">
       <use xlink:href="#DejaVuSans-33"/>
       <use xlink:href="#DejaVuSans-2e" x="63.623047"/>
       <use xlink:href="#DejaVuSans-35" x="95.410156"/>
      </g>
     </g>
    </g>
    <g id="xtick_7">
     <g id="line2d_7">
      <g>
       <use xlink:href="#m7789dae257" x="781.546652" y="188.638125" style="stroke: #000000; stroke-width: 0.8"/>
      </g>
     </g>
     <g id="text_7">
      <!-- 4.0 -->
      <g transform="translate(773.595089 203.236563) scale(0.1 -0.1)">
       <defs>
        <path id="DejaVuSans-34" d="M 2419 4116 
L 825 1625 
L 2419 1625 
L 2419 4116 
z
M 2253 4666 
L 3047 4666 
L 3047 1625 
L 3713 1625 
L 3713 1100 
L 3047 1100 
L 3047 0 
L 2419 0 
L 2419 1100 
L 313 1100 
L 313 1709 
L 2253 4666 
z
" transform="scale(0.015625)"/>
       </defs>
       <use xlink:href="#DejaVuSans-34"/>
       <use xlink:href="#DejaVuSans-2e" x="63.623047"/>
       <use xlink:href="#DejaVuSans-30" x="95.410156"/>
      </g>
     </g>
    </g>
    <g id="text_8">
     <!-- Time (s) -->
     <g transform="translate(450.332031 216.914688) scale(0.1 -0.1)">
      <defs>
       <path id="DejaVuSans-54" d="M -19 4666 
L 3928 4666 
L 3928 4134 
L 2272 4134 
L 2272 0 
L 1638 0 
L 1638 4134 
L -19 4134 
L -19 4666 
z
" transform="scale(0.015625)"/>
       <path id="DejaVuSans-69" d="M 603 3500 
L 1178 3500 
L 1178 0 
L 603 0 
L 603 3500 
z
M 603 4863 
L 1178 4863 
L 1178 4134 
L 603 4134 
L 603 4863 
z
" transform="scale(0.015625)"/>
       <path id="DejaVuSans-6d" d="M 3328 2828 
Q 3544 3216 3844 3400 
Q 4144 3584 4550 3584 
Q 5097 3584 5394 3201 
Q 5691 2819 5691 2113 
L 5691 0 
L 5113 0 
L 5113 2094 
Q 5113 2597 4934 2840 
Q 4756 3084 4391 3084 
Q 3944 3084 3684 2787 
Q 3425 2491 3425 1978 
L 3425 0 
L 2847 0 
L 2847 2094 
Q 2847 2600 2669 2842 
Q 2491 3084 2119 3084 
Q 1678 3084 1418 2786 
Q 1159 2488 1159 1978 
L 1159 0 
L 581 0 
L 581 3500 
L 1159 3500 
L 1159 2956 
Q 1356 3278 1631 3431 
Q 1906 3584 2284 3584 
Q 2666 3584 2933 3390 
Q 3200 3197 3328 2828 
z
" transform="scale(0.015625)"/>
       <path id="DejaVuSans-65" d="M 3597 1894 
L 3597 1613 
L 953 1613 
Q 991 1019 1311 708 
Q 1631 397 2203 397 
Q 2534 397 2845 478 
Q 3156 559 3463 722 
L 3463 178 
Q 3153 47 2828 -22 
Q 2503 -91 2169 -91 
Q 1331 -91 842 396 
Q 353 884 353 1716 
Q 353 2575 817 3079 
Q 1281 3584 2069 3584 
Q 2775 3584 3186 3129 
Q 3597 2675 3597 1894 
z
M 3022 2063 
Q 3016 2534 2758 2815 
Q 2500 3097 2075 3097 
Q 1594 3097 1305 2825 
Q 1016 2553 972 2059 
L 3022 2063 
z
" transform="scale(0.015625)"/>
       <path id="DejaVuSans-20" transform="scale(0.015625)"/>
       <path id="DejaVuSans-28" d="M 1984 4856 
Q 1566 4138 1362 3434 
Q 1159 2731 1159 2009 
Q 1159 1288 1364 580 
Q 1569 -128 1984 -844 
L 1484 -844 
Q 1016 -109 783 600 
Q 550 1309 550 2009 
Q 550 2706 781 3412 
Q 1013 4119 1484 4856 
L 1984 4856 
z
" transform="scale(0.015625)"/>
       <path id="DejaVuSans-73" d="M 2834 3397 
L 2834 2853 
Q 2591 2978 2328 3040 
Q 2066 3103 1784 3103 
Q 1356 3103 1142 2972 
Q 928 2841 928 2578 
Q 928 2378 1081 2264 
Q 1234 2150 1697 2047 
L 1894 2003 
Q 2506 1872 2764 1633 
Q 3022 1394 3022 966 
Q 3022 478 2636 193 
Q 2250 -91 1575 -91 
Q 1294 -91 989 -36 
Q 684 19 347 128 
L 347 722 
Q 666 556 975 473 
Q 1284 391 1588 391 
Q 1994 391 2212 530 
Q 2431 669 2431 922 
Q 2431 1156 2273 1281 
Q 2116 1406 1581 1522 
L 1381 1569 
Q 847 1681 609 1914 
Q 372 2147 372 2553 
Q 372 3047 722 3315 
Q 1072 3584 1716 3584 
Q 2034 3584 2315 3537 
Q 2597 3491 2834 3397 
z
" transform="scale(0.015625)"/>
       <path id="DejaVuSans-29" d="M 513 4856 
L 1013 4856 
Q 1481 4119 1714 3412 
Q 1947 2706 1947 2009 
Q 1947 1309 1714 600 
Q 1481 -109 1013 -844 
L 513 -844 
Q 928 -128 1133 580 
Q 1338 1288 1338 2009 
Q 1338 2731 1133 3434 
Q 928 4138 513 4856 
z
" transform="scale(0.015625)"/>
      </defs>
      <use xlink:href="#DejaVuSans-54"/>
      <use xlink:href="#DejaVuSans-69" x="57.958984"/>
      <use xlink:href="#DejaVuSans-6d" x="85.742188"/>
      <use xlink:href="#DejaVuSans-65" x="183.154297"/>
      <use xlink:href="#DejaVuSans-20" x="244.677734"/>
      <use xlink:href="#DejaVuSans-28" x="276.464844"/>
      <use xlink:href="#DejaVuSans-73" x="315.478516"/>
      <use xlink:href="#DejaVuSans-29" x="367.578125"/>
     </g>
    </g>
   </g>
   <g id="matplotlib.axis_2">
    <g id="ytick_1">
     <g id="line2d_8">
      <defs>
       <path id="m2cb4c8c26d" d="M 0 0 
L -3.5 0 
" style="stroke: #000000; stroke-width: 0.8"/>
      </defs>
      <g>
       <use xlink:href="#m2cb4c8c26d" x="52.160938" y="171.864622" style="stroke: #000000; stroke-width: 0.8"/>
      </g>
     </g>
     <g id="text_9">
      <!-- −0.6 -->
      <g transform="translate(20.878125 175.663841) scale(0.1 -0.1)">
       <defs>
        <path id="DejaVuSans-2212" d="M 678 2272 
L 4684 2272 
L 4684 1741 
L 678 1741 
L 678 2272 
z
" transform="scale(0.015625)"/>
        <path id="DejaVuSans-36" d="M 2113 2584 
Q 1688 2584 1439 2293 
Q 1191 2003 1191 1497 
Q 1191 994 1439 701 
Q 1688 409 2113 409 
Q 2538 409 2786 701 
Q 3034 994 3034 1497 
Q 3034 2003 2786 2293 
Q 2538 2584 2113 2584 
z
M 3366 4563 
L 3366 3988 
Q 3128 4100 2886 4159 
Q 2644 4219 2406 4219 
Q 1781 4219 1451 3797 
Q 1122 3375 1075 2522 
Q 1259 2794 1537 2939 
Q 1816 3084 2150 3084 
Q 2853 3084 3261 2657 
Q 3669 2231 3669 1497 
Q 3669 778 3244 343 
Q 2819 -91 2113 -91 
Q 1303 -91 875 529 
Q 447 1150 447 2328 
Q 447 3434 972 4092 
Q 1497 4750 2381 4750 
Q 2619 4750 2861 4703 
Q 3103 4656 3366 4563 
z
" transform="scale(0.015625)"/>
       </defs>
       <use xlink:href="#DejaVuSans-2212"/>
       <use xlink:href="#DejaVuSans-30" x="83.789062"/>
       <use xlink:href="#DejaVuSans-2e" x="147.412109"/>
       <use xlink:href="#DejaVuSans-36" x="179.199219"/>
      </g>
     </g>
    </g>
    <g id="ytick_2">
     <g id="line2d_9">
      <g>
       <use xlink:href="#m2cb4c8c26d" x="52.160938" y="148.786195" style="stroke: #000000; stroke-width: 0.8"/>
      </g>
     </g>
     <g id="text_10">
      <!-- −0.4 -->
      <g transform="translate(20.878125 152.585414) scale(0.1 -0.1)">
       <use xlink:href="#DejaVuSans-2212"/>
       <use xlink:href="#DejaVuSans-30" x="83.789062"/>
       <use xlink:href="#DejaVuSans-2e" x="147.412109"/>
       <use xlink:href="#DejaVuSans-34" x="179.199219"/>
      </g>
     </g>
    </g>
    <g id="ytick_3">
     <g id="line2d_10">
      <g>
       <use xlink:href="#m2cb4c8c26d" x="52.160938" y="125.707768" style="stroke: #000000; stroke-width: 0.8"/>
      </g>
     </g>
     <g id="text_11">
      <!-- −0.2 -->
      <g transform="translate(20.878125 129.506986) scale(0.1 -0.1)">
       <use xlink:href="#DejaVuSans-2212"/>
       <use xlink:href="#DejaVuSans-30" x="83.789062"/>
       <use xlink:href="#DejaVuSans-2e" x="147.412109"/>
       <use xlink:href="#DejaVuSans-32" x="179.199219"/>
      </g>
     </g>
    </g>
    <g id="ytick_4">
     <g id="line2d_11">
      <g>
       <use xlink:href="#m2cb4c8c26d" x="52.160938" y="102.629341" style="stroke: #000000; stroke-width: 0.8"/>
      </g>
     </g>
     <g id="text_12">
      <!-- 0.0 -->
      <g transform="translate(29.257813 106.428559) scale(0.1 -0.1)">
       <use xlink:href="#DejaVuSans-30"/>
       <use xlink:href="#DejaVuSans-2e" x="63.623047"/>
       <use xlink:href="#DejaVuSans-30" x="95.410156"/>
      </g>
     </g>
    </g>
    <g id="ytick_5">
     <g id="line2d_12">
      <g>
       <use xlink:href="#m2cb4c8c26d" x="52.160938" y="79.550913" style="stroke: #000000; stroke-width: 0.8"/>
      </g>
     </g>
     <g id="text_13">
      <!-- 0.2 -->
      <g transform="translate(29.257813 83.350132) scale(0.1 -0.1)">
       <use xlink:href="#DejaVuSans-30"/>
       <use xlink:href="#DejaVuSans-2e" x="63.623047"/>
       <use xlink:href="#DejaVuSans-32" x="95.410156"/>
      </g>
     </g>
    </g>
    <g id="ytick_6">
     <g id="line2d_13">
      <g>
       <use xlink:href="#m2cb4c8c26d" x="52.160938" y="56.472486" style="stroke: #000000; stroke-width: 0.8"/>
      </g>
     </g>
     <g id="text_14">
      <!-- 0.4 -->
      <g transform="translate(29.257813 60.271705) scale(0.1 -0.1)">
       <use xlink:href="#DejaVuSans-30"/>
       <use xlink:href="#DejaVuSans-2e" x="63.623047"/>
       <use xlink:href="#DejaVuSans-34" x="95.410156"/>
      </g>
     </g>
    </g>
    <g id="ytick_7">
     <g id="line2d_14">
      <g>
       <use xlink:href="#m2cb4c8c26d" x="52.160938" y="33.394059" style="stroke: #000000; stroke-width: 0.8"/>
      </g>
     </g>
     <g id="text_15">
      <!-- 0.6 -->
      <g transform="translate(29.257813 37.193278) scale(0.1 -0.1)">
       <use xlink:href="#DejaVuSans-30"/>
       <use xlink:href="#DejaVuSans-2e" x="63.623047"/>
       <use xlink:href="#DejaVuSans-36" x="95.410156"/>
      </g>
     </g>
    </g>
    <g id="text_16">
     <!-- Hip Moment (N-m/kg) -->
     <g transform="translate(14.798438 159.499219) rotate(-90) scale(0.1 -0.1)">
      <defs>
       <path id="DejaVuSans-48" d="M 628 4666 
L 1259 4666 
L 1259 2753 
L 3553 2753 
L 3553 4666 
L 4184 4666 
L 4184 0 
L 3553 0 
L 3553 2222 
L 1259 2222 
L 1259 0 
L 628 0 
L 628 4666 
z
" transform="scale(0.015625)"/>
       <path id="DejaVuSans-70" d="M 1159 525 
L 1159 -1331 
L 581 -1331 
L 581 3500 
L 1159 3500 
L 1159 2969 
Q 1341 3281 1617 3432 
Q 1894 3584 2278 3584 
Q 2916 3584 3314 3078 
Q 3713 2572 3713 1747 
Q 3713 922 3314 415 
Q 2916 -91 2278 -91 
Q 1894 -91 1617 61 
Q 1341 213 1159 525 
z
M 3116 1747 
Q 3116 2381 2855 2742 
Q 2594 3103 2138 3103 
Q 1681 3103 1420 2742 
Q 1159 2381 1159 1747 
Q 1159 1113 1420 752 
Q 1681 391 2138 391 
Q 2594 391 2855 752 
Q 3116 1113 3116 1747 
z
" transform="scale(0.015625)"/>
       <path id="DejaVuSans-4d" d="M 628 4666 
L 1569 4666 
L 2759 1491 
L 3956 4666 
L 4897 4666 
L 4897 0 
L 4281 0 
L 4281 4097 
L 3078 897 
L 2444 897 
L 1241 4097 
L 1241 0 
L 628 0 
L 628 4666 
z
" transform="scale(0.015625)"/>
       <path id="DejaVuSans-6f" d="M 1959 3097 
Q 1497 3097 1228 2736 
Q 959 2375 959 1747 
Q 959 1119 1226 758 
Q 1494 397 1959 397 
Q 2419 397 2687 759 
Q 2956 1122 2956 1747 
Q 2956 2369 2687 2733 
Q 2419 3097 1959 3097 
z
M 1959 3584 
Q 2709 3584 3137 3096 
Q 3566 2609 3566 1747 
Q 3566 888 3137 398 
Q 2709 -91 1959 -91 
Q 1206 -91 779 398 
Q 353 888 353 1747 
Q 353 2609 779 3096 
Q 1206 3584 1959 3584 
z
" transform="scale(0.015625)"/>
       <path id="DejaVuSans-6e" d="M 3513 2113 
L 3513 0 
L 2938 0 
L 2938 2094 
Q 2938 2591 2744 2837 
Q 2550 3084 2163 3084 
Q 1697 3084 1428 2787 
Q 1159 2491 1159 1978 
L 1159 0 
L 581 0 
L 581 3500 
L 1159 3500 
L 1159 2956 
Q 1366 3272 1645 3428 
Q 1925 3584 2291 3584 
Q 2894 3584 3203 3211 
Q 3513 2838 3513 2113 
z
" transform="scale(0.015625)"/>
       <path id="DejaVuSans-74" d="M 1172 4494 
L 1172 3500 
L 2356 3500 
L 2356 3053 
L 1172 3053 
L 1172 1153 
Q 1172 725 1289 603 
Q 1406 481 1766 481 
L 2356 481 
L 2356 0 
L 1766 0 
Q 1100 0 847 248 
Q 594 497 594 1153 
L 594 3053 
L 172 3053 
L 172 3500 
L 594 3500 
L 594 4494 
L 1172 4494 
z
" transform="scale(0.015625)"/>
       <path id="DejaVuSans-4e" d="M 628 4666 
L 1478 4666 
L 3547 763 
L 3547 4666 
L 4159 4666 
L 4159 0 
L 3309 0 
L 1241 3903 
L 1241 0 
L 628 0 
L 628 4666 
z
" transform="scale(0.015625)"/>
       <path id="DejaVuSans-2d" d="M 313 2009 
L 1997 2009 
L 1997 1497 
L 313 1497 
L 313 2009 
z
" transform="scale(0.015625)"/>
       <path id="DejaVuSans-2f" d="M 1625 4666 
L 2156 4666 
L 531 -594 
L 0 -594 
L 1625 4666 
z
" transform="scale(0.015625)"/>
       <path id="DejaVuSans-6b" d="M 581 4863 
L 1159 4863 
L 1159 1991 
L 2875 3500 
L 3609 3500 
L 1753 1863 
L 3688 0 
L 2938 0 
L 1159 1709 
L 1159 0 
L 581 0 
L 581 4863 
z
" transform="scale(0.015625)"/>
       <path id="DejaVuSans-67" d="M 2906 1791 
Q 2906 2416 2648 2759 
Q 2391 3103 1925 3103 
Q 1463 3103 1205 2759 
Q 947 2416 947 1791 
Q 947 1169 1205 825 
Q 1463 481 1925 481 
Q 2391 481 2648 825 
Q 2906 1169 2906 1791 
z
M 3481 434 
Q 3481 -459 3084 -895 
Q 2688 -1331 1869 -1331 
Q 1566 -1331 1297 -1286 
Q 1028 -1241 775 -1147 
L 775 -588 
Q 1028 -725 1275 -790 
Q 1522 -856 1778 -856 
Q 2344 -856 2625 -561 
Q 2906 -266 2906 331 
L 2906 616 
Q 2728 306 2450 153 
Q 2172 0 1784 0 
Q 1141 0 747 490 
Q 353 981 353 1791 
Q 353 2603 747 3093 
Q 1141 3584 1784 3584 
Q 2172 3584 2450 3431 
Q 2728 3278 2906 2969 
L 2906 3500 
L 3481 3500 
L 3481 434 
z
" transform="scale(0.015625)"/>
      </defs>
      <use xlink:href="#DejaVuSans-48"/>
      <use xlink:href="#DejaVuSans-69" x="75.195312"/>
      <use xlink:href="#DejaVuSans-70" x="102.978516"/>
      <use xlink:href="#DejaVuSans-20" x="166.455078"/>
      <use xlink:href="#DejaVuSans-4d" x="198.242188"/>
      <use xlink:href="#DejaVuSans-6f" x="284.521484"/>
      <use xlink:href="#DejaVuSans-6d" x="345.703125"/>
      <use xlink:href="#DejaVuSans-65" x="443.115234"/>
      <use xlink:href="#DejaVuSans-6e" x="504.638672"/>
      <use xlink:href="#DejaVuSans-74" x="568.017578"/>
      <use xlink:href="#DejaVuSans-20" x="607.226562"/>
      <use xlink:href="#DejaVuSans-28" x="639.013672"/>
      <use xlink:href="#DejaVuSans-4e" x="678.027344"/>
      <use xlink:href="#DejaVuSans-2d" x="752.832031"/>
      <use xlink:href="#DejaVuSans-6d" x="788.916016"/>
      <use xlink:href="#DejaVuSans-2f" x="886.328125"/>
      <use xlink:href="#DejaVuSans-6b" x="920.019531"/>
      <use xlink:href="#DejaVuSans-67" x="977.929688"/>
      <use xlink:href="#DejaVuSans-29" x="1041.40625"/>
     </g>
    </g>
   </g>
   <g id="line2d_15">
    <path d="M 49.769509 142.180269 
L 54.552366 131.953611 
L 56.943795 127.082548 
L 59.335223 122.501659 
L 61.726652 118.286576 
L 64.11808 114.494197 
L 66.509509 111.162027 
L 68.900938 108.308261 
L 71.292366 105.932464 
L 73.683795 104.016768 
L 76.075223 102.527481 
L 78.466652 101.416936 
L 80.85808 100.625471 
L 83.249509 100.083474 
L 88.032366 99.432466 
L 92.815223 98.78943 
L 95.206652 98.252576 
L 97.59808 97.460104 
L 99.989509 96.336246 
L 102.380938 94.816521 
L 104.772366 92.851728 
L 107.163795 90.411419 
L 109.555223 87.486499 
L 111.946652 84.09084 
L 114.33808 80.261961 
L 116.729509 76.060772 
L 121.512366 66.893774 
L 126.295223 57.472834 
L 128.686652 52.999498 
L 131.07808 48.871086 
L 133.469509 45.223363 
L 135.860938 42.181179 
L 138.252366 39.852401 
L 140.643795 38.322213 
L 143.035223 37.648059 
L 145.426652 37.855585 
L 147.81808 38.936052 
L 150.209509 40.845675 
L 152.600938 43.507274 
L 154.992366 46.814404 
L 157.383795 50.637873 
L 159.775223 54.834198 
L 169.340938 72.502492 
L 171.732366 76.545331 
L 174.123795 80.273505 
L 176.515223 83.644783 
L 178.906652 86.638086 
L 181.29808 89.250832 
L 183.689509 91.495579 
L 186.080938 93.396107 
L 188.472366 94.983291 
L 190.863795 96.291288 
L 193.255223 97.354519 
L 195.646652 98.205636 
L 198.03808 98.87435 
L 200.429509 99.386892 
L 202.820938 99.76597 
L 207.603795 100.200644 
L 212.386652 100.323851 
L 221.952366 100.385446 
L 224.343795 100.550514 
L 226.735223 100.850818 
L 229.126652 101.323024 
L 231.51808 101.998665 
L 233.909509 102.90046 
L 236.300938 104.038553 
L 238.692366 105.407416 
L 241.083795 106.984284 
L 245.866652 110.590967 
L 253.040938 116.260449 
L 257.823795 119.61818 
L 262.606652 122.517499 
L 267.389509 125.286418 
L 269.780938 126.811532 
L 272.172366 128.548724 
L 274.563795 130.579853 
L 276.955223 132.968294 
L 279.346652 135.749645 
L 281.73808 138.925451 
L 284.129509 142.460887 
L 288.912366 150.303908 
L 293.695223 158.420152 
L 296.086652 162.24975 
L 298.47808 165.749632 
L 300.869509 168.799425 
L 303.260938 171.295446 
L 305.652366 173.154132 
L 308.043795 174.313804 
L 310.435223 174.735045 
L 312.826652 174.400044 
L 315.21808 173.311477 
L 317.609509 171.491393 
L 320.000938 168.980452 
L 322.392366 165.837402 
L 324.783795 162.138415 
L 327.175223 157.975712 
L 329.566652 153.455134 
L 341.523795 129.638424 
L 343.915223 125.429482 
L 346.306652 121.616644 
L 348.69808 118.251137 
L 351.089509 115.359778 
L 353.480938 112.944859 
L 355.872366 110.985494 
L 358.263795 109.440114 
L 360.655223 108.249787 
L 363.046652 107.342016 
L 367.829509 106.039611 
L 372.612366 104.823556 
L 375.003795 104.024049 
L 377.395223 102.985163 
L 379.786652 101.632917 
L 382.17808 99.905105 
L 384.569509 97.754672 
L 386.960938 95.152819 
L 389.352366 92.091505 
L 391.743795 88.585146 
L 394.135223 84.671368 
L 396.526652 80.410731 
L 401.309509 71.196696 
L 406.092366 61.808497 
L 408.483795 57.371514 
L 410.875223 53.285186 
L 413.266652 49.678128 
L 415.65808 46.666899 
L 418.049509 44.350019 
L 420.440938 42.802565 
L 422.832366 42.071769 
L 425.223795 42.174066 
L 427.615223 43.093908 
L 430.006652 44.784546 
L 432.39808 47.170855 
L 434.789509 50.154102 
L 437.180938 53.618384 
L 439.572366 57.438171 
L 451.529509 77.723496 
L 453.920938 81.369777 
L 456.312366 84.74259 
L 458.703795 87.816303 
L 461.095223 90.578316 
L 463.486652 93.026452 
L 465.87808 95.166175 
L 468.269509 97.007773 
L 470.660938 98.563757 
L 473.052366 99.84686 
L 475.443795 100.868889 
L 477.835223 101.640506 
L 480.226652 102.171694 
L 482.61808 102.472629 
L 485.009509 102.554772 
L 487.400938 102.432202 
L 489.792366 102.123206 
L 492.183795 101.651986 
L 496.966652 100.357845 
L 504.140938 98.260815 
L 506.532366 97.761459 
L 508.923795 97.472239 
L 511.315223 97.455507 
L 513.706652 97.763821 
L 516.09808 98.434076 
L 518.489509 99.482082 
L 520.880938 100.898529 
L 523.272366 102.647159 
L 525.663795 104.665668 
L 535.229509 113.555935 
L 537.620938 115.462245 
L 540.012366 117.064389 
L 542.403795 118.312477 
L 544.795223 119.189475 
L 547.186652 119.714878 
L 549.57808 119.945642 
L 559.143795 120.144202 
L 561.535223 120.709657 
L 563.926652 121.743452 
L 566.31808 123.329201 
L 568.709509 125.506192 
L 571.100938 128.265008 
L 573.492366 131.54815 
L 575.883795 135.254997 
L 585.449509 151.311453 
L 587.840938 154.78711 
L 590.232366 157.733255 
L 592.623795 160.030966 
L 595.015223 161.59321 
L 597.406652 162.367249 
L 599.79808 162.33437 
L 602.189509 161.507377 
L 604.580938 159.926644 
L 606.972366 157.655562 
L 609.363795 154.776044 
L 611.755223 151.384404 
L 614.146652 147.58753 
L 618.929509 139.236071 
L 623.712366 130.644395 
L 626.103795 126.52931 
L 628.495223 122.659252 
L 630.886652 119.109414 
L 633.27808 115.937261 
L 635.669509 113.180736 
L 638.060938 110.857407 
L 640.452366 108.964648 
L 642.843795 107.48079 
L 645.235223 106.367052 
L 647.626652 105.570038 
L 650.01808 105.024527 
L 654.800938 104.384956 
L 659.583795 103.794123 
L 661.975223 103.304025 
L 664.366652 102.574614 
L 666.75808 101.531364 
L 669.149509 100.109791 
L 671.540938 98.258719 
L 673.932366 95.943165 
L 676.323795 93.146641 
L 678.715223 89.872807 
L 681.106652 86.146411 
L 683.49808 82.013471 
L 685.889509 77.5406 
L 690.672366 67.934393 
L 695.455223 58.193286 
L 697.846652 53.587247 
L 700.23808 49.331875 
L 702.629509 45.553007 
L 705.020938 42.366178 
L 707.412366 39.871283 
L 709.803795 38.147472 
L 712.195223 37.248607 
L 714.586652 37.199716 
L 716.97808 37.994919 
L 719.369509 39.597238 
L 721.760937 41.940552 
L 724.152366 44.933727 
L 726.543795 48.466564 
L 728.935223 52.416897 
L 733.71808 61.065191 
L 738.500937 69.922276 
L 743.283795 78.206859 
L 745.675223 81.955609 
L 748.066652 85.378415 
L 750.45808 88.446995 
L 752.849509 91.147395 
L 755.240938 93.478233 
L 757.632366 95.448465 
L 760.023795 97.075002 
L 762.415223 98.380602 
L 764.806652 99.392246 
L 767.19808 100.139962 
L 769.589509 100.655948 
L 771.980937 100.97392 
L 774.372366 101.12874 
L 779.155223 101.094389 
L 786.329509 100.772773 
L 788.720938 100.763208 
L 791.112366 100.875294 
L 793.503795 101.150195 
L 795.895223 101.624155 
L 798.286652 102.325716 
L 800.67808 103.272797 
L 803.069509 104.469913 
L 805.460938 105.905939 
L 807.852366 107.552973 
L 812.635223 111.289767 
L 817.41808 115.192554 
L 819.809509 117.037839 
L 822.200938 118.737388 
L 824.592366 120.256029 
L 826.983795 121.581689 
L 829.375223 122.728383 
L 834.15808 124.672625 
L 838.940938 126.681162 
L 841.332366 127.95348 
L 843.723795 129.531363 
L 846.115223 131.488627 
L 848.506652 133.870277 
L 850.89808 136.686133 
L 853.289509 139.908423 
L 855.680937 143.47329 
L 860.463795 151.224367 
L 865.246652 158.925529 
L 867.63808 162.396643 
L 870.029509 165.430017 
L 872.420938 167.905762 
L 874.812366 169.726225 
L 877.203795 170.81971 
L 879.595223 171.142157 
L 881.986652 170.677038 
L 884.37808 169.433914 
L 886.769509 167.446131 
L 889.160938 164.768084 
L 891.552366 161.472364 
L 891.552366 161.472364 
" clip-path="url(#p3fe36babb7)" style="fill: none; stroke-dasharray: 5.55,2.4; stroke-dashoffset: 0; stroke: #000000; stroke-width: 1.5"/>
   </g>
   <g id="line2d_16">
    <path d="M 49.769509 120.79611 
L 52.160938 118.995615 
L 54.552366 116.586108 
L 56.943795 113.443201 
L 59.335223 110.806651 
L 61.726652 109.004977 
L 64.11808 106.047334 
L 66.509509 103.549638 
L 71.292366 96.263939 
L 76.075223 92.500458 
L 78.466652 91.205887 
L 80.85808 90.91471 
L 83.249509 91.147341 
L 85.640938 90.478237 
L 88.032366 91.485145 
L 90.423795 91.090345 
L 92.815223 88.975681 
L 95.206652 89.7903 
L 97.59808 90.100929 
L 99.989509 90.799208 
L 102.380938 89.13118 
L 104.772366 88.225299 
L 107.163795 85.820538 
L 109.555223 82.620028 
L 111.946652 78.37087 
L 114.33808 74.399625 
L 116.729509 70.128804 
L 119.120938 71.532169 
L 121.512366 68.573895 
L 123.903795 63.378974 
L 126.295223 57.107502 
L 128.686652 53.525828 
L 131.07808 50.365272 
L 133.469509 50.242161 
L 135.860938 49.56294 
L 138.252366 46.997367 
L 140.643795 43.703764 
L 143.035223 41.88052 
L 145.426652 40.768913 
L 147.81808 43.094134 
L 150.209509 43.941238 
L 152.600938 51.21199 
L 154.992366 53.409657 
L 157.383795 57.568205 
L 159.775223 62.781779 
L 162.166652 67.549503 
L 164.55808 73.102478 
L 166.949509 79.926684 
L 169.340938 83.000754 
L 171.732366 86.549944 
L 174.123795 91.847535 
L 176.515223 95.768876 
L 178.906652 97.562774 
L 181.29808 97.529066 
L 183.689509 96.775925 
L 186.080938 96.540429 
L 188.472366 95.036712 
L 190.863795 93.804102 
L 193.255223 91.097588 
L 195.646652 89.362792 
L 198.03808 89.164314 
L 200.429509 88.639989 
L 202.820938 89.438936 
L 205.212366 89.563777 
L 207.603795 90.580616 
L 209.995223 91.380985 
L 212.386652 91.698156 
L 217.169509 94.470801 
L 219.560938 95.711151 
L 221.952366 96.687353 
L 224.343795 97.906449 
L 226.735223 98.32439 
L 229.126652 99.824491 
L 231.51808 100.155542 
L 233.909509 100.9545 
L 236.300938 101.495181 
L 241.083795 105.499303 
L 245.866652 107.208092 
L 248.25808 108.918524 
L 255.432366 118.687048 
L 257.823795 120.558363 
L 260.215223 125.24381 
L 262.606652 128.038976 
L 264.99808 130.321422 
L 267.389509 132.843984 
L 269.780938 134.577505 
L 272.172366 137.014678 
L 274.563795 139.746373 
L 276.955223 143.00723 
L 279.346652 148.57644 
L 281.73808 151.584486 
L 284.129509 157.387576 
L 286.520938 160.519572 
L 288.912366 161.950851 
L 291.303795 163.014787 
L 293.695223 163.535163 
L 296.086652 164.517135 
L 298.47808 166.593452 
L 300.869509 163.24528 
L 303.260938 155.219666 
L 305.652366 152.416826 
L 308.043795 152.489085 
L 310.435223 148.847041 
L 312.826652 144.830797 
L 317.609509 141.242448 
L 322.392366 135.096529 
L 324.783795 132.372015 
L 327.175223 129.296328 
L 331.95808 124.258099 
L 334.349509 121.287875 
L 336.740938 118.818277 
L 339.132366 115.977645 
L 341.523795 113.440379 
L 343.915223 111.196696 
L 346.306652 108.108409 
L 348.69808 106.115221 
L 351.089509 103.676059 
L 353.480938 99.795473 
L 355.872366 97.580614 
L 360.655223 94.855322 
L 363.046652 94.20412 
L 365.43808 93.843626 
L 370.220938 92.435678 
L 372.612366 92.615951 
L 375.003795 92.591542 
L 377.395223 92.318022 
L 379.786652 91.449104 
L 382.17808 90.79078 
L 384.569509 90.481642 
L 386.960938 88.554536 
L 389.352366 87.68784 
L 391.743795 84.958152 
L 394.135223 80.864017 
L 396.526652 79.954369 
L 398.91808 77.050121 
L 401.309509 76.311446 
L 403.700938 74.0985 
L 406.092366 68.799129 
L 408.483795 62.722777 
L 410.875223 58.449994 
L 413.266652 57.215348 
L 415.65808 55.141875 
L 418.049509 53.426315 
L 420.440938 51.493892 
L 422.832366 47.832149 
L 425.223795 45.7577 
L 427.615223 48.094493 
L 430.006652 49.434928 
L 432.39808 57.25081 
L 434.789509 56.71923 
L 437.180938 60.364545 
L 439.572366 64.503962 
L 441.963795 69.393367 
L 444.355223 72.937525 
L 446.746652 77.130283 
L 449.13808 79.623726 
L 451.529509 84.149217 
L 453.920938 88.237488 
L 456.312366 90.669573 
L 458.703795 92.268419 
L 461.095223 93.531363 
L 463.486652 93.850657 
L 465.87808 94.288936 
L 468.269509 92.657483 
L 470.660938 91.836926 
L 473.052366 90.433447 
L 475.443795 89.731052 
L 477.835223 90.046575 
L 480.226652 89.513287 
L 482.61808 89.690774 
L 485.009509 90.259368 
L 487.400938 90.945677 
L 489.792366 93.403645 
L 492.183795 93.105154 
L 496.966652 95.581847 
L 499.35808 96.074591 
L 501.749509 96.886967 
L 504.140938 98.089859 
L 506.532366 99.02765 
L 508.923795 99.78277 
L 511.315223 100.289047 
L 513.706652 102.406255 
L 516.09808 104.32045 
L 520.880938 106.684891 
L 523.272366 107.328196 
L 525.663795 108.499435 
L 528.055223 109.208032 
L 530.446652 108.598878 
L 532.83808 109.427608 
L 535.229509 112.308067 
L 537.620938 114.587114 
L 540.012366 117.58752 
L 542.403795 119.091959 
L 544.795223 122.927727 
L 547.186652 126.051142 
L 549.57808 127.675484 
L 551.969509 130.5637 
L 554.360938 132.230825 
L 556.752366 134.701438 
L 559.143795 136.211754 
L 561.535223 139.103271 
L 563.926652 144.759308 
L 566.31808 146.187767 
L 568.709509 147.899331 
L 571.100938 151.66949 
L 573.492366 154.427747 
L 575.883795 156.16565 
L 580.666652 161.615608 
L 583.05808 162.073745 
L 585.449509 160.446088 
L 587.840938 157.606475 
L 590.232366 157.922976 
L 592.623795 156.110314 
L 595.015223 152.142666 
L 597.406652 148.702433 
L 599.79808 146.598154 
L 602.189509 144.229527 
L 606.972366 137.133851 
L 609.363795 132.721791 
L 614.146652 126.351618 
L 616.53808 124.790216 
L 618.929509 122.203332 
L 623.712366 116.269148 
L 626.103795 112.784041 
L 628.495223 110.795985 
L 630.886652 109.649922 
L 633.27808 106.708193 
L 635.669509 104.735428 
L 638.060938 101.644087 
L 640.452366 97.785174 
L 642.843795 96.43466 
L 645.235223 94.73885 
L 647.626652 93.846325 
L 650.01808 93.320933 
L 652.409509 93.17925 
L 654.800938 92.289282 
L 657.192366 92.203703 
L 659.583795 91.487948 
L 661.975223 89.607817 
L 664.366652 88.682461 
L 666.75808 89.375985 
L 671.540938 86.942909 
L 673.932366 87.148705 
L 676.323795 85.467739 
L 678.715223 81.155582 
L 681.106652 78.029816 
L 683.49808 76.456795 
L 685.889509 75.294805 
L 688.280937 76.345911 
L 690.672366 75.662368 
L 693.063795 70.896929 
L 697.846652 58.656847 
L 702.629509 55.681261 
L 705.020938 54.421119 
L 707.412366 49.135014 
L 709.803795 46.060678 
L 712.195223 44.680393 
L 714.586652 44.580711 
L 716.97808 44.823914 
L 719.369509 46.044966 
L 724.152366 54.945869 
L 726.543795 61.664631 
L 728.935223 67.77145 
L 731.326652 71.896199 
L 733.71808 76.308202 
L 736.109509 80.433744 
L 743.283795 91.863294 
L 745.675223 93.039453 
L 748.066652 93.434104 
L 750.45808 94.045248 
L 752.849509 93.984164 
L 755.240938 94.182417 
L 757.632366 91.671183 
L 760.023795 90.729653 
L 762.415223 89.238892 
L 764.806652 89.393599 
L 767.19808 90.496376 
L 769.589509 90.307642 
L 774.372366 91.751132 
L 776.763795 92.963719 
L 779.155223 93.127322 
L 781.546652 94.503574 
L 783.93808 95.490829 
L 788.720938 98.11992 
L 793.503795 99.096217 
L 795.895223 100.913351 
L 798.286652 101.549647 
L 800.67808 102.445959 
L 803.069509 104.583709 
L 805.460938 105.90096 
L 807.852366 107.785248 
L 810.243795 109.991526 
L 812.635223 111.41556 
L 815.026652 113.243194 
L 817.41808 113.762649 
L 819.809509 116.59398 
L 822.200938 117.945037 
L 824.592366 120.376014 
L 826.983795 121.584609 
L 829.375223 125.409222 
L 831.766652 125.660266 
L 838.940938 130.597312 
L 841.332366 131.247821 
L 843.723795 133.487323 
L 846.115223 137.300073 
L 848.506652 143.060407 
L 850.89808 146.045931 
L 853.289509 149.966193 
L 855.680937 154.41395 
L 858.072366 157.777584 
L 860.463795 160.618662 
L 862.855223 165.023033 
L 865.246652 165.576698 
L 867.63808 166.826276 
L 870.029509 165.690699 
L 872.420938 164.798765 
L 874.812366 161.241786 
L 877.203795 158.209338 
L 879.595223 156.45022 
L 881.986652 154.848672 
L 884.37808 152.539697 
L 886.769509 146.747656 
L 889.160938 143.301302 
L 891.552366 138.091476 
L 891.552366 138.091476 
" clip-path="url(#p3fe36babb7)" style="fill: none; stroke: #1f77b4; stroke-width: 1.5; stroke-linecap: square"/>
   </g>
   <g id="patch_3">
    <path d="M 52.160938 188.638125 
L 52.160938 22.318125 
" style="fill: none; stroke: #000000; stroke-width: 0.8; stroke-linejoin: miter; stroke-linecap: square"/>
   </g>
   <g id="patch_4">
    <path d="M 889.160938 188.638125 
L 889.160938 22.318125 
" style="fill: none; stroke: #000000; stroke-width: 0.8; stroke-linejoin: miter; stroke-linecap: square"/>
   </g>
   <g id="patch_5">
    <path d="M 52.160938 188.638125 
L 889.160938 188.638125 
" style="fill: none; stroke: #000000; stroke-width: 0.8; stroke-linejoin: miter; stroke-linecap: square"/>
   </g>
   <g id="patch_6">
    <path d="M 52.160938 22.318125 
L 889.160938 22.318125 
" style="fill: none; stroke: #000000; stroke-width: 0.8; stroke-linejoin: miter; stroke-linecap: square"/>
   </g>
   <g id="text_17">
    <!-- TCN AccelOnly (L) RMSE = 0.09 Nm/kg, R2 = 0.91 -->
    <g transform="translate(320.531563 16.318125) scale(0.12 -0.12)">
     <defs>
      <path id="DejaVuSans-43" d="M 4122 4306 
L 4122 3641 
Q 3803 3938 3442 4084 
Q 3081 4231 2675 4231 
Q 1875 4231 1450 3742 
Q 1025 3253 1025 2328 
Q 1025 1406 1450 917 
Q 1875 428 2675 428 
Q 3081 428 3442 575 
Q 3803 722 4122 1019 
L 4122 359 
Q 3791 134 3420 21 
Q 3050 -91 2638 -91 
Q 1578 -91 968 557 
Q 359 1206 359 2328 
Q 359 3453 968 4101 
Q 1578 4750 2638 4750 
Q 3056 4750 3426 4639 
Q 3797 4528 4122 4306 
z
" transform="scale(0.015625)"/>
      <path id="DejaVuSans-41" d="M 2188 4044 
L 1331 1722 
L 3047 1722 
L 2188 4044 
z
M 1831 4666 
L 2547 4666 
L 4325 0 
L 3669 0 
L 3244 1197 
L 1141 1197 
L 716 0 
L 50 0 
L 1831 4666 
z
" transform="scale(0.015625)"/>
      <path id="DejaVuSans-63" d="M 3122 3366 
L 3122 2828 
Q 2878 2963 2633 3030 
Q 2388 3097 2138 3097 
Q 1578 3097 1268 2742 
Q 959 2388 959 1747 
Q 959 1106 1268 751 
Q 1578 397 2138 397 
Q 2388 397 2633 464 
Q 2878 531 3122 666 
L 3122 134 
Q 2881 22 2623 -34 
Q 2366 -91 2075 -91 
Q 1284 -91 818 406 
Q 353 903 353 1747 
Q 353 2603 823 3093 
Q 1294 3584 2113 3584 
Q 2378 3584 2631 3529 
Q 2884 3475 3122 3366 
z
" transform="scale(0.015625)"/>
      <path id="DejaVuSans-6c" d="M 603 4863 
L 1178 4863 
L 1178 0 
L 603 0 
L 603 4863 
z
" transform="scale(0.015625)"/>
      <path id="DejaVuSans-4f" d="M 2522 4238 
Q 1834 4238 1429 3725 
Q 1025 3213 1025 2328 
Q 1025 1447 1429 934 
Q 1834 422 2522 422 
Q 3209 422 3611 934 
Q 4013 1447 4013 2328 
Q 4013 3213 3611 3725 
Q 3209 4238 2522 4238 
z
M 2522 4750 
Q 3503 4750 4090 4092 
Q 4678 3434 4678 2328 
Q 4678 1225 4090 567 
Q 3503 -91 2522 -91 
Q 1538 -91 948 565 
Q 359 1222 359 2328 
Q 359 3434 948 4092 
Q 1538 4750 2522 4750 
z
" transform="scale(0.015625)"/>
      <path id="DejaVuSans-79" d="M 2059 -325 
Q 1816 -950 1584 -1140 
Q 1353 -1331 966 -1331 
L 506 -1331 
L 506 -850 
L 844 -850 
Q 1081 -850 1212 -737 
Q 1344 -625 1503 -206 
L 1606 56 
L 191 3500 
L 800 3500 
L 1894 763 
L 2988 3500 
L 3597 3500 
L 2059 -325 
z
" transform="scale(0.015625)"/>
      <path id="DejaVuSans-4c" d="M 628 4666 
L 1259 4666 
L 1259 531 
L 3531 531 
L 3531 0 
L 628 0 
L 628 4666 
z
" transform="scale(0.015625)"/>
      <path id="DejaVuSans-52" d="M 2841 2188 
Q 3044 2119 3236 1894 
Q 3428 1669 3622 1275 
L 4263 0 
L 3584 0 
L 2988 1197 
Q 2756 1666 2539 1819 
Q 2322 1972 1947 1972 
L 1259 1972 
L 1259 0 
L 628 0 
L 628 4666 
L 2053 4666 
Q 2853 4666 3247 4331 
Q 3641 3997 3641 3322 
Q 3641 2881 3436 2590 
Q 3231 2300 2841 2188 
z
M 1259 4147 
L 1259 2491 
L 2053 2491 
Q 2509 2491 2742 2702 
Q 2975 2913 2975 3322 
Q 2975 3731 2742 3939 
Q 2509 4147 2053 4147 
L 1259 4147 
z
" transform="scale(0.015625)"/>
      <path id="DejaVuSans-53" d="M 3425 4513 
L 3425 3897 
Q 3066 4069 2747 4153 
Q 2428 4238 2131 4238 
Q 1616 4238 1336 4038 
Q 1056 3838 1056 3469 
Q 1056 3159 1242 3001 
Q 1428 2844 1947 2747 
L 2328 2669 
Q 3034 2534 3370 2195 
Q 3706 1856 3706 1288 
Q 3706 609 3251 259 
Q 2797 -91 1919 -91 
Q 1588 -91 1214 -16 
Q 841 59 441 206 
L 441 856 
Q 825 641 1194 531 
Q 1563 422 1919 422 
Q 2459 422 2753 634 
Q 3047 847 3047 1241 
Q 3047 1584 2836 1778 
Q 2625 1972 2144 2069 
L 1759 2144 
Q 1053 2284 737 2584 
Q 422 2884 422 3419 
Q 422 4038 858 4394 
Q 1294 4750 2059 4750 
Q 2388 4750 2728 4690 
Q 3069 4631 3425 4513 
z
" transform="scale(0.015625)"/>
      <path id="DejaVuSans-45" d="M 628 4666 
L 3578 4666 
L 3578 4134 
L 1259 4134 
L 1259 2753 
L 3481 2753 
L 3481 2222 
L 1259 2222 
L 1259 531 
L 3634 531 
L 3634 0 
L 628 0 
L 628 4666 
z
" transform="scale(0.015625)"/>
      <path id="DejaVuSans-3d" d="M 678 2906 
L 4684 2906 
L 4684 2381 
L 678 2381 
L 678 2906 
z
M 678 1631 
L 4684 1631 
L 4684 1100 
L 678 1100 
L 678 1631 
z
" transform="scale(0.015625)"/>
      <path id="DejaVuSans-39" d="M 703 97 
L 703 672 
Q 941 559 1184 500 
Q 1428 441 1663 441 
Q 2288 441 2617 861 
Q 2947 1281 2994 2138 
Q 2813 1869 2534 1725 
Q 2256 1581 1919 1581 
Q 1219 1581 811 2004 
Q 403 2428 403 3163 
Q 403 3881 828 4315 
Q 1253 4750 1959 4750 
Q 2769 4750 3195 4129 
Q 3622 3509 3622 2328 
Q 3622 1225 3098 567 
Q 2575 -91 1691 -91 
Q 1453 -91 1209 -44 
Q 966 3 703 97 
z
M 1959 2075 
Q 2384 2075 2632 2365 
Q 2881 2656 2881 3163 
Q 2881 3666 2632 3958 
Q 2384 4250 1959 4250 
Q 1534 4250 1286 3958 
Q 1038 3666 1038 3163 
Q 1038 2656 1286 2365 
Q 1534 2075 1959 2075 
z
" transform="scale(0.015625)"/>
      <path id="DejaVuSans-2c" d="M 750 794 
L 1409 794 
L 1409 256 
L 897 -744 
L 494 -744 
L 750 256 
L 750 794 
z
" transform="scale(0.015625)"/>
     </defs>
     <use xlink:href="#DejaVuSans-54"/>
     <use xlink:href="#DejaVuSans-43" x="55.208984"/>
     <use xlink:href="#DejaVuSans-4e" x="125.033203"/>
     <use xlink:href="#DejaVuSans-20" x="199.837891"/>
     <use xlink:href="#DejaVuSans-41" x="231.625"/>
     <use xlink:href="#DejaVuSans-63" x="298.283203"/>
     <use xlink:href="#DejaVuSans-63" x="353.263672"/>
     <use xlink:href="#DejaVuSans-65" x="408.244141"/>
     <use xlink:href="#DejaVuSans-6c" x="469.767578"/>
     <use xlink:href="#DejaVuSans-4f" x="497.550781"/>
     <use xlink:href="#DejaVuSans-6e" x="576.261719"/>
     <use xlink:href="#DejaVuSans-6c" x="639.640625"/>
     <use xlink:href="#DejaVuSans-79" x="667.423828"/>
     <use xlink:href="#DejaVuSans-20" x="726.603516"/>
     <use xlink:href="#DejaVuSans-28" x="758.390625"/>
     <use xlink:href="#DejaVuSans-4c" x="797.404297"/>
     <use xlink:href="#DejaVuSans-29" x="853.117188"/>
     <use xlink:href="#DejaVuSans-20" x="892.130859"/>
     <use xlink:href="#DejaVuSans-52" x="923.917969"/>
     <use xlink:href="#DejaVuSans-4d" x="993.400391"/>
     <use xlink:href="#DejaVuSans-53" x="1079.679688"/>
     <use xlink:href="#DejaVuSans-45" x="1143.15625"/>
     <use xlink:href="#DejaVuSans-20" x="1206.339844"/>
     <use xlink:href="#DejaVuSans-3d" x="1238.126953"/>
     <use xlink:href="#DejaVuSans-20" x="1321.916016"/>
     <use xlink:href="#DejaVuSans-30" x="1353.703125"/>
     <use xlink:href="#DejaVuSans-2e" x="1417.326172"/>
     <use xlink:href="#DejaVuSans-30" x="1449.113281"/>
     <use xlink:href="#DejaVuSans-39" x="1512.736328"/>
     <use xlink:href="#DejaVuSans-20" x="1576.359375"/>
     <use xlink:href="#DejaVuSans-4e" x="1608.146484"/>
     <use xlink:href="#DejaVuSans-6d" x="1682.951172"/>
     <use xlink:href="#DejaVuSans-2f" x="1780.363281"/>
     <use xlink:href="#DejaVuSans-6b" x="1814.054688"/>
     <use xlink:href="#DejaVuSans-67" x="1871.964844"/>
     <use xlink:href="#DejaVuSans-2c" x="1935.441406"/>
     <use xlink:href="#DejaVuSans-20" x="1967.228516"/>
     <use xlink:href="#DejaVuSans-52" x="1999.015625"/>
     <use xlink:href="#DejaVuSans-32" x="2068.498047"/>
     <use xlink:href="#DejaVuSans-20" x="2132.121094"/>
     <use xlink:href="#DejaVuSans-3d" x="2163.908203"/>
     <use xlink:href="#DejaVuSans-20" x="2247.697266"/>
     <use xlink:href="#DejaVuSans-30" x="2279.484375"/>
     <use xlink:href="#DejaVuSans-2e" x="2343.107422"/>
     <use xlink:href="#DejaVuSans-39" x="2374.894531"/>
     <use xlink:href="#DejaVuSans-31" x="2438.517578"/>
    </g>
   </g>
   <g id="legend_1">
    <g id="patch_7">
     <path d="M 786.667188 59.674375 
L 882.160938 59.674375 
Q 884.160938 59.674375 884.160938 57.674375 
L 884.160938 29.318125 
Q 884.160938 27.318125 882.160938 27.318125 
L 786.667188 27.318125 
Q 784.667188 27.318125 784.667188 29.318125 
L 784.667188 57.674375 
Q 784.667188 59.674375 786.667188 59.674375 
z
" style="fill: #ffffff; opacity: 0.8; stroke: #cccccc; stroke-linejoin: miter"/>
    </g>
    <g id="line2d_17">
     <path d="M 788.667188 35.416562 
L 798.667188 35.416562 
L 808.667188 35.416562 
" style="fill: none; stroke-dasharray: 5.55,2.4; stroke-dashoffset: 0; stroke: #000000; stroke-width: 1.5"/>
    </g>
    <g id="text_18">
     <!-- GT (L) -->
     <g transform="translate(816.667188 38.916562) scale(0.1 -0.1)">
      <defs>
       <path id="DejaVuSans-47" d="M 3809 666 
L 3809 1919 
L 2778 1919 
L 2778 2438 
L 4434 2438 
L 4434 434 
Q 4069 175 3628 42 
Q 3188 -91 2688 -91 
Q 1594 -91 976 548 
Q 359 1188 359 2328 
Q 359 3472 976 4111 
Q 1594 4750 2688 4750 
Q 3144 4750 3555 4637 
Q 3966 4525 4313 4306 
L 4313 3634 
Q 3963 3931 3569 4081 
Q 3175 4231 2741 4231 
Q 1884 4231 1454 3753 
Q 1025 3275 1025 2328 
Q 1025 1384 1454 906 
Q 1884 428 2741 428 
Q 3075 428 3337 486 
Q 3600 544 3809 666 
z
" transform="scale(0.015625)"/>
      </defs>
      <use xlink:href="#DejaVuSans-47"/>
      <use xlink:href="#DejaVuSans-54" x="73.865234"/>
      <use xlink:href="#DejaVuSans-20" x="134.949219"/>
      <use xlink:href="#DejaVuSans-28" x="166.736328"/>
      <use xlink:href="#DejaVuSans-4c" x="205.75"/>
      <use xlink:href="#DejaVuSans-29" x="261.462891"/>
     </g>
    </g>
    <g id="line2d_18">
     <path d="M 788.667188 50.094687 
L 798.667188 50.094687 
L 808.667188 50.094687 
" style="fill: none; stroke: #1f77b4; stroke-width: 1.5; stroke-linecap: square"/>
    </g>
    <g id="text_19">
     <!-- Predicted (L) -->
     <g transform="translate(816.667188 53.594687) scale(0.1 -0.1)">
      <defs>
       <path id="DejaVuSans-50" d="M 1259 4147 
L 1259 2394 
L 2053 2394 
Q 2494 2394 2734 2622 
Q 2975 2850 2975 3272 
Q 2975 3691 2734 3919 
Q 2494 4147 2053 4147 
L 1259 4147 
z
M 628 4666 
L 2053 4666 
Q 2838 4666 3239 4311 
Q 3641 3956 3641 3272 
Q 3641 2581 3239 2228 
Q 2838 1875 2053 1875 
L 1259 1875 
L 1259 0 
L 628 0 
L 628 4666 
z
" transform="scale(0.015625)"/>
       <path id="DejaVuSans-72" d="M 2631 2963 
Q 2534 3019 2420 3045 
Q 2306 3072 2169 3072 
Q 1681 3072 1420 2755 
Q 1159 2438 1159 1844 
L 1159 0 
L 581 0 
L 581 3500 
L 1159 3500 
L 1159 2956 
Q 1341 3275 1631 3429 
Q 1922 3584 2338 3584 
Q 2397 3584 2469 3576 
Q 2541 3569 2628 3553 
L 2631 2963 
z
" transform="scale(0.015625)"/>
       <path id="DejaVuSans-64" d="M 2906 2969 
L 2906 4863 
L 3481 4863 
L 3481 0 
L 2906 0 
L 2906 525 
Q 2725 213 2448 61 
Q 2172 -91 1784 -91 
Q 1150 -91 751 415 
Q 353 922 353 1747 
Q 353 2572 751 3078 
Q 1150 3584 1784 3584 
Q 2172 3584 2448 3432 
Q 2725 3281 2906 2969 
z
M 947 1747 
Q 947 1113 1208 752 
Q 1469 391 1925 391 
Q 2381 391 2643 752 
Q 2906 1113 2906 1747 
Q 2906 2381 2643 2742 
Q 2381 3103 1925 3103 
Q 1469 3103 1208 2742 
Q 947 2381 947 1747 
z
" transform="scale(0.015625)"/>
      </defs>
      <use xlink:href="#DejaVuSans-50"/>
      <use xlink:href="#DejaVuSans-72" x="58.552734"/>
      <use xlink:href="#DejaVuSans-65" x="97.416016"/>
      <use xlink:href="#DejaVuSans-64" x="158.939453"/>
      <use xlink:href="#DejaVuSans-69" x="222.416016"/>
      <use xlink:href="#DejaVuSans-63" x="250.199219"/>
      <use xlink:href="#DejaVuSans-74" x="305.179688"/>
      <use xlink:href="#DejaVuSans-65" x="344.388672"/>
      <use xlink:href="#DejaVuSans-64" x="405.912109"/>
      <use xlink:href="#DejaVuSans-20" x="469.388672"/>
      <use xlink:href="#DejaVuSans-28" x="501.175781"/>
      <use xlink:href="#DejaVuSans-4c" x="540.189453"/>
      <use xlink:href="#DejaVuSans-29" x="595.902344"/>
     </g>
    </g>
   </g>
  </g>
 </g>
 <defs>
  <clipPath id="p3fe36babb7">
   <rect x="52.160938" y="22.318125" width="837" height="166.32"/>
  </clipPath>
 </defs>
</svg>
