<?xml version="1.0" encoding="utf-8" standalone="no"?>
<!DOCTYPE svg PUBLIC "-//W3C//DTD SVG 1.1//EN"
  "http://www.w3.org/Graphics/SVG/1.1/DTD/svg11.dtd">
<svg xmlns:xlink="http://www.w3.org/1999/xlink" width="896.360937pt" height="226.194375pt" viewBox="0 0 896.360937 226.194375" xmlns="http://www.w3.org/2000/svg" version="1.1">
 <metadata>
  <rdf:RDF xmlns:dc="http://purl.org/dc/elements/1.1/" xmlns:cc="http://creativecommons.org/ns#" xmlns:rdf="http://www.w3.org/1999/02/22-rdf-syntax-ns#">
   <cc:Work>
    <dc:type rdf:resource="http://purl.org/dc/dcmitype/StillImage"/>
    <dc:date>2026-05-01T12:59:00.430980</dc:date>
    <dc:format>image/svg+xml</dc:format>
    <dc:creator>
     <cc:Agent>
      <dc:title>Matplotlib v3.7.3, https://matplotlib.org/</dc:title>
     </cc:Agent>
    </dc:creator>
   </cc:Work>
  </rdf:RDF>
 </metadata>
 <defs>
  <style type="text/css">*{stroke-linejoin: round; stroke-linecap: butt}</style>
 </defs>
 <g id="figure_1">
  <g id="patch_1">
   <path d="M 0 226.194375 
L 896.360937 226.194375 
L 896.360937 0 
L 0 0 
z
" style="fill: #ffffff"/>
  </g>
  <g id="axes_1">
   <g id="patch_2">
    <path d="M 52.160938 188.638125 
L 889.160938 188.638125 
L 889.160938 22.318125 
L 52.160938 22.318125 
z
" style="fill: #ffffff"/>
   </g>
   <g id="matplotlib.axis_1">
    <g id="xtick_1">
     <g id="line2d_1">
      <defs>
       <path id="m41d7fb2b28" d="M 0 0 
L 0 3.5 
" style="stroke: #000000; stroke-width: 0.8"/>
      </defs>
      <g>
       <use xlink:href="#m41d7fb2b28" x="64.11808" y="188.638125" style="stroke: #000000; stroke-width: 0.8"/>
      </g>
     </g>
     <g id="text_1">
      <!-- 1.0 -->
      <g transform="translate(56.166518 203.236563) scale(0.1 -0.1)">
       <defs>
        <path id="DejaVuSans-31" d="M 794 531 
L 1825 531 
L 1825 4091 
L 703 3866 
L 703 4441 
L 1819 4666 
L 2450 4666 
L 2450 531 
L 3481 531 
L 3481 0 
L 794 0 
L 794 531 
z
" transform="scale(0.015625)"/>
        <path id="DejaVuSans-2e" d="M 684 794 
L 1344 794 
L 1344 0 
L 684 0 
L 684 794 
z
" transform="scale(0.015625)"/>
        <path id="DejaVuSans-30" d="M 2034 4250 
Q 1547 4250 1301 3770 
Q 1056 3291 1056 2328 
Q 1056 1369 1301 889 
Q 1547 409 2034 409 
Q 2525 409 2770 889 
Q 3016 1369 3016 2328 
Q 3016 3291 2770 3770 
Q 2525 4250 2034 4250 
z
M 2034 4750 
Q 2819 4750 3233 4129 
Q 3647 3509 3647 2328 
Q 3647 1150 3233 529 
Q 2819 -91 2034 -91 
Q 1250 -91 836 529 
Q 422 1150 422 2328 
Q 422 3509 836 4129 
Q 1250 4750 2034 4750 
z
" transform="scale(0.015625)"/>
       </defs>
       <use xlink:href="#DejaVuSans-31"/>
       <use xlink:href="#DejaVuSans-2e" x="63.623047"/>
       <use xlink:href="#DejaVuSans-30" x="95.410156"/>
      </g>
     </g>
    </g>
    <g id="xtick_2">
     <g id="line2d_2">
      <g>
       <use xlink:href="#m41d7fb2b28" x="183.689509" y="188.638125" style="stroke: #000000; stroke-width: 0.8"/>
      </g>
     </g>
     <g id="text_2">
      <!-- 1.5 -->
      <g transform="translate(175.737946 203.236563) scale(0.1 -0.1)">
       <defs>
        <path id="DejaVuSans-35" d="M 691 4666 
L 3169 4666 
L 3169 4134 
L 1269 4134 
L 1269 2991 
Q 1406 3038 1543 3061 
Q 1681 3084 1819 3084 
Q 2600 3084 3056 2656 
Q 3513 2228 3513 1497 
Q 3513 744 3044 326 
Q 2575 -91 1722 -91 
Q 1428 -91 1123 -41 
Q 819 9 494 109 
L 494 744 
Q 775 591 1075 516 
Q 1375 441 1709 441 
Q 2250 441 2565 725 
Q 2881 1009 2881 1497 
Q 2881 1984 2565 2268 
Q 2250 2553 1709 2553 
Q 1456 2553 1204 2497 
Q 953 2441 691 2322 
L 691 4666 
z
" transform="scale(0.015625)"/>
       </defs>
       <use xlink:href="#DejaVuSans-31"/>
       <use xlink:href="#DejaVuSans-2e" x="63.623047"/>
       <use xlink:href="#DejaVuSans-35" x="95.410156"/>
      </g>
     </g>
    </g>
    <g id="xtick_3">
     <g id="line2d_3">
      <g>
       <use xlink:href="#m41d7fb2b28" x="303.260938" y="188.638125" style="stroke: #000000; stroke-width: 0.8"/>
      </g>
     </g>
     <g id="text_3">
      <!-- 2.0 -->
      <g transform="translate(295.309375 203.236563) scale(0.1 -0.1)">
       <defs>
        <path id="DejaVuSans-32" d="M 1228 531 
L 3431 531 
L 3431 0 
L 469 0 
L 469 531 
Q 828 903 1448 1529 
Q 2069 2156 2228 2338 
Q 2531 2678 2651 2914 
Q 2772 3150 2772 3378 
Q 2772 3750 2511 3984 
Q 2250 4219 1831 4219 
Q 1534 4219 1204 4116 
Q 875 4013 500 3803 
L 500 4441 
Q 881 4594 1212 4672 
Q 1544 4750 1819 4750 
Q 2544 4750 2975 4387 
Q 3406 4025 3406 3419 
Q 3406 3131 3298 2873 
Q 3191 2616 2906 2266 
Q 2828 2175 2409 1742 
Q 1991 1309 1228 531 
z
" transform="scale(0.015625)"/>
       </defs>
       <use xlink:href="#DejaVuSans-32"/>
       <use xlink:href="#DejaVuSans-2e" x="63.623047"/>
       <use xlink:href="#DejaVuSans-30" x="95.410156"/>
      </g>
     </g>
    </g>
    <g id="xtick_4">
     <g id="line2d_4">
      <g>
       <use xlink:href="#m41d7fb2b28" x="422.832366" y="188.638125" style="stroke: #000000; stroke-width: 0.8"/>
      </g>
     </g>
     <g id="text_4">
      <!-- 2.5 -->
      <g transform="translate(414.880804 203.236563) scale(0.1 -0.1)">
       <use xlink:href="#DejaVuSans-32"/>
       <use xlink:href="#DejaVuSans-2e" x="63.623047"/>
       <use xlink:href="#DejaVuSans-35" x="95.410156"/>
      </g>
     </g>
    </g>
    <g id="xtick_5">
     <g id="line2d_5">
      <g>
       <use xlink:href="#m41d7fb2b28" x="542.403795" y="188.638125" style="stroke: #000000; stroke-width: 0.8"/>
      </g>
     </g>
     <g id="text_5">
      <!-- 3.0 -->
      <g transform="translate(534.452232 203.236563) scale(0.1 -0.1)">
       <defs>
        <path id="DejaVuSans-33" d="M 2597 2516 
Q 3050 2419 3304 2112 
Q 3559 1806 3559 1356 
Q 3559 666 3084 287 
Q 2609 -91 1734 -91 
Q 1441 -91 1130 -33 
Q 819 25 488 141 
L 488 750 
Q 750 597 1062 519 
Q 1375 441 1716 441 
Q 2309 441 2620 675 
Q 2931 909 2931 1356 
Q 2931 1769 2642 2001 
Q 2353 2234 1838 2234 
L 1294 2234 
L 1294 2753 
L 1863 2753 
Q 2328 2753 2575 2939 
Q 2822 3125 2822 3475 
Q 2822 3834 2567 4026 
Q 2313 4219 1838 4219 
Q 1578 4219 1281 4162 
Q 984 4106 628 3988 
L 628 4550 
Q 988 4650 1302 4700 
Q 1616 4750 1894 4750 
Q 2613 4750 3031 4423 
Q 3450 4097 3450 3541 
Q 3450 3153 3228 2886 
Q 3006 2619 2597 2516 
z
" transform="scale(0.015625)"/>
       </defs>
       <use xlink:href="#DejaVuSans-33"/>
       <use xlink:href="#DejaVuSans-2e" x="63.623047"/>
       <use xlink:href="#DejaVuSans-30" x="95.410156"/>
      </g>
     </g>
    </g>
    <g id="xtick_6">
     <g id="line2d_6">
      <g>
       <use xlink:href="#m41d7fb2b28" x="661.975223" y="188.638125" style="stroke: #000000; stroke-width: 0.8"/>
      </g>
     </g>
     <g id="text_6">
      <!-- 3.5 -->
      <g transform="translate(654.023661 203.236563) scale(0.1 -0.1)">
       <use xlink:href="#DejaVuSans-33"/>
       <use xlink:href="#DejaVuSans-2e" x="63.623047"/>
       <use xlink:href="#DejaVuSans-35" x="95.410156"/>
      </g>
     </g>
    </g>
    <g id="xtick_7">
     <g id="line2d_7">
      <g>
       <use xlink:href="#m41d7fb2b28" x="781.546652" y="188.638125" style="stroke: #000000; stroke-width: 0.8"/>
      </g>
     </g>
     <g id="text_7">
      <!-- 4.0 -->
      <g transform="translate(773.595089 203.236563) scale(0.1 -0.1)">
       <defs>
        <path id="DejaVuSans-34" d="M 2419 4116 
L 825 1625 
L 2419 1625 
L 2419 4116 
z
M 2253 4666 
L 3047 4666 
L 3047 1625 
L 3713 1625 
L 3713 1100 
L 3047 1100 
L 3047 0 
L 2419 0 
L 2419 1100 
L 313 1100 
L 313 1709 
L 2253 4666 
z
" transform="scale(0.015625)"/>
       </defs>
       <use xlink:href="#DejaVuSans-34"/>
       <use xlink:href="#DejaVuSans-2e" x="63.623047"/>
       <use xlink:href="#DejaVuSans-30" x="95.410156"/>
      </g>
     </g>
    </g>
    <g id="text_8">
     <!-- Time (s) -->
     <g transform="translate(450.332031 216.914688) scale(0.1 -0.1)">
      <defs>
       <path id="DejaVuSans-54" d="M -19 4666 
L 3928 4666 
L 3928 4134 
L 2272 4134 
L 2272 0 
L 1638 0 
L 1638 4134 
L -19 4134 
L -19 4666 
z
" transform="scale(0.015625)"/>
       <path id="DejaVuSans-69" d="M 603 3500 
L 1178 3500 
L 1178 0 
L 603 0 
L 603 3500 
z
M 603 4863 
L 1178 4863 
L 1178 4134 
L 603 4134 
L 603 4863 
z
" transform="scale(0.015625)"/>
       <path id="DejaVuSans-6d" d="M 3328 2828 
Q 3544 3216 3844 3400 
Q 4144 3584 4550 3584 
Q 5097 3584 5394 3201 
Q 5691 2819 5691 2113 
L 5691 0 
L 5113 0 
L 5113 2094 
Q 5113 2597 4934 2840 
Q 4756 3084 4391 3084 
Q 3944 3084 3684 2787 
Q 3425 2491 3425 1978 
L 3425 0 
L 2847 0 
L 2847 2094 
Q 2847 2600 2669 2842 
Q 2491 3084 2119 3084 
Q 1678 3084 1418 2786 
Q 1159 2488 1159 1978 
L 1159 0 
L 581 0 
L 581 3500 
L 1159 3500 
L 1159 2956 
Q 1356 3278 1631 3431 
Q 1906 3584 2284 3584 
Q 2666 3584 2933 3390 
Q 3200 3197 3328 2828 
z
" transform="scale(0.015625)"/>
       <path id="DejaVuSans-65" d="M 3597 1894 
L 3597 1613 
L 953 1613 
Q 991 1019 1311 708 
Q 1631 397 2203 397 
Q 2534 397 2845 478 
Q 3156 559 3463 722 
L 3463 178 
Q 3153 47 2828 -22 
Q 2503 -91 2169 -91 
Q 1331 -91 842 396 
Q 353 884 353 1716 
Q 353 2575 817 3079 
Q 1281 3584 2069 3584 
Q 2775 3584 3186 3129 
Q 3597 2675 3597 1894 
z
M 3022 2063 
Q 3016 2534 2758 2815 
Q 2500 3097 2075 3097 
Q 1594 3097 1305 2825 
Q 1016 2553 972 2059 
L 3022 2063 
z
" transform="scale(0.015625)"/>
       <path id="DejaVuSans-20" transform="scale(0.015625)"/>
       <path id="DejaVuSans-28" d="M 1984 4856 
Q 1566 4138 1362 3434 
Q 1159 2731 1159 2009 
Q 1159 1288 1364 580 
Q 1569 -128 1984 -844 
L 1484 -844 
Q 1016 -109 783 600 
Q 550 1309 550 2009 
Q 550 2706 781 3412 
Q 1013 4119 1484 4856 
L 1984 4856 
z
" transform="scale(0.015625)"/>
       <path id="DejaVuSans-73" d="M 2834 3397 
L 2834 2853 
Q 2591 2978 2328 3040 
Q 2066 3103 1784 3103 
Q 1356 3103 1142 2972 
Q 928 2841 928 2578 
Q 928 2378 1081 2264 
Q 1234 2150 1697 2047 
L 1894 2003 
Q 2506 1872 2764 1633 
Q 3022 1394 3022 966 
Q 3022 478 2636 193 
Q 2250 -91 1575 -91 
Q 1294 -91 989 -36 
Q 684 19 347 128 
L 347 722 
Q 666 556 975 473 
Q 1284 391 1588 391 
Q 1994 391 2212 530 
Q 2431 669 2431 922 
Q 2431 1156 2273 1281 
Q 2116 1406 1581 1522 
L 1381 1569 
Q 847 1681 609 1914 
Q 372 2147 372 2553 
Q 372 3047 722 3315 
Q 1072 3584 1716 3584 
Q 2034 3584 2315 3537 
Q 2597 3491 2834 3397 
z
" transform="scale(0.015625)"/>
       <path id="DejaVuSans-29" d="M 513 4856 
L 1013 4856 
Q 1481 4119 1714 3412 
Q 1947 2706 1947 2009 
Q 1947 1309 1714 600 
Q 1481 -109 1013 -844 
L 513 -844 
Q 928 -128 1133 580 
Q 1338 1288 1338 2009 
Q 1338 2731 1133 3434 
Q 928 4138 513 4856 
z
" transform="scale(0.015625)"/>
      </defs>
      <use xlink:href="#DejaVuSans-54"/>
      <use xlink:href="#DejaVuSans-69" x="57.958984"/>
      <use xlink:href="#DejaVuSans-6d" x="85.742188"/>
      <use xlink:href="#DejaVuSans-65" x="183.154297"/>
      <use xlink:href="#DejaVuSans-20" x="244.677734"/>
      <use xlink:href="#DejaVuSans-28" x="276.464844"/>
      <use xlink:href="#DejaVuSans-73" x="315.478516"/>
      <use xlink:href="#DejaVuSans-29" x="367.578125"/>
     </g>
    </g>
   </g>
   <g id="matplotlib.axis_2">
    <g id="ytick_1">
     <g id="line2d_8">
      <defs>
       <path id="mf670ece80d" d="M 0 0 
L -3.5 0 
" style="stroke: #000000; stroke-width: 0.8"/>
      </defs>
      <g>
       <use xlink:href="#mf670ece80d" x="52.160938" y="180.715698" style="stroke: #000000; stroke-width: 0.8"/>
      </g>
     </g>
     <g id="text_9">
      <!-- −0.6 -->
      <g transform="translate(20.878125 184.514917) scale(0.1 -0.1)">
       <defs>
        <path id="DejaVuSans-2212" d="M 678 2272 
L 4684 2272 
L 4684 1741 
L 678 1741 
L 678 2272 
z
" transform="scale(0.015625)"/>
        <path id="DejaVuSans-36" d="M 2113 2584 
Q 1688 2584 1439 2293 
Q 1191 2003 1191 1497 
Q 1191 994 1439 701 
Q 1688 409 2113 409 
Q 2538 409 2786 701 
Q 3034 994 3034 1497 
Q 3034 2003 2786 2293 
Q 2538 2584 2113 2584 
z
M 3366 4563 
L 3366 3988 
Q 3128 4100 2886 4159 
Q 2644 4219 2406 4219 
Q 1781 4219 1451 3797 
Q 1122 3375 1075 2522 
Q 1259 2794 1537 2939 
Q 1816 3084 2150 3084 
Q 2853 3084 3261 2657 
Q 3669 2231 3669 1497 
Q 3669 778 3244 343 
Q 2819 -91 2113 -91 
Q 1303 -91 875 529 
Q 447 1150 447 2328 
Q 447 3434 972 4092 
Q 1497 4750 2381 4750 
Q 2619 4750 2861 4703 
Q 3103 4656 3366 4563 
z
" transform="scale(0.015625)"/>
       </defs>
       <use xlink:href="#DejaVuSans-2212"/>
       <use xlink:href="#DejaVuSans-30" x="83.789062"/>
       <use xlink:href="#DejaVuSans-2e" x="147.412109"/>
       <use xlink:href="#DejaVuSans-36" x="179.199219"/>
      </g>
     </g>
    </g>
    <g id="ytick_2">
     <g id="line2d_9">
      <g>
       <use xlink:href="#mf670ece80d" x="52.160938" y="159.92213" style="stroke: #000000; stroke-width: 0.8"/>
      </g>
     </g>
     <g id="text_10">
      <!-- −0.4 -->
      <g transform="translate(20.878125 163.721349) scale(0.1 -0.1)">
       <use xlink:href="#DejaVuSans-2212"/>
       <use xlink:href="#DejaVuSans-30" x="83.789062"/>
       <use xlink:href="#DejaVuSans-2e" x="147.412109"/>
       <use xlink:href="#DejaVuSans-34" x="179.199219"/>
      </g>
     </g>
    </g>
    <g id="ytick_3">
     <g id="line2d_10">
      <g>
       <use xlink:href="#mf670ece80d" x="52.160938" y="139.128561" style="stroke: #000000; stroke-width: 0.8"/>
      </g>
     </g>
     <g id="text_11">
      <!-- −0.2 -->
      <g transform="translate(20.878125 142.92778) scale(0.1 -0.1)">
       <use xlink:href="#DejaVuSans-2212"/>
       <use xlink:href="#DejaVuSans-30" x="83.789062"/>
       <use xlink:href="#DejaVuSans-2e" x="147.412109"/>
       <use xlink:href="#DejaVuSans-32" x="179.199219"/>
      </g>
     </g>
    </g>
    <g id="ytick_4">
     <g id="line2d_11">
      <g>
       <use xlink:href="#mf670ece80d" x="52.160938" y="118.334993" style="stroke: #000000; stroke-width: 0.8"/>
      </g>
     </g>
     <g id="text_12">
      <!-- 0.0 -->
      <g transform="translate(29.257813 122.134211) scale(0.1 -0.1)">
       <use xlink:href="#DejaVuSans-30"/>
       <use xlink:href="#DejaVuSans-2e" x="63.623047"/>
       <use xlink:href="#DejaVuSans-30" x="95.410156"/>
      </g>
     </g>
    </g>
    <g id="ytick_5">
     <g id="line2d_12">
      <g>
       <use xlink:href="#mf670ece80d" x="52.160938" y="97.541424" style="stroke: #000000; stroke-width: 0.8"/>
      </g>
     </g>
     <g id="text_13">
      <!-- 0.2 -->
      <g transform="translate(29.257813 101.340643) scale(0.1 -0.1)">
       <use xlink:href="#DejaVuSans-30"/>
       <use xlink:href="#DejaVuSans-2e" x="63.623047"/>
       <use xlink:href="#DejaVuSans-32" x="95.410156"/>
      </g>
     </g>
    </g>
    <g id="ytick_6">
     <g id="line2d_13">
      <g>
       <use xlink:href="#mf670ece80d" x="52.160938" y="76.747856" style="stroke: #000000; stroke-width: 0.8"/>
      </g>
     </g>
     <g id="text_14">
      <!-- 0.4 -->
      <g transform="translate(29.257813 80.547074) scale(0.1 -0.1)">
       <use xlink:href="#DejaVuSans-30"/>
       <use xlink:href="#DejaVuSans-2e" x="63.623047"/>
       <use xlink:href="#DejaVuSans-34" x="95.410156"/>
      </g>
     </g>
    </g>
    <g id="ytick_7">
     <g id="line2d_14">
      <g>
       <use xlink:href="#mf670ece80d" x="52.160938" y="55.954287" style="stroke: #000000; stroke-width: 0.8"/>
      </g>
     </g>
     <g id="text_15">
      <!-- 0.6 -->
      <g transform="translate(29.257813 59.753506) scale(0.1 -0.1)">
       <use xlink:href="#DejaVuSans-30"/>
       <use xlink:href="#DejaVuSans-2e" x="63.623047"/>
       <use xlink:href="#DejaVuSans-36" x="95.410156"/>
      </g>
     </g>
    </g>
    <g id="ytick_8">
     <g id="line2d_15">
      <g>
       <use xlink:href="#mf670ece80d" x="52.160938" y="35.160718" style="stroke: #000000; stroke-width: 0.8"/>
      </g>
     </g>
     <g id="text_16">
      <!-- 0.8 -->
      <g transform="translate(29.257813 38.959937) scale(0.1 -0.1)">
       <defs>
        <path id="DejaVuSans-38" d="M 2034 2216 
Q 1584 2216 1326 1975 
Q 1069 1734 1069 1313 
Q 1069 891 1326 650 
Q 1584 409 2034 409 
Q 2484 409 2743 651 
Q 3003 894 3003 1313 
Q 3003 1734 2745 1975 
Q 2488 2216 2034 2216 
z
M 1403 2484 
Q 997 2584 770 2862 
Q 544 3141 544 3541 
Q 544 4100 942 4425 
Q 1341 4750 2034 4750 
Q 2731 4750 3128 4425 
Q 3525 4100 3525 3541 
Q 3525 3141 3298 2862 
Q 3072 2584 2669 2484 
Q 3125 2378 3379 2068 
Q 3634 1759 3634 1313 
Q 3634 634 3220 271 
Q 2806 -91 2034 -91 
Q 1263 -91 848 271 
Q 434 634 434 1313 
Q 434 1759 690 2068 
Q 947 2378 1403 2484 
z
M 1172 3481 
Q 1172 3119 1398 2916 
Q 1625 2713 2034 2713 
Q 2441 2713 2670 2916 
Q 2900 3119 2900 3481 
Q 2900 3844 2670 4047 
Q 2441 4250 2034 4250 
Q 1625 4250 1398 4047 
Q 1172 3844 1172 3481 
z
" transform="scale(0.015625)"/>
       </defs>
       <use xlink:href="#DejaVuSans-30"/>
       <use xlink:href="#DejaVuSans-2e" x="63.623047"/>
       <use xlink:href="#DejaVuSans-38" x="95.410156"/>
      </g>
     </g>
    </g>
    <g id="text_17">
     <!-- Hip Moment (N-m/kg) -->
     <g transform="translate(14.798438 159.499219) rotate(-90) scale(0.1 -0.1)">
      <defs>
       <path id="DejaVuSans-48" d="M 628 4666 
L 1259 4666 
L 1259 2753 
L 3553 2753 
L 3553 4666 
L 4184 4666 
L 4184 0 
L 3553 0 
L 3553 2222 
L 1259 2222 
L 1259 0 
L 628 0 
L 628 4666 
z
" transform="scale(0.015625)"/>
       <path id="DejaVuSans-70" d="M 1159 525 
L 1159 -1331 
L 581 -1331 
L 581 3500 
L 1159 3500 
L 1159 2969 
Q 1341 3281 1617 3432 
Q 1894 3584 2278 3584 
Q 2916 3584 3314 3078 
Q 3713 2572 3713 1747 
Q 3713 922 3314 415 
Q 2916 -91 2278 -91 
Q 1894 -91 1617 61 
Q 1341 213 1159 525 
z
M 3116 1747 
Q 3116 2381 2855 2742 
Q 2594 3103 2138 3103 
Q 1681 3103 1420 2742 
Q 1159 2381 1159 1747 
Q 1159 1113 1420 752 
Q 1681 391 2138 391 
Q 2594 391 2855 752 
Q 3116 1113 3116 1747 
z
" transform="scale(0.015625)"/>
       <path id="DejaVuSans-4d" d="M 628 4666 
L 1569 4666 
L 2759 1491 
L 3956 4666 
L 4897 4666 
L 4897 0 
L 4281 0 
L 4281 4097 
L 3078 897 
L 2444 897 
L 1241 4097 
L 1241 0 
L 628 0 
L 628 4666 
z
" transform="scale(0.015625)"/>
       <path id="DejaVuSans-6f" d="M 1959 3097 
Q 1497 3097 1228 2736 
Q 959 2375 959 1747 
Q 959 1119 1226 758 
Q 1494 397 1959 397 
Q 2419 397 2687 759 
Q 2956 1122 2956 1747 
Q 2956 2369 2687 2733 
Q 2419 3097 1959 3097 
z
M 1959 3584 
Q 2709 3584 3137 3096 
Q 3566 2609 3566 1747 
Q 3566 888 3137 398 
Q 2709 -91 1959 -91 
Q 1206 -91 779 398 
Q 353 888 353 1747 
Q 353 2609 779 3096 
Q 1206 3584 1959 3584 
z
" transform="scale(0.015625)"/>
       <path id="DejaVuSans-6e" d="M 3513 2113 
L 3513 0 
L 2938 0 
L 2938 2094 
Q 2938 2591 2744 2837 
Q 2550 3084 2163 3084 
Q 1697 3084 1428 2787 
Q 1159 2491 1159 1978 
L 1159 0 
L 581 0 
L 581 3500 
L 1159 3500 
L 1159 2956 
Q 1366 3272 1645 3428 
Q 1925 3584 2291 3584 
Q 2894 3584 3203 3211 
Q 3513 2838 3513 2113 
z
" transform="scale(0.015625)"/>
       <path id="DejaVuSans-74" d="M 1172 4494 
L 1172 3500 
L 2356 3500 
L 2356 3053 
L 1172 3053 
L 1172 1153 
Q 1172 725 1289 603 
Q 1406 481 1766 481 
L 2356 481 
L 2356 0 
L 1766 0 
Q 1100 0 847 248 
Q 594 497 594 1153 
L 594 3053 
L 172 3053 
L 172 3500 
L 594 3500 
L 594 4494 
L 1172 4494 
z
" transform="scale(0.015625)"/>
       <path id="DejaVuSans-4e" d="M 628 4666 
L 1478 4666 
L 3547 763 
L 3547 4666 
L 4159 4666 
L 4159 0 
L 3309 0 
L 1241 3903 
L 1241 0 
L 628 0 
L 628 4666 
z
" transform="scale(0.015625)"/>
       <path id="DejaVuSans-2d" d="M 313 2009 
L 1997 2009 
L 1997 1497 
L 313 1497 
L 313 2009 
z
" transform="scale(0.015625)"/>
       <path id="DejaVuSans-2f" d="M 1625 4666 
L 2156 4666 
L 531 -594 
L 0 -594 
L 1625 4666 
z
" transform="scale(0.015625)"/>
       <path id="DejaVuSans-6b" d="M 581 4863 
L 1159 4863 
L 1159 1991 
L 2875 3500 
L 3609 3500 
L 1753 1863 
L 3688 0 
L 2938 0 
L 1159 1709 
L 1159 0 
L 581 0 
L 581 4863 
z
" transform="scale(0.015625)"/>
       <path id="DejaVuSans-67" d="M 2906 1791 
Q 2906 2416 2648 2759 
Q 2391 3103 1925 3103 
Q 1463 3103 1205 2759 
Q 947 2416 947 1791 
Q 947 1169 1205 825 
Q 1463 481 1925 481 
Q 2391 481 2648 825 
Q 2906 1169 2906 1791 
z
M 3481 434 
Q 3481 -459 3084 -895 
Q 2688 -1331 1869 -1331 
Q 1566 -1331 1297 -1286 
Q 1028 -1241 775 -1147 
L 775 -588 
Q 1028 -725 1275 -790 
Q 1522 -856 1778 -856 
Q 2344 -856 2625 -561 
Q 2906 -266 2906 331 
L 2906 616 
Q 2728 306 2450 153 
Q 2172 0 1784 0 
Q 1141 0 747 490 
Q 353 981 353 1791 
Q 353 2603 747 3093 
Q 1141 3584 1784 3584 
Q 2172 3584 2450 3431 
Q 2728 3278 2906 2969 
L 2906 3500 
L 3481 3500 
L 3481 434 
z
" transform="scale(0.015625)"/>
      </defs>
      <use xlink:href="#DejaVuSans-48"/>
      <use xlink:href="#DejaVuSans-69" x="75.195312"/>
      <use xlink:href="#DejaVuSans-70" x="102.978516"/>
      <use xlink:href="#DejaVuSans-20" x="166.455078"/>
      <use xlink:href="#DejaVuSans-4d" x="198.242188"/>
      <use xlink:href="#DejaVuSans-6f" x="284.521484"/>
      <use xlink:href="#DejaVuSans-6d" x="345.703125"/>
      <use xlink:href="#DejaVuSans-65" x="443.115234"/>
      <use xlink:href="#DejaVuSans-6e" x="504.638672"/>
      <use xlink:href="#DejaVuSans-74" x="568.017578"/>
      <use xlink:href="#DejaVuSans-20" x="607.226562"/>
      <use xlink:href="#DejaVuSans-28" x="639.013672"/>
      <use xlink:href="#DejaVuSans-4e" x="678.027344"/>
      <use xlink:href="#DejaVuSans-2d" x="752.832031"/>
      <use xlink:href="#DejaVuSans-6d" x="788.916016"/>
      <use xlink:href="#DejaVuSans-2f" x="886.328125"/>
      <use xlink:href="#DejaVuSans-6b" x="920.019531"/>
      <use xlink:href="#DejaVuSans-67" x="977.929688"/>
      <use xlink:href="#DejaVuSans-29" x="1041.40625"/>
     </g>
    </g>
   </g>
   <g id="line2d_16">
    <path d="M 49.769509 110.529072 
L 52.160938 111.534384 
L 54.552366 112.244671 
L 56.943795 112.710956 
L 59.335223 112.985441 
L 64.11808 113.164408 
L 73.683795 113.270918 
L 78.466652 113.672823 
L 83.249509 114.446195 
L 88.032366 115.620859 
L 92.815223 117.225719 
L 95.206652 118.201959 
L 97.59808 119.301195 
L 99.989509 120.527917 
L 102.380938 121.885043 
L 107.163795 124.990467 
L 111.946652 128.590491 
L 116.729509 132.622464 
L 121.512366 137.011014 
L 126.295223 141.692502 
L 133.469509 149.156858 
L 143.035223 159.29608 
L 145.426652 161.614046 
L 147.81808 163.721142 
L 150.209509 165.543264 
L 152.600938 167.006242 
L 154.992366 168.040744 
L 157.383795 168.587106 
L 159.775223 168.599737 
L 162.166652 168.050598 
L 164.55808 166.931237 
L 166.949509 165.253113 
L 169.340938 163.046348 
L 171.732366 160.357355 
L 174.123795 157.24588 
L 176.515223 153.781898 
L 181.29808 146.108618 
L 190.863795 130.006652 
L 195.646652 122.665146 
L 198.03808 119.335974 
L 200.429509 116.266927 
L 202.820938 113.468492 
L 205.212366 110.941441 
L 207.603795 108.67866 
L 209.995223 106.667491 
L 212.386652 104.89224 
L 214.77808 103.33635 
L 217.169509 101.983713 
L 219.560938 100.818787 
L 221.952366 99.825443 
L 224.343795 98.984742 
L 229.126652 97.654563 
L 236.300938 95.888435 
L 238.692366 95.119995 
L 241.083795 94.142161 
L 243.475223 92.881311 
L 245.866652 91.268181 
L 248.25808 89.24249 
L 250.649509 86.758208 
L 253.040938 83.789298 
L 255.432366 80.335382 
L 257.823795 76.426426 
L 260.215223 72.125564 
L 264.99808 62.765466 
L 269.780938 53.365697 
L 272.172366 49.081519 
L 274.563795 45.313065 
L 276.955223 42.226401 
L 279.346652 39.96495 
L 281.73808 38.640571 
L 284.129509 38.326519 
L 286.520938 39.052728 
L 288.912366 40.803762 
L 291.303795 43.519731 
L 293.695223 47.100257 
L 296.086652 51.411317 
L 298.47808 56.294305 
L 303.260938 67.080761 
L 308.043795 78.086823 
L 310.435223 83.294306 
L 312.826652 88.146357 
L 315.21808 92.557194 
L 317.609509 96.468952 
L 320.000938 99.851325 
L 322.392366 102.700045 
L 324.783795 105.034339 
L 327.175223 106.893459 
L 329.566652 108.332391 
L 331.95808 109.416922 
L 334.349509 110.21835 
L 336.740938 110.80817 
L 341.523795 111.611084 
L 358.263795 113.937183 
L 365.43808 114.846517 
L 372.612366 115.748331 
L 375.003795 116.17586 
L 377.395223 116.732609 
L 379.786652 117.45625 
L 382.17808 118.377021 
L 384.569509 119.514516 
L 386.960938 120.876203 
L 389.352366 122.457664 
L 391.743795 124.244152 
L 394.135223 126.212901 
L 398.91808 130.581706 
L 403.700938 135.321363 
L 420.440938 152.271025 
L 422.832366 154.472836 
L 425.223795 156.508572 
L 427.615223 158.31436 
L 430.006652 159.819565 
L 432.39808 160.952214 
L 434.789509 161.645069 
L 437.180938 161.841517 
L 439.572366 161.500545 
L 441.963795 160.600237 
L 444.355223 159.139453 
L 446.746652 157.137754 
L 449.13808 154.633843 
L 451.529509 151.683004 
L 453.920938 148.354086 
L 456.312366 144.726533 
L 461.095223 136.930039 
L 465.87808 129.036099 
L 468.269509 125.280674 
L 470.660938 121.759641 
L 473.052366 118.536485 
L 475.443795 115.657637 
L 477.835223 113.150622 
L 480.226652 111.0235 
L 482.61808 109.265591 
L 485.009509 107.849367 
L 487.400938 106.7333 
L 489.792366 105.86549 
L 492.183795 105.187825 
L 496.966652 104.166039 
L 504.140938 102.719986 
L 508.923795 101.445384 
L 513.706652 99.787335 
L 516.09808 98.788071 
L 518.489509 97.654406 
L 520.880938 96.36367 
L 523.272366 94.887611 
L 525.663795 93.193777 
L 528.055223 91.247935 
L 530.446652 89.017331 
L 532.83808 86.474616 
L 535.229509 83.602151 
L 537.620938 80.396307 
L 540.012366 76.871221 
L 542.403795 73.061471 
L 547.186652 64.833698 
L 551.969509 56.400363 
L 554.360938 52.389797 
L 556.752366 48.68415 
L 559.143795 45.409171 
L 561.535223 42.683138 
L 563.926652 40.610681 
L 566.31808 39.277173 
L 568.709509 38.743993 
L 571.100938 39.044908 
L 573.492366 40.183788 
L 575.883795 42.133835 
L 578.275223 44.838497 
L 580.666652 48.214116 
L 583.05808 52.15426 
L 585.449509 56.535486 
L 590.232366 66.083682 
L 595.015223 75.795858 
L 597.406652 80.419271 
L 599.79808 84.763312 
L 602.189509 88.75997 
L 604.580938 92.362714 
L 606.972366 95.546408 
L 609.363795 98.306295 
L 611.755223 100.656087 
L 614.146652 102.625241 
L 616.53808 104.255537 
L 618.929509 105.597233 
L 621.320938 106.705085 
L 623.712366 107.634523 
L 628.495223 109.162801 
L 650.01808 115.240291 
L 664.366652 118.847127 
L 669.149509 120.51969 
L 671.540938 121.534794 
L 673.932366 122.676971 
L 678.715223 125.324613 
L 683.49808 128.388726 
L 688.280937 131.793192 
L 693.063795 135.530547 
L 697.846652 139.686916 
L 702.629509 144.392974 
L 707.412366 149.696584 
L 716.97808 161.02878 
L 719.369509 163.575729 
L 721.760937 165.809123 
L 724.152366 167.626473 
L 726.543795 168.934474 
L 728.935223 169.655202 
L 731.326652 169.731012 
L 733.71808 169.127709 
L 736.109509 167.835866 
L 738.500937 165.870537 
L 740.892366 163.26981 
L 743.283795 160.092633 
L 745.675223 156.416157 
L 748.066652 152.332597 
L 752.849509 143.365224 
L 760.023795 129.565171 
L 762.415223 125.275953 
L 764.806652 121.275276 
L 767.19808 117.617986 
L 769.589509 114.34022 
L 771.980937 111.459128 
L 774.372366 108.973502 
L 776.763795 106.865449 
L 779.155223 105.103183 
L 781.546652 103.64477 
L 783.93808 102.442356 
L 786.329509 101.446226 
L 791.112366 99.882088 
L 800.67808 97.265053 
L 803.069509 96.466834 
L 805.460938 95.515875 
L 807.852366 94.361345 
L 810.243795 92.953717 
L 812.635223 91.247699 
L 815.026652 89.20549 
L 817.41808 86.800206 
L 819.809509 84.019283 
L 822.200938 80.86755 
L 824.592366 77.369719 
L 826.983795 73.57204 
L 831.766652 65.372126 
L 836.549509 57.058483 
L 838.940938 53.176539 
L 841.332366 49.66359 
L 843.723795 46.657471 
L 846.115223 44.285729 
L 848.506652 42.658057 
L 850.89808 41.859515 
L 853.289509 41.945118 
L 855.680937 42.936182 
L 858.072366 44.818632 
L 860.463795 47.543343 
L 862.855223 51.028541 
L 865.246652 55.164233 
L 867.63808 59.818461 
L 872.420938 70.091313 
L 877.203795 80.652171 
L 879.595223 85.69986 
L 881.986652 90.443902 
L 884.37808 94.799886 
L 886.769509 98.707036 
L 889.160938 102.128491 
L 891.552366 105.050293 
L 891.552366 105.050293 
" clip-path="url(#p25c471c363)" style="fill: none; stroke-dasharray: 5.55,2.4; stroke-dashoffset: 0; stroke: #000000; stroke-width: 1.5"/>
   </g>
   <g id="line2d_17">
    <path d="M 49.769509 105.394167 
L 52.160938 104.407968 
L 54.552366 105.056583 
L 56.943795 105.290465 
L 59.335223 106.914373 
L 61.726652 107.755093 
L 64.11808 108.475233 
L 66.509509 109.556464 
L 68.900938 110.206151 
L 71.292366 111.693272 
L 73.683795 112.447316 
L 76.075223 113.034246 
L 78.466652 114.20837 
L 80.85808 114.211015 
L 83.249509 114.591437 
L 85.640938 114.668402 
L 88.032366 114.559641 
L 90.423795 113.918039 
L 92.815223 114.481811 
L 95.206652 115.696697 
L 97.59808 116.655296 
L 99.989509 117.847465 
L 102.380938 119.452015 
L 107.163795 121.915242 
L 111.946652 128.059876 
L 114.33808 132.163726 
L 116.729509 135.858096 
L 119.120938 137.665345 
L 121.512366 138.420313 
L 123.903795 140.64599 
L 126.295223 142.463361 
L 131.07808 141.884741 
L 133.469509 141.759262 
L 138.252366 145.887207 
L 140.643795 145.513753 
L 143.035223 146.247654 
L 145.426652 151.138749 
L 147.81808 155.738862 
L 152.600938 165.608938 
L 154.992366 169.056468 
L 157.383795 173.293526 
L 159.775223 173.929725 
L 162.166652 173.979437 
L 164.55808 173.201105 
L 166.949509 172.571598 
L 169.340938 172.630469 
L 171.732366 170.21035 
L 174.123795 166.709519 
L 176.515223 163.597666 
L 178.906652 161.070813 
L 181.29808 155.936759 
L 183.689509 150.474738 
L 186.080938 146.901601 
L 193.255223 139.47603 
L 198.03808 131.478297 
L 200.429509 129.5933 
L 202.820938 126.747744 
L 205.212366 124.475702 
L 207.603795 122.032767 
L 209.995223 119.348661 
L 212.386652 117.446592 
L 217.169509 112.565475 
L 219.560938 110.487388 
L 224.343795 109.333283 
L 226.735223 109.100387 
L 229.126652 108.619625 
L 231.51808 108.740567 
L 233.909509 110.179079 
L 236.300938 109.238087 
L 238.692366 109.811152 
L 241.083795 107.158097 
L 243.475223 100.452873 
L 245.866652 97.218268 
L 248.25808 91.173568 
L 253.040938 80.758488 
L 255.432366 78.151127 
L 257.823795 76.069138 
L 260.215223 74.924927 
L 262.606652 73.295652 
L 264.99808 69.928927 
L 267.389509 64.550784 
L 269.780938 60.824889 
L 272.172366 59.033458 
L 274.563795 58.255293 
L 276.955223 55.003317 
L 279.346652 53.959593 
L 281.73808 54.365785 
L 286.520938 58.755939 
L 291.303795 67.688937 
L 293.695223 70.597744 
L 296.086652 75.635304 
L 298.47808 80.061302 
L 300.869509 82.541913 
L 303.260938 88.041042 
L 305.652366 93.993859 
L 310.435223 103.313884 
L 312.826652 107.284851 
L 315.21808 108.243593 
L 317.609509 109.077951 
L 320.000938 110.216508 
L 324.783795 109.141314 
L 327.175223 108.867654 
L 329.566652 108.458585 
L 331.95808 108.490117 
L 334.349509 108.284636 
L 336.740938 108.666549 
L 339.132366 109.272661 
L 341.523795 110.068873 
L 343.915223 111.248821 
L 346.306652 112.649303 
L 348.69808 113.423991 
L 351.089509 113.245422 
L 353.480938 113.663912 
L 355.872366 115.382519 
L 360.655223 115.497778 
L 363.046652 115.677734 
L 365.43808 116.45427 
L 367.829509 116.021883 
L 372.612366 116.467081 
L 375.003795 117.133576 
L 377.395223 117.370531 
L 379.786652 118.405488 
L 382.17808 119.862688 
L 384.569509 121.17426 
L 386.960938 122.882954 
L 389.352366 123.288494 
L 394.135223 129.004946 
L 396.526652 133.308671 
L 398.91808 136.071109 
L 403.700938 140.702878 
L 406.092366 142.338282 
L 408.483795 143.47739 
L 410.875223 142.964885 
L 413.266652 142.25514 
L 415.65808 143.610609 
L 418.049509 145.862617 
L 420.440938 147.034774 
L 422.832366 147.346946 
L 425.223795 150.624143 
L 427.615223 154.580005 
L 430.006652 159.206545 
L 432.39808 163.277416 
L 434.789509 167.101332 
L 437.180938 171.220529 
L 439.572366 172.548248 
L 441.963795 172.959274 
L 444.355223 172.886801 
L 446.746652 171.590166 
L 453.920938 162.784001 
L 456.312366 158.688578 
L 458.703795 155.048715 
L 461.095223 149.577417 
L 463.486652 142.728812 
L 468.269509 136.551623 
L 470.660938 134.556668 
L 473.052366 132.103103 
L 477.835223 126.752812 
L 480.226652 125.719508 
L 482.61808 123.058316 
L 485.009509 121.212235 
L 489.792366 116.802204 
L 492.183795 115.252789 
L 494.575223 114.414975 
L 496.966652 112.871208 
L 499.35808 110.637275 
L 501.749509 110.140158 
L 504.140938 110.56446 
L 506.532366 110.038511 
L 508.923795 109.8228 
L 511.315223 109.825818 
L 513.706652 110.569684 
L 516.09808 109.516036 
L 518.489509 107.561127 
L 520.880938 105.922726 
L 523.272366 102.157979 
L 525.663795 98.067303 
L 528.055223 94.662194 
L 532.83808 87.011633 
L 535.229509 83.795284 
L 537.620938 81.889986 
L 540.012366 76.303576 
L 542.403795 74.790174 
L 544.795223 74.324259 
L 547.186652 73.054367 
L 549.57808 67.24573 
L 551.969509 62.976154 
L 554.360938 59.574354 
L 556.752366 57.706979 
L 559.143795 57.312932 
L 561.535223 56.096486 
L 563.926652 56.912435 
L 566.31808 56.667524 
L 568.709509 56.879405 
L 571.100938 58.068057 
L 573.492366 60.215201 
L 575.883795 62.672459 
L 580.666652 73.258963 
L 585.449509 81.482139 
L 590.232366 90.279201 
L 592.623795 94.125715 
L 595.015223 97.587446 
L 597.406652 103.975565 
L 599.79808 108.49418 
L 602.189509 110.467816 
L 604.580938 110.944523 
L 606.972366 111.202027 
L 609.363795 110.36786 
L 611.755223 108.837473 
L 614.146652 108.444205 
L 616.53808 107.697936 
L 621.320938 105.688227 
L 623.712366 105.804708 
L 626.103795 106.156895 
L 628.495223 106.86629 
L 630.886652 108.461465 
L 633.27808 109.135843 
L 635.669509 110.413236 
L 638.060938 110.225366 
L 640.452366 111.151837 
L 642.843795 112.941288 
L 645.235223 113.336413 
L 647.626652 114.586156 
L 650.01808 115.645608 
L 652.409509 116.027735 
L 654.800938 115.978775 
L 657.192366 116.573306 
L 659.583795 115.57042 
L 661.975223 115.403883 
L 666.75808 117.203473 
L 669.149509 117.568805 
L 671.540938 118.636846 
L 673.932366 119.905616 
L 676.323795 121.669501 
L 678.715223 124.577384 
L 681.106652 128.026889 
L 683.49808 132.30871 
L 685.889509 135.737307 
L 688.280937 138.487529 
L 690.672366 140.282276 
L 693.063795 143.173999 
L 695.455223 144.327282 
L 697.846652 144.296666 
L 700.23808 143.880329 
L 702.629509 145.86988 
L 705.020938 149.563932 
L 707.412366 152.602165 
L 709.803795 152.977178 
L 712.195223 156.128806 
L 714.586652 161.553888 
L 716.97808 165.808914 
L 721.760937 174.887497 
L 724.152366 178.064422 
L 726.543795 180.062237 
L 728.935223 177.790652 
L 731.326652 177.299313 
L 733.71808 177.127577 
L 736.109509 175.183217 
L 738.500937 172.007433 
L 740.892366 170.329641 
L 743.283795 167.654807 
L 745.675223 163.263299 
L 748.066652 157.453117 
L 752.849509 147.272006 
L 755.240938 144.984393 
L 757.632366 141.499137 
L 764.806652 130.536326 
L 771.980937 122.005528 
L 774.372366 118.923142 
L 776.763795 117.03021 
L 779.155223 114.693394 
L 781.546652 111.865912 
L 783.93808 109.97242 
L 786.329509 108.289775 
L 791.112366 106.715172 
L 793.503795 106.971848 
L 795.895223 106.397629 
L 798.286652 105.53747 
L 800.67808 106.081397 
L 803.069509 106.32669 
L 805.460938 105.799419 
L 807.852366 105.085973 
L 812.635223 97.353738 
L 815.026652 92.240125 
L 817.41808 86.781887 
L 819.809509 78.442456 
L 822.200938 71.981623 
L 824.592366 70.650539 
L 826.983795 68.160232 
L 829.375223 68.02943 
L 831.766652 65.135636 
L 834.15808 64.713294 
L 836.549509 59.196358 
L 838.940938 56.545828 
L 841.332366 55.726546 
L 843.723795 54.60422 
L 846.115223 54.826716 
L 848.506652 53.979541 
L 850.89808 53.975364 
L 853.289509 55.523081 
L 855.680937 59.204984 
L 858.072366 61.929331 
L 860.463795 66.002015 
L 862.855223 70.491032 
L 867.63808 83.897366 
L 870.029509 88.567617 
L 872.420938 91.532367 
L 874.812366 97.93383 
L 877.203795 101.83013 
L 879.595223 105.138266 
L 881.986652 108.133609 
L 884.37808 110.014697 
L 886.769509 110.560417 
L 889.160938 110.404638 
L 891.552366 109.316983 
L 891.552366 109.316983 
" clip-path="url(#p25c471c363)" style="fill: none; stroke: #1f77b4; stroke-width: 1.5; stroke-linecap: square"/>
   </g>
   <g id="patch_3">
    <path d="M 52.160938 188.638125 
L 52.160938 22.318125 
" style="fill: none; stroke: #000000; stroke-width: 0.8; stroke-linejoin: miter; stroke-linecap: square"/>
   </g>
   <g id="patch_4">
    <path d="M 889.160938 188.638125 
L 889.160938 22.318125 
" style="fill: none; stroke: #000000; stroke-width: 0.8; stroke-linejoin: miter; stroke-linecap: square"/>
   </g>
   <g id="patch_5">
    <path d="M 52.160938 188.638125 
L 889.160938 188.638125 
" style="fill: none; stroke: #000000; stroke-width: 0.8; stroke-linejoin: miter; stroke-linecap: square"/>
   </g>
   <g id="patch_6">
    <path d="M 52.160938 22.318125 
L 889.160938 22.318125 
" style="fill: none; stroke: #000000; stroke-width: 0.8; stroke-linejoin: miter; stroke-linecap: square"/>
   </g>
   <g id="text_18">
    <!-- TCN AccelOnly (R) RMSE = 0.08 Nm/kg, R2 = 0.93 -->
    <g transform="translate(319.705625 16.318125) scale(0.12 -0.12)">
     <defs>
      <path id="DejaVuSans-43" d="M 4122 4306 
L 4122 3641 
Q 3803 3938 3442 4084 
Q 3081 4231 2675 4231 
Q 1875 4231 1450 3742 
Q 1025 3253 1025 2328 
Q 1025 1406 1450 917 
Q 1875 428 2675 428 
Q 3081 428 3442 575 
Q 3803 722 4122 1019 
L 4122 359 
Q 3791 134 3420 21 
Q 3050 -91 2638 -91 
Q 1578 -91 968 557 
Q 359 1206 359 2328 
Q 359 3453 968 4101 
Q 1578 4750 2638 4750 
Q 3056 4750 3426 4639 
Q 3797 4528 4122 4306 
z
" transform="scale(0.015625)"/>
      <path id="DejaVuSans-41" d="M 2188 4044 
L 1331 1722 
L 3047 1722 
L 2188 4044 
z
M 1831 4666 
L 2547 4666 
L 4325 0 
L 3669 0 
L 3244 1197 
L 1141 1197 
L 716 0 
L 50 0 
L 1831 4666 
z
" transform="scale(0.015625)"/>
      <path id="DejaVuSans-63" d="M 3122 3366 
L 3122 2828 
Q 2878 2963 2633 3030 
Q 2388 3097 2138 3097 
Q 1578 3097 1268 2742 
Q 959 2388 959 1747 
Q 959 1106 1268 751 
Q 1578 397 2138 397 
Q 2388 397 2633 464 
Q 2878 531 3122 666 
L 3122 134 
Q 2881 22 2623 -34 
Q 2366 -91 2075 -91 
Q 1284 -91 818 406 
Q 353 903 353 1747 
Q 353 2603 823 3093 
Q 1294 3584 2113 3584 
Q 2378 3584 2631 3529 
Q 2884 3475 3122 3366 
z
" transform="scale(0.015625)"/>
      <path id="DejaVuSans-6c" d="M 603 4863 
L 1178 4863 
L 1178 0 
L 603 0 
L 603 4863 
z
" transform="scale(0.015625)"/>
      <path id="DejaVuSans-4f" d="M 2522 4238 
Q 1834 4238 1429 3725 
Q 1025 3213 1025 2328 
Q 1025 1447 1429 934 
Q 1834 422 2522 422 
Q 3209 422 3611 934 
Q 4013 1447 4013 2328 
Q 4013 3213 3611 3725 
Q 3209 4238 2522 4238 
z
M 2522 4750 
Q 3503 4750 4090 4092 
Q 4678 3434 4678 2328 
Q 4678 1225 4090 567 
Q 3503 -91 2522 -91 
Q 1538 -91 948 565 
Q 359 1222 359 2328 
Q 359 3434 948 4092 
Q 1538 4750 2522 4750 
z
" transform="scale(0.015625)"/>
      <path id="DejaVuSans-79" d="M 2059 -325 
Q 1816 -950 1584 -1140 
Q 1353 -1331 966 -1331 
L 506 -1331 
L 506 -850 
L 844 -850 
Q 1081 -850 1212 -737 
Q 1344 -625 1503 -206 
L 1606 56 
L 191 3500 
L 800 3500 
L 1894 763 
L 2988 3500 
L 3597 3500 
L 2059 -325 
z
" transform="scale(0.015625)"/>
      <path id="DejaVuSans-52" d="M 2841 2188 
Q 3044 2119 3236 1894 
Q 3428 1669 3622 1275 
L 4263 0 
L 3584 0 
L 2988 1197 
Q 2756 1666 2539 1819 
Q 2322 1972 1947 1972 
L 1259 1972 
L 1259 0 
L 628 0 
L 628 4666 
L 2053 4666 
Q 2853 4666 3247 4331 
Q 3641 3997 3641 3322 
Q 3641 2881 3436 2590 
Q 3231 2300 2841 2188 
z
M 1259 4147 
L 1259 2491 
L 2053 2491 
Q 2509 2491 2742 2702 
Q 2975 2913 2975 3322 
Q 2975 3731 2742 3939 
Q 2509 4147 2053 4147 
L 1259 4147 
z
" transform="scale(0.015625)"/>
      <path id="DejaVuSans-53" d="M 3425 4513 
L 3425 3897 
Q 3066 4069 2747 4153 
Q 2428 4238 2131 4238 
Q 1616 4238 1336 4038 
Q 1056 3838 1056 3469 
Q 1056 3159 1242 3001 
Q 1428 2844 1947 2747 
L 2328 2669 
Q 3034 2534 3370 2195 
Q 3706 1856 3706 1288 
Q 3706 609 3251 259 
Q 2797 -91 1919 -91 
Q 1588 -91 1214 -16 
Q 841 59 441 206 
L 441 856 
Q 825 641 1194 531 
Q 1563 422 1919 422 
Q 2459 422 2753 634 
Q 3047 847 3047 1241 
Q 3047 1584 2836 1778 
Q 2625 1972 2144 2069 
L 1759 2144 
Q 1053 2284 737 2584 
Q 422 2884 422 3419 
Q 422 4038 858 4394 
Q 1294 4750 2059 4750 
Q 2388 4750 2728 4690 
Q 3069 4631 3425 4513 
z
" transform="scale(0.015625)"/>
      <path id="DejaVuSans-45" d="M 628 4666 
L 3578 4666 
L 3578 4134 
L 1259 4134 
L 1259 2753 
L 3481 2753 
L 3481 2222 
L 1259 2222 
L 1259 531 
L 3634 531 
L 3634 0 
L 628 0 
L 628 4666 
z
" transform="scale(0.015625)"/>
      <path id="DejaVuSans-3d" d="M 678 2906 
L 4684 2906 
L 4684 2381 
L 678 2381 
L 678 2906 
z
M 678 1631 
L 4684 1631 
L 4684 1100 
L 678 1100 
L 678 1631 
z
" transform="scale(0.015625)"/>
      <path id="DejaVuSans-2c" d="M 750 794 
L 1409 794 
L 1409 256 
L 897 -744 
L 494 -744 
L 750 256 
L 750 794 
z
" transform="scale(0.015625)"/>
      <path id="DejaVuSans-39" d="M 703 97 
L 703 672 
Q 941 559 1184 500 
Q 1428 441 1663 441 
Q 2288 441 2617 861 
Q 2947 1281 2994 2138 
Q 2813 1869 2534 1725 
Q 2256 1581 1919 1581 
Q 1219 1581 811 2004 
Q 403 2428 403 3163 
Q 403 3881 828 4315 
Q 1253 4750 1959 4750 
Q 2769 4750 3195 4129 
Q 3622 3509 3622 2328 
Q 3622 1225 3098 567 
Q 2575 -91 1691 -91 
Q 1453 -91 1209 -44 
Q 966 3 703 97 
z
M 1959 2075 
Q 2384 2075 2632 2365 
Q 2881 2656 2881 3163 
Q 2881 3666 2632 3958 
Q 2384 4250 1959 4250 
Q 1534 4250 1286 3958 
Q 1038 3666 1038 3163 
Q 1038 2656 1286 2365 
Q 1534 2075 1959 2075 
z
" transform="scale(0.015625)"/>
     </defs>
     <use xlink:href="#DejaVuSans-54"/>
     <use xlink:href="#DejaVuSans-43" x="55.208984"/>
     <use xlink:href="#DejaVuSans-4e" x="125.033203"/>
     <use xlink:href="#DejaVuSans-20" x="199.837891"/>
     <use xlink:href="#DejaVuSans-41" x="231.625"/>
     <use xlink:href="#DejaVuSans-63" x="298.283203"/>
     <use xlink:href="#DejaVuSans-63" x="353.263672"/>
     <use xlink:href="#DejaVuSans-65" x="408.244141"/>
     <use xlink:href="#DejaVuSans-6c" x="469.767578"/>
     <use xlink:href="#DejaVuSans-4f" x="497.550781"/>
     <use xlink:href="#DejaVuSans-6e" x="576.261719"/>
     <use xlink:href="#DejaVuSans-6c" x="639.640625"/>
     <use xlink:href="#DejaVuSans-79" x="667.423828"/>
     <use xlink:href="#DejaVuSans-20" x="726.603516"/>
     <use xlink:href="#DejaVuSans-28" x="758.390625"/>
     <use xlink:href="#DejaVuSans-52" x="797.404297"/>
     <use xlink:href="#DejaVuSans-29" x="866.886719"/>
     <use xlink:href="#DejaVuSans-20" x="905.900391"/>
     <use xlink:href="#DejaVuSans-52" x="937.6875"/>
     <use xlink:href="#DejaVuSans-4d" x="1007.169922"/>
     <use xlink:href="#DejaVuSans-53" x="1093.449219"/>
     <use xlink:href="#DejaVuSans-45" x="1156.925781"/>
     <use xlink:href="#DejaVuSans-20" x="1220.109375"/>
     <use xlink:href="#DejaVuSans-3d" x="1251.896484"/>
     <use xlink:href="#DejaVuSans-20" x="1335.685547"/>
     <use xlink:href="#DejaVuSans-30" x="1367.472656"/>
     <use xlink:href="#DejaVuSans-2e" x="1431.095703"/>
     <use xlink:href="#DejaVuSans-30" x="1462.882812"/>
     <use xlink:href="#DejaVuSans-38" x="1526.505859"/>
     <use xlink:href="#DejaVuSans-20" x="1590.128906"/>
     <use xlink:href="#DejaVuSans-4e" x="1621.916016"/>
     <use xlink:href="#DejaVuSans-6d" x="1696.720703"/>
     <use xlink:href="#DejaVuSans-2f" x="1794.132812"/>
     <use xlink:href="#DejaVuSans-6b" x="1827.824219"/>
     <use xlink:href="#DejaVuSans-67" x="1885.734375"/>
     <use xlink:href="#DejaVuSans-2c" x="1949.210938"/>
     <use xlink:href="#DejaVuSans-20" x="1980.998047"/>
     <use xlink:href="#DejaVuSans-52" x="2012.785156"/>
     <use xlink:href="#DejaVuSans-32" x="2082.267578"/>
     <use xlink:href="#DejaVuSans-20" x="2145.890625"/>
     <use xlink:href="#DejaVuSans-3d" x="2177.677734"/>
     <use xlink:href="#DejaVuSans-20" x="2261.466797"/>
     <use xlink:href="#DejaVuSans-30" x="2293.253906"/>
     <use xlink:href="#DejaVuSans-2e" x="2356.876953"/>
     <use xlink:href="#DejaVuSans-39" x="2388.664062"/>
     <use xlink:href="#DejaVuSans-33" x="2452.287109"/>
    </g>
   </g>
   <g id="legend_1">
    <g id="patch_7">
     <path d="M 59.160938 59.674375 
L 156.03125 59.674375 
Q 158.03125 59.674375 158.03125 57.674375 
L 158.03125 29.318125 
Q 158.03125 27.318125 156.03125 27.318125 
L 59.160938 27.318125 
Q 57.160938 27.318125 57.160938 29.318125 
L 57.160938 57.674375 
Q 57.160938 59.674375 59.160938 59.674375 
z
" style="fill: #ffffff; opacity: 0.8; stroke: #cccccc; stroke-linejoin: miter"/>
    </g>
    <g id="line2d_18">
     <path d="M 61.160938 35.416562 
L 71.160938 35.416562 
L 81.160938 35.416562 
" style="fill: none; stroke-dasharray: 5.55,2.4; stroke-dashoffset: 0; stroke: #000000; stroke-width: 1.5"/>
    </g>
    <g id="text_19">
     <!-- GT (R) -->
     <g transform="translate(89.160938 38.916562) scale(0.1 -0.1)">
      <defs>
       <path id="DejaVuSans-47" d="M 3809 666 
L 3809 1919 
L 2778 1919 
L 2778 2438 
L 4434 2438 
L 4434 434 
Q 4069 175 3628 42 
Q 3188 -91 2688 -91 
Q 1594 -91 976 548 
Q 359 1188 359 2328 
Q 359 3472 976 4111 
Q 1594 4750 2688 4750 
Q 3144 4750 3555 4637 
Q 3966 4525 4313 4306 
L 4313 3634 
Q 3963 3931 3569 4081 
Q 3175 4231 2741 4231 
Q 1884 4231 1454 3753 
Q 1025 3275 1025 2328 
Q 1025 1384 1454 906 
Q 1884 428 2741 428 
Q 3075 428 3337 486 
Q 3600 544 3809 666 
z
" transform="scale(0.015625)"/>
      </defs>
      <use xlink:href="#DejaVuSans-47"/>
      <use xlink:href="#DejaVuSans-54" x="73.865234"/>
      <use xlink:href="#DejaVuSans-20" x="134.949219"/>
      <use xlink:href="#DejaVuSans-28" x="166.736328"/>
      <use xlink:href="#DejaVuSans-52" x="205.75"/>
      <use xlink:href="#DejaVuSans-29" x="275.232422"/>
     </g>
    </g>
    <g id="line2d_19">
     <path d="M 61.160938 50.094687 
L 71.160938 50.094687 
L 81.160938 50.094687 
" style="fill: none; stroke: #1f77b4; stroke-width: 1.5; stroke-linecap: square"/>
    </g>
    <g id="text_20">
     <!-- Predicted (R) -->
     <g transform="translate(89.160938 53.594687) scale(0.1 -0.1)">
      <defs>
       <path id="DejaVuSans-50" d="M 1259 4147 
L 1259 2394 
L 2053 2394 
Q 2494 2394 2734 2622 
Q 2975 2850 2975 3272 
Q 2975 3691 2734 3919 
Q 2494 4147 2053 4147 
L 1259 4147 
z
M 628 4666 
L 2053 4666 
Q 2838 4666 3239 4311 
Q 3641 3956 3641 3272 
Q 3641 2581 3239 2228 
Q 2838 1875 2053 1875 
L 1259 1875 
L 1259 0 
L 628 0 
L 628 4666 
z
" transform="scale(0.015625)"/>
       <path id="DejaVuSans-72" d="M 2631 2963 
Q 2534 3019 2420 3045 
Q 2306 3072 2169 3072 
Q 1681 3072 1420 2755 
Q 1159 2438 1159 1844 
L 1159 0 
L 581 0 
L 581 3500 
L 1159 3500 
L 1159 2956 
Q 1341 3275 1631 3429 
Q 1922 3584 2338 3584 
Q 2397 3584 2469 3576 
Q 2541 3569 2628 3553 
L 2631 2963 
z
" transform="scale(0.015625)"/>
       <path id="DejaVuSans-64" d="M 2906 2969 
L 2906 4863 
L 3481 4863 
L 3481 0 
L 2906 0 
L 2906 525 
Q 2725 213 2448 61 
Q 2172 -91 1784 -91 
Q 1150 -91 751 415 
Q 353 922 353 1747 
Q 353 2572 751 3078 
Q 1150 3584 1784 3584 
Q 2172 3584 2448 3432 
Q 2725 3281 2906 2969 
z
M 947 1747 
Q 947 1113 1208 752 
Q 1469 391 1925 391 
Q 2381 391 2643 752 
Q 2906 1113 2906 1747 
Q 2906 2381 2643 2742 
Q 2381 3103 1925 3103 
Q 1469 3103 1208 2742 
Q 947 2381 947 1747 
z
" transform="scale(0.015625)"/>
      </defs>
      <use xlink:href="#DejaVuSans-50"/>
      <use xlink:href="#DejaVuSans-72" x="58.552734"/>
      <use xlink:href="#DejaVuSans-65" x="97.416016"/>
      <use xlink:href="#DejaVuSans-64" x="158.939453"/>
      <use xlink:href="#DejaVuSans-69" x="222.416016"/>
      <use xlink:href="#DejaVuSans-63" x="250.199219"/>
      <use xlink:href="#DejaVuSans-74" x="305.179688"/>
      <use xlink:href="#DejaVuSans-65" x="344.388672"/>
      <use xlink:href="#DejaVuSans-64" x="405.912109"/>
      <use xlink:href="#DejaVuSans-20" x="469.388672"/>
      <use xlink:href="#DejaVuSans-28" x="501.175781"/>
      <use xlink:href="#DejaVuSans-52" x="540.189453"/>
      <use xlink:href="#DejaVuSans-29" x="609.671875"/>
     </g>
    </g>
   </g>
  </g>
 </g>
 <defs>
  <clipPath id="p25c471c363">
   <rect x="52.160938" y="22.318125" width="837" height="166.32"/>
  </clipPath>
 </defs>
</svg>
