<?xml version="1.0" encoding="utf-8" standalone="no"?>
<!DOCTYPE svg PUBLIC "-//W3C//DTD SVG 1.1//EN"
  "http://www.w3.org/Graphics/SVG/1.1/DTD/svg11.dtd">
<svg xmlns:xlink="http://www.w3.org/1999/xlink" width="896.360937pt" height="226.194375pt" viewBox="0 0 896.360937 226.194375" xmlns="http://www.w3.org/2000/svg" version="1.1">
 <metadata>
  <rdf:RDF xmlns:dc="http://purl.org/dc/elements/1.1/" xmlns:cc="http://creativecommons.org/ns#" xmlns:rdf="http://www.w3.org/1999/02/22-rdf-syntax-ns#">
   <cc:Work>
    <dc:type rdf:resource="http://purl.org/dc/dcmitype/StillImage"/>
    <dc:date>2026-05-01T12:59:47.526198</dc:date>
    <dc:format>image/svg+xml</dc:format>
    <dc:creator>
     <cc:Agent>
      <dc:title>Matplotlib v3.7.3, https://matplotlib.org/</dc:title>
     </cc:Agent>
    </dc:creator>
   </cc:Work>
  </rdf:RDF>
 </metadata>
 <defs>
  <style type="text/css">*{stroke-linejoin: round; stroke-linecap: butt}</style>
 </defs>
 <g id="figure_1">
  <g id="patch_1">
   <path d="M 0 226.194375 
L 896.360937 226.194375 
L 896.360937 0 
L 0 0 
z
" style="fill: #ffffff"/>
  </g>
  <g id="axes_1">
   <g id="patch_2">
    <path d="M 52.160938 188.638125 
L 889.160938 188.638125 
L 889.160938 22.318125 
L 52.160938 22.318125 
z
" style="fill: #ffffff"/>
   </g>
   <g id="matplotlib.axis_1">
    <g id="xtick_1">
     <g id="line2d_1">
      <defs>
       <path id="mcef2f40924" d="M 0 0 
L 0 3.5 
" style="stroke: #000000; stroke-width: 0.8"/>
      </defs>
      <g>
       <use xlink:href="#mcef2f40924" x="64.11808" y="188.638125" style="stroke: #000000; stroke-width: 0.8"/>
      </g>
     </g>
     <g id="text_1">
      <!-- 1.0 -->
      <g transform="translate(56.166518 203.236563) scale(0.1 -0.1)">
       <defs>
        <path id="DejaVuSans-31" d="M 794 531 
L 1825 531 
L 1825 4091 
L 703 3866 
L 703 4441 
L 1819 4666 
L 2450 4666 
L 2450 531 
L 3481 531 
L 3481 0 
L 794 0 
L 794 531 
z
" transform="scale(0.015625)"/>
        <path id="DejaVuSans-2e" d="M 684 794 
L 1344 794 
L 1344 0 
L 684 0 
L 684 794 
z
" transform="scale(0.015625)"/>
        <path id="DejaVuSans-30" d="M 2034 4250 
Q 1547 4250 1301 3770 
Q 1056 3291 1056 2328 
Q 1056 1369 1301 889 
Q 1547 409 2034 409 
Q 2525 409 2770 889 
Q 3016 1369 3016 2328 
Q 3016 3291 2770 3770 
Q 2525 4250 2034 4250 
z
M 2034 4750 
Q 2819 4750 3233 4129 
Q 3647 3509 3647 2328 
Q 3647 1150 3233 529 
Q 2819 -91 2034 -91 
Q 1250 -91 836 529 
Q 422 1150 422 2328 
Q 422 3509 836 4129 
Q 1250 4750 2034 4750 
z
" transform="scale(0.015625)"/>
       </defs>
       <use xlink:href="#DejaVuSans-31"/>
       <use xlink:href="#DejaVuSans-2e" x="63.623047"/>
       <use xlink:href="#DejaVuSans-30" x="95.410156"/>
      </g>
     </g>
    </g>
    <g id="xtick_2">
     <g id="line2d_2">
      <g>
       <use xlink:href="#mcef2f40924" x="183.689509" y="188.638125" style="stroke: #000000; stroke-width: 0.8"/>
      </g>
     </g>
     <g id="text_2">
      <!-- 1.5 -->
      <g transform="translate(175.737946 203.236563) scale(0.1 -0.1)">
       <defs>
        <path id="DejaVuSans-35" d="M 691 4666 
L 3169 4666 
L 3169 4134 
L 1269 4134 
L 1269 2991 
Q 1406 3038 1543 3061 
Q 1681 3084 1819 3084 
Q 2600 3084 3056 2656 
Q 3513 2228 3513 1497 
Q 3513 744 3044 326 
Q 2575 -91 1722 -91 
Q 1428 -91 1123 -41 
Q 819 9 494 109 
L 494 744 
Q 775 591 1075 516 
Q 1375 441 1709 441 
Q 2250 441 2565 725 
Q 2881 1009 2881 1497 
Q 2881 1984 2565 2268 
Q 2250 2553 1709 2553 
Q 1456 2553 1204 2497 
Q 953 2441 691 2322 
L 691 4666 
z
" transform="scale(0.015625)"/>
       </defs>
       <use xlink:href="#DejaVuSans-31"/>
       <use xlink:href="#DejaVuSans-2e" x="63.623047"/>
       <use xlink:href="#DejaVuSans-35" x="95.410156"/>
      </g>
     </g>
    </g>
    <g id="xtick_3">
     <g id="line2d_3">
      <g>
       <use xlink:href="#mcef2f40924" x="303.260938" y="188.638125" style="stroke: #000000; stroke-width: 0.8"/>
      </g>
     </g>
     <g id="text_3">
      <!-- 2.0 -->
      <g transform="translate(295.309375 203.236563) scale(0.1 -0.1)">
       <defs>
        <path id="DejaVuSans-32" d="M 1228 531 
L 3431 531 
L 3431 0 
L 469 0 
L 469 531 
Q 828 903 1448 1529 
Q 2069 2156 2228 2338 
Q 2531 2678 2651 2914 
Q 2772 3150 2772 3378 
Q 2772 3750 2511 3984 
Q 2250 4219 1831 4219 
Q 1534 4219 1204 4116 
Q 875 4013 500 3803 
L 500 4441 
Q 881 4594 1212 4672 
Q 1544 4750 1819 4750 
Q 2544 4750 2975 4387 
Q 3406 4025 3406 3419 
Q 3406 3131 3298 2873 
Q 3191 2616 2906 2266 
Q 2828 2175 2409 1742 
Q 1991 1309 1228 531 
z
" transform="scale(0.015625)"/>
       </defs>
       <use xlink:href="#DejaVuSans-32"/>
       <use xlink:href="#DejaVuSans-2e" x="63.623047"/>
       <use xlink:href="#DejaVuSans-30" x="95.410156"/>
      </g>
     </g>
    </g>
    <g id="xtick_4">
     <g id="line2d_4">
      <g>
       <use xlink:href="#mcef2f40924" x="422.832366" y="188.638125" style="stroke: #000000; stroke-width: 0.8"/>
      </g>
     </g>
     <g id="text_4">
      <!-- 2.5 -->
      <g transform="translate(414.880804 203.236563) scale(0.1 -0.1)">
       <use xlink:href="#DejaVuSans-32"/>
       <use xlink:href="#DejaVuSans-2e" x="63.623047"/>
       <use xlink:href="#DejaVuSans-35" x="95.410156"/>
      </g>
     </g>
    </g>
    <g id="xtick_5">
     <g id="line2d_5">
      <g>
       <use xlink:href="#mcef2f40924" x="542.403795" y="188.638125" style="stroke: #000000; stroke-width: 0.8"/>
      </g>
     </g>
     <g id="text_5">
      <!-- 3.0 -->
      <g transform="translate(534.452232 203.236563) scale(0.1 -0.1)">
       <defs>
        <path id="DejaVuSans-33" d="M 2597 2516 
Q 3050 2419 3304 2112 
Q 3559 1806 3559 1356 
Q 3559 666 3084 287 
Q 2609 -91 1734 -91 
Q 1441 -91 1130 -33 
Q 819 25 488 141 
L 488 750 
Q 750 597 1062 519 
Q 1375 441 1716 441 
Q 2309 441 2620 675 
Q 2931 909 2931 1356 
Q 2931 1769 2642 2001 
Q 2353 2234 1838 2234 
L 1294 2234 
L 1294 2753 
L 1863 2753 
Q 2328 2753 2575 2939 
Q 2822 3125 2822 3475 
Q 2822 3834 2567 4026 
Q 2313 4219 1838 4219 
Q 1578 4219 1281 4162 
Q 984 4106 628 3988 
L 628 4550 
Q 988 4650 1302 4700 
Q 1616 4750 1894 4750 
Q 2613 4750 3031 4423 
Q 3450 4097 3450 3541 
Q 3450 3153 3228 2886 
Q 3006 2619 2597 2516 
z
" transform="scale(0.015625)"/>
       </defs>
       <use xlink:href="#DejaVuSans-33"/>
       <use xlink:href="#DejaVuSans-2e" x="63.623047"/>
       <use xlink:href="#DejaVuSans-30" x="95.410156"/>
      </g>
     </g>
    </g>
    <g id="xtick_6">
     <g id="line2d_6">
      <g>
       <use xlink:href="#mcef2f40924" x="661.975223" y="188.638125" style="stroke: #000000; stroke-width: 0.8"/>
      </g>
     </g>
     <g id="text_6">
      <!-- 3.5 -->
      <g transform="translate(654.023661 203.236563) scale(0.1 -0.1)">
       <use xlink:href="#DejaVuSans-33"/>
       <use xlink:href="#DejaVuSans-2e" x="63.623047"/>
       <use xlink:href="#DejaVuSans-35" x="95.410156"/>
      </g>
     </g>
    </g>
    <g id="xtick_7">
     <g id="line2d_7">
      <g>
       <use xlink:href="#mcef2f40924" x="781.546652" y="188.638125" style="stroke: #000000; stroke-width: 0.8"/>
      </g>
     </g>
     <g id="text_7">
      <!-- 4.0 -->
      <g transform="translate(773.595089 203.236563) scale(0.1 -0.1)">
       <defs>
        <path id="DejaVuSans-34" d="M 2419 4116 
L 825 1625 
L 2419 1625 
L 2419 4116 
z
M 2253 4666 
L 3047 4666 
L 3047 1625 
L 3713 1625 
L 3713 1100 
L 3047 1100 
L 3047 0 
L 2419 0 
L 2419 1100 
L 313 1100 
L 313 1709 
L 2253 4666 
z
" transform="scale(0.015625)"/>
       </defs>
       <use xlink:href="#DejaVuSans-34"/>
       <use xlink:href="#DejaVuSans-2e" x="63.623047"/>
       <use xlink:href="#DejaVuSans-30" x="95.410156"/>
      </g>
     </g>
    </g>
    <g id="text_8">
     <!-- Time (s) -->
     <g transform="translate(450.332031 216.914688) scale(0.1 -0.1)">
      <defs>
       <path id="DejaVuSans-54" d="M -19 4666 
L 3928 4666 
L 3928 4134 
L 2272 4134 
L 2272 0 
L 1638 0 
L 1638 4134 
L -19 4134 
L -19 4666 
z
" transform="scale(0.015625)"/>
       <path id="DejaVuSans-69" d="M 603 3500 
L 1178 3500 
L 1178 0 
L 603 0 
L 603 3500 
z
M 603 4863 
L 1178 4863 
L 1178 4134 
L 603 4134 
L 603 4863 
z
" transform="scale(0.015625)"/>
       <path id="DejaVuSans-6d" d="M 3328 2828 
Q 3544 3216 3844 3400 
Q 4144 3584 4550 3584 
Q 5097 3584 5394 3201 
Q 5691 2819 5691 2113 
L 5691 0 
L 5113 0 
L 5113 2094 
Q 5113 2597 4934 2840 
Q 4756 3084 4391 3084 
Q 3944 3084 3684 2787 
Q 3425 2491 3425 1978 
L 3425 0 
L 2847 0 
L 2847 2094 
Q 2847 2600 2669 2842 
Q 2491 3084 2119 3084 
Q 1678 3084 1418 2786 
Q 1159 2488 1159 1978 
L 1159 0 
L 581 0 
L 581 3500 
L 1159 3500 
L 1159 2956 
Q 1356 3278 1631 3431 
Q 1906 3584 2284 3584 
Q 2666 3584 2933 3390 
Q 3200 3197 3328 2828 
z
" transform="scale(0.015625)"/>
       <path id="DejaVuSans-65" d="M 3597 1894 
L 3597 1613 
L 953 1613 
Q 991 1019 1311 708 
Q 1631 397 2203 397 
Q 2534 397 2845 478 
Q 3156 559 3463 722 
L 3463 178 
Q 3153 47 2828 -22 
Q 2503 -91 2169 -91 
Q 1331 -91 842 396 
Q 353 884 353 1716 
Q 353 2575 817 3079 
Q 1281 3584 2069 3584 
Q 2775 3584 3186 3129 
Q 3597 2675 3597 1894 
z
M 3022 2063 
Q 3016 2534 2758 2815 
Q 2500 3097 2075 3097 
Q 1594 3097 1305 2825 
Q 1016 2553 972 2059 
L 3022 2063 
z
" transform="scale(0.015625)"/>
       <path id="DejaVuSans-20" transform="scale(0.015625)"/>
       <path id="DejaVuSans-28" d="M 1984 4856 
Q 1566 4138 1362 3434 
Q 1159 2731 1159 2009 
Q 1159 1288 1364 580 
Q 1569 -128 1984 -844 
L 1484 -844 
Q 1016 -109 783 600 
Q 550 1309 550 2009 
Q 550 2706 781 3412 
Q 1013 4119 1484 4856 
L 1984 4856 
z
" transform="scale(0.015625)"/>
       <path id="DejaVuSans-73" d="M 2834 3397 
L 2834 2853 
Q 2591 2978 2328 3040 
Q 2066 3103 1784 3103 
Q 1356 3103 1142 2972 
Q 928 2841 928 2578 
Q 928 2378 1081 2264 
Q 1234 2150 1697 2047 
L 1894 2003 
Q 2506 1872 2764 1633 
Q 3022 1394 3022 966 
Q 3022 478 2636 193 
Q 2250 -91 1575 -91 
Q 1294 -91 989 -36 
Q 684 19 347 128 
L 347 722 
Q 666 556 975 473 
Q 1284 391 1588 391 
Q 1994 391 2212 530 
Q 2431 669 2431 922 
Q 2431 1156 2273 1281 
Q 2116 1406 1581 1522 
L 1381 1569 
Q 847 1681 609 1914 
Q 372 2147 372 2553 
Q 372 3047 722 3315 
Q 1072 3584 1716 3584 
Q 2034 3584 2315 3537 
Q 2597 3491 2834 3397 
z
" transform="scale(0.015625)"/>
       <path id="DejaVuSans-29" d="M 513 4856 
L 1013 4856 
Q 1481 4119 1714 3412 
Q 1947 2706 1947 2009 
Q 1947 1309 1714 600 
Q 1481 -109 1013 -844 
L 513 -844 
Q 928 -128 1133 580 
Q 1338 1288 1338 2009 
Q 1338 2731 1133 3434 
Q 928 4138 513 4856 
z
" transform="scale(0.015625)"/>
      </defs>
      <use xlink:href="#DejaVuSans-54"/>
      <use xlink:href="#DejaVuSans-69" x="57.958984"/>
      <use xlink:href="#DejaVuSans-6d" x="85.742188"/>
      <use xlink:href="#DejaVuSans-65" x="183.154297"/>
      <use xlink:href="#DejaVuSans-20" x="244.677734"/>
      <use xlink:href="#DejaVuSans-28" x="276.464844"/>
      <use xlink:href="#DejaVuSans-73" x="315.478516"/>
      <use xlink:href="#DejaVuSans-29" x="367.578125"/>
     </g>
    </g>
   </g>
   <g id="matplotlib.axis_2">
    <g id="ytick_1">
     <g id="line2d_8">
      <defs>
       <path id="m53dc725515" d="M 0 0 
L -3.5 0 
" style="stroke: #000000; stroke-width: 0.8"/>
      </defs>
      <g>
       <use xlink:href="#m53dc725515" x="52.160938" y="173.880214" style="stroke: #000000; stroke-width: 0.8"/>
      </g>
     </g>
     <g id="text_9">
      <!-- −0.6 -->
      <g transform="translate(20.878125 177.679433) scale(0.1 -0.1)">
       <defs>
        <path id="DejaVuSans-2212" d="M 678 2272 
L 4684 2272 
L 4684 1741 
L 678 1741 
L 678 2272 
z
" transform="scale(0.015625)"/>
        <path id="DejaVuSans-36" d="M 2113 2584 
Q 1688 2584 1439 2293 
Q 1191 2003 1191 1497 
Q 1191 994 1439 701 
Q 1688 409 2113 409 
Q 2538 409 2786 701 
Q 3034 994 3034 1497 
Q 3034 2003 2786 2293 
Q 2538 2584 2113 2584 
z
M 3366 4563 
L 3366 3988 
Q 3128 4100 2886 4159 
Q 2644 4219 2406 4219 
Q 1781 4219 1451 3797 
Q 1122 3375 1075 2522 
Q 1259 2794 1537 2939 
Q 1816 3084 2150 3084 
Q 2853 3084 3261 2657 
Q 3669 2231 3669 1497 
Q 3669 778 3244 343 
Q 2819 -91 2113 -91 
Q 1303 -91 875 529 
Q 447 1150 447 2328 
Q 447 3434 972 4092 
Q 1497 4750 2381 4750 
Q 2619 4750 2861 4703 
Q 3103 4656 3366 4563 
z
" transform="scale(0.015625)"/>
       </defs>
       <use xlink:href="#DejaVuSans-2212"/>
       <use xlink:href="#DejaVuSans-30" x="83.789062"/>
       <use xlink:href="#DejaVuSans-2e" x="147.412109"/>
       <use xlink:href="#DejaVuSans-36" x="179.199219"/>
      </g>
     </g>
    </g>
    <g id="ytick_2">
     <g id="line2d_9">
      <g>
       <use xlink:href="#m53dc725515" x="52.160938" y="150.236585" style="stroke: #000000; stroke-width: 0.8"/>
      </g>
     </g>
     <g id="text_10">
      <!-- −0.4 -->
      <g transform="translate(20.878125 154.035804) scale(0.1 -0.1)">
       <use xlink:href="#DejaVuSans-2212"/>
       <use xlink:href="#DejaVuSans-30" x="83.789062"/>
       <use xlink:href="#DejaVuSans-2e" x="147.412109"/>
       <use xlink:href="#DejaVuSans-34" x="179.199219"/>
      </g>
     </g>
    </g>
    <g id="ytick_3">
     <g id="line2d_10">
      <g>
       <use xlink:href="#m53dc725515" x="52.160938" y="126.592957" style="stroke: #000000; stroke-width: 0.8"/>
      </g>
     </g>
     <g id="text_11">
      <!-- −0.2 -->
      <g transform="translate(20.878125 130.392176) scale(0.1 -0.1)">
       <use xlink:href="#DejaVuSans-2212"/>
       <use xlink:href="#DejaVuSans-30" x="83.789062"/>
       <use xlink:href="#DejaVuSans-2e" x="147.412109"/>
       <use xlink:href="#DejaVuSans-32" x="179.199219"/>
      </g>
     </g>
    </g>
    <g id="ytick_4">
     <g id="line2d_11">
      <g>
       <use xlink:href="#m53dc725515" x="52.160938" y="102.949328" style="stroke: #000000; stroke-width: 0.8"/>
      </g>
     </g>
     <g id="text_12">
      <!-- 0.0 -->
      <g transform="translate(29.257813 106.748547) scale(0.1 -0.1)">
       <use xlink:href="#DejaVuSans-30"/>
       <use xlink:href="#DejaVuSans-2e" x="63.623047"/>
       <use xlink:href="#DejaVuSans-30" x="95.410156"/>
      </g>
     </g>
    </g>
    <g id="ytick_5">
     <g id="line2d_12">
      <g>
       <use xlink:href="#m53dc725515" x="52.160938" y="79.3057" style="stroke: #000000; stroke-width: 0.8"/>
      </g>
     </g>
     <g id="text_13">
      <!-- 0.2 -->
      <g transform="translate(29.257813 83.104918) scale(0.1 -0.1)">
       <use xlink:href="#DejaVuSans-30"/>
       <use xlink:href="#DejaVuSans-2e" x="63.623047"/>
       <use xlink:href="#DejaVuSans-32" x="95.410156"/>
      </g>
     </g>
    </g>
    <g id="ytick_6">
     <g id="line2d_13">
      <g>
       <use xlink:href="#m53dc725515" x="52.160938" y="55.662071" style="stroke: #000000; stroke-width: 0.8"/>
      </g>
     </g>
     <g id="text_14">
      <!-- 0.4 -->
      <g transform="translate(29.257813 59.46129) scale(0.1 -0.1)">
       <use xlink:href="#DejaVuSans-30"/>
       <use xlink:href="#DejaVuSans-2e" x="63.623047"/>
       <use xlink:href="#DejaVuSans-34" x="95.410156"/>
      </g>
     </g>
    </g>
    <g id="ytick_7">
     <g id="line2d_14">
      <g>
       <use xlink:href="#m53dc725515" x="52.160938" y="32.018443" style="stroke: #000000; stroke-width: 0.8"/>
      </g>
     </g>
     <g id="text_15">
      <!-- 0.6 -->
      <g transform="translate(29.257813 35.817661) scale(0.1 -0.1)">
       <use xlink:href="#DejaVuSans-30"/>
       <use xlink:href="#DejaVuSans-2e" x="63.623047"/>
       <use xlink:href="#DejaVuSans-36" x="95.410156"/>
      </g>
     </g>
    </g>
    <g id="text_16">
     <!-- Hip Moment (N-m/kg) -->
     <g transform="translate(14.798438 159.499219) rotate(-90) scale(0.1 -0.1)">
      <defs>
       <path id="DejaVuSans-48" d="M 628 4666 
L 1259 4666 
L 1259 2753 
L 3553 2753 
L 3553 4666 
L 4184 4666 
L 4184 0 
L 3553 0 
L 3553 2222 
L 1259 2222 
L 1259 0 
L 628 0 
L 628 4666 
z
" transform="scale(0.015625)"/>
       <path id="DejaVuSans-70" d="M 1159 525 
L 1159 -1331 
L 581 -1331 
L 581 3500 
L 1159 3500 
L 1159 2969 
Q 1341 3281 1617 3432 
Q 1894 3584 2278 3584 
Q 2916 3584 3314 3078 
Q 3713 2572 3713 1747 
Q 3713 922 3314 415 
Q 2916 -91 2278 -91 
Q 1894 -91 1617 61 
Q 1341 213 1159 525 
z
M 3116 1747 
Q 3116 2381 2855 2742 
Q 2594 3103 2138 3103 
Q 1681 3103 1420 2742 
Q 1159 2381 1159 1747 
Q 1159 1113 1420 752 
Q 1681 391 2138 391 
Q 2594 391 2855 752 
Q 3116 1113 3116 1747 
z
" transform="scale(0.015625)"/>
       <path id="DejaVuSans-4d" d="M 628 4666 
L 1569 4666 
L 2759 1491 
L 3956 4666 
L 4897 4666 
L 4897 0 
L 4281 0 
L 4281 4097 
L 3078 897 
L 2444 897 
L 1241 4097 
L 1241 0 
L 628 0 
L 628 4666 
z
" transform="scale(0.015625)"/>
       <path id="DejaVuSans-6f" d="M 1959 3097 
Q 1497 3097 1228 2736 
Q 959 2375 959 1747 
Q 959 1119 1226 758 
Q 1494 397 1959 397 
Q 2419 397 2687 759 
Q 2956 1122 2956 1747 
Q 2956 2369 2687 2733 
Q 2419 3097 1959 3097 
z
M 1959 3584 
Q 2709 3584 3137 3096 
Q 3566 2609 3566 1747 
Q 3566 888 3137 398 
Q 2709 -91 1959 -91 
Q 1206 -91 779 398 
Q 353 888 353 1747 
Q 353 2609 779 3096 
Q 1206 3584 1959 3584 
z
" transform="scale(0.015625)"/>
       <path id="DejaVuSans-6e" d="M 3513 2113 
L 3513 0 
L 2938 0 
L 2938 2094 
Q 2938 2591 2744 2837 
Q 2550 3084 2163 3084 
Q 1697 3084 1428 2787 
Q 1159 2491 1159 1978 
L 1159 0 
L 581 0 
L 581 3500 
L 1159 3500 
L 1159 2956 
Q 1366 3272 1645 3428 
Q 1925 3584 2291 3584 
Q 2894 3584 3203 3211 
Q 3513 2838 3513 2113 
z
" transform="scale(0.015625)"/>
       <path id="DejaVuSans-74" d="M 1172 4494 
L 1172 3500 
L 2356 3500 
L 2356 3053 
L 1172 3053 
L 1172 1153 
Q 1172 725 1289 603 
Q 1406 481 1766 481 
L 2356 481 
L 2356 0 
L 1766 0 
Q 1100 0 847 248 
Q 594 497 594 1153 
L 594 3053 
L 172 3053 
L 172 3500 
L 594 3500 
L 594 4494 
L 1172 4494 
z
" transform="scale(0.015625)"/>
       <path id="DejaVuSans-4e" d="M 628 4666 
L 1478 4666 
L 3547 763 
L 3547 4666 
L 4159 4666 
L 4159 0 
L 3309 0 
L 1241 3903 
L 1241 0 
L 628 0 
L 628 4666 
z
" transform="scale(0.015625)"/>
       <path id="DejaVuSans-2d" d="M 313 2009 
L 1997 2009 
L 1997 1497 
L 313 1497 
L 313 2009 
z
" transform="scale(0.015625)"/>
       <path id="DejaVuSans-2f" d="M 1625 4666 
L 2156 4666 
L 531 -594 
L 0 -594 
L 1625 4666 
z
" transform="scale(0.015625)"/>
       <path id="DejaVuSans-6b" d="M 581 4863 
L 1159 4863 
L 1159 1991 
L 2875 3500 
L 3609 3500 
L 1753 1863 
L 3688 0 
L 2938 0 
L 1159 1709 
L 1159 0 
L 581 0 
L 581 4863 
z
" transform="scale(0.015625)"/>
       <path id="DejaVuSans-67" d="M 2906 1791 
Q 2906 2416 2648 2759 
Q 2391 3103 1925 3103 
Q 1463 3103 1205 2759 
Q 947 2416 947 1791 
Q 947 1169 1205 825 
Q 1463 481 1925 481 
Q 2391 481 2648 825 
Q 2906 1169 2906 1791 
z
M 3481 434 
Q 3481 -459 3084 -895 
Q 2688 -1331 1869 -1331 
Q 1566 -1331 1297 -1286 
Q 1028 -1241 775 -1147 
L 775 -588 
Q 1028 -725 1275 -790 
Q 1522 -856 1778 -856 
Q 2344 -856 2625 -561 
Q 2906 -266 2906 331 
L 2906 616 
Q 2728 306 2450 153 
Q 2172 0 1784 0 
Q 1141 0 747 490 
Q 353 981 353 1791 
Q 353 2603 747 3093 
Q 1141 3584 1784 3584 
Q 2172 3584 2450 3431 
Q 2728 3278 2906 2969 
L 2906 3500 
L 3481 3500 
L 3481 434 
z
" transform="scale(0.015625)"/>
      </defs>
      <use xlink:href="#DejaVuSans-48"/>
      <use xlink:href="#DejaVuSans-69" x="75.195312"/>
      <use xlink:href="#DejaVuSans-70" x="102.978516"/>
      <use xlink:href="#DejaVuSans-20" x="166.455078"/>
      <use xlink:href="#DejaVuSans-4d" x="198.242188"/>
      <use xlink:href="#DejaVuSans-6f" x="284.521484"/>
      <use xlink:href="#DejaVuSans-6d" x="345.703125"/>
      <use xlink:href="#DejaVuSans-65" x="443.115234"/>
      <use xlink:href="#DejaVuSans-6e" x="504.638672"/>
      <use xlink:href="#DejaVuSans-74" x="568.017578"/>
      <use xlink:href="#DejaVuSans-20" x="607.226562"/>
      <use xlink:href="#DejaVuSans-28" x="639.013672"/>
      <use xlink:href="#DejaVuSans-4e" x="678.027344"/>
      <use xlink:href="#DejaVuSans-2d" x="752.832031"/>
      <use xlink:href="#DejaVuSans-6d" x="788.916016"/>
      <use xlink:href="#DejaVuSans-2f" x="886.328125"/>
      <use xlink:href="#DejaVuSans-6b" x="920.019531"/>
      <use xlink:href="#DejaVuSans-67" x="977.929688"/>
      <use xlink:href="#DejaVuSans-29" x="1041.40625"/>
     </g>
    </g>
   </g>
   <g id="line2d_15">
    <path d="M 49.769509 143.468877 
L 54.552366 132.991764 
L 56.943795 128.001406 
L 59.335223 123.308329 
L 61.726652 118.990017 
L 64.11808 115.10476 
L 66.509509 111.690984 
L 68.900938 108.767328 
L 71.292366 106.333346 
L 73.683795 104.370734 
L 76.075223 102.844974 
L 78.466652 101.707232 
L 80.85808 100.896383 
L 83.249509 100.341112 
L 88.032366 99.674161 
L 92.815223 99.015376 
L 95.206652 98.465374 
L 97.59808 97.653495 
L 99.989509 96.502113 
L 102.380938 94.945169 
L 104.772366 92.932257 
L 107.163795 90.432184 
L 109.555223 87.435631 
L 111.946652 83.956812 
L 114.33808 80.034161 
L 116.729509 75.730084 
L 121.512366 66.338581 
L 126.295223 56.686918 
L 128.686652 52.104028 
L 131.07808 47.874509 
L 133.469509 44.137452 
L 135.860938 41.020764 
L 138.252366 38.634953 
L 140.643795 37.06729 
L 143.035223 36.376625 
L 145.426652 36.589233 
L 147.81808 37.696162 
L 150.209509 39.652553 
L 152.600938 42.379335 
L 154.992366 45.767458 
L 157.383795 49.684566 
L 159.775223 53.983661 
L 169.340938 72.084659 
L 171.732366 76.226509 
L 174.123795 80.045988 
L 176.515223 83.49983 
L 178.906652 86.56644 
L 181.29808 89.243174 
L 183.689509 91.542896 
L 186.080938 93.489969 
L 188.472366 95.116024 
L 190.863795 96.456054 
L 193.255223 97.545324 
L 195.646652 98.417285 
L 198.03808 99.102376 
L 200.429509 99.62747 
L 202.820938 100.015833 
L 207.603795 100.461152 
L 212.386652 100.587376 
L 221.952366 100.65048 
L 224.343795 100.81959 
L 226.735223 101.127249 
L 229.126652 101.61102 
L 231.51808 102.303207 
L 233.909509 103.227088 
L 236.300938 104.393053 
L 238.692366 105.79544 
L 241.083795 107.410927 
L 245.866652 111.105939 
L 253.040938 116.914268 
L 257.823795 120.354232 
L 262.606652 123.324557 
L 267.389509 126.161288 
L 269.780938 127.723753 
L 272.172366 129.503489 
L 274.563795 131.584362 
L 276.955223 134.031296 
L 279.346652 136.880764 
L 281.73808 140.134347 
L 284.129509 143.756367 
L 288.912366 151.791468 
L 293.695223 160.106482 
L 296.086652 164.029869 
L 298.47808 167.615464 
L 300.869509 170.739948 
L 303.260938 173.297099 
L 305.652366 175.201304 
L 308.043795 176.389378 
L 310.435223 176.820934 
L 312.826652 176.47773 
L 315.21808 175.362503 
L 317.609509 173.497845 
L 320.000938 170.925409 
L 322.392366 167.705384 
L 324.783795 163.915807 
L 327.175223 159.651158 
L 329.566652 155.019869 
L 341.523795 130.619877 
L 343.915223 126.307856 
L 346.306652 122.40164 
L 348.69808 118.95371 
L 351.089509 115.99154 
L 353.480938 113.517479 
L 355.872366 111.510128 
L 358.263795 109.9269 
L 360.655223 108.707422 
L 363.046652 107.77742 
L 367.829509 106.443118 
L 372.612366 105.197281 
L 375.003795 104.378193 
L 377.395223 103.313864 
L 379.786652 101.928502 
L 382.17808 100.158375 
L 384.569509 97.955277 
L 386.960938 95.289703 
L 389.352366 92.153416 
L 391.743795 88.561185 
L 394.135223 84.551556 
L 396.526652 80.186575 
L 401.309509 70.746883 
L 406.092366 61.128763 
L 408.483795 56.583116 
L 410.875223 52.396712 
L 413.266652 48.701316 
L 415.65808 45.61634 
L 418.049509 43.242719 
L 420.440938 41.657367 
L 422.832366 40.908674 
L 425.223795 41.013477 
L 427.615223 41.955845 
L 430.006652 43.687888 
L 432.39808 46.132639 
L 434.789509 49.188947 
L 437.180938 52.738071 
L 439.572366 56.651406 
L 451.529509 77.433528 
L 453.920938 81.169108 
L 456.312366 84.624522 
L 458.703795 87.773513 
L 461.095223 90.603169 
L 463.486652 93.11126 
L 465.87808 95.303387 
L 468.269509 97.190086 
L 470.660938 98.784177 
L 473.052366 100.098703 
L 475.443795 101.145763 
L 477.835223 101.936277 
L 480.226652 102.480474 
L 482.61808 102.788778 
L 485.009509 102.872933 
L 487.400938 102.747362 
L 489.792366 102.430798 
L 492.183795 101.948038 
L 496.966652 100.622203 
L 504.140938 98.473816 
L 506.532366 97.96223 
L 508.923795 97.665927 
L 511.315223 97.648785 
L 513.706652 97.96465 
L 516.09808 98.651319 
L 518.489509 99.724992 
L 520.880938 101.176128 
L 523.272366 102.967583 
L 525.663795 105.035526 
L 535.229509 114.14352 
L 537.620938 116.096516 
L 540.012366 117.737898 
L 542.403795 119.016552 
L 544.795223 119.915028 
L 547.186652 120.453299 
L 549.57808 120.689714 
L 559.143795 120.893136 
L 561.535223 121.47244 
L 563.926652 122.531553 
L 566.31808 124.156138 
L 568.709509 126.386444 
L 571.100938 129.212825 
L 573.492366 132.576373 
L 575.883795 136.374002 
L 585.449509 152.823688 
L 587.840938 156.384465 
L 590.232366 159.402763 
L 592.623795 161.756746 
L 595.015223 163.35725 
L 597.406652 164.150246 
L 599.79808 164.116561 
L 602.189509 163.269315 
L 604.580938 161.64987 
L 606.972366 159.323167 
L 609.363795 156.373129 
L 611.755223 152.898426 
L 614.146652 149.008565 
L 618.929509 140.452575 
L 623.712366 131.650484 
L 626.103795 127.434619 
L 628.495223 123.469781 
L 630.886652 119.833006 
L 633.27808 116.583166 
L 635.669509 113.759132 
L 638.060938 111.378903 
L 640.452366 109.43979 
L 642.843795 107.919592 
L 645.235223 106.778578 
L 647.626652 105.962044 
L 650.01808 105.403174 
L 654.800938 104.74794 
L 659.583795 104.142637 
L 661.975223 103.640536 
L 664.366652 102.893262 
L 666.75808 101.824461 
L 669.149509 100.368074 
L 671.540938 98.471668 
L 673.932366 96.099405 
L 676.323795 93.234393 
L 678.715223 89.880381 
L 681.106652 86.062725 
L 683.49808 81.828566 
L 685.889509 77.246153 
L 690.672366 67.404686 
L 695.455223 57.425015 
L 697.846652 52.706171 
L 700.23808 48.346583 
L 702.629509 44.475169 
L 705.020938 41.210293 
L 707.412366 38.654297 
L 709.803795 36.888269 
L 712.195223 35.96739 
L 714.586652 35.917302 
L 716.97808 36.73198 
L 719.369509 38.37354 
L 721.760937 40.774243 
L 724.152366 43.840723 
L 726.543795 47.460081 
L 728.935223 51.507158 
L 733.71808 60.367254 
L 738.500937 69.441253 
L 743.283795 77.928729 
L 745.675223 81.769288 
L 748.066652 85.275919 
L 750.45808 88.419651 
L 752.849509 91.186184 
L 755.240938 93.574106 
L 757.632366 95.592589 
L 760.023795 97.258961 
L 762.415223 98.596537 
L 764.806652 99.632956 
L 767.19808 100.398983 
L 769.589509 100.927607 
L 771.980937 101.253366 
L 774.372366 101.411978 
L 779.155223 101.376786 
L 786.329509 101.047293 
L 788.720938 101.037493 
L 791.112366 101.152324 
L 793.503795 101.433958 
L 795.895223 101.919526 
L 798.286652 102.638268 
L 800.67808 103.608543 
L 803.069509 104.834977 
L 805.460938 106.306173 
L 807.852366 107.993543 
L 812.635223 111.821852 
L 817.41808 115.82022 
L 819.809509 117.710698 
L 822.200938 119.451869 
L 824.592366 121.007702 
L 826.983795 122.365829 
L 829.375223 123.540606 
L 834.15808 125.532463 
L 838.940938 127.59019 
L 841.332366 128.893667 
L 843.723795 130.510194 
L 846.115223 132.515392 
L 848.506652 134.955369 
L 850.89808 137.840187 
L 853.289509 141.141393 
L 855.680937 144.793565 
L 860.463795 152.73447 
L 865.246652 160.624236 
L 867.63808 164.18036 
L 870.029509 167.288022 
L 872.420938 169.8244 
L 874.812366 171.689447 
L 877.203795 172.809711 
L 879.595223 173.140055 
L 881.986652 172.663545 
L 884.37808 171.389977 
L 886.769509 169.353512 
L 889.160938 166.609878 
L 891.552366 163.233445 
L 891.552366 163.233445 
" clip-path="url(#pac39435b4f)" style="fill: none; stroke-dasharray: 5.55,2.4; stroke-dashoffset: 0; stroke: #000000; stroke-width: 1.5"/>
   </g>
   <g id="line2d_16">
    <path d="M 49.769509 127.942494 
L 54.552366 121.070408 
L 56.943795 118.85406 
L 59.335223 115.645875 
L 64.11808 108.492194 
L 68.900938 101.084078 
L 73.683795 95.233892 
L 76.075223 93.417701 
L 80.85808 90.961419 
L 83.249509 89.230679 
L 88.032366 86.669974 
L 90.423795 86.127902 
L 92.815223 84.331001 
L 97.59808 83.546276 
L 99.989509 82.525404 
L 104.772366 81.031136 
L 107.163795 81.272889 
L 109.555223 80.615089 
L 111.946652 79.556479 
L 114.33808 77.135545 
L 116.729509 74.409656 
L 119.120938 69.759513 
L 121.512366 65.62239 
L 123.903795 62.528549 
L 126.295223 57.967953 
L 128.686652 55.578409 
L 131.07808 52.672582 
L 133.469509 50.480047 
L 135.860938 48.977709 
L 138.252366 46.294254 
L 140.643795 42.061173 
L 143.035223 38.238253 
L 145.426652 35.775011 
L 147.81808 33.150373 
L 150.209509 31.966924 
L 152.600938 32.136952 
L 154.992366 36.363107 
L 157.383795 43.720222 
L 159.775223 50.05542 
L 164.55808 63.779551 
L 169.340938 73.784061 
L 171.732366 78.047913 
L 176.515223 86.039104 
L 178.906652 89.219926 
L 181.29808 91.140289 
L 183.689509 92.747752 
L 186.080938 93.950772 
L 188.472366 95.769751 
L 190.863795 95.920707 
L 193.255223 95.741803 
L 195.646652 94.632916 
L 198.03808 94.867427 
L 202.820938 94.451175 
L 205.212366 94.133116 
L 209.995223 94.319102 
L 212.386652 95.587878 
L 214.77808 96.539275 
L 219.560938 98.089616 
L 224.343795 98.869388 
L 229.126652 98.861034 
L 233.909509 100.328829 
L 236.300938 101.438996 
L 238.692366 101.716901 
L 241.083795 103.120289 
L 248.25808 108.844066 
L 250.649509 110.465626 
L 253.040938 112.351739 
L 255.432366 114.630475 
L 257.823795 118.55188 
L 260.215223 121.890191 
L 262.606652 123.1236 
L 264.99808 126.069787 
L 267.389509 127.968223 
L 269.780938 130.691352 
L 274.563795 134.991832 
L 276.955223 138.327549 
L 279.346652 140.716329 
L 284.129509 153.853428 
L 286.520938 158.126557 
L 288.912366 159.877061 
L 291.303795 160.099479 
L 293.695223 161.363362 
L 296.086652 161.355604 
L 298.47808 159.547179 
L 300.869509 159.000396 
L 303.260938 158.619967 
L 305.652366 157.328199 
L 312.826652 154.901235 
L 315.21808 153.994313 
L 317.609509 151.924402 
L 320.000938 148.728804 
L 322.392366 144.949597 
L 324.783795 140.632361 
L 327.175223 138.057899 
L 329.566652 134.979666 
L 331.95808 132.108289 
L 334.349509 128.768544 
L 336.740938 125.056321 
L 339.132366 121.882567 
L 341.523795 118.428411 
L 343.915223 114.256469 
L 346.306652 110.46677 
L 348.69808 106.251505 
L 351.089509 102.837849 
L 355.872366 97.74131 
L 358.263795 95.529314 
L 360.655223 93.734596 
L 363.046652 92.851526 
L 365.43808 90.60939 
L 367.829509 88.01953 
L 370.220938 86.323264 
L 372.612366 85.309098 
L 375.003795 83.414174 
L 377.395223 81.950098 
L 379.786652 80.939015 
L 384.569509 79.447107 
L 386.960938 79.018127 
L 389.352366 78.073051 
L 391.743795 76.959291 
L 394.135223 75.232169 
L 396.526652 73.277552 
L 398.91808 70.267869 
L 401.309509 64.96239 
L 403.700938 60.935612 
L 406.092366 58.365378 
L 408.483795 57.32898 
L 410.875223 55.142885 
L 413.266652 53.19731 
L 415.65808 51.017916 
L 418.049509 50.212934 
L 420.440938 46.676505 
L 422.832366 42.089788 
L 425.223795 35.979736 
L 427.615223 32.743192 
L 430.006652 31.264903 
L 432.39808 32.254239 
L 434.789509 35.475703 
L 437.180938 42.043029 
L 439.572366 47.555653 
L 441.963795 52.588072 
L 444.355223 58.075766 
L 446.746652 63.105127 
L 449.13808 68.471973 
L 456.312366 79.671107 
L 458.703795 83.713817 
L 461.095223 86.285988 
L 465.87808 90.289223 
L 468.269509 92.927402 
L 470.660938 94.448756 
L 473.052366 95.195486 
L 480.226652 95.976119 
L 482.61808 95.333556 
L 487.400938 94.656733 
L 489.792366 94.297612 
L 492.183795 94.627286 
L 494.575223 95.843291 
L 496.966652 96.488274 
L 499.35808 96.797049 
L 501.749509 96.990659 
L 504.140938 96.871014 
L 506.532366 96.332855 
L 508.923795 96.032901 
L 511.315223 96.887825 
L 513.706652 98.236601 
L 518.489509 98.456427 
L 520.880938 99.570089 
L 523.272366 101.571694 
L 525.663795 104.977443 
L 532.83808 115.899794 
L 535.229509 118.552034 
L 537.620938 121.553076 
L 540.012366 123.940307 
L 542.403795 127.125691 
L 544.795223 130.776997 
L 547.186652 134.798948 
L 549.57808 138.591544 
L 551.969509 139.095943 
L 554.360938 141.452352 
L 556.752366 142.032809 
L 559.143795 141.209514 
L 561.535223 141.506087 
L 563.926652 143.732258 
L 566.31808 146.881269 
L 568.709509 149.234979 
L 571.100938 151.308241 
L 573.492366 150.743289 
L 578.275223 150.879661 
L 580.666652 151.395006 
L 583.05808 152.109654 
L 585.449509 152.118479 
L 592.623795 152.757418 
L 595.015223 152.147715 
L 597.406652 151.075348 
L 599.79808 149.147354 
L 602.189509 145.779843 
L 604.580938 143.324148 
L 606.972366 139.711622 
L 609.363795 135.061661 
L 611.755223 131.739035 
L 616.53808 127.245666 
L 618.929509 124.307935 
L 621.320938 120.934771 
L 623.712366 118.749058 
L 626.103795 117.721293 
L 628.495223 114.843303 
L 633.27808 108.816782 
L 635.669509 105.931395 
L 638.060938 102.742902 
L 642.843795 97.368672 
L 645.235223 95.810659 
L 647.626652 93.801263 
L 650.01808 92.368379 
L 652.409509 90.616996 
L 654.800938 89.198065 
L 657.192366 87.955917 
L 659.583795 85.838716 
L 661.975223 84.012584 
L 664.366652 83.378423 
L 666.75808 82.629197 
L 669.149509 81.386922 
L 671.540938 79.431769 
L 673.932366 78.287315 
L 676.323795 77.618033 
L 678.715223 76.285346 
L 681.106652 73.710843 
L 683.49808 69.773543 
L 685.889509 66.358318 
L 688.280937 61.044661 
L 690.672366 56.5663 
L 693.063795 54.593756 
L 695.455223 53.460371 
L 697.846652 51.930535 
L 700.23808 50.631906 
L 702.629509 50.613248 
L 705.020938 50.835025 
L 707.412366 49.698864 
L 712.195223 40.774538 
L 714.586652 38.366011 
L 716.97808 34.734068 
L 719.369509 32.692205 
L 721.760937 34.621411 
L 726.543795 46.573378 
L 731.326652 56.848281 
L 738.500937 72.784624 
L 740.892366 76.8661 
L 745.675223 83.921906 
L 748.066652 87.092937 
L 750.45808 89.370761 
L 752.849509 91.032773 
L 755.240938 92.832765 
L 757.632366 94.473279 
L 760.023795 95.511751 
L 762.415223 95.166183 
L 771.980937 96.853322 
L 774.372366 96.509342 
L 776.763795 96.719313 
L 779.155223 96.70647 
L 781.546652 97.511646 
L 783.93808 98.694172 
L 786.329509 99.236651 
L 788.720938 99.356813 
L 791.112366 98.991969 
L 793.503795 98.431311 
L 795.895223 98.144605 
L 798.286652 97.62372 
L 800.67808 98.412829 
L 803.069509 99.712067 
L 805.460938 100.673689 
L 807.852366 102.190028 
L 810.243795 104.277122 
L 812.635223 106.998936 
L 819.809509 115.79425 
L 822.200938 118.377453 
L 824.592366 120.638481 
L 826.983795 124.380576 
L 829.375223 128.731308 
L 831.766652 134.102145 
L 834.15808 138.645311 
L 836.549509 138.185449 
L 838.940938 138.217855 
L 843.723795 137.641115 
L 846.115223 138.577156 
L 848.506652 140.373334 
L 850.89808 144.117757 
L 855.680937 152.724754 
L 858.072366 153.084904 
L 860.463795 155.217683 
L 862.855223 156.22622 
L 865.246652 156.703466 
L 870.029509 152.892778 
L 872.420938 153.005587 
L 874.812366 151.348793 
L 879.595223 146.765226 
L 884.37808 142.577393 
L 886.769509 139.885096 
L 889.160938 137.961939 
L 891.552366 135.427898 
L 891.552366 135.427898 
" clip-path="url(#pac39435b4f)" style="fill: none; stroke: #1f77b4; stroke-width: 1.5; stroke-linecap: square"/>
   </g>
   <g id="patch_3">
    <path d="M 52.160938 188.638125 
L 52.160938 22.318125 
" style="fill: none; stroke: #000000; stroke-width: 0.8; stroke-linejoin: miter; stroke-linecap: square"/>
   </g>
   <g id="patch_4">
    <path d="M 889.160938 188.638125 
L 889.160938 22.318125 
" style="fill: none; stroke: #000000; stroke-width: 0.8; stroke-linejoin: miter; stroke-linecap: square"/>
   </g>
   <g id="patch_5">
    <path d="M 52.160938 188.638125 
L 889.160938 188.638125 
" style="fill: none; stroke: #000000; stroke-width: 0.8; stroke-linejoin: miter; stroke-linecap: square"/>
   </g>
   <g id="patch_6">
    <path d="M 52.160938 22.318125 
L 889.160938 22.318125 
" style="fill: none; stroke: #000000; stroke-width: 0.8; stroke-linejoin: miter; stroke-linecap: square"/>
   </g>
   <g id="text_17">
    <!-- TCN GyroOnly (L) RMSE = 0.09 Nm/kg, R2 = 0.91 -->
    <g transform="translate(322.284688 16.318125) scale(0.12 -0.12)">
     <defs>
      <path id="DejaVuSans-43" d="M 4122 4306 
L 4122 3641 
Q 3803 3938 3442 4084 
Q 3081 4231 2675 4231 
Q 1875 4231 1450 3742 
Q 1025 3253 1025 2328 
Q 1025 1406 1450 917 
Q 1875 428 2675 428 
Q 3081 428 3442 575 
Q 3803 722 4122 1019 
L 4122 359 
Q 3791 134 3420 21 
Q 3050 -91 2638 -91 
Q 1578 -91 968 557 
Q 359 1206 359 2328 
Q 359 3453 968 4101 
Q 1578 4750 2638 4750 
Q 3056 4750 3426 4639 
Q 3797 4528 4122 4306 
z
" transform="scale(0.015625)"/>
      <path id="DejaVuSans-47" d="M 3809 666 
L 3809 1919 
L 2778 1919 
L 2778 2438 
L 4434 2438 
L 4434 434 
Q 4069 175 3628 42 
Q 3188 -91 2688 -91 
Q 1594 -91 976 548 
Q 359 1188 359 2328 
Q 359 3472 976 4111 
Q 1594 4750 2688 4750 
Q 3144 4750 3555 4637 
Q 3966 4525 4313 4306 
L 4313 3634 
Q 3963 3931 3569 4081 
Q 3175 4231 2741 4231 
Q 1884 4231 1454 3753 
Q 1025 3275 1025 2328 
Q 1025 1384 1454 906 
Q 1884 428 2741 428 
Q 3075 428 3337 486 
Q 3600 544 3809 666 
z
" transform="scale(0.015625)"/>
      <path id="DejaVuSans-79" d="M 2059 -325 
Q 1816 -950 1584 -1140 
Q 1353 -1331 966 -1331 
L 506 -1331 
L 506 -850 
L 844 -850 
Q 1081 -850 1212 -737 
Q 1344 -625 1503 -206 
L 1606 56 
L 191 3500 
L 800 3500 
L 1894 763 
L 2988 3500 
L 3597 3500 
L 2059 -325 
z
" transform="scale(0.015625)"/>
      <path id="DejaVuSans-72" d="M 2631 2963 
Q 2534 3019 2420 3045 
Q 2306 3072 2169 3072 
Q 1681 3072 1420 2755 
Q 1159 2438 1159 1844 
L 1159 0 
L 581 0 
L 581 3500 
L 1159 3500 
L 1159 2956 
Q 1341 3275 1631 3429 
Q 1922 3584 2338 3584 
Q 2397 3584 2469 3576 
Q 2541 3569 2628 3553 
L 2631 2963 
z
" transform="scale(0.015625)"/>
      <path id="DejaVuSans-4f" d="M 2522 4238 
Q 1834 4238 1429 3725 
Q 1025 3213 1025 2328 
Q 1025 1447 1429 934 
Q 1834 422 2522 422 
Q 3209 422 3611 934 
Q 4013 1447 4013 2328 
Q 4013 3213 3611 3725 
Q 3209 4238 2522 4238 
z
M 2522 4750 
Q 3503 4750 4090 4092 
Q 4678 3434 4678 2328 
Q 4678 1225 4090 567 
Q 3503 -91 2522 -91 
Q 1538 -91 948 565 
Q 359 1222 359 2328 
Q 359 3434 948 4092 
Q 1538 4750 2522 4750 
z
" transform="scale(0.015625)"/>
      <path id="DejaVuSans-6c" d="M 603 4863 
L 1178 4863 
L 1178 0 
L 603 0 
L 603 4863 
z
" transform="scale(0.015625)"/>
      <path id="DejaVuSans-4c" d="M 628 4666 
L 1259 4666 
L 1259 531 
L 3531 531 
L 3531 0 
L 628 0 
L 628 4666 
z
" transform="scale(0.015625)"/>
      <path id="DejaVuSans-52" d="M 2841 2188 
Q 3044 2119 3236 1894 
Q 3428 1669 3622 1275 
L 4263 0 
L 3584 0 
L 2988 1197 
Q 2756 1666 2539 1819 
Q 2322 1972 1947 1972 
L 1259 1972 
L 1259 0 
L 628 0 
L 628 4666 
L 2053 4666 
Q 2853 4666 3247 4331 
Q 3641 3997 3641 3322 
Q 3641 2881 3436 2590 
Q 3231 2300 2841 2188 
z
M 1259 4147 
L 1259 2491 
L 2053 2491 
Q 2509 2491 2742 2702 
Q 2975 2913 2975 3322 
Q 2975 3731 2742 3939 
Q 2509 4147 2053 4147 
L 1259 4147 
z
" transform="scale(0.015625)"/>
      <path id="DejaVuSans-53" d="M 3425 4513 
L 3425 3897 
Q 3066 4069 2747 4153 
Q 2428 4238 2131 4238 
Q 1616 4238 1336 4038 
Q 1056 3838 1056 3469 
Q 1056 3159 1242 3001 
Q 1428 2844 1947 2747 
L 2328 2669 
Q 3034 2534 3370 2195 
Q 3706 1856 3706 1288 
Q 3706 609 3251 259 
Q 2797 -91 1919 -91 
Q 1588 -91 1214 -16 
Q 841 59 441 206 
L 441 856 
Q 825 641 1194 531 
Q 1563 422 1919 422 
Q 2459 422 2753 634 
Q 3047 847 3047 1241 
Q 3047 1584 2836 1778 
Q 2625 1972 2144 2069 
L 1759 2144 
Q 1053 2284 737 2584 
Q 422 2884 422 3419 
Q 422 4038 858 4394 
Q 1294 4750 2059 4750 
Q 2388 4750 2728 4690 
Q 3069 4631 3425 4513 
z
" transform="scale(0.015625)"/>
      <path id="DejaVuSans-45" d="M 628 4666 
L 3578 4666 
L 3578 4134 
L 1259 4134 
L 1259 2753 
L 3481 2753 
L 3481 2222 
L 1259 2222 
L 1259 531 
L 3634 531 
L 3634 0 
L 628 0 
L 628 4666 
z
" transform="scale(0.015625)"/>
      <path id="DejaVuSans-3d" d="M 678 2906 
L 4684 2906 
L 4684 2381 
L 678 2381 
L 678 2906 
z
M 678 1631 
L 4684 1631 
L 4684 1100 
L 678 1100 
L 678 1631 
z
" transform="scale(0.015625)"/>
      <path id="DejaVuSans-39" d="M 703 97 
L 703 672 
Q 941 559 1184 500 
Q 1428 441 1663 441 
Q 2288 441 2617 861 
Q 2947 1281 2994 2138 
Q 2813 1869 2534 1725 
Q 2256 1581 1919 1581 
Q 1219 1581 811 2004 
Q 403 2428 403 3163 
Q 403 3881 828 4315 
Q 1253 4750 1959 4750 
Q 2769 4750 3195 4129 
Q 3622 3509 3622 2328 
Q 3622 1225 3098 567 
Q 2575 -91 1691 -91 
Q 1453 -91 1209 -44 
Q 966 3 703 97 
z
M 1959 2075 
Q 2384 2075 2632 2365 
Q 2881 2656 2881 3163 
Q 2881 3666 2632 3958 
Q 2384 4250 1959 4250 
Q 1534 4250 1286 3958 
Q 1038 3666 1038 3163 
Q 1038 2656 1286 2365 
Q 1534 2075 1959 2075 
z
" transform="scale(0.015625)"/>
      <path id="DejaVuSans-2c" d="M 750 794 
L 1409 794 
L 1409 256 
L 897 -744 
L 494 -744 
L 750 256 
L 750 794 
z
" transform="scale(0.015625)"/>
     </defs>
     <use xlink:href="#DejaVuSans-54"/>
     <use xlink:href="#DejaVuSans-43" x="55.208984"/>
     <use xlink:href="#DejaVuSans-4e" x="125.033203"/>
     <use xlink:href="#DejaVuSans-20" x="199.837891"/>
     <use xlink:href="#DejaVuSans-47" x="231.625"/>
     <use xlink:href="#DejaVuSans-79" x="309.115234"/>
     <use xlink:href="#DejaVuSans-72" x="368.294922"/>
     <use xlink:href="#DejaVuSans-6f" x="407.158203"/>
     <use xlink:href="#DejaVuSans-4f" x="468.339844"/>
     <use xlink:href="#DejaVuSans-6e" x="547.050781"/>
     <use xlink:href="#DejaVuSans-6c" x="610.429688"/>
     <use xlink:href="#DejaVuSans-79" x="638.212891"/>
     <use xlink:href="#DejaVuSans-20" x="697.392578"/>
     <use xlink:href="#DejaVuSans-28" x="729.179688"/>
     <use xlink:href="#DejaVuSans-4c" x="768.193359"/>
     <use xlink:href="#DejaVuSans-29" x="823.90625"/>
     <use xlink:href="#DejaVuSans-20" x="862.919922"/>
     <use xlink:href="#DejaVuSans-52" x="894.707031"/>
     <use xlink:href="#DejaVuSans-4d" x="964.189453"/>
     <use xlink:href="#DejaVuSans-53" x="1050.46875"/>
     <use xlink:href="#DejaVuSans-45" x="1113.945312"/>
     <use xlink:href="#DejaVuSans-20" x="1177.128906"/>
     <use xlink:href="#DejaVuSans-3d" x="1208.916016"/>
     <use xlink:href="#DejaVuSans-20" x="1292.705078"/>
     <use xlink:href="#DejaVuSans-30" x="1324.492188"/>
     <use xlink:href="#DejaVuSans-2e" x="1388.115234"/>
     <use xlink:href="#DejaVuSans-30" x="1419.902344"/>
     <use xlink:href="#DejaVuSans-39" x="1483.525391"/>
     <use xlink:href="#DejaVuSans-20" x="1547.148438"/>
     <use xlink:href="#DejaVuSans-4e" x="1578.935547"/>
     <use xlink:href="#DejaVuSans-6d" x="1653.740234"/>
     <use xlink:href="#DejaVuSans-2f" x="1751.152344"/>
     <use xlink:href="#DejaVuSans-6b" x="1784.84375"/>
     <use xlink:href="#DejaVuSans-67" x="1842.753906"/>
     <use xlink:href="#DejaVuSans-2c" x="1906.230469"/>
     <use xlink:href="#DejaVuSans-20" x="1938.017578"/>
     <use xlink:href="#DejaVuSans-52" x="1969.804688"/>
     <use xlink:href="#DejaVuSans-32" x="2039.287109"/>
     <use xlink:href="#DejaVuSans-20" x="2102.910156"/>
     <use xlink:href="#DejaVuSans-3d" x="2134.697266"/>
     <use xlink:href="#DejaVuSans-20" x="2218.486328"/>
     <use xlink:href="#DejaVuSans-30" x="2250.273438"/>
     <use xlink:href="#DejaVuSans-2e" x="2313.896484"/>
     <use xlink:href="#DejaVuSans-39" x="2345.683594"/>
     <use xlink:href="#DejaVuSans-31" x="2409.306641"/>
    </g>
   </g>
   <g id="legend_1">
    <g id="patch_7">
     <path d="M 786.667188 59.674375 
L 882.160938 59.674375 
Q 884.160938 59.674375 884.160938 57.674375 
L 884.160938 29.318125 
Q 884.160938 27.318125 882.160938 27.318125 
L 786.667188 27.318125 
Q 784.667188 27.318125 784.667188 29.318125 
L 784.667188 57.674375 
Q 784.667188 59.674375 786.667188 59.674375 
z
" style="fill: #ffffff; opacity: 0.8; stroke: #cccccc; stroke-linejoin: miter"/>
    </g>
    <g id="line2d_17">
     <path d="M 788.667188 35.416562 
L 798.667188 35.416562 
L 808.667188 35.416562 
" style="fill: none; stroke-dasharray: 5.55,2.4; stroke-dashoffset: 0; stroke: #000000; stroke-width: 1.5"/>
    </g>
    <g id="text_18">
     <!-- GT (L) -->
     <g transform="translate(816.667188 38.916562) scale(0.1 -0.1)">
      <use xlink:href="#DejaVuSans-47"/>
      <use xlink:href="#DejaVuSans-54" x="73.865234"/>
      <use xlink:href="#DejaVuSans-20" x="134.949219"/>
      <use xlink:href="#DejaVuSans-28" x="166.736328"/>
      <use xlink:href="#DejaVuSans-4c" x="205.75"/>
      <use xlink:href="#DejaVuSans-29" x="261.462891"/>
     </g>
    </g>
    <g id="line2d_18">
     <path d="M 788.667188 50.094687 
L 798.667188 50.094687 
L 808.667188 50.094687 
" style="fill: none; stroke: #1f77b4; stroke-width: 1.5; stroke-linecap: square"/>
    </g>
    <g id="text_19">
     <!-- Predicted (L) -->
     <g transform="translate(816.667188 53.594687) scale(0.1 -0.1)">
      <defs>
       <path id="DejaVuSans-50" d="M 1259 4147 
L 1259 2394 
L 2053 2394 
Q 2494 2394 2734 2622 
Q 2975 2850 2975 3272 
Q 2975 3691 2734 3919 
Q 2494 4147 2053 4147 
L 1259 4147 
z
M 628 4666 
L 2053 4666 
Q 2838 4666 3239 4311 
Q 3641 3956 3641 3272 
Q 3641 2581 3239 2228 
Q 2838 1875 2053 1875 
L 1259 1875 
L 1259 0 
L 628 0 
L 628 4666 
z
" transform="scale(0.015625)"/>
       <path id="DejaVuSans-64" d="M 2906 2969 
L 2906 4863 
L 3481 4863 
L 3481 0 
L 2906 0 
L 2906 525 
Q 2725 213 2448 61 
Q 2172 -91 1784 -91 
Q 1150 -91 751 415 
Q 353 922 353 1747 
Q 353 2572 751 3078 
Q 1150 3584 1784 3584 
Q 2172 3584 2448 3432 
Q 2725 3281 2906 2969 
z
M 947 1747 
Q 947 1113 1208 752 
Q 1469 391 1925 391 
Q 2381 391 2643 752 
Q 2906 1113 2906 1747 
Q 2906 2381 2643 2742 
Q 2381 3103 1925 3103 
Q 1469 3103 1208 2742 
Q 947 2381 947 1747 
z
" transform="scale(0.015625)"/>
       <path id="DejaVuSans-63" d="M 3122 3366 
L 3122 2828 
Q 2878 2963 2633 3030 
Q 2388 3097 2138 3097 
Q 1578 3097 1268 2742 
Q 959 2388 959 1747 
Q 959 1106 1268 751 
Q 1578 397 2138 397 
Q 2388 397 2633 464 
Q 2878 531 3122 666 
L 3122 134 
Q 2881 22 2623 -34 
Q 2366 -91 2075 -91 
Q 1284 -91 818 406 
Q 353 903 353 1747 
Q 353 2603 823 3093 
Q 1294 3584 2113 3584 
Q 2378 3584 2631 3529 
Q 2884 3475 3122 3366 
z
" transform="scale(0.015625)"/>
      </defs>
      <use xlink:href="#DejaVuSans-50"/>
      <use xlink:href="#DejaVuSans-72" x="58.552734"/>
      <use xlink:href="#DejaVuSans-65" x="97.416016"/>
      <use xlink:href="#DejaVuSans-64" x="158.939453"/>
      <use xlink:href="#DejaVuSans-69" x="222.416016"/>
      <use xlink:href="#DejaVuSans-63" x="250.199219"/>
      <use xlink:href="#DejaVuSans-74" x="305.179688"/>
      <use xlink:href="#DejaVuSans-65" x="344.388672"/>
      <use xlink:href="#DejaVuSans-64" x="405.912109"/>
      <use xlink:href="#DejaVuSans-20" x="469.388672"/>
      <use xlink:href="#DejaVuSans-28" x="501.175781"/>
      <use xlink:href="#DejaVuSans-4c" x="540.189453"/>
      <use xlink:href="#DejaVuSans-29" x="595.902344"/>
     </g>
    </g>
   </g>
  </g>
 </g>
 <defs>
  <clipPath id="pac39435b4f">
   <rect x="52.160938" y="22.318125" width="837" height="166.32"/>
  </clipPath>
 </defs>
</svg>
